<svg id="svg" version="1.1" xmlns="http://www.w3.org/2000/svg" xmlns:xlink="http://www.w3.org/1999/xlink" width="400" height="133.33333333333334" viewBox="0, 0, 400,133.33333333333334"><g id="svgg"><path id="path0" d="M129.922 55.375 C 129.826 55.667,127.622 64.634,127.003 67.250 C 126.463 69.528,126.349 69.983,124.576 76.917 C 123.966 79.300,123.324 81.850,123.149 82.583 C 122.010 87.344,119.465 97.684,117.876 104.000 C 115.632 112.922,115.464 113.641,115.580 113.828 C 115.748 114.099,135.907 114.064,136.128 113.792 C 136.221 113.677,136.386 113.133,136.494 112.583 C 136.602 112.033,137.065 110.121,137.524 108.333 C 140.168 98.027,140.743 95.737,141.112 94.026 C 141.336 92.986,141.609 91.861,141.718 91.526 L 141.918 90.917 154.741 90.874 C 161.794 90.850,167.627 90.893,167.703 90.969 C 167.778 91.045,166.565 96.193,165.007 102.408 C 163.449 108.624,162.214 113.775,162.263 113.855 C 162.373 114.032,187.168 114.052,187.163 113.875 C 187.161 113.806,186.369 113.380,185.404 112.929 C 181.519 111.112,178.771 108.280,177.516 104.799 C 176.340 101.539,176.407 98.647,177.785 93.167 C 178.349 90.921,179.005 88.221,179.242 87.167 C 179.478 86.112,180.201 83.150,180.848 80.583 C 181.495 78.017,182.085 75.654,182.160 75.333 C 184.332 65.979,189.111 60.282,198.101 56.332 C 199.191 55.853,200.155 55.394,200.243 55.313 C 200.336 55.226,195.465 55.182,188.504 55.207 L 176.605 55.250 176.387 56.083 C 176.268 56.542,175.865 58.229,175.493 59.833 C 173.941 66.523,171.574 75.625,171.298 75.958 C 171.163 76.122,168.500 76.167,159.012 76.167 L 146.898 76.167 145.895 76.875 C 144.711 77.710,140.386 81.317,138.835 82.761 C 135.258 86.093,132.357 88.579,132.214 88.436 C 132.038 88.261,132.404 87.645,135.263 83.309 C 139.906 76.266,143.905 70.164,146.094 66.783 C 146.913 65.517,148.154 63.605,148.851 62.533 C 151.738 58.094,153.333 55.541,153.333 55.360 C 153.333 55.068,130.017 55.083,129.922 55.375 M282.500 55.275 C 276.367 55.589,268.552 57.634,264.392 60.014 L 263.534 60.505 264.352 61.878 C 267.227 66.699,267.080 69.152,262.933 85.544 C 262.126 88.732,261.935 89.710,262.092 89.841 C 262.565 90.233,268.726 91.333,270.451 91.333 C 270.755 91.333,272.837 90.601,275.125 89.689 C 280.361 87.602,282.221 86.933,288.583 84.851 C 293.742 83.162,295.391 82.544,300.417 80.418 C 303.643 79.054,304.737 78.515,304.586 78.364 C 304.524 78.301,298.347 78.212,290.861 78.167 L 277.250 78.083 276.374 77.687 C 273.189 76.248,274.151 72.253,278.029 70.815 L 279.083 70.424 295.667 70.327 C 310.761 70.239,312.361 70.204,313.491 69.935 C 316.334 69.258,318.243 68.287,320.336 66.457 C 321.762 65.210,322.301 64.770,329.730 58.782 C 331.983 56.966,333.869 55.410,333.923 55.323 C 334.008 55.185,285.154 55.139,282.500 55.275 M342.153 55.344 C 339.838 55.685,337.239 56.893,335.142 58.605 C 334.257 59.326,331.936 61.192,329.983 62.750 C 328.030 64.308,326.053 65.927,325.591 66.346 C 325.128 66.766,324.037 67.673,323.167 68.363 C 322.296 69.053,321.440 69.778,321.266 69.975 L 320.948 70.333 331.479 70.333 C 340.677 70.333,342.023 70.365,342.106 70.583 C 342.187 70.792,339.811 80.589,338.005 87.500 C 337.729 88.554,336.898 91.892,336.158 94.917 C 334.310 102.474,332.233 110.831,331.833 112.322 C 331.650 113.003,331.500 113.660,331.500 113.780 C 331.500 114.024,351.241 114.114,351.597 113.872 C 351.696 113.805,352.056 112.625,352.397 111.250 C 352.738 109.875,353.088 108.487,353.175 108.167 C 353.318 107.638,354.530 102.670,356.853 93.083 C 357.320 91.158,357.767 89.358,357.847 89.083 C 358.110 88.182,359.698 81.803,360.275 79.333 C 360.586 78.004,361.058 76.017,361.325 74.917 C 361.592 73.817,361.902 72.429,362.013 71.833 C 362.312 70.227,361.970 70.334,366.812 70.330 C 375.072 70.324,374.909 70.394,382.455 63.583 C 383.268 62.850,385.148 61.173,386.633 59.856 C 388.118 58.539,389.333 57.414,389.333 57.356 C 389.333 57.298,387.315 57.250,384.847 57.250 C 379.635 57.250,379.789 57.315,380.578 55.458 C 380.714 55.140,344.278 55.032,342.153 55.344 M394.214 57.957 C 394.745 57.990,395.570 57.990,396.048 57.956 C 396.526 57.922,396.092 57.895,395.083 57.896 C 394.075 57.896,393.684 57.924,394.214 57.957 M143.460 91.618 C 143.668 91.658,143.968 91.656,144.127 91.615 C 144.286 91.573,144.117 91.540,143.750 91.542 C 143.383 91.544,143.253 91.578,143.460 91.618 M150.125 91.621 C 150.423 91.658,150.910 91.658,151.208 91.621 C 151.506 91.584,151.262 91.553,150.667 91.553 C 150.071 91.553,149.827 91.584,150.125 91.621 M155.208 91.619 C 155.460 91.658,155.873 91.658,156.125 91.619 C 156.377 91.581,156.171 91.550,155.667 91.550 C 155.162 91.550,154.956 91.581,155.208 91.619 M290.882 92.124 C 291.504 92.156,292.479 92.156,293.049 92.123 C 293.618 92.091,293.108 92.064,291.917 92.065 C 290.725 92.065,290.259 92.092,290.882 92.124 M295.458 92.122 C 295.848 92.157,296.485 92.157,296.875 92.122 C 297.265 92.087,296.946 92.058,296.167 92.058 C 295.387 92.058,295.069 92.087,295.458 92.122 M298.167 92.167 L 297.750 92.300 298.198 92.317 C 298.445 92.326,298.693 92.258,298.750 92.167 C 298.867 91.977,298.758 91.977,298.167 92.167 M271.127 92.285 C 271.334 92.324,271.634 92.323,271.794 92.281 C 271.953 92.239,271.783 92.207,271.417 92.209 C 271.050 92.211,270.920 92.245,271.127 92.285 M279.958 92.291 C 281.723 92.318,284.610 92.318,286.375 92.291 C 288.140 92.264,286.696 92.242,283.167 92.242 C 279.637 92.242,278.194 92.264,279.958 92.291 M233.463 92.789 C 233.855 92.824,234.455 92.824,234.796 92.788 C 235.137 92.752,234.817 92.723,234.083 92.724 C 233.350 92.724,233.071 92.754,233.463 92.789 M294.917 99.674 C 293.384 99.796,291.712 100.188,286.417 101.663 C 284.767 102.123,282.292 102.808,280.917 103.186 C 279.542 103.564,276.954 104.281,275.167 104.780 C 273.379 105.279,270.529 106.050,268.833 106.494 C 267.137 106.938,264.325 107.713,262.583 108.217 C 260.842 108.720,258.404 109.408,257.167 109.745 C 255.929 110.082,254.579 110.457,254.167 110.579 C 252.113 111.184,249.662 111.935,247.274 112.690 C 245.820 113.150,244.361 113.571,244.031 113.624 C 242.689 113.842,244.203 113.977,248.111 113.988 C 251.329 113.998,252.235 113.951,252.611 113.757 C 253.411 113.346,256.129 112.394,258.750 111.608 C 260.125 111.195,261.925 110.655,262.750 110.408 C 263.575 110.161,265.262 109.675,266.500 109.327 C 269.499 108.484,274.558 106.972,276.417 106.363 C 277.242 106.093,278.479 105.707,279.167 105.507 C 279.854 105.306,282.029 104.625,284.000 103.994 C 285.971 103.362,289.973 102.134,292.894 101.265 C 295.815 100.395,298.246 99.643,298.297 99.592 C 298.411 99.478,296.909 99.515,294.917 99.674 M238.208 113.618 C 237.803 113.696,237.687 114.000,238.063 114.000 C 238.595 114.000,239.321 113.782,239.237 113.646 C 239.145 113.497,238.874 113.489,238.208 113.618 M211.301 114.625 C 212.429 114.653,214.229 114.653,215.301 114.624 C 216.373 114.595,215.450 114.572,213.250 114.572 C 211.050 114.572,210.173 114.596,211.301 114.625 M283.458 114.623 C 284.031 114.656,284.969 114.656,285.542 114.623 C 286.115 114.591,285.646 114.564,284.500 114.564 C 283.354 114.564,282.885 114.591,283.458 114.623 M288.628 114.621 C 288.928 114.658,289.378 114.657,289.628 114.619 C 289.878 114.581,289.633 114.551,289.083 114.552 C 288.533 114.553,288.328 114.584,288.628 114.621 " stroke="none" fill="#060606" fill-rule="evenodd"></path><path id="path1" d="M49.138 18.847 C 35.122 19.796,20.959 28.652,12.108 42.000 C 10.179 44.908,9.805 45.547,8.502 48.156 C 3.150 58.865,1.984 70.608,5.109 82.333 C 9.012 96.982,22.417 107.638,42.219 111.834 C 49.686 113.416,54.911 113.702,75.083 113.634 L 89.917 113.583 87.917 112.402 C 86.817 111.753,85.413 110.928,84.796 110.569 C 84.180 110.210,81.968 108.914,79.880 107.688 C 77.792 106.462,75.146 104.918,74.000 104.257 C 67.735 100.641,61.363 96.889,59.744 95.863 C 59.067 95.434,57.967 94.748,57.298 94.339 C 51.713 90.916,46.888 87.043,44.227 83.843 C 43.003 82.371,42.978 82.424,45.607 80.924 L 47.882 79.627 51.649 80.326 C 58.835 81.659,60.135 81.737,62.823 80.992 C 71.673 78.539,75.635 68.943,71.447 60.102 C 70.530 58.167,70.469 58.130,69.794 59.096 C 65.981 64.559,59.244 71.061,53.917 74.420 C 51.807 75.750,47.783 77.695,46.946 77.788 C 44.192 78.097,37.474 74.696,36.664 72.583 C 32.686 62.209,44.657 43.087,58.500 37.705 C 67.189 34.327,74.075 34.419,88.250 38.104 C 90.908 38.795,94.921 39.833,97.167 40.411 C 101.185 41.444,108.098 43.241,108.750 43.422 C 109.330 43.583,115.488 37.832,119.819 33.083 C 124.005 28.494,131.667 19.264,131.667 18.811 C 131.667 18.631,51.815 18.665,49.138 18.847 M388.448 45.875 C 388.303 46.356,387.962 47.500,387.692 48.417 C 387.421 49.333,387.146 50.215,387.082 50.375 C 386.972 50.648,387.234 50.667,391.232 50.667 C 394.750 50.667,395.500 50.626,395.500 50.437 C 395.500 50.248,396.495 46.662,396.911 45.350 C 397.022 45.001,397.013 45.000,392.867 45.000 L 388.712 45.000 388.448 45.875 M378.752 49.330 C 378.696 49.420,378.512 49.889,378.343 50.372 C 378.173 50.855,377.980 51.384,377.914 51.547 C 377.802 51.824,377.926 51.841,379.682 51.797 L 381.570 51.750 381.934 50.552 C 382.134 49.893,382.256 49.311,382.205 49.260 C 382.040 49.096,378.857 49.160,378.752 49.330 M394.690 51.989 L 393.297 52.083 392.842 53.500 C 392.028 56.036,391.845 56.718,391.940 56.870 C 392.092 57.117,397.227 56.895,397.372 56.635 C 397.524 56.362,398.667 52.298,398.667 52.030 C 398.667 51.822,397.372 51.809,394.690 51.989 M107.744 55.042 C 107.701 55.156,107.647 61.587,107.625 69.333 L 107.583 83.415 106.917 83.533 C 106.550 83.598,104.112 83.732,101.500 83.831 C 98.888 83.930,96.487 84.065,96.167 84.131 L 95.583 84.250 95.583 98.833 L 95.583 113.417 96.500 113.460 C 97.721 113.517,97.792 113.450,98.422 111.643 C 99.546 108.417,101.478 103.050,101.832 102.167 C 102.035 101.662,102.798 99.563,103.527 97.500 C 104.257 95.438,105.196 92.850,105.614 91.750 C 106.300 89.944,107.056 87.830,109.938 79.667 C 110.440 78.246,111.141 76.296,111.497 75.333 C 112.913 71.499,114.202 67.925,115.583 64.000 C 115.890 63.129,116.527 61.367,117.000 60.083 C 117.848 57.781,118.833 54.987,118.833 54.885 C 118.833 54.700,107.814 54.856,107.744 55.042 M217.000 55.579 C 199.296 57.136,188.695 63.965,185.927 75.599 C 184.646 80.982,183.315 86.488,183.171 87.000 C 181.184 94.065,180.915 95.415,180.930 98.250 C 180.969 105.439,185.379 109.788,195.198 112.320 C 204.572 114.737,223.709 114.413,234.250 111.660 C 246.150 108.551,255.615 99.957,257.924 90.167 C 258.956 85.788,259.890 81.929,260.508 79.491 C 262.577 71.321,262.651 68.779,260.923 65.250 C 258.304 59.904,252.302 56.971,241.250 55.637 C 239.079 55.375,219.843 55.329,217.000 55.579 M242.312 68.916 C 246.656 70.503,246.417 75.868,241.902 78.106 L 240.720 78.691 227.051 78.674 C 211.915 78.654,212.693 78.594,212.303 79.815 L 212.031 80.667 218.390 80.682 C 238.725 80.732,236.683 80.841,237.851 79.649 C 238.719 78.763,239.010 78.975,238.407 80.054 L 237.972 80.833 238.694 80.832 C 239.092 80.831,240.240 80.643,241.247 80.415 C 244.086 79.771,243.954 79.589,243.143 83.022 C 242.222 86.920,241.245 88.103,237.889 89.378 L 236.917 89.747 223.250 89.783 L 209.583 89.819 209.208 90.778 C 209.002 91.306,208.833 91.759,208.833 91.786 C 208.833 92.003,236.029 91.804,236.560 91.583 C 238.185 90.903,241.284 90.997,241.079 91.718 C 239.612 96.901,234.707 100.268,227.333 101.153 C 225.164 101.413,200.951 101.428,200.001 101.169 C 198.221 100.685,197.181 99.742,196.732 98.206 C 196.436 97.195,196.393 97.474,197.616 92.500 C 198.123 90.438,198.670 88.150,198.831 87.417 C 198.992 86.683,199.440 84.883,199.826 83.417 C 200.212 81.950,200.664 80.225,200.832 79.583 C 202.726 72.329,202.864 71.974,204.309 70.622 C 205.147 69.839,206.415 69.107,207.583 68.732 C 208.843 68.328,241.171 68.500,242.312 68.916 M207.265 73.553 C 206.088 74.283,205.708 75.469,206.409 76.226 C 207.711 77.631,210.743 75.161,209.540 73.675 C 209.084 73.112,208.066 73.057,207.265 73.553 M213.239 74.409 C 212.891 74.942,213.048 75.167,213.771 75.167 C 214.466 75.167,215.000 74.913,215.000 74.583 C 215.000 73.937,213.637 73.803,213.239 74.409 M317.000 81.009 C 317.430 81.303,318.500 81.844,318.500 81.768 C 318.500 81.680,317.002 80.832,316.854 80.836 C 316.797 80.837,316.862 80.915,317.000 81.009 M318.667 81.894 C 318.667 81.940,318.892 82.138,319.167 82.333 C 319.442 82.529,319.667 82.652,319.667 82.606 C 319.667 82.560,319.442 82.362,319.167 82.167 C 318.892 81.971,318.667 81.848,318.667 81.894 M320.390 83.354 L 321.005 84.124 320.461 84.327 C 320.162 84.438,319.729 84.626,319.500 84.743 C 318.999 84.999,316.109 85.939,313.583 86.667 C 310.398 87.585,304.665 89.511,302.417 90.419 C 301.225 90.900,300.100 91.332,299.917 91.378 C 299.600 91.457,299.601 91.462,299.938 91.481 C 303.630 91.682,303.910 96.734,300.331 98.584 C 299.820 98.849,299.637 99.111,300.083 98.940 C 300.221 98.887,300.333 98.903,300.333 98.974 C 300.333 99.291,299.790 99.471,290.500 102.235 C 288.804 102.740,285.654 103.712,283.500 104.395 C 276.759 106.534,272.235 107.916,266.833 109.485 C 259.454 111.630,255.803 112.764,255.083 113.136 C 254.808 113.279,254.133 113.521,253.583 113.674 C 252.389 114.008,293.450 113.987,297.917 113.652 C 309.435 112.787,317.880 107.947,321.302 100.250 C 324.418 93.242,324.067 86.540,320.408 83.167 L 319.775 82.583 320.390 83.354 M204.530 83.771 C 202.708 84.700,202.784 87.167,204.634 87.167 C 206.295 87.167,207.868 84.853,206.840 83.923 C 206.375 83.502,205.208 83.425,204.530 83.771 M210.254 85.158 C 209.741 86.150,210.240 86.564,211.495 86.188 C 212.353 85.931,212.604 85.610,212.361 85.078 C 212.059 84.415,210.610 84.470,210.254 85.158 M281.048 91.457 C 281.578 91.490,282.403 91.490,282.881 91.456 C 283.359 91.422,282.925 91.395,281.917 91.396 C 280.908 91.396,280.517 91.424,281.048 91.457 M287.466 91.457 C 288.227 91.488,289.427 91.488,290.133 91.457 C 290.839 91.426,290.217 91.401,288.750 91.401 C 287.283 91.401,286.706 91.427,287.466 91.457 M202.077 93.598 C 200.078 94.632,200.695 97.377,202.750 96.592 C 204.182 96.045,204.898 94.695,204.207 93.841 C 203.823 93.368,202.759 93.246,202.077 93.598 M266.750 99.663 C 270.584 99.737,271.065 99.773,270.000 99.905 C 268.777 100.056,268.764 100.063,269.417 100.196 C 270.222 100.361,271.790 100.642,272.250 100.705 C 272.433 100.730,272.621 100.797,272.667 100.854 C 272.712 100.911,273.125 101.044,273.583 101.149 C 275.298 101.541,275.600 101.666,276.632 102.408 C 277.973 103.371,278.900 103.285,285.000 101.629 C 286.696 101.168,288.946 100.583,290.000 100.328 C 291.054 100.072,292.142 99.788,292.417 99.696 C 292.758 99.582,288.045 99.536,277.583 99.552 C 269.150 99.565,264.275 99.614,266.750 99.663 M261.654 100.107 L 261.250 100.548 261.708 100.255 C 261.960 100.094,262.167 99.895,262.167 99.814 C 262.167 99.588,262.091 99.631,261.654 100.107 " stroke="none" fill="#fca205" fill-rule="evenodd"></path><path id="path2" d="M48.221 18.173 C 46.355 18.326,44.333 18.675,44.333 18.845 C 44.333 18.913,43.940 19.004,43.458 19.046 C 42.157 19.160,37.722 20.416,36.225 21.095 C 35.936 21.226,35.652 21.333,35.594 21.333 C 35.448 21.333,32.780 22.650,30.678 23.758 C 27.959 25.193,25.065 27.193,21.417 30.160 C 19.386 31.811,13.800 37.948,13.106 39.289 C 12.968 39.556,12.726 39.881,12.567 40.012 C 12.035 40.452,9.460 44.588,8.321 46.833 C 6.922 49.590,6.503 50.516,6.069 51.817 C 5.836 52.513,5.580 53.233,5.499 53.417 C 4.621 55.400,3.673 58.993,3.227 62.020 C 2.908 64.186,2.709 74.669,2.976 75.250 C 3.060 75.433,3.216 76.371,3.323 77.333 C 3.557 79.447,4.233 82.583,4.525 82.908 C 4.603 82.995,4.667 83.237,4.667 83.444 C 4.667 83.652,4.773 84.068,4.903 84.369 C 5.450 85.638,5.638 86.119,5.835 86.750 C 6.043 87.417,6.420 88.196,6.761 88.667 C 6.861 88.804,7.098 89.303,7.289 89.776 C 7.617 90.591,9.422 93.446,9.930 93.953 C 10.060 94.084,10.167 94.255,10.167 94.333 C 10.167 94.412,10.260 94.575,10.375 94.697 C 10.490 94.818,10.869 95.292,11.219 95.750 C 12.527 97.464,17.435 102.167,17.915 102.167 C 18.019 102.167,18.320 102.392,18.583 102.667 C 18.847 102.942,19.122 103.167,19.195 103.167 C 19.348 103.167,20.887 104.161,21.500 104.656 C 21.729 104.841,21.971 104.994,22.037 104.996 C 22.103 104.998,22.728 105.337,23.426 105.750 C 24.123 106.162,24.794 106.500,24.917 106.500 C 25.039 106.500,25.164 106.557,25.194 106.626 C 25.225 106.695,25.775 107.001,26.417 107.306 C 27.058 107.611,27.796 107.967,28.055 108.097 C 28.315 108.227,28.629 108.333,28.754 108.333 C 28.879 108.333,29.230 108.480,29.535 108.660 C 29.839 108.840,30.612 109.146,31.252 109.341 C 31.893 109.536,32.567 109.789,32.750 109.904 C 33.433 110.329,38.542 111.833,39.708 111.952 C 40.144 111.996,40.500 112.100,40.500 112.183 C 40.500 112.266,40.660 112.333,40.856 112.333 C 41.052 112.333,42.158 112.529,43.314 112.767 C 46.157 113.354,48.715 113.692,50.917 113.773 C 51.925 113.810,52.900 113.911,53.083 113.996 C 54.069 114.455,90.725 114.675,91.175 114.225 C 91.513 113.887,91.165 113.334,90.362 112.932 C 89.330 112.417,88.810 112.118,87.417 111.242 C 86.775 110.839,85.818 110.280,85.289 110.001 C 84.761 109.721,83.921 109.232,83.422 108.913 C 82.924 108.594,82.463 108.333,82.399 108.333 C 82.334 108.333,82.049 108.158,81.766 107.945 C 81.482 107.731,80.762 107.302,80.167 106.990 C 79.571 106.679,79.046 106.375,79.000 106.315 C 78.954 106.255,78.467 105.963,77.917 105.668 C 77.367 105.372,76.504 104.886,76.000 104.587 C 75.496 104.288,74.746 103.844,74.333 103.602 C 73.921 103.360,73.471 103.090,73.333 103.004 C 72.547 102.508,70.057 101.035,69.913 100.981 C 69.695 100.899,67.407 99.584,66.750 99.163 C 66.475 98.987,65.950 98.682,65.583 98.485 C 65.217 98.289,64.804 98.032,64.667 97.915 C 64.529 97.797,63.892 97.427,63.250 97.092 C 62.608 96.757,61.893 96.355,61.661 96.200 C 61.428 96.044,60.989 95.767,60.684 95.583 C 60.379 95.400,59.894 95.084,59.607 94.881 C 59.319 94.678,58.671 94.283,58.167 94.003 C 56.950 93.327,55.052 92.103,54.607 91.706 C 54.411 91.531,53.688 91.022,53.000 90.575 C 52.313 90.127,51.645 89.659,51.516 89.534 C 51.388 89.409,50.863 88.997,50.350 88.618 C 47.062 86.193,43.572 82.333,44.667 82.333 C 44.850 82.333,45.000 82.273,45.000 82.200 C 45.000 82.126,45.319 81.901,45.708 81.698 C 46.098 81.496,46.717 81.147,47.083 80.922 C 47.785 80.493,49.070 80.357,49.627 80.654 C 49.891 80.794,51.232 81.040,54.678 81.579 C 55.371 81.687,56.023 81.828,56.127 81.892 C 56.325 82.015,61.066 82.040,61.917 81.923 C 63.196 81.747,65.358 81.030,65.742 80.655 C 65.829 80.570,66.029 80.500,66.186 80.500 C 66.343 80.500,66.497 80.439,66.528 80.363 C 66.558 80.288,67.033 79.923,67.583 79.552 C 70.513 77.576,72.895 74.069,73.601 70.693 C 74.006 68.758,73.810 63.645,73.310 63.092 C 73.231 63.005,73.166 62.817,73.166 62.675 C 73.165 62.533,73.064 62.224,72.941 61.989 C 72.819 61.754,72.667 61.341,72.605 61.072 C 72.403 60.199,70.948 57.506,70.622 57.402 C 70.228 57.278,69.856 57.611,69.048 58.811 C 67.320 61.379,63.903 65.187,60.518 68.317 C 58.976 69.743,58.405 70.217,56.396 71.740 C 53.674 73.804,53.484 73.922,50.167 75.609 C 49.112 76.145,48.225 76.640,48.194 76.708 C 48.164 76.777,47.962 76.833,47.746 76.833 C 47.530 76.833,47.307 76.908,47.250 77.000 C 47.193 77.092,46.856 77.167,46.500 77.167 C 46.144 77.167,45.807 77.092,45.750 77.000 C 45.693 76.908,45.393 76.833,45.083 76.833 C 44.773 76.833,44.479 76.767,44.428 76.686 C 44.378 76.604,44.079 76.489,43.764 76.430 C 42.436 76.181,38.318 73.758,37.651 72.833 C 36.382 71.073,36.716 63.308,38.176 60.627 C 38.262 60.468,38.333 60.234,38.333 60.108 C 38.333 59.981,38.676 59.137,39.095 58.231 C 39.818 56.668,39.982 56.342,40.847 54.750 C 41.046 54.383,41.557 53.596,41.983 53.000 C 42.409 52.404,42.885 51.717,43.039 51.473 C 43.194 51.230,43.514 50.822,43.749 50.568 C 43.985 50.314,44.269 49.939,44.380 49.735 C 45.153 48.322,48.486 44.777,50.404 43.329 C 50.915 42.942,51.333 42.575,51.333 42.511 C 51.333 42.447,51.577 42.269,51.875 42.115 C 52.489 41.798,52.866 41.568,53.583 41.072 C 53.858 40.882,54.496 40.501,55.000 40.226 C 55.504 39.951,56.217 39.553,56.583 39.341 C 57.252 38.956,58.007 38.667,60.333 37.908 C 61.021 37.684,61.842 37.415,62.158 37.311 C 67.070 35.689,73.659 35.576,80.417 36.999 C 81.333 37.192,82.346 37.388,82.667 37.435 C 82.987 37.482,83.400 37.583,83.583 37.660 C 83.983 37.827,87.018 38.576,88.417 38.854 C 88.967 38.963,89.488 39.116,89.575 39.193 C 89.662 39.270,89.904 39.333,90.113 39.333 C 90.322 39.333,91.038 39.515,91.705 39.737 C 92.371 39.959,93.500 40.261,94.213 40.406 C 94.926 40.552,95.826 40.782,96.213 40.917 C 96.600 41.051,97.079 41.163,97.278 41.164 C 97.476 41.166,97.664 41.224,97.694 41.295 C 97.725 41.365,98.500 41.596,99.417 41.809 C 102.911 42.619,103.254 42.708,103.408 42.852 C 103.495 42.933,103.815 43.000,104.119 43.000 C 104.423 43.000,104.801 43.075,104.961 43.167 C 105.243 43.330,107.722 43.946,108.781 44.115 C 109.091 44.165,109.446 44.107,109.633 43.975 C 111.211 42.867,118.515 35.814,120.551 33.432 C 120.935 32.982,121.659 32.170,122.159 31.627 C 123.256 30.435,123.359 30.314,124.417 28.997 C 124.875 28.425,125.362 27.834,125.500 27.682 C 125.638 27.531,126.087 26.997,126.499 26.495 C 126.911 25.994,127.330 25.508,127.429 25.417 C 127.668 25.195,129.930 22.379,131.539 20.300 C 132.615 18.909,132.800 18.582,132.658 18.317 C 132.479 17.983,52.199 17.846,48.221 18.173 M131.906 18.649 C 132.028 18.847,131.081 20.112,128.023 23.833 C 120.691 32.755,116.222 37.523,110.538 42.488 L 109.159 43.692 108.121 43.444 C 107.550 43.307,105.621 42.808,103.833 42.335 C 102.046 41.861,98.258 40.881,95.417 40.156 C 92.575 39.431,89.537 38.646,88.667 38.413 C 87.796 38.180,86.108 37.733,84.917 37.420 C 69.935 33.486,57.976 35.670,48.717 44.032 C 47.054 45.533,46.237 46.459,43.303 50.167 C 41.294 52.705,39.182 56.367,38.017 59.333 C 37.534 60.562,37.285 61.401,36.484 64.500 C 35.558 68.079,36.397 72.635,38.246 74.078 C 42.040 77.036,45.921 78.206,48.364 77.129 C 56.030 73.750,64.453 66.534,69.799 58.768 C 70.472 57.790,70.594 57.856,71.435 59.648 C 71.763 60.346,72.142 61.142,72.278 61.417 C 73.736 64.362,73.585 70.514,71.976 73.714 C 68.810 80.010,62.755 82.623,54.833 81.109 C 53.504 80.855,51.450 80.462,50.269 80.236 C 47.778 79.759,48.013 79.715,45.705 81.090 C 44.722 81.676,43.807 82.221,43.673 82.300 C 42.461 83.020,50.644 90.060,57.750 94.411 C 58.483 94.860,60.021 95.802,61.167 96.504 C 62.313 97.206,64.000 98.217,64.917 98.750 C 65.833 99.283,66.996 99.962,67.500 100.259 C 68.612 100.913,72.973 103.447,74.583 104.374 C 75.225 104.743,76.125 105.272,76.583 105.548 C 77.042 105.824,78.359 106.590,79.511 107.250 C 80.663 107.910,82.425 108.938,83.428 109.533 C 84.430 110.128,86.353 111.266,87.700 112.061 C 90.771 113.872,90.751 113.829,88.552 113.851 C 79.671 113.937,56.427 113.811,55.000 113.668 C 54.038 113.571,51.704 113.345,49.814 113.165 C 33.507 111.611,18.455 104.440,11.123 94.732 C 8.896 91.785,6.188 86.860,5.550 84.601 C 5.418 84.133,5.245 83.525,5.166 83.250 C 2.579 74.298,2.581 65.197,5.170 56.000 C 5.544 54.671,5.989 53.283,6.159 52.917 C 6.328 52.550,6.781 51.500,7.164 50.583 C 8.510 47.367,10.870 43.291,13.679 39.333 C 21.701 28.030,35.945 19.674,48.886 18.678 C 51.295 18.493,131.792 18.465,131.906 18.649 M388.972 44.289 C 387.910 44.373,387.803 44.562,386.917 47.917 C 386.772 48.467,386.462 49.353,386.228 49.887 C 385.542 51.455,385.635 51.500,389.546 51.500 C 392.050 51.500,392.674 51.543,392.547 51.708 C 392.207 52.148,391.358 55.333,391.217 56.694 C 391.106 57.761,391.228 57.802,394.643 57.849 C 397.979 57.895,397.921 57.920,398.410 56.250 C 399.045 54.082,399.193 53.659,399.689 52.595 C 399.843 52.263,399.818 52.089,399.552 51.636 L 399.226 51.083 397.724 51.132 L 396.222 51.181 396.289 50.632 C 396.326 50.330,396.420 49.933,396.499 49.750 C 396.577 49.567,396.680 49.229,396.727 49.000 C 396.773 48.771,396.972 48.058,397.169 47.417 C 397.365 46.775,397.566 46.045,397.615 45.793 C 397.664 45.542,397.754 45.368,397.815 45.406 C 398.016 45.530,397.897 44.694,397.676 44.428 C 397.467 44.176,391.575 44.082,388.972 44.289 M397.104 44.911 C 397.181 45.110,396.679 47.020,395.681 50.333 L 395.556 50.750 391.195 50.794 C 388.473 50.822,386.833 50.778,386.833 50.678 C 386.833 50.590,387.014 49.932,387.236 49.217 C 387.457 48.502,387.835 47.257,388.077 46.450 C 388.413 45.328,388.602 44.949,388.883 44.836 C 389.564 44.561,396.996 44.629,397.104 44.911 M378.109 48.638 C 377.957 48.806,377.833 49.054,377.833 49.190 C 377.833 49.325,377.723 49.582,377.589 49.760 C 377.454 49.938,377.342 50.215,377.339 50.375 C 377.336 50.535,377.270 50.667,377.193 50.667 C 377.116 50.667,376.954 50.966,376.834 51.333 C 376.444 52.513,376.751 52.667,379.494 52.667 C 382.128 52.667,382.139 52.662,382.716 51.250 C 383.900 48.350,383.889 48.333,380.736 48.333 C 378.670 48.333,378.352 48.370,378.109 48.638 M382.540 49.096 C 382.593 49.148,382.430 49.804,382.178 50.554 L 381.720 51.917 379.693 51.963 C 378.240 51.997,377.667 51.956,377.667 51.817 C 377.667 51.619,378.440 49.398,378.598 49.142 C 378.695 48.986,382.386 48.942,382.540 49.096 M398.793 52.292 C 398.699 53.078,397.663 56.679,397.451 56.958 C 397.267 57.201,392.234 57.257,391.862 57.021 C 391.605 56.859,391.689 56.477,392.604 53.632 L 393.179 51.848 394.381 51.790 C 395.042 51.759,396.322 51.718,397.226 51.700 L 398.868 51.667 398.793 52.292 M107.040 54.562 C 106.914 54.840,106.856 59.181,106.851 68.836 C 106.848 76.467,106.814 82.742,106.777 82.779 C 106.739 82.816,105.968 82.876,105.063 82.911 C 95.513 83.283,95.129 83.317,94.888 83.805 C 94.601 84.385,94.627 113.332,94.915 113.771 C 95.156 114.139,95.280 114.167,96.673 114.167 L 98.171 114.167 98.588 113.223 C 98.817 112.705,99.129 111.898,99.281 111.432 C 99.433 110.965,99.664 110.331,99.796 110.022 C 99.927 109.713,100.248 108.850,100.509 108.105 C 102.421 102.641,103.010 101.010,103.347 100.250 C 103.428 100.067,103.728 99.242,104.013 98.417 C 104.298 97.592,104.626 96.692,104.741 96.417 C 104.855 96.142,105.081 95.504,105.242 95.000 C 105.646 93.732,106.207 92.282,106.367 92.092 C 106.440 92.005,106.500 91.797,106.500 91.631 C 106.500 91.465,106.569 91.199,106.654 91.039 C 106.935 90.512,108.333 86.586,108.333 86.324 C 108.333 86.182,108.400 85.995,108.482 85.908 C 108.564 85.821,108.905 84.925,109.240 83.917 C 109.575 82.908,109.911 81.933,109.988 81.750 C 110.335 80.917,110.663 80.029,110.849 79.417 C 110.961 79.050,111.411 77.813,111.849 76.667 C 112.287 75.521,113.019 73.450,113.474 72.064 C 113.930 70.679,114.385 69.404,114.486 69.231 C 114.587 69.058,114.922 68.204,115.230 67.333 C 115.749 65.868,116.027 65.096,116.340 64.250 C 117.010 62.436,118.000 59.485,118.000 59.300 C 118.000 59.172,118.064 58.995,118.142 58.908 C 118.524 58.483,119.713 54.777,119.550 54.519 C 119.400 54.281,118.684 54.245,113.301 54.206 L 107.222 54.163 107.040 54.562 M129.930 54.427 C 129.798 54.559,129.610 54.667,129.512 54.667 C 129.414 54.667,129.333 54.850,129.333 55.073 C 129.333 55.297,129.258 55.527,129.167 55.583 C 129.075 55.640,129.000 55.940,129.000 56.250 C 129.000 56.560,128.925 56.860,128.833 56.917 C 128.742 56.973,128.667 57.273,128.667 57.583 C 128.667 57.893,128.592 58.193,128.500 58.250 C 128.408 58.307,128.333 58.569,128.333 58.833 C 128.333 59.098,128.264 59.356,128.180 59.409 C 128.095 59.461,127.974 59.990,127.910 60.585 C 127.847 61.180,127.728 61.667,127.647 61.667 C 127.566 61.667,127.500 61.843,127.500 62.058 C 127.500 62.475,127.253 63.347,126.965 63.945 C 126.870 64.143,126.792 64.501,126.792 64.739 C 126.792 64.978,126.726 65.213,126.646 65.263 C 126.566 65.312,126.500 65.530,126.500 65.746 C 126.500 65.962,126.432 66.164,126.349 66.194 C 126.266 66.225,126.173 66.475,126.141 66.750 C 126.110 67.025,126.036 67.287,125.976 67.333 C 125.916 67.379,125.823 67.821,125.770 68.316 C 125.717 68.811,125.565 69.381,125.432 69.583 C 125.300 69.785,125.138 70.505,125.073 71.183 C 125.008 71.862,124.882 72.604,124.795 72.833 C 124.708 73.063,124.605 73.438,124.567 73.667 C 124.444 74.416,123.965 76.408,123.815 76.798 C 123.734 77.008,123.620 77.591,123.561 78.094 C 123.501 78.598,123.389 79.049,123.310 79.098 C 123.231 79.147,123.167 79.402,123.167 79.667 C 123.167 79.931,123.100 80.188,123.018 80.239 C 122.937 80.289,122.830 80.575,122.780 80.873 C 122.731 81.172,122.606 81.754,122.501 82.167 C 122.397 82.579,122.218 83.329,122.103 83.833 C 121.988 84.337,121.849 84.862,121.794 85.000 C 121.739 85.137,121.649 85.459,121.592 85.715 C 121.536 85.971,121.417 86.135,121.328 86.080 C 121.239 86.025,121.167 86.168,121.167 86.397 C 121.167 86.626,121.084 86.865,120.982 86.928 C 120.868 86.998,120.836 87.286,120.899 87.678 C 120.957 88.038,120.928 88.358,120.834 88.416 C 120.742 88.473,120.667 88.703,120.667 88.927 C 120.667 89.150,120.582 89.333,120.479 89.333 C 120.359 89.333,120.328 89.516,120.394 89.845 C 120.454 90.146,120.403 90.541,120.270 90.803 C 120.146 91.049,119.953 91.662,119.841 92.167 C 119.729 92.671,119.557 93.383,119.458 93.750 C 119.295 94.357,119.254 94.634,119.188 95.552 C 119.176 95.717,119.103 95.813,119.024 95.765 C 118.946 95.717,118.878 95.881,118.873 96.130 C 118.864 96.544,118.602 97.873,118.190 99.583 C 118.102 99.950,117.941 100.700,117.831 101.250 C 117.722 101.800,117.533 102.475,117.412 102.750 C 117.291 103.025,117.142 103.617,117.082 104.066 C 117.022 104.515,116.912 105.003,116.838 105.149 C 116.765 105.296,116.540 106.092,116.338 106.917 C 116.137 107.742,115.903 108.442,115.819 108.472 C 115.735 108.503,115.667 108.788,115.667 109.107 C 115.667 109.482,115.603 109.647,115.485 109.574 C 115.365 109.500,115.321 109.652,115.355 110.023 C 115.389 110.396,115.338 110.569,115.203 110.542 C 115.025 110.505,114.924 111.085,114.955 111.957 C 114.959 112.070,114.907 112.129,114.839 112.087 C 114.719 112.013,114.465 112.743,114.259 113.756 C 114.075 114.661,114.147 114.667,125.959 114.667 L 136.644 114.667 136.994 114.175 C 137.187 113.905,137.380 113.323,137.423 112.883 C 137.466 112.443,137.535 111.933,137.575 111.750 C 137.710 111.142,138.174 109.099,138.429 108.000 C 138.567 107.404,138.772 106.490,138.886 105.968 C 138.999 105.446,139.146 104.965,139.212 104.899 C 139.279 104.832,139.333 104.564,139.333 104.303 C 139.333 104.042,139.403 103.699,139.488 103.539 C 139.675 103.190,140.500 99.857,140.500 99.451 C 140.500 99.292,140.568 99.032,140.651 98.873 C 140.870 98.453,141.672 95.712,141.833 94.833 C 141.909 94.421,142.084 93.746,142.223 93.333 C 142.362 92.921,142.500 92.433,142.529 92.250 C 142.644 91.543,142.599 91.546,154.833 91.587 C 161.296 91.609,166.628 91.636,166.682 91.647 C 166.839 91.678,166.296 94.514,165.992 95.250 C 165.916 95.433,165.771 96.033,165.669 96.583 C 165.567 97.133,165.440 97.808,165.387 98.083 C 165.335 98.358,165.224 98.669,165.141 98.773 C 165.058 98.877,164.875 99.477,164.734 100.106 C 164.411 101.542,164.077 102.888,163.830 103.750 C 163.725 104.117,163.599 104.623,163.551 104.875 C 163.502 105.127,163.396 105.333,163.314 105.333 C 163.233 105.333,163.167 105.516,163.167 105.740 C 163.167 105.964,163.092 106.193,163.000 106.250 C 162.908 106.307,162.833 106.649,162.833 107.010 C 162.833 107.371,162.758 107.667,162.667 107.667 C 162.575 107.667,162.500 107.900,162.500 108.184 C 162.500 108.741,162.064 110.839,161.817 111.466 C 161.734 111.677,161.667 112.018,161.667 112.225 C 161.667 112.431,161.601 112.671,161.520 112.758 C 161.121 113.190,161.147 114.146,161.565 114.420 C 162.033 114.726,187.622 114.777,188.208 114.473 C 188.940 114.093,188.381 113.177,187.250 112.900 C 186.975 112.833,186.525 112.641,186.250 112.473 C 185.975 112.305,185.288 111.942,184.724 111.667 C 182.867 110.763,179.610 107.793,179.870 107.242 C 179.896 107.188,179.786 107.070,179.626 106.981 C 179.148 106.713,178.071 104.254,177.749 102.695 C 177.555 101.754,177.594 97.448,177.800 97.062 C 177.904 96.869,177.951 96.674,177.906 96.628 C 177.861 96.583,177.916 96.330,178.028 96.065 C 178.140 95.800,178.240 95.508,178.250 95.417 C 178.312 94.850,178.550 93.891,178.664 93.750 C 178.738 93.658,178.841 93.321,178.892 93.000 C 178.995 92.350,179.071 92.036,179.212 91.667 C 179.264 91.529,179.351 91.150,179.405 90.824 C 179.459 90.498,179.654 89.936,179.838 89.575 C 180.049 89.160,180.106 88.896,179.993 88.859 C 179.883 88.822,179.922 88.679,180.093 88.489 C 180.248 88.319,180.330 88.064,180.275 87.923 C 180.221 87.782,180.249 87.667,180.337 87.667 C 180.424 87.667,180.489 87.185,180.480 86.597 C 180.471 86.008,180.506 85.459,180.557 85.377 C 180.646 85.232,180.691 85.051,181.006 83.583 C 181.084 83.217,181.219 82.617,181.306 82.250 C 181.646 80.809,182.042 79.063,182.117 78.667 C 182.161 78.438,182.345 77.725,182.527 77.083 C 182.708 76.442,182.940 75.617,183.041 75.250 C 183.142 74.883,183.287 74.512,183.362 74.425 C 183.438 74.338,183.500 74.099,183.500 73.893 C 183.500 73.688,183.578 73.471,183.673 73.412 C 183.769 73.354,183.804 73.170,183.752 73.006 C 183.694 72.823,183.756 72.668,183.912 72.608 C 184.074 72.546,184.167 72.296,184.167 71.922 C 184.167 71.598,184.230 71.333,184.307 71.333 C 184.425 71.333,184.641 70.988,184.975 70.268 C 185.012 70.187,184.959 70.173,184.855 70.237 C 184.751 70.301,184.667 70.280,184.667 70.190 C 184.667 70.101,184.746 70.001,184.842 69.969 C 184.939 69.937,185.046 69.762,185.080 69.580 C 185.113 69.399,185.156 69.212,185.174 69.167 C 185.192 69.121,185.197 69.025,185.185 68.954 C 185.173 68.882,185.277 68.781,185.415 68.728 C 185.553 68.674,185.667 68.443,185.667 68.213 C 185.667 67.983,186.023 67.271,186.458 66.631 C 186.894 65.991,187.325 65.353,187.417 65.213 C 187.762 64.688,188.968 63.500,189.157 63.500 C 189.265 63.500,189.310 63.430,189.256 63.344 C 189.203 63.258,189.268 63.126,189.401 63.052 C 189.533 62.978,190.116 62.464,190.696 61.910 C 192.026 60.641,193.285 59.727,193.922 59.568 C 194.445 59.438,195.331 58.884,195.544 58.553 C 195.716 58.285,196.647 57.833,197.026 57.833 C 197.195 57.833,197.333 57.761,197.333 57.672 C 197.333 57.583,197.458 57.558,197.611 57.617 C 197.774 57.679,197.846 57.655,197.786 57.559 C 197.691 57.404,199.759 56.348,200.209 56.321 C 201.233 56.261,201.892 55.260,201.250 54.740 C 200.716 54.307,200.333 54.216,200.333 54.520 C 200.333 54.642,200.237 54.627,200.058 54.479 C 199.761 54.232,179.681 54.024,177.583 54.246 C 176.222 54.390,175.881 54.685,175.652 55.917 C 175.549 56.467,175.355 57.165,175.220 57.468 C 175.085 57.772,174.962 58.271,174.946 58.579 C 174.930 58.886,174.842 59.125,174.750 59.110 C 174.658 59.095,174.594 59.214,174.606 59.373 C 174.619 59.534,174.552 59.616,174.457 59.557 C 174.346 59.488,174.324 59.605,174.395 59.889 C 174.463 60.160,174.379 60.685,174.178 61.259 C 173.997 61.771,173.802 62.541,173.742 62.970 C 173.683 63.399,173.497 64.313,173.329 65.000 C 173.161 65.688,172.986 66.475,172.940 66.750 C 172.734 67.981,172.404 69.000,172.211 69.000 C 172.095 69.000,172.000 69.112,172.000 69.250 C 172.000 69.387,172.068 69.500,172.152 69.500 C 172.242 69.500,172.246 69.689,172.162 69.958 C 171.969 70.584,171.739 71.515,171.412 73.000 C 171.079 74.514,170.756 75.534,170.645 75.422 C 170.599 75.377,167.642 75.344,164.073 75.349 C 160.504 75.355,157.396 75.348,157.167 75.334 C 155.751 75.249,155.000 75.267,155.000 75.385 C 155.000 75.459,154.923 75.472,154.829 75.414 C 154.612 75.280,148.547 75.269,147.354 75.400 C 146.641 75.479,146.247 75.653,145.437 76.247 C 143.719 77.507,142.395 78.555,141.667 79.231 C 141.438 79.443,141.124 79.685,140.971 79.767 C 140.817 79.849,140.217 80.369,139.637 80.921 C 137.867 82.608,136.168 84.057,136.072 83.961 C 135.982 83.870,136.953 82.163,137.190 81.997 C 137.257 81.949,137.392 81.724,137.489 81.497 C 137.674 81.065,138.020 80.476,138.173 80.333 C 138.222 80.287,138.630 79.650,139.079 78.917 C 139.529 78.183,139.947 77.546,140.009 77.500 C 140.070 77.454,140.467 76.892,140.890 76.250 C 141.313 75.608,141.789 74.896,141.947 74.667 C 142.952 73.208,143.811 71.834,143.909 71.526 C 143.971 71.328,144.075 71.167,144.140 71.167 C 144.205 71.167,144.405 70.885,144.585 70.542 C 144.766 70.198,145.008 69.857,145.123 69.783 C 145.239 69.710,145.333 69.504,145.333 69.325 C 145.333 69.146,145.398 69.000,145.476 69.000 C 145.611 69.000,146.833 67.274,146.833 67.084 C 146.833 67.036,147.025 66.782,147.260 66.518 C 147.495 66.255,148.159 65.254,148.735 64.293 C 149.780 62.555,150.764 60.991,151.356 60.132 C 151.527 59.883,151.667 59.627,151.667 59.562 C 151.667 59.498,151.781 59.326,151.920 59.181 C 152.390 58.692,153.167 57.622,153.167 57.464 C 153.167 57.377,153.435 56.903,153.762 56.409 C 154.433 55.399,154.474 54.782,153.875 54.697 C 153.669 54.667,153.500 54.572,153.500 54.484 C 153.500 54.397,153.219 54.321,152.875 54.317 C 141.756 54.161,130.141 54.216,129.930 54.427 M283.058 54.422 C 283.007 54.557,282.804 54.661,282.607 54.655 C 282.260 54.644,282.259 54.639,282.583 54.500 C 282.850 54.386,282.789 54.354,282.282 54.345 C 281.899 54.338,281.688 54.399,281.750 54.500 C 281.811 54.599,281.616 54.667,281.270 54.667 C 280.949 54.667,280.640 54.592,280.583 54.500 C 280.454 54.291,279.833 54.279,279.833 54.485 C 279.833 54.569,279.515 54.690,279.125 54.754 C 278.735 54.818,278.342 54.927,278.250 54.996 C 278.158 55.065,277.483 55.175,276.750 55.240 C 275.185 55.380,274.999 55.407,274.667 55.541 C 274.529 55.597,274.192 55.680,273.917 55.726 C 273.642 55.772,272.929 55.937,272.333 56.092 C 271.737 56.247,271.004 56.378,270.704 56.383 C 270.403 56.387,270.241 56.443,270.343 56.506 C 270.559 56.640,270.150 56.833,269.651 56.833 C 269.474 56.833,269.199 56.901,269.039 56.983 C 268.880 57.065,268.412 57.260,268.000 57.415 C 267.587 57.570,266.950 57.845,266.583 58.026 C 266.000 58.313,265.458 58.447,264.708 58.489 C 264.594 58.495,264.500 58.604,264.500 58.731 C 264.500 58.977,263.878 59.453,263.125 59.783 C 262.525 60.046,262.506 60.729,263.083 61.265 C 263.313 61.477,263.500 61.731,263.500 61.829 C 263.500 61.927,263.676 62.286,263.891 62.628 C 264.296 63.274,265.000 65.149,265.000 65.584 C 265.000 65.721,265.069 65.833,265.154 65.833 C 265.242 65.833,265.295 66.930,265.279 68.415 C 265.262 69.914,265.184 70.998,265.092 70.999 C 265.005 70.999,265.019 71.085,265.123 71.190 C 265.308 71.375,265.092 72.221,264.646 73.052 C 264.557 73.218,264.527 73.488,264.579 73.652 C 264.631 73.816,264.563 74.430,264.428 75.017 C 264.293 75.603,264.138 76.343,264.083 76.660 C 264.028 76.977,263.914 77.320,263.829 77.422 C 263.745 77.524,263.680 77.827,263.685 78.095 C 263.699 78.885,263.469 80.167,263.312 80.167 C 263.232 80.167,263.167 80.246,263.167 80.343 C 263.167 80.440,263.242 80.473,263.333 80.417 C 263.425 80.360,263.500 80.387,263.500 80.476 C 263.500 80.566,263.429 80.664,263.343 80.694 C 263.257 80.725,263.152 80.938,263.110 81.167 C 263.068 81.396,262.979 81.883,262.912 82.250 C 262.845 82.617,262.613 83.645,262.395 84.534 C 262.178 85.424,262.000 86.338,262.000 86.566 C 262.000 86.794,261.925 87.027,261.833 87.083 C 261.742 87.140,261.667 87.354,261.667 87.560 C 261.667 87.765,261.598 88.005,261.514 88.092 C 260.725 88.911,261.528 91.206,262.514 90.948 C 262.676 90.906,263.030 91.006,263.301 91.172 C 263.623 91.367,263.852 91.415,263.958 91.308 C 264.065 91.202,264.218 91.242,264.400 91.424 C 264.578 91.601,264.838 91.673,265.116 91.620 C 265.356 91.574,266.122 91.633,266.818 91.751 C 269.976 92.287,271.284 92.310,288.200 92.127 C 295.544 92.048,299.519 92.063,299.585 92.170 C 299.641 92.260,299.829 92.333,300.004 92.333 C 302.902 92.333,302.429 96.903,299.394 98.232 C 298.571 98.592,295.764 98.803,293.771 98.655 C 292.733 98.578,268.179 98.576,263.166 98.653 C 262.275 98.666,260.765 99.544,259.559 100.750 C 259.139 101.171,257.477 102.404,256.000 103.391 C 254.013 104.719,251.935 106.173,251.835 106.305 C 251.788 106.367,251.525 106.529,251.250 106.667 C 250.975 106.804,250.713 106.959,250.667 107.012 C 250.570 107.124,248.341 108.344,247.000 109.019 C 245.586 109.731,244.504 110.167,244.153 110.167 C 243.977 110.167,243.833 110.242,243.833 110.333 C 243.833 110.425,243.716 110.500,243.573 110.500 C 243.431 110.500,243.358 110.571,243.411 110.658 C 243.465 110.745,243.226 110.869,242.880 110.932 C 242.533 110.996,242.213 111.095,242.167 111.152 C 242.019 111.338,241.161 111.667,240.825 111.667 C 240.646 111.667,240.500 111.733,240.500 111.813 C 240.500 111.894,239.844 112.165,239.042 112.416 C 236.272 113.282,235.779 113.610,236.166 114.332 L 236.357 114.689 267.819 114.615 C 287.321 114.568,299.401 114.480,299.599 114.381 C 299.774 114.293,300.292 114.206,300.750 114.187 C 301.208 114.169,301.771 114.090,302.000 114.012 C 302.229 113.935,302.942 113.784,303.583 113.676 C 304.225 113.569,304.938 113.442,305.167 113.393 C 305.396 113.345,305.600 113.306,305.620 113.307 C 305.641 113.308,306.052 113.164,306.535 112.987 C 307.017 112.811,307.539 112.667,307.695 112.667 C 307.851 112.667,308.189 112.580,308.447 112.474 C 308.706 112.368,308.992 112.270,309.083 112.256 C 309.323 112.220,309.851 112.008,310.333 111.755 C 310.563 111.635,311.399 111.201,312.193 110.791 C 313.453 110.140,316.173 108.325,316.800 107.717 C 316.919 107.602,317.144 107.412,317.300 107.295 C 317.718 106.982,320.167 104.234,320.167 104.077 C 320.167 104.003,320.274 103.825,320.405 103.680 C 320.683 103.373,322.401 100.073,322.585 99.494 C 322.654 99.277,322.813 98.996,322.939 98.871 C 323.064 98.745,323.169 98.479,323.172 98.280 C 323.174 98.080,323.329 97.392,323.516 96.750 C 324.084 94.800,324.206 93.856,324.226 91.250 C 324.246 88.516,324.116 87.743,323.325 85.917 C 323.206 85.642,323.124 85.353,323.143 85.274 C 323.255 84.820,320.686 82.222,319.132 81.216 C 318.516 80.817,317.947 80.376,317.868 80.235 C 317.789 80.093,317.468 79.911,317.154 79.830 C 316.840 79.748,316.133 79.560,315.583 79.412 C 315.033 79.263,314.321 79.077,314.000 78.999 C 313.679 78.920,313.117 78.766,312.750 78.657 C 312.383 78.548,311.671 78.427,311.167 78.389 C 310.662 78.350,310.100 78.252,309.917 78.171 C 308.712 77.638,304.733 77.487,290.976 77.452 C 278.120 77.419,277.180 77.397,276.879 77.125 C 276.702 76.965,276.441 76.833,276.299 76.833 C 276.020 76.833,275.667 76.482,275.595 76.133 C 275.570 76.014,275.492 75.781,275.420 75.616 C 274.891 74.389,276.703 71.667,278.050 71.667 C 278.169 71.667,278.360 71.573,278.475 71.458 C 278.637 71.296,282.353 71.228,295.383 71.151 C 306.450 71.085,312.364 70.991,312.917 70.870 C 314.989 70.419,315.276 70.348,315.699 70.187 C 315.946 70.093,316.301 70.045,316.488 70.081 C 316.675 70.117,316.885 70.057,316.956 69.948 C 317.026 69.839,317.421 69.576,317.833 69.364 C 318.740 68.898,319.547 68.307,320.489 67.417 C 320.877 67.050,321.452 66.506,321.767 66.208 C 322.082 65.910,322.380 65.667,322.429 65.667 C 322.572 65.667,323.902 64.606,324.050 64.375 C 324.123 64.260,324.273 64.166,324.383 64.165 C 324.493 64.163,324.996 63.768,325.500 63.286 C 326.004 62.805,326.679 62.213,327.000 61.972 C 327.321 61.731,327.733 61.394,327.917 61.223 C 328.100 61.051,328.625 60.669,329.083 60.372 C 329.542 60.076,330.135 59.608,330.403 59.333 C 330.670 59.058,330.970 58.833,331.069 58.832 C 331.169 58.831,331.709 58.400,332.270 57.874 C 332.831 57.347,333.527 56.729,333.818 56.500 C 335.230 55.385,335.386 55.083,334.816 54.567 C 334.335 54.133,283.224 53.989,283.058 54.422 M343.125 54.283 C 342.690 54.321,342.333 54.422,342.333 54.509 C 342.333 54.596,342.026 54.667,341.651 54.667 C 341.275 54.667,340.769 54.773,340.526 54.904 C 340.282 55.034,339.671 55.263,339.167 55.412 C 338.118 55.723,335.903 56.752,335.750 57.000 C 335.693 57.092,335.501 57.167,335.323 57.167 C 335.146 57.167,334.994 57.260,334.986 57.375 C 334.979 57.490,334.571 57.921,334.080 58.333 C 333.589 58.746,332.864 59.388,332.469 59.760 C 331.327 60.835,328.894 62.667,328.608 62.667 C 328.464 62.667,327.838 63.162,327.215 63.768 C 326.593 64.374,325.915 64.935,325.708 65.014 C 325.502 65.094,325.333 65.273,325.333 65.413 C 325.333 65.552,325.228 65.667,325.098 65.667 C 324.969 65.667,324.687 65.873,324.473 66.125 C 323.903 66.794,321.896 68.324,321.218 68.608 C 320.756 68.801,320.651 68.924,320.722 69.192 C 320.771 69.380,320.766 69.488,320.711 69.433 C 320.517 69.239,320.000 69.890,320.000 70.326 C 320.000 71.192,319.670 71.167,330.886 71.167 L 341.372 71.167 341.258 71.542 C 341.195 71.748,341.080 72.171,341.001 72.483 C 340.922 72.794,340.795 73.094,340.718 73.149 C 340.642 73.205,340.569 73.468,340.556 73.734 C 340.543 74.001,340.421 74.281,340.285 74.357 C 340.146 74.435,339.961 74.947,339.860 75.539 C 339.398 78.245,339.169 79.359,338.695 81.208 C 338.607 81.552,338.576 81.833,338.627 81.833 C 338.677 81.833,338.594 81.971,338.442 82.139 C 338.290 82.307,338.169 82.625,338.172 82.847 C 338.189 83.848,337.940 85.023,337.671 85.214 C 337.493 85.340,337.387 85.636,337.389 86.000 C 337.391 86.321,337.260 87.108,337.099 87.750 C 336.938 88.392,336.714 89.404,336.601 90.000 C 336.488 90.596,336.307 91.294,336.198 91.553 C 336.089 91.811,336.000 92.129,336.000 92.261 C 336.000 92.392,335.925 92.500,335.833 92.500 C 335.742 92.500,335.667 92.763,335.667 93.083 C 335.667 93.491,335.591 93.667,335.417 93.667 C 335.130 93.667,335.078 94.092,335.344 94.257 C 335.461 94.329,335.425 94.473,335.241 94.677 C 335.086 94.848,335.004 95.104,335.059 95.247 C 335.114 95.389,335.017 95.786,334.844 96.128 C 334.672 96.470,334.486 97.125,334.431 97.583 C 334.252 99.092,334.196 99.347,333.995 99.589 C 333.886 99.721,333.839 99.940,333.891 100.076 C 333.943 100.212,333.864 100.445,333.716 100.594 C 333.491 100.819,333.484 100.887,333.676 101.006 C 333.862 101.121,333.839 101.206,333.559 101.449 C 333.287 101.685,333.243 101.835,333.358 102.146 C 333.469 102.445,333.436 102.593,333.225 102.747 C 333.053 102.874,332.988 103.061,333.056 103.238 C 333.120 103.406,333.057 103.634,332.904 103.787 C 332.760 103.931,332.706 104.094,332.785 104.149 C 332.940 104.259,332.941 104.368,332.790 105.000 C 332.736 105.229,332.599 105.904,332.487 106.500 C 332.375 107.096,332.229 107.658,332.161 107.750 C 332.094 107.842,331.998 108.179,331.948 108.500 C 331.775 109.608,331.488 110.918,331.346 111.250 C 331.267 111.433,331.066 112.172,330.897 112.891 C 330.443 114.834,329.438 114.667,341.578 114.667 C 353.117 114.667,352.667 114.711,352.667 113.572 C 352.667 113.255,352.736 112.865,352.820 112.706 C 352.904 112.547,353.095 111.817,353.245 111.083 C 353.558 109.553,353.804 108.582,354.017 108.034 C 354.099 107.823,354.167 107.503,354.167 107.323 C 354.167 107.143,354.233 106.865,354.313 106.706 C 354.509 106.321,355.000 104.284,355.000 103.860 C 355.000 103.675,355.094 103.425,355.208 103.304 C 355.323 103.182,355.410 102.933,355.403 102.750 C 355.395 102.567,355.495 102.242,355.624 102.028 C 355.753 101.815,355.821 101.542,355.775 101.422 C 355.729 101.303,355.789 101.065,355.908 100.894 C 356.027 100.723,356.180 100.246,356.248 99.833 C 356.316 99.421,356.431 99.008,356.503 98.917 C 356.576 98.825,356.660 98.450,356.690 98.083 C 356.722 97.684,356.871 97.312,357.060 97.156 C 357.333 96.931,357.346 96.849,357.156 96.545 C 356.988 96.275,356.979 96.048,357.117 95.556 C 357.447 94.386,357.836 92.588,357.835 92.242 C 357.834 92.054,357.903 91.829,357.988 91.742 C 358.073 91.655,358.265 90.983,358.416 90.250 C 358.970 87.542,359.437 85.627,360.003 83.750 C 360.086 83.475,360.244 82.894,360.355 82.458 C 360.466 82.023,360.619 81.667,360.695 81.667 C 360.771 81.667,360.833 81.402,360.833 81.078 C 360.833 80.505,361.343 78.703,361.666 78.132 C 361.755 77.975,361.871 77.343,361.925 76.727 C 361.978 76.111,362.126 75.407,362.253 75.162 C 362.379 74.917,362.483 74.574,362.482 74.400 C 362.482 74.226,362.583 73.446,362.707 72.667 L 362.933 71.250 367.675 71.139 C 372.260 71.032,373.733 70.926,374.083 70.678 C 374.175 70.613,374.587 70.464,375.000 70.347 C 376.537 69.911,376.884 69.687,378.907 67.816 C 379.462 67.303,380.517 66.367,381.250 65.737 C 381.983 65.107,382.621 64.552,382.667 64.504 C 382.745 64.422,386.024 61.446,386.436 61.083 C 386.540 60.992,387.139 60.467,387.766 59.917 C 390.250 57.738,390.553 57.400,390.435 56.932 C 390.376 56.694,390.216 56.500,390.080 56.500 C 389.944 56.500,389.833 56.425,389.833 56.333 C 389.833 56.092,389.210 56.128,389.110 56.375 C 389.043 56.542,389.024 56.542,389.013 56.375 C 389.006 56.260,388.883 56.167,388.740 56.167 C 388.597 56.167,388.530 56.247,388.591 56.346 C 388.652 56.444,388.549 56.429,388.361 56.312 C 388.090 56.143,387.942 56.141,387.635 56.304 C 387.361 56.450,386.358 56.496,384.140 56.464 L 381.030 56.418 381.265 55.855 C 381.588 55.082,381.565 54.667,381.200 54.667 C 381.035 54.667,380.806 54.573,380.692 54.458 C 380.491 54.258,345.316 54.094,343.125 54.283 M218.571 54.480 C 218.617 54.555,217.927 54.666,217.036 54.725 C 216.145 54.785,215.192 54.876,214.917 54.926 C 214.642 54.977,213.854 55.088,213.167 55.171 C 212.479 55.255,211.654 55.368,211.333 55.422 C 211.012 55.476,210.375 55.582,209.917 55.658 C 208.652 55.867,206.483 56.324,206.340 56.412 C 206.271 56.455,205.743 56.530,205.167 56.578 C 204.437 56.639,204.056 56.754,203.907 56.958 C 203.790 57.118,203.638 57.193,203.569 57.124 C 203.500 57.055,203.287 57.097,203.097 57.217 C 202.906 57.337,202.412 57.530,202.000 57.645 C 200.924 57.945,199.835 58.396,199.834 58.542 C 199.834 58.610,199.730 58.667,199.604 58.667 C 199.477 58.667,199.281 58.778,199.168 58.915 C 199.055 59.051,198.901 59.125,198.826 59.079 C 198.751 59.032,198.644 59.069,198.588 59.159 C 198.532 59.250,198.208 59.454,197.868 59.612 C 197.528 59.770,197.213 59.942,197.167 59.995 C 196.976 60.213,196.060 60.553,195.768 60.514 C 195.545 60.484,195.482 60.546,195.551 60.727 C 195.615 60.892,195.574 60.954,195.435 60.901 C 195.317 60.855,195.124 60.934,195.006 61.076 C 194.889 61.217,194.650 61.333,194.475 61.333 C 194.293 61.333,194.093 61.506,194.004 61.740 C 193.849 62.148,193.288 62.566,193.121 62.399 C 193.007 62.285,192.333 62.855,192.333 63.065 C 192.333 63.267,190.472 65.064,190.252 65.075 C 190.162 65.080,190.062 65.233,190.030 65.417 C 189.998 65.600,189.851 65.844,189.704 65.958 C 189.557 66.073,189.490 66.167,189.556 66.167 C 189.702 66.167,188.018 68.394,187.812 68.472 C 187.732 68.503,187.667 68.648,187.667 68.795 C 187.667 68.942,187.174 70.080,186.573 71.323 C 185.050 74.469,185.073 74.404,184.883 76.000 C 184.834 76.412,184.736 76.862,184.666 77.000 C 184.596 77.137,184.483 77.658,184.416 78.157 C 184.348 78.656,184.190 79.167,184.063 79.294 C 183.937 79.420,183.833 79.794,183.833 80.125 C 183.833 80.456,183.761 80.957,183.673 81.238 C 183.448 81.957,182.871 84.468,182.771 85.167 C 182.725 85.487,182.418 86.725,182.088 87.917 C 181.759 89.108,181.455 90.233,181.413 90.417 C 181.280 90.999,180.770 92.409,180.618 92.618 C 180.537 92.728,180.527 92.909,180.595 93.018 C 180.668 93.138,180.648 93.175,180.544 93.110 C 180.323 92.974,180.147 93.641,180.275 94.130 C 180.334 94.352,180.296 94.500,180.183 94.500 C 180.058 94.500,179.992 94.917,179.992 95.708 C 179.991 96.373,179.978 97.442,179.963 98.083 C 179.929 99.570,180.093 100.799,180.484 101.992 C 181.515 105.130,183.549 107.853,186.000 109.375 C 186.321 109.575,186.682 109.834,186.804 109.952 C 186.925 110.070,187.131 110.167,187.262 110.167 C 187.393 110.167,187.500 110.227,187.500 110.301 C 187.500 110.375,187.819 110.571,188.208 110.736 C 188.598 110.901,189.200 111.178,189.547 111.351 C 189.893 111.525,190.253 111.667,190.345 111.667 C 190.438 111.667,190.666 111.808,190.852 111.981 C 191.043 112.160,191.328 112.260,191.509 112.212 C 191.707 112.161,191.869 112.231,191.932 112.398 C 192.005 112.588,192.247 112.667,192.758 112.667 C 193.155 112.667,193.521 112.732,193.570 112.811 C 193.619 112.891,193.979 112.998,194.371 113.049 C 194.763 113.101,195.271 113.195,195.500 113.259 C 195.729 113.324,196.254 113.412,196.667 113.456 C 197.079 113.500,197.492 113.594,197.583 113.665 C 197.787 113.824,199.748 114.155,201.000 114.243 C 201.504 114.278,202.332 114.373,202.841 114.454 C 203.573 114.571,214.315 114.585,222.390 114.480 C 223.148 114.471,223.774 114.541,223.882 114.648 C 224.142 114.909,224.386 114.879,224.279 114.600 C 224.165 114.301,224.641 114.172,225.865 114.169 C 226.387 114.168,226.860 114.092,226.917 114.000 C 226.973 113.908,227.386 113.833,227.833 113.833 C 228.281 113.833,228.693 113.758,228.750 113.667 C 228.807 113.575,229.138 113.500,229.487 113.500 C 230.088 113.500,231.095 113.329,232.583 112.974 C 233.301 112.803,234.469 112.543,235.208 112.390 C 235.460 112.338,235.667 112.237,235.667 112.166 C 235.667 112.095,235.910 111.999,236.208 111.954 C 237.048 111.827,240.513 110.497,241.333 109.988 C 241.471 109.902,241.771 109.754,242.000 109.658 C 242.743 109.346,243.732 108.834,244.583 108.321 C 245.042 108.045,245.548 107.776,245.708 107.723 C 245.869 107.671,246.000 107.562,246.000 107.481 C 246.000 107.400,246.082 107.333,246.182 107.333 C 246.282 107.333,246.563 107.181,246.807 106.995 C 247.051 106.809,247.467 106.490,247.732 106.287 C 249.967 104.571,252.050 102.535,253.470 100.679 C 253.991 99.998,254.623 99.237,254.875 98.987 C 255.127 98.737,255.333 98.380,255.333 98.193 C 255.333 98.006,255.409 97.806,255.501 97.749 C 255.594 97.692,255.807 97.369,255.975 97.031 C 256.143 96.693,256.485 96.042,256.734 95.583 C 256.984 95.125,257.452 94.112,257.775 93.333 C 258.097 92.554,258.425 91.795,258.502 91.646 C 258.580 91.496,258.694 91.105,258.756 90.776 C 258.818 90.448,258.976 90.089,259.109 89.979 C 259.257 89.856,259.285 89.740,259.182 89.676 C 259.073 89.609,259.116 89.146,259.305 88.362 C 259.465 87.696,259.636 87.191,259.685 87.241 C 259.735 87.290,259.778 87.087,259.782 86.790 C 259.791 86.163,259.887 85.725,260.051 85.560 C 260.114 85.497,260.167 85.274,260.167 85.065 C 260.167 84.857,260.248 84.636,260.348 84.574 C 260.448 84.513,260.492 84.321,260.447 84.148 C 260.402 83.975,260.414 83.833,260.474 83.833 C 260.534 83.833,260.593 83.589,260.605 83.291 C 260.616 82.994,260.868 81.737,261.164 80.500 C 261.460 79.262,261.883 77.489,262.105 76.558 C 263.671 69.994,262.946 65.243,259.888 62.041 C 259.778 61.926,259.644 61.690,259.589 61.517 C 259.534 61.344,259.360 61.159,259.203 61.106 C 258.815 60.975,258.402 60.686,257.686 60.042 C 257.354 59.745,257.027 59.501,256.958 59.501 C 256.890 59.500,256.831 59.406,256.828 59.292 C 256.814 58.778,251.315 56.509,249.000 56.062 C 248.313 55.929,247.375 55.748,246.917 55.658 C 246.458 55.569,245.446 55.417,244.667 55.321 C 243.887 55.225,243.025 55.073,242.750 54.983 C 242.475 54.893,241.484 54.774,240.547 54.718 C 239.611 54.663,238.884 54.552,238.933 54.473 C 238.983 54.393,234.470 54.332,228.754 54.336 C 223.107 54.339,218.524 54.404,218.571 54.480 M118.929 54.888 C 119.011 55.103,118.546 56.481,116.922 60.833 C 116.494 61.979,115.892 63.667,115.584 64.583 C 114.967 66.419,114.026 69.056,112.583 73.000 C 110.504 78.681,109.918 80.323,107.910 86.083 C 107.207 88.100,106.408 90.305,106.134 90.984 C 105.466 92.639,102.860 99.892,102.596 100.833 C 102.480 101.246,102.271 101.808,102.131 102.083 C 101.990 102.358,101.411 103.896,100.844 105.500 C 100.276 107.104,99.661 108.829,99.476 109.333 C 99.291 109.837,98.893 110.952,98.593 111.809 C 97.950 113.644,97.906 113.682,96.500 113.626 L 95.417 113.583 95.374 98.935 C 95.346 89.444,95.390 84.216,95.497 84.087 C 95.611 83.949,97.259 83.827,100.873 83.687 C 103.738 83.576,106.383 83.432,106.750 83.367 L 107.417 83.249 107.458 69.166 C 107.481 61.421,107.535 54.990,107.578 54.875 C 107.696 54.560,118.808 54.573,118.929 54.888 M153.415 55.163 C 153.470 55.253,153.425 55.497,153.315 55.705 C 152.826 56.630,143.922 70.331,135.623 82.932 C 131.156 89.714,131.042 89.659,137.495 83.833 C 142.077 79.696,146.438 76.170,146.980 76.163 C 147.128 76.162,152.575 76.161,159.083 76.163 C 165.592 76.164,171.014 76.103,171.133 76.026 C 171.251 75.950,171.494 75.332,171.671 74.652 C 172.867 70.066,174.915 61.898,175.556 59.155 C 175.976 57.361,176.396 55.691,176.489 55.445 L 176.659 54.998 188.524 55.041 C 200.478 55.084,201.352 55.131,199.877 55.654 C 190.584 58.951,184.708 65.404,182.411 74.833 C 182.289 75.337,181.822 77.175,181.374 78.917 C 180.926 80.658,180.240 83.433,179.849 85.083 C 179.458 86.733,178.642 90.071,178.037 92.500 C 175.767 101.609,176.673 106.111,181.648 110.440 C 182.986 111.604,186.589 113.667,187.285 113.667 C 187.403 113.667,187.500 113.742,187.500 113.833 C 187.500 114.008,162.306 114.084,162.132 113.910 C 162.055 113.833,164.118 105.335,165.671 99.333 C 167.334 92.909,167.719 91.135,167.484 90.986 C 167.092 90.738,142.450 90.792,142.129 91.042 C 141.980 91.158,141.701 91.949,141.497 92.833 C 141.083 94.628,140.336 97.659,139.730 100.000 C 139.505 100.871,139.252 101.883,139.169 102.250 C 138.856 103.626,138.522 104.955,138.183 106.167 C 137.720 107.820,136.558 112.585,136.424 113.375 L 136.318 114.000 125.826 114.000 C 120.055 114.000,115.333 113.958,115.333 113.906 C 115.333 113.854,115.935 111.361,116.670 108.364 C 117.404 105.368,118.079 102.617,118.169 102.250 C 118.258 101.883,118.624 100.496,118.981 99.167 C 119.338 97.837,120.133 94.650,120.749 92.083 C 121.893 87.308,123.917 79.117,125.566 72.583 C 127.438 65.168,129.667 56.037,129.667 55.784 C 129.667 54.982,129.387 55.000,141.752 55.000 C 149.117 55.000,153.350 55.059,153.415 55.163 M334.167 55.147 C 334.167 55.228,332.880 56.334,331.307 57.606 C 324.669 62.970,322.486 64.756,320.791 66.209 C 318.785 67.930,317.345 68.800,315.500 69.408 C 312.586 70.368,313.298 70.333,296.281 70.333 C 282.706 70.334,280.415 70.369,279.338 70.593 C 274.473 71.608,272.746 76.133,276.626 77.696 L 277.583 78.081 292.000 78.179 C 307.494 78.285,307.575 78.289,312.250 79.254 C 322.233 81.315,325.775 87.827,322.415 97.942 C 319.362 107.137,311.451 112.477,299.000 113.747 C 295.866 114.067,237.058 114.179,237.425 113.864 C 237.512 113.790,238.858 113.255,240.417 112.677 C 243.900 111.384,249.536 108.559,252.249 106.747 C 256.279 104.055,258.957 102.144,260.663 100.741 L 262.409 99.305 280.246 99.345 C 299.777 99.389,298.769 99.439,300.464 98.343 C 303.251 96.542,303.600 93.418,301.163 92.083 L 300.250 91.583 286.250 91.568 C 269.014 91.550,265.755 91.338,262.273 90.009 C 261.696 89.789,261.665 90.039,262.818 85.583 C 263.603 82.551,264.656 78.067,265.774 73.000 C 266.777 68.450,265.891 63.611,263.541 60.807 C 263.014 60.178,268.129 57.951,273.000 56.688 C 279.332 55.047,279.430 55.042,309.125 55.019 C 323.515 55.008,334.167 55.063,334.167 55.147 M380.667 55.247 C 380.667 55.382,380.545 55.798,380.396 56.170 C 380.053 57.026,380.121 57.083,381.472 57.085 C 385.964 57.092,389.500 57.189,389.500 57.305 C 389.500 57.381,388.324 58.488,386.887 59.763 C 385.449 61.039,383.604 62.683,382.786 63.417 C 374.740 70.628,374.868 70.573,366.377 70.373 C 362.326 70.277,362.441 70.242,362.163 71.638 C 362.059 72.158,361.557 74.346,361.047 76.500 C 360.537 78.654,360.064 80.679,359.997 81.000 C 359.929 81.321,359.629 82.483,359.330 83.583 C 359.031 84.683,358.722 85.865,358.643 86.208 C 358.564 86.552,358.428 87.115,358.341 87.458 C 358.253 87.802,358.113 88.383,358.028 88.750 C 357.943 89.117,357.450 91.142,356.932 93.250 C 356.413 95.358,355.352 99.708,354.573 102.917 C 353.794 106.125,353.090 108.975,353.009 109.250 C 352.928 109.525,352.663 110.575,352.420 111.583 C 352.177 112.592,351.941 113.548,351.895 113.708 C 351.805 114.019,331.631 114.181,331.441 113.872 C 331.397 113.802,331.471 113.333,331.604 112.831 C 332.066 111.082,333.992 103.394,334.838 99.917 C 335.874 95.662,337.494 89.172,340.144 78.667 C 341.406 73.665,342.083 70.690,341.984 70.588 C 341.886 70.488,337.955 70.413,331.622 70.392 C 326.009 70.373,321.274 70.352,321.099 70.345 C 320.649 70.328,321.000 69.963,323.000 68.363 C 323.871 67.667,325.033 66.703,325.583 66.220 C 326.133 65.738,328.111 64.122,329.979 62.630 C 331.847 61.138,334.097 59.326,334.979 58.605 C 337.346 56.670,340.013 55.509,342.833 55.186 C 345.262 54.908,380.667 54.965,380.667 55.247 M240.583 55.418 C 250.559 56.449,256.284 58.694,259.715 62.918 C 262.117 65.874,262.936 70.111,261.924 74.333 C 259.283 85.349,258.362 89.226,258.166 90.167 C 257.477 93.465,254.232 99.112,251.100 102.462 C 247.046 106.799,240.274 110.452,233.147 112.146 C 221.152 114.997,201.866 114.776,192.194 111.676 C 182.928 108.707,178.924 101.894,181.317 93.167 C 182.217 89.884,184.477 80.910,185.240 77.589 C 188.395 63.851,197.751 57.234,216.583 55.424 C 219.870 55.108,237.543 55.103,240.583 55.418 M207.744 68.912 C 204.544 69.924,203.094 71.626,202.092 75.548 C 201.783 76.759,201.367 78.350,201.167 79.083 C 200.968 79.817,200.619 81.167,200.392 82.083 C 200.165 83.000,199.805 84.387,199.592 85.167 C 199.379 85.946,198.925 87.783,198.581 89.250 C 198.238 90.717,197.732 92.779,197.457 93.833 C 196.320 98.187,196.634 99.437,199.167 100.646 L 200.083 101.083 212.667 101.133 C 229.191 101.198,231.297 100.941,235.707 98.321 C 238.057 96.925,240.833 93.282,240.833 91.595 C 240.833 91.196,237.846 91.302,236.667 91.743 C 235.971 92.003,208.952 92.175,208.698 91.920 C 208.566 91.788,209.366 89.666,209.555 89.647 C 209.662 89.636,215.825 89.617,223.250 89.604 L 236.750 89.582 237.833 89.185 C 241.125 87.982,242.081 86.785,242.994 82.722 C 243.599 80.032,243.617 80.067,241.820 80.477 C 238.844 81.157,238.149 81.223,237.789 80.863 C 237.488 80.562,237.405 80.555,236.608 80.768 C 235.615 81.032,212.432 81.110,212.022 80.850 C 211.785 80.700,212.148 79.206,212.542 78.708 C 212.672 78.545,215.699 78.500,226.668 78.500 L 240.628 78.500 241.976 77.825 C 246.569 75.527,246.212 69.935,241.408 68.918 C 239.812 68.580,208.812 68.575,207.744 68.912 M219.773 69.506 C 219.892 69.626,220.089 69.624,220.410 69.503 C 220.744 69.376,220.937 69.379,221.100 69.514 C 221.266 69.652,221.466 69.653,221.855 69.518 C 222.551 69.275,223.882 69.282,224.130 69.530 C 224.281 69.681,224.426 69.673,224.757 69.496 C 225.110 69.307,225.249 69.304,225.530 69.480 C 225.776 69.634,225.924 69.643,226.053 69.514 C 226.289 69.277,240.601 69.259,240.747 69.495 C 240.802 69.584,241.219 69.706,241.674 69.767 C 242.128 69.827,242.500 69.942,242.500 70.021 C 242.500 70.101,242.595 70.167,242.712 70.167 C 244.125 70.167,244.926 73.170,244.015 75.052 C 243.467 76.184,241.830 77.500,240.971 77.500 C 240.814 77.500,240.639 77.576,240.582 77.669 C 240.515 77.777,239.534 77.810,237.864 77.761 C 234.726 77.668,215.138 77.624,214.393 77.708 C 214.104 77.740,213.735 77.720,213.572 77.663 C 213.120 77.504,212.148 77.907,211.908 78.353 C 211.180 79.708,210.868 80.905,211.139 81.308 C 211.294 81.539,235.613 81.713,236.532 81.490 C 236.744 81.438,237.254 81.497,237.667 81.621 C 238.079 81.744,238.604 81.795,238.833 81.733 C 239.063 81.671,239.475 81.595,239.750 81.564 C 240.025 81.532,240.550 81.434,240.917 81.346 C 241.283 81.258,241.799 81.140,242.062 81.085 L 242.540 80.984 242.426 81.783 C 241.875 85.626,241.048 86.962,238.417 88.258 L 237.417 88.750 223.280 88.833 C 209.376 88.915,209.140 88.922,208.947 89.249 C 208.613 89.813,208.001 91.563,208.000 91.952 C 208.000 92.663,208.088 92.667,222.281 92.659 C 235.682 92.652,237.121 92.601,237.603 92.119 C 237.740 91.983,240.000 91.954,240.000 92.089 C 240.000 92.243,239.129 93.913,239.003 94.000 C 238.937 94.046,238.759 94.346,238.608 94.667 C 238.178 95.577,236.040 97.667,235.538 97.667 C 235.441 97.667,235.336 97.723,235.306 97.792 C 235.216 97.994,233.990 98.514,233.833 98.417 C 233.754 98.368,233.411 98.517,233.072 98.747 C 232.732 98.978,232.326 99.167,232.171 99.167 C 232.016 99.167,231.833 99.223,231.764 99.292 C 230.836 100.219,226.494 100.479,213.000 100.416 C 200.621 100.358,200.142 100.344,199.533 100.018 C 199.356 99.923,199.163 99.892,199.105 99.950 C 199.047 100.008,199.000 99.980,199.000 99.888 C 199.000 99.796,198.816 99.636,198.590 99.533 C 197.992 99.261,197.500 98.180,197.498 97.132 C 197.496 96.366,198.797 90.519,199.177 89.583 C 199.378 89.086,199.833 87.111,199.833 86.731 C 199.833 86.549,199.895 86.329,199.970 86.242 C 200.045 86.155,200.204 85.671,200.324 85.167 C 200.445 84.662,200.601 84.175,200.673 84.083 C 200.744 83.992,200.826 83.579,200.854 83.167 C 200.881 82.754,201.000 82.229,201.118 82.000 C 201.235 81.771,201.332 81.419,201.332 81.218 C 201.333 81.017,201.401 80.811,201.484 80.760 C 201.566 80.709,201.687 80.210,201.752 79.651 C 201.817 79.092,201.974 78.435,202.101 78.192 C 202.227 77.949,202.332 77.625,202.332 77.472 C 202.334 77.112,202.806 75.182,202.999 74.750 C 203.080 74.567,203.199 74.154,203.262 73.833 C 203.598 72.133,206.261 69.677,207.783 69.664 C 207.948 69.663,208.196 69.589,208.333 69.500 C 208.684 69.273,219.546 69.279,219.773 69.506 M207.073 72.632 C 206.203 73.117,205.893 73.397,205.604 73.958 C 205.450 74.256,205.253 74.500,205.166 74.500 C 204.468 74.500,205.025 76.222,205.976 77.006 C 207.073 77.910,210.139 77.134,210.164 75.946 C 210.165 75.871,210.279 75.697,210.416 75.560 C 211.995 73.981,209.139 71.480,207.073 72.632 M209.321 73.244 C 210.944 74.083,209.481 76.833,207.412 76.833 C 206.498 76.833,205.756 76.038,205.892 75.205 C 206.156 73.578,207.966 72.543,209.321 73.244 M213.356 73.191 C 212.508 73.505,212.044 74.814,212.487 75.642 C 212.958 76.522,215.515 75.896,215.897 74.809 C 216.252 73.801,214.582 72.738,213.356 73.191 M214.844 74.006 C 215.665 74.445,214.967 75.333,213.802 75.333 C 212.850 75.333,212.683 75.107,213.076 74.348 C 213.363 73.792,214.158 73.638,214.844 74.006 M204.269 82.887 C 200.820 84.814,202.543 89.421,206.048 87.644 C 207.134 87.094,208.166 85.540,208.167 84.454 C 208.167 83.228,205.546 82.174,204.269 82.887 M207.045 83.847 C 207.736 84.701,206.978 86.581,205.733 87.101 C 203.048 88.223,201.885 85.221,204.394 83.643 C 205.140 83.174,206.590 83.286,207.045 83.847 M209.837 84.292 C 209.167 84.903,209.005 86.171,209.528 86.695 C 210.551 87.718,213.459 86.613,213.279 85.269 C 213.086 83.826,210.996 83.233,209.837 84.292 M212.495 85.051 C 212.947 85.881,211.394 86.768,210.250 86.333 C 209.729 86.135,209.746 85.390,210.285 84.795 C 210.752 84.279,212.162 84.443,212.495 85.051 M202.259 92.621 C 200.191 93.147,199.034 96.217,200.583 97.067 C 200.767 97.168,200.965 97.316,201.024 97.398 C 201.600 98.191,204.132 97.283,204.882 96.014 C 205.045 95.738,205.298 95.392,205.445 95.245 C 205.644 95.046,205.664 94.931,205.523 94.789 C 205.419 94.685,205.333 94.431,205.333 94.225 C 205.333 93.211,203.565 92.289,202.259 92.621 M204.266 93.682 C 205.636 94.969,203.124 97.681,201.415 96.761 C 200.392 96.210,200.289 95.305,201.124 94.191 C 201.916 93.135,203.424 92.890,204.266 93.682 " stroke="none" fill="#eae7cc" fill-rule="evenodd"></path><path id="path3" d="M141.658 55.124 C 150.651 55.159,153.264 55.215,153.379 55.376 C 153.487 55.529,153.507 55.517,153.457 55.333 C 153.397 55.114,151.952 55.083,141.736 55.082 L 130.083 55.080 141.658 55.124 M176.610 55.124 C 176.567 55.193,181.892 55.230,188.444 55.206 C 196.457 55.177,200.322 55.218,200.251 55.331 C 200.194 55.424,200.233 55.500,200.337 55.500 C 200.442 55.500,200.497 55.406,200.458 55.292 C 200.380 55.056,176.754 54.890,176.610 55.124 M308.984 55.125 L 334.051 55.168 333.734 55.542 L 333.417 55.917 333.792 55.599 C 333.998 55.425,334.167 55.218,334.167 55.141 C 334.167 55.063,322.860 55.019,309.042 55.041 L 283.917 55.082 308.984 55.125 M353.125 55.125 C 358.190 55.149,366.477 55.149,371.542 55.125 C 376.606 55.100,372.462 55.080,362.333 55.080 C 352.204 55.080,348.060 55.100,353.125 55.125 M282.211 55.286 C 282.464 55.325,282.839 55.324,283.044 55.284 C 283.249 55.244,283.042 55.213,282.583 55.214 C 282.125 55.216,281.957 55.248,282.211 55.286 M278.292 55.618 C 278.498 55.657,278.835 55.657,279.042 55.618 C 279.248 55.578,279.079 55.545,278.667 55.545 C 278.254 55.545,278.085 55.578,278.292 55.618 M383.384 57.291 C 384.282 57.321,385.707 57.321,386.550 57.291 C 387.393 57.261,386.658 57.236,384.917 57.236 C 383.175 57.236,382.485 57.261,383.384 57.291 M388.929 57.818 L 388.441 58.417 389.004 57.880 C 389.313 57.585,389.533 57.316,389.491 57.281 C 389.450 57.247,389.197 57.488,388.929 57.818 M387.491 59.125 L 386.917 59.750 387.542 59.176 C 388.123 58.641,388.243 58.500,388.116 58.500 C 388.088 58.500,387.807 58.781,387.491 59.125 M385.833 60.583 C 385.428 60.996,385.135 61.333,385.181 61.333 C 385.226 61.333,385.595 60.996,386.000 60.583 C 386.405 60.171,386.699 59.833,386.653 59.833 C 386.607 59.833,386.238 60.171,385.833 60.583 M264.083 61.667 C 264.226 61.942,264.379 62.167,264.425 62.167 C 264.471 62.167,264.392 61.942,264.250 61.667 C 264.108 61.392,263.954 61.167,263.908 61.167 C 263.862 61.167,263.941 61.392,264.083 61.667 M188.494 62.792 L 187.583 63.750 188.542 62.839 C 189.069 62.338,189.500 61.907,189.500 61.881 C 189.500 61.757,189.341 61.901,188.494 62.792 M383.240 62.875 L 382.750 63.417 383.292 62.927 C 383.797 62.471,383.910 62.333,383.781 62.333 C 383.752 62.333,383.509 62.577,383.240 62.875 M381.494 64.458 L 380.583 65.417 381.542 64.506 C 382.432 63.659,382.576 63.500,382.453 63.500 C 382.427 63.500,381.995 63.931,381.494 64.458 M321.406 65.542 L 320.917 66.083 321.458 65.594 C 321.963 65.138,322.077 65.000,321.948 65.000 C 321.919 65.000,321.675 65.244,321.406 65.542 M325.333 66.417 C 324.928 66.829,324.635 67.167,324.681 67.167 C 324.726 67.167,325.095 66.829,325.500 66.417 C 325.905 66.004,326.199 65.667,326.153 65.667 C 326.107 65.667,325.738 66.004,325.333 66.417 M319.991 66.792 L 319.417 67.417 320.042 66.842 C 320.385 66.526,320.667 66.245,320.667 66.217 C 320.667 66.090,320.526 66.210,319.991 66.792 M378.406 67.208 L 377.917 67.750 378.458 67.260 C 378.963 66.804,379.077 66.667,378.948 66.667 C 378.919 66.667,378.675 66.910,378.406 67.208 M184.750 67.833 C 184.608 68.108,184.529 68.333,184.575 68.333 C 184.621 68.333,184.774 68.108,184.917 67.833 C 185.059 67.558,185.138 67.333,185.092 67.333 C 185.046 67.333,184.892 67.558,184.750 67.833 M266.230 69.167 C 266.230 70.221,266.257 70.652,266.290 70.125 C 266.323 69.598,266.323 68.735,266.290 68.208 C 266.257 67.681,266.230 68.112,266.230 69.167 M321.324 69.792 L 320.750 70.417 321.375 69.842 C 321.957 69.308,322.077 69.167,321.949 69.167 C 321.922 69.167,321.640 69.448,321.324 69.792 M327.288 70.454 C 327.584 70.490,328.109 70.491,328.455 70.455 C 328.800 70.419,328.558 70.389,327.917 70.388 C 327.275 70.387,326.992 70.417,327.288 70.454 M331.961 70.454 C 332.261 70.491,332.711 70.490,332.961 70.452 C 333.212 70.414,332.967 70.384,332.417 70.385 C 331.867 70.386,331.662 70.417,331.961 70.454 M336.296 70.456 C 336.688 70.491,337.288 70.490,337.629 70.454 C 337.971 70.419,337.650 70.390,336.917 70.390 C 336.183 70.391,335.904 70.420,336.296 70.456 M340.750 70.418 C 341.131 70.551,342.137 70.587,342.062 70.465 C 342.017 70.393,341.666 70.339,341.282 70.346 C 340.898 70.354,340.658 70.386,340.750 70.418 M368.961 70.454 C 369.261 70.491,369.711 70.490,369.961 70.452 C 370.212 70.414,369.967 70.384,369.417 70.385 C 368.867 70.386,368.662 70.417,368.961 70.454 M275.740 72.208 L 275.250 72.750 275.792 72.260 C 276.297 71.804,276.410 71.667,276.281 71.667 C 276.252 71.667,276.009 71.910,275.740 72.208 M182.271 74.756 C 182.213 74.905,182.174 75.190,182.184 75.389 C 182.195 75.617,182.251 75.536,182.338 75.168 C 182.483 74.548,182.444 74.306,182.271 74.756 M304.167 78.309 L 304.750 78.430 303.917 78.860 C 303.021 79.323,298.997 81.044,295.750 82.353 C 294.650 82.796,291.425 83.920,288.583 84.851 C 282.232 86.930,280.360 87.602,275.167 89.672 C 272.921 90.567,270.896 91.334,270.667 91.377 C 270.438 91.420,276.999 91.419,285.248 91.376 L 300.246 91.297 302.415 90.420 C 304.663 89.512,310.392 87.586,313.583 86.667 C 316.109 85.939,318.999 84.999,319.500 84.743 C 319.729 84.626,320.158 84.440,320.453 84.330 L 320.989 84.131 320.549 83.554 C 319.838 82.621,316.916 80.769,315.363 80.267 C 312.873 79.461,308.502 78.669,304.250 78.254 C 303.604 78.191,303.602 78.193,304.167 78.309 M212.375 81.621 C 212.719 81.657,213.281 81.657,213.625 81.621 C 213.969 81.585,213.688 81.556,213.000 81.556 C 212.313 81.556,212.031 81.585,212.375 81.621 M230.625 81.618 C 230.831 81.657,231.169 81.657,231.375 81.618 C 231.581 81.578,231.412 81.545,231.000 81.545 C 230.588 81.545,230.419 81.578,230.625 81.618 M138.410 83.042 L 137.583 83.917 138.458 83.090 C 139.271 82.321,139.410 82.167,139.285 82.167 C 139.259 82.167,138.865 82.560,138.410 83.042 M136.658 84.625 L 136.083 85.250 136.708 84.676 C 137.290 84.141,137.410 84.000,137.283 84.000 C 137.255 84.000,136.974 84.281,136.658 84.625 M133.667 87.250 C 133.262 87.662,132.968 88.000,133.014 88.000 C 133.060 88.000,133.428 87.662,133.833 87.250 C 134.238 86.837,134.532 86.500,134.486 86.500 C 134.440 86.500,134.072 86.837,133.667 87.250 M132.246 88.013 C 132.108 88.449,132.274 88.631,132.544 88.339 C 132.709 88.162,132.705 88.143,132.524 88.246 C 132.352 88.344,132.325 88.290,132.410 88.021 C 132.472 87.826,132.485 87.667,132.439 87.667 C 132.393 87.667,132.306 87.822,132.246 88.013 M268.542 91.282 C 268.702 91.323,268.965 91.323,269.125 91.282 C 269.285 91.240,269.154 91.205,268.833 91.205 C 268.512 91.205,268.381 91.240,268.542 91.282 M145.127 91.618 C 145.334 91.658,145.634 91.656,145.794 91.615 C 145.953 91.573,145.783 91.540,145.417 91.542 C 145.050 91.544,144.920 91.578,145.127 91.618 M147.875 91.615 C 148.035 91.657,148.298 91.657,148.458 91.615 C 148.619 91.573,148.487 91.539,148.167 91.539 C 147.846 91.539,147.715 91.573,147.875 91.615 M153.458 91.618 C 153.665 91.657,154.002 91.657,154.208 91.618 C 154.415 91.578,154.246 91.545,153.833 91.545 C 153.421 91.545,153.252 91.578,153.458 91.618 M157.463 91.622 C 157.855 91.657,158.455 91.657,158.796 91.621 C 159.137 91.585,158.817 91.557,158.083 91.557 C 157.350 91.558,157.071 91.587,157.463 91.622 M165.708 91.615 C 165.869 91.657,166.131 91.657,166.292 91.615 C 166.452 91.573,166.321 91.539,166.000 91.539 C 165.679 91.539,165.548 91.573,165.708 91.615 M288.544 92.120 C 288.797 92.158,289.172 92.157,289.377 92.117 C 289.582 92.078,289.375 92.046,288.917 92.048 C 288.458 92.049,288.291 92.081,288.544 92.120 M176.728 99.583 C 176.728 100.500,176.756 100.854,176.790 100.369 C 176.824 99.885,176.823 99.135,176.789 98.703 C 176.755 98.270,176.727 98.667,176.728 99.583 M299.417 99.087 C 298.958 99.214,298.246 99.333,297.833 99.350 L 297.083 99.381 297.750 99.490 L 298.417 99.599 297.167 99.982 C 296.479 100.193,294.042 100.924,291.750 101.606 C 289.458 102.289,285.971 103.364,284.000 103.995 C 282.029 104.626,279.854 105.306,279.167 105.507 C 278.479 105.707,277.242 106.093,276.417 106.363 C 274.558 106.972,269.499 108.484,266.500 109.327 C 265.262 109.675,263.575 110.161,262.750 110.408 C 261.925 110.655,260.125 111.195,258.750 111.608 C 256.609 112.250,254.153 113.092,252.687 113.685 C 252.469 113.774,252.322 113.877,252.361 113.916 C 252.472 114.028,254.344 113.501,254.993 113.175 C 255.821 112.759,259.323 111.668,266.833 109.485 C 272.235 107.916,276.759 106.534,283.500 104.395 C 285.654 103.712,288.804 102.740,290.500 102.235 C 299.817 99.463,300.333 99.291,300.333 98.969 C 300.333 98.894,300.315 98.838,300.292 98.845 C 300.269 98.851,299.875 98.960,299.417 99.087 M165.583 99.500 C 165.520 99.788,165.503 100.059,165.545 100.101 C 165.588 100.143,165.671 99.939,165.729 99.646 C 165.788 99.353,165.805 99.083,165.767 99.045 C 165.729 99.007,165.647 99.212,165.583 99.500 M292.417 99.696 C 292.142 99.788,291.054 100.072,290.000 100.328 C 288.946 100.583,286.696 101.168,285.000 101.629 C 278.900 103.285,277.973 103.371,276.632 102.408 C 275.600 101.666,275.298 101.541,273.583 101.149 C 273.125 101.044,272.712 100.911,272.667 100.854 C 272.621 100.797,272.433 100.729,272.250 100.704 C 271.943 100.662,271.126 100.521,269.417 100.215 C 268.767 100.099,268.781 100.091,270.000 99.903 C 271.127 99.729,270.805 99.708,266.708 99.688 C 264.210 99.676,262.167 99.732,262.167 99.811 C 262.167 99.891,261.848 100.165,261.458 100.421 C 261.069 100.677,260.375 101.204,259.917 101.593 C 259.458 101.981,257.958 103.068,256.583 104.009 C 250.809 107.958,250.325 108.251,245.917 110.463 C 243.522 111.665,242.598 112.046,239.535 113.101 C 238.732 113.377,238.687 113.418,239.035 113.558 L 239.417 113.712 239.000 113.839 C 238.768 113.910,239.803 113.969,241.333 113.972 C 242.846 113.974,243.937 113.919,243.757 113.849 C 243.489 113.744,243.538 113.704,244.031 113.624 C 244.361 113.571,245.820 113.150,247.274 112.690 C 249.662 111.935,252.113 111.184,254.167 110.579 C 254.579 110.457,255.929 110.082,257.167 109.745 C 258.404 109.408,260.842 108.720,262.583 108.217 C 264.325 107.713,267.137 106.938,268.833 106.494 C 270.529 106.050,273.379 105.279,275.167 104.780 C 276.954 104.281,279.542 103.564,280.917 103.186 C 282.292 102.808,284.767 102.123,286.417 101.663 C 291.712 100.188,293.384 99.796,294.917 99.674 L 296.417 99.554 294.667 99.541 C 293.704 99.534,292.692 99.604,292.417 99.696 M176.872 102.167 C 176.872 102.487,176.906 102.619,176.948 102.458 C 176.990 102.298,176.990 102.035,176.948 101.875 C 176.906 101.715,176.872 101.846,176.872 102.167 M139.019 102.361 C 139.009 102.514,138.957 102.777,138.904 102.945 C 138.813 103.234,138.818 103.235,138.999 102.953 C 139.103 102.790,139.155 102.527,139.114 102.370 C 139.046 102.112,139.037 102.111,139.019 102.361 M268.292 114.618 C 268.498 114.657,268.835 114.657,269.042 114.618 C 269.248 114.578,269.079 114.545,268.667 114.545 C 268.254 114.545,268.085 114.578,268.292 114.618 M273.128 114.621 C 273.428 114.658,273.878 114.657,274.128 114.619 C 274.378 114.581,274.133 114.551,273.583 114.552 C 273.033 114.553,272.828 114.584,273.128 114.621 M292.880 114.623 C 293.318 114.657,293.993 114.657,294.380 114.622 C 294.767 114.587,294.408 114.559,293.583 114.559 C 292.758 114.560,292.442 114.588,292.880 114.623 " stroke="none" fill="#b94104" fill-rule="evenodd"></path><path id="path4" d="M48.886 18.678 C 35.945 19.674,21.701 28.030,13.679 39.333 C 10.870 43.291,8.510 47.367,7.164 50.583 C 6.781 51.500,6.328 52.550,6.159 52.917 C 4.306 56.920,2.821 67.115,3.319 72.417 C 3.470 74.019,3.473 73.990,3.397 71.667 C 3.129 63.429,4.864 55.435,8.502 48.156 C 9.805 45.547,10.179 44.908,12.108 42.000 C 21.073 28.481,35.059 19.816,49.500 18.836 C 52.530 18.630,131.667 18.606,131.667 18.811 C 131.667 19.264,124.005 28.494,119.819 33.083 C 115.488 37.832,109.330 43.583,108.750 43.422 C 108.105 43.243,101.203 41.448,97.167 40.410 C 94.921 39.833,90.758 38.759,87.917 38.023 C 82.112 36.521,78.351 35.723,76.500 35.601 C 75.052 35.505,75.019 35.498,79.583 36.278 C 81.869 36.668,84.444 37.273,88.667 38.411 C 89.537 38.645,92.575 39.431,95.417 40.156 C 98.258 40.881,102.046 41.861,103.833 42.335 C 105.621 42.808,107.550 43.307,108.121 43.444 L 109.159 43.692 110.538 42.488 C 116.222 37.523,120.691 32.755,128.023 23.833 C 131.081 20.112,132.028 18.847,131.906 18.649 C 131.792 18.465,51.295 18.493,48.886 18.678 M71.667 35.335 C 72.602 35.470,75.279 35.550,75.153 35.439 C 75.115 35.406,74.108 35.339,72.917 35.291 C 71.543 35.235,71.086 35.252,71.667 35.335 M65.750 35.738 C 55.341 37.561,48.042 42.583,41.390 52.500 C 36.757 59.408,34.800 67.723,36.664 72.583 C 37.474 74.696,44.192 78.097,46.946 77.788 C 47.783 77.695,51.807 75.750,53.917 74.420 C 59.244 71.061,65.981 64.559,69.794 59.096 C 70.469 58.130,70.530 58.167,71.447 60.102 C 75.635 68.943,71.673 78.539,62.823 80.992 C 60.135 81.737,58.835 81.659,51.649 80.326 L 47.882 79.627 45.607 80.924 C 42.978 82.424,43.003 82.371,44.227 83.843 C 46.888 87.043,51.713 90.916,57.298 94.339 C 57.967 94.748,59.067 95.434,59.744 95.863 C 61.363 96.889,67.735 100.641,74.000 104.257 C 75.146 104.918,77.792 106.462,79.880 107.688 C 81.968 108.914,84.180 110.210,84.796 110.569 C 85.413 110.928,86.817 111.753,87.917 112.402 L 89.917 113.583 75.083 113.634 C 51.569 113.713,45.745 113.208,36.136 110.253 C 16.910 104.341,6.422 93.409,3.915 76.667 C 3.702 75.246,3.522 74.348,3.514 74.672 C 3.506 74.996,3.687 76.384,3.916 77.756 C 4.278 79.927,4.545 81.101,5.166 83.250 C 5.245 83.525,5.418 84.133,5.550 84.601 C 6.188 86.860,8.896 91.785,11.123 94.732 C 18.455 104.440,33.507 111.611,49.814 113.165 C 51.704 113.345,54.038 113.571,55.000 113.668 C 56.427 113.811,79.671 113.937,88.552 113.851 C 90.751 113.829,90.771 113.872,87.700 112.061 C 86.353 111.266,84.430 110.128,83.428 109.533 C 82.425 108.938,80.663 107.910,79.511 107.250 C 78.359 106.590,77.042 105.824,76.583 105.548 C 76.125 105.272,75.225 104.743,74.583 104.374 C 72.973 103.447,68.612 100.913,67.500 100.259 C 66.996 99.962,65.833 99.283,64.917 98.750 C 64.000 98.217,62.313 97.206,61.167 96.504 C 60.021 95.802,58.483 94.860,57.750 94.411 C 50.644 90.060,42.461 83.020,43.673 82.300 C 43.807 82.221,44.722 81.676,45.705 81.090 C 48.013 79.715,47.778 79.759,50.269 80.236 C 51.450 80.462,53.504 80.855,54.833 81.109 C 62.755 82.623,68.810 80.010,71.976 73.714 C 73.585 70.514,73.736 64.362,72.278 61.417 C 72.142 61.142,71.763 60.346,71.435 59.648 C 70.594 57.856,70.472 57.790,69.799 58.768 C 64.453 66.534,56.030 73.750,48.364 77.129 C 45.921 78.206,42.040 77.036,38.246 74.078 C 36.397 72.635,35.558 68.079,36.484 64.500 C 37.285 61.401,37.534 60.562,38.017 59.333 C 39.182 56.367,41.294 52.705,43.303 50.167 C 46.237 46.459,47.054 45.533,48.717 44.032 C 54.219 39.062,61.360 36.085,69.167 35.506 L 70.750 35.388 69.333 35.374 C 68.536 35.365,66.969 35.525,65.750 35.738 M388.883 44.836 C 388.602 44.949,388.413 45.328,388.077 46.450 C 387.835 47.257,387.457 48.502,387.236 49.217 C 387.014 49.932,386.833 50.590,386.833 50.678 C 386.833 50.778,388.473 50.822,391.195 50.794 L 395.556 50.750 395.681 50.333 C 396.679 47.020,397.181 45.110,397.104 44.911 C 396.996 44.629,389.564 44.561,388.883 44.836 M396.911 45.350 C 396.495 46.662,395.500 50.248,395.500 50.437 C 395.500 50.626,394.750 50.667,391.232 50.667 C 387.234 50.667,386.972 50.648,387.082 50.375 C 387.146 50.215,387.421 49.333,387.692 48.417 C 387.962 47.500,388.303 46.356,388.448 45.875 L 388.712 45.000 392.867 45.000 C 397.013 45.000,397.022 45.001,396.911 45.350 M378.598 49.142 C 378.440 49.398,377.667 51.619,377.667 51.817 C 377.667 51.956,378.240 51.997,379.693 51.963 L 381.720 51.917 382.178 50.554 C 382.430 49.804,382.593 49.148,382.540 49.096 C 382.386 48.942,378.695 48.986,378.598 49.142 M382.205 49.260 C 382.256 49.311,382.134 49.893,381.934 50.552 L 381.570 51.750 379.682 51.797 C 377.926 51.841,377.802 51.824,377.914 51.547 C 377.980 51.384,378.173 50.855,378.343 50.372 C 378.512 49.889,378.696 49.420,378.752 49.330 C 378.857 49.160,382.040 49.096,382.205 49.260 M394.381 51.790 L 393.179 51.848 392.604 53.632 C 391.689 56.477,391.605 56.859,391.862 57.021 C 392.234 57.257,397.267 57.201,397.451 56.958 C 397.663 56.679,398.699 53.078,398.793 52.292 L 398.868 51.667 397.226 51.700 C 396.322 51.718,395.042 51.759,394.381 51.790 M398.667 52.030 C 398.667 52.298,397.524 56.362,397.372 56.635 C 397.227 56.895,392.092 57.117,391.940 56.870 C 391.845 56.718,392.028 56.036,392.842 53.500 L 393.297 52.083 394.690 51.989 C 397.372 51.809,398.667 51.822,398.667 52.030 M107.578 54.875 C 107.535 54.990,107.481 61.421,107.458 69.166 L 107.417 83.249 106.750 83.367 C 106.383 83.432,103.738 83.576,100.873 83.687 C 97.259 83.827,95.611 83.949,95.497 84.087 C 95.390 84.216,95.346 89.444,95.374 98.935 L 95.417 113.583 96.500 113.626 C 97.906 113.682,97.950 113.644,98.593 111.809 C 98.893 110.952,99.291 109.837,99.476 109.333 C 99.661 108.829,100.276 107.104,100.844 105.500 C 101.411 103.896,101.990 102.358,102.131 102.083 C 102.271 101.808,102.480 101.246,102.596 100.833 C 102.860 99.892,105.466 92.639,106.134 90.984 C 106.408 90.305,107.207 88.100,107.910 86.083 C 109.918 80.323,110.504 78.681,112.583 73.000 C 114.026 69.056,114.967 66.419,115.584 64.583 C 115.892 63.667,116.494 61.979,116.922 60.833 C 118.546 56.481,119.011 55.103,118.929 54.888 C 118.808 54.573,107.696 54.560,107.578 54.875 M118.833 54.885 C 118.833 54.987,117.848 57.781,117.000 60.083 C 116.527 61.367,115.890 63.129,115.583 64.000 C 114.202 67.925,112.913 71.499,111.497 75.333 C 111.141 76.296,110.440 78.246,109.938 79.667 C 107.056 87.830,106.300 89.944,105.614 91.750 C 105.196 92.850,104.257 95.438,103.527 97.500 C 102.798 99.563,102.035 101.662,101.832 102.167 C 101.478 103.050,99.546 108.417,98.422 111.643 C 97.792 113.450,97.721 113.517,96.500 113.460 L 95.583 113.417 95.583 98.833 L 95.583 84.250 96.167 84.131 C 96.487 84.065,98.888 83.930,101.500 83.831 C 104.112 83.732,106.550 83.598,106.917 83.533 L 107.583 83.415 107.625 69.333 C 107.647 61.587,107.701 55.156,107.744 55.042 C 107.814 54.856,118.833 54.700,118.833 54.885 M216.583 55.424 C 197.751 57.234,188.395 63.851,185.240 77.589 C 184.477 80.910,182.217 89.884,181.317 93.167 C 180.699 95.420,180.520 99.928,180.983 101.583 C 182.896 108.433,190.202 112.517,202.750 113.750 C 208.523 114.318,222.180 114.038,227.582 113.242 C 241.540 111.186,251.067 105.196,256.058 95.337 C 257.428 92.631,257.885 91.510,258.166 90.167 C 258.362 89.226,259.283 85.349,261.924 74.333 C 262.936 70.111,262.117 65.874,259.715 62.918 C 256.284 58.694,250.559 56.449,240.583 55.418 C 237.543 55.103,219.870 55.108,216.583 55.424 M241.250 55.637 C 252.302 56.971,258.304 59.904,260.923 65.250 C 262.651 68.779,262.577 71.321,260.508 79.491 C 259.890 81.929,258.956 85.788,257.924 90.167 C 255.615 99.957,246.150 108.551,234.250 111.660 C 223.709 114.413,204.572 114.737,195.198 112.320 C 185.379 109.788,180.969 105.439,180.930 98.250 C 180.915 95.415,181.184 94.065,183.171 87.000 C 183.315 86.488,184.646 80.982,185.927 75.599 C 188.695 63.965,199.296 57.136,217.000 55.579 C 219.843 55.329,239.079 55.375,241.250 55.637 M381.295 57.121 C 381.594 57.158,382.044 57.157,382.295 57.119 C 382.545 57.081,382.300 57.051,381.750 57.052 C 381.200 57.053,380.995 57.084,381.295 57.121 M207.583 68.732 C 206.415 69.107,205.147 69.839,204.309 70.622 C 202.864 71.974,202.726 72.329,200.832 79.583 C 200.664 80.225,200.212 81.950,199.826 83.417 C 199.440 84.883,198.992 86.683,198.831 87.417 C 198.670 88.150,198.123 90.438,197.616 92.500 C 196.393 97.474,196.436 97.195,196.732 98.206 C 197.181 99.742,198.221 100.685,200.001 101.169 C 200.951 101.428,225.164 101.413,227.333 101.153 C 234.707 100.268,239.612 96.901,241.079 91.718 C 241.284 90.997,238.185 90.903,236.560 91.583 C 236.029 91.804,208.833 92.003,208.833 91.786 C 208.833 91.759,209.002 91.306,209.208 90.778 L 209.583 89.819 223.250 89.783 L 236.917 89.747 237.889 89.378 C 241.245 88.103,242.222 86.920,243.143 83.022 C 243.954 79.589,244.086 79.771,241.247 80.415 C 240.240 80.643,239.092 80.831,238.694 80.832 L 237.972 80.833 238.407 80.054 C 239.010 78.975,238.719 78.763,237.851 79.649 C 236.683 80.841,238.725 80.732,218.390 80.682 L 212.031 80.667 212.303 79.815 C 212.693 78.594,211.915 78.654,227.051 78.674 L 240.720 78.691 241.902 78.106 C 246.417 75.868,246.656 70.503,242.312 68.916 C 241.171 68.500,208.843 68.328,207.583 68.732 M241.408 68.918 C 246.212 69.935,246.569 75.527,241.976 77.825 L 240.628 78.500 226.668 78.500 C 215.699 78.500,212.672 78.545,212.542 78.708 C 212.148 79.206,211.785 80.700,212.022 80.850 C 212.432 81.110,235.615 81.032,236.608 80.768 C 237.405 80.555,237.488 80.562,237.789 80.863 C 238.149 81.223,238.844 81.157,241.820 80.477 C 243.617 80.067,243.599 80.032,242.994 82.722 C 242.081 86.785,241.125 87.982,237.833 89.185 L 236.750 89.582 223.250 89.604 C 215.825 89.617,209.662 89.636,209.555 89.647 C 209.366 89.666,208.566 91.788,208.698 91.920 C 208.952 92.175,235.971 92.003,236.667 91.743 C 237.846 91.302,240.833 91.196,240.833 91.595 C 240.833 93.282,238.057 96.925,235.707 98.321 C 231.297 100.941,229.191 101.198,212.667 101.133 L 200.083 101.083 199.167 100.646 C 196.634 99.437,196.320 98.187,197.457 93.833 C 197.732 92.779,198.238 90.717,198.581 89.250 C 198.925 87.783,199.379 85.946,199.592 85.167 C 199.805 84.387,200.165 83.000,200.392 82.083 C 200.619 81.167,200.968 79.817,201.167 79.083 C 201.367 78.350,201.783 76.759,202.092 75.548 C 203.094 71.626,204.544 69.924,207.744 68.912 C 208.812 68.575,239.812 68.580,241.408 68.918 M207.165 73.375 C 205.852 74.269,205.487 75.513,206.300 76.326 C 207.748 77.774,210.644 75.706,209.896 73.757 C 209.605 72.998,208.040 72.779,207.165 73.375 M209.540 73.675 C 210.743 75.161,207.711 77.631,206.409 76.226 C 205.927 75.706,205.904 75.289,206.314 74.520 C 206.981 73.268,208.820 72.786,209.540 73.675 M213.076 74.348 C 212.683 75.107,212.850 75.333,213.802 75.333 C 214.967 75.333,215.665 74.445,214.844 74.006 C 214.158 73.638,213.363 73.792,213.076 74.348 M214.678 74.173 C 215.398 74.558,214.843 75.167,213.771 75.167 C 213.048 75.167,212.891 74.942,213.239 74.409 C 213.527 73.970,214.118 73.873,214.678 74.173 M306.042 78.448 C 306.202 78.490,306.465 78.490,306.625 78.448 C 306.785 78.406,306.654 78.372,306.333 78.372 C 306.012 78.372,305.881 78.406,306.042 78.448 M313.417 79.644 C 313.600 79.724,314.012 79.838,314.333 79.896 C 314.734 79.968,314.812 79.956,314.583 79.856 C 314.400 79.776,313.987 79.662,313.667 79.604 C 313.266 79.532,313.188 79.544,313.417 79.644 M317.167 80.908 C 317.167 80.954,317.392 81.108,317.667 81.250 C 317.942 81.392,318.167 81.471,318.167 81.425 C 318.167 81.379,317.942 81.226,317.667 81.083 C 317.392 80.941,317.167 80.862,317.167 80.908 M318.333 81.552 C 318.333 81.591,318.637 81.823,319.008 82.069 C 322.319 84.260,323.756 87.757,323.333 92.587 C 322.391 103.335,314.984 110.738,302.917 112.994 C 299.006 113.725,299.128 113.721,280.333 113.825 L 262.083 113.926 279.417 113.961 C 293.515 113.990,297.170 113.952,299.000 113.757 C 311.535 112.424,319.362 107.137,322.415 97.942 C 324.566 91.466,323.821 86.106,320.334 82.959 C 319.451 82.163,318.333 81.376,318.333 81.552 M204.394 83.643 C 201.885 85.221,203.048 88.223,205.733 87.101 C 206.978 86.581,207.736 84.701,207.045 83.847 C 206.590 83.286,205.140 83.174,204.394 83.643 M206.840 83.923 C 207.868 84.853,206.295 87.167,204.634 87.167 C 202.784 87.167,202.708 84.700,204.530 83.771 C 205.208 83.425,206.375 83.502,206.840 83.923 M210.267 84.815 C 209.913 85.205,209.819 86.193,210.129 86.261 C 210.246 86.287,210.265 86.270,210.171 86.224 C 209.461 85.871,210.359 84.667,211.332 84.667 C 212.631 84.667,212.932 85.589,211.794 86.084 C 211.495 86.214,211.377 86.323,211.532 86.327 C 212.188 86.342,212.774 85.564,212.495 85.051 C 212.155 84.429,210.751 84.280,210.267 84.815 M295.750 91.485 L 300.250 91.583 301.163 92.083 C 303.563 93.398,303.244 96.432,300.500 98.394 C 300.092 98.686,300.093 98.686,300.583 98.408 C 302.941 97.068,303.722 93.961,302.067 92.508 C 300.878 91.464,300.694 91.432,295.750 91.408 L 291.250 91.387 295.750 91.485 M274.708 91.623 C 275.144 91.657,275.856 91.657,276.292 91.623 C 276.727 91.588,276.371 91.560,275.500 91.560 C 274.629 91.560,274.273 91.588,274.708 91.623 M202.063 93.397 C 201.051 93.855,200.331 95.189,200.664 95.993 C 201.182 97.245,202.839 97.236,204.042 95.975 C 205.505 94.440,204.025 92.511,202.063 93.397 M204.207 93.841 C 204.898 94.695,204.182 96.045,202.750 96.592 C 200.695 97.377,200.078 94.632,202.077 93.598 C 202.759 93.246,203.823 93.368,204.207 93.841 M261.436 100.104 C 260.921 100.527,260.500 100.914,260.500 100.963 C 260.500 101.055,260.904 100.737,261.719 100.005 L 262.188 99.583 277.636 99.498 L 293.083 99.413 277.727 99.373 L 262.372 99.333 261.436 100.104 M254.250 105.431 L 253.750 105.861 254.292 105.502 C 254.590 105.305,254.833 105.112,254.833 105.072 C 254.833 104.947,254.763 104.991,254.250 105.431 M249.458 108.429 C 248.835 108.767,248.873 108.907,249.500 108.583 C 249.775 108.441,250.000 108.289,250.000 108.246 C 250.000 108.138,249.982 108.145,249.458 108.429 M247.667 109.417 C 247.254 109.638,246.976 109.822,247.048 109.826 C 247.225 109.836,248.500 109.181,248.500 109.080 C 248.500 108.970,248.507 108.967,247.667 109.417 M244.833 110.833 C 244.329 111.100,243.975 111.321,244.047 111.325 C 244.224 111.336,245.833 110.515,245.833 110.414 C 245.833 110.303,245.856 110.293,244.833 110.833 M254.801 114.124 C 255.745 114.154,257.245 114.154,258.134 114.124 C 259.023 114.094,258.250 114.070,256.417 114.070 C 254.583 114.070,253.856 114.095,254.801 114.124 " stroke="none" fill="#fcde6a" fill-rule="evenodd"></path></g></svg>