<svg id="svg" version="1.1" xmlns="http://www.w3.org/2000/svg" xmlns:xlink="http://www.w3.org/1999/xlink" width="400" height="177.69607843137254" viewBox="0, 0, 400,177.69607843137254"><g id="svgg"><path id="path0" d="M355.917 81.499 C 339.310 81.590,339.245 81.591,337.968 81.961 C 335.104 82.791,333.838 83.560,329.417 87.158 C 328.225 88.127,326.462 89.534,325.500 90.285 C 323.466 91.870,321.333 93.878,321.333 94.208 C 321.333 94.639,322.324 95.458,323.074 95.647 C 323.540 95.764,325.813 95.837,329.199 95.842 C 334.983 95.852,338.921 96.021,339.170 96.270 C 339.390 96.490,338.445 100.953,336.916 106.917 C 335.236 113.468,334.987 114.464,332.911 122.917 C 331.944 126.858,330.892 131.126,330.576 132.401 C 329.680 136.007,329.852 137.131,331.419 137.917 C 332.052 138.235,332.416 138.250,339.250 138.250 L 346.417 138.250 347.329 137.750 C 348.602 137.052,348.916 136.532,349.645 133.917 C 349.817 133.299,350.340 131.176,353.977 116.333 C 354.707 113.354,355.678 109.454,356.134 107.667 C 356.590 105.879,357.235 103.292,357.567 101.917 C 359.045 95.788,358.946 96.013,360.167 95.992 C 370.347 95.818,371.253 95.599,375.007 92.423 C 383.605 85.147,384.173 83.763,378.701 83.417 C 376.291 83.264,376.299 83.267,376.363 82.540 C 376.469 81.334,377.386 81.381,355.917 81.499 M134.750 81.656 C 132.463 82.213,132.284 82.610,129.919 92.417 C 129.433 94.433,128.345 98.783,127.502 102.083 C 126.659 105.383,125.830 108.699,125.660 109.451 C 125.490 110.204,125.273 111.104,125.177 111.451 C 125.082 111.799,124.477 114.258,123.833 116.917 C 123.190 119.575,122.331 123.025,121.925 124.583 C 119.272 134.760,119.048 136.022,119.711 137.017 C 120.532 138.251,120.528 138.250,128.750 138.250 C 138.503 138.250,138.270 138.344,139.474 133.917 C 139.574 133.550,139.767 132.837,139.903 132.333 C 140.039 131.829,140.871 128.567,141.752 125.083 C 143.635 117.631,143.955 116.494,144.252 116.185 C 144.896 115.516,168.515 115.477,169.206 116.144 C 169.443 116.372,168.815 119.235,166.490 128.547 C 165.579 132.194,164.833 135.361,164.833 135.585 C 164.833 136.462,165.346 137.327,166.145 137.796 L 166.917 138.250 174.333 138.250 C 181.577 138.250,181.768 138.242,182.527 137.891 C 184.139 137.146,184.027 136.541,181.857 134.258 C 179.226 131.492,178.242 129.199,178.052 125.390 C 177.934 123.038,177.973 122.792,179.328 117.250 C 179.866 115.050,181.000 110.400,181.848 106.917 C 185.264 92.874,186.692 90.275,193.875 85.020 C 196.170 83.340,196.318 83.113,195.567 82.416 C 194.702 81.614,194.386 81.583,187.000 81.583 C 177.290 81.583,178.325 80.740,175.853 90.668 C 174.117 97.637,173.126 101.066,172.721 101.500 C 172.521 101.715,170.931 101.764,161.203 101.851 C 149.296 101.957,149.284 101.958,147.895 102.760 C 146.718 103.440,139.635 109.282,136.101 112.489 C 135.086 113.410,134.711 113.417,135.277 112.503 C 135.446 112.231,136.396 110.750,137.390 109.213 C 138.384 107.675,140.601 104.204,142.316 101.500 C 144.032 98.796,146.420 95.083,147.623 93.250 C 153.023 85.021,153.333 84.490,153.333 83.464 C 153.333 82.655,152.703 81.952,151.737 81.683 C 150.995 81.477,135.585 81.452,134.750 81.656 M279.500 81.687 C 275.552 82.011,270.752 83.117,267.169 84.528 C 264.013 85.771,263.522 86.745,264.570 89.677 C 265.638 92.665,265.750 95.459,264.947 99.083 C 264.329 101.873,262.708 108.789,262.408 109.917 C 261.719 112.507,261.653 113.359,262.092 114.032 C 263.236 115.790,267.987 116.716,271.500 115.867 C 273.154 115.467,274.589 115.393,285.083 115.174 C 289.208 115.087,293.446 114.967,294.500 114.905 C 295.937 114.822,296.802 114.861,297.958 115.064 C 300.175 115.451,300.040 115.475,305.112 113.817 C 307.663 112.984,310.688 111.997,311.833 111.626 C 315.043 110.584,315.114 110.387,312.947 108.548 C 312.249 107.956,309.333 106.644,309.333 106.922 C 309.333 106.960,309.127 106.912,308.875 106.816 C 307.554 106.308,302.504 105.446,301.515 105.560 C 300.562 105.669,300.561 105.494,301.510 104.742 C 302.674 103.820,303.178 103.858,289.583 103.842 C 276.570 103.827,276.314 103.812,274.836 102.987 C 272.436 101.647,273.083 98.306,276.031 96.818 C 277.987 95.830,277.931 95.833,294.255 95.833 C 313.398 95.833,313.713 95.782,318.417 91.894 C 319.333 91.136,321.742 89.165,323.769 87.514 C 329.022 83.236,329.195 82.953,327.170 81.955 L 326.417 81.583 303.833 81.563 C 291.412 81.552,280.462 81.608,279.500 81.687 M293.333 124.671 C 291.460 124.831,288.720 125.368,285.250 126.254 C 283.692 126.652,280.467 127.436,278.083 127.997 C 275.700 128.558,273.563 129.083,273.333 129.165 C 272.075 129.613,271.250 129.551,270.993 128.990 C 270.708 128.365,269.347 127.750,268.250 127.750 C 267.883 127.750,267.530 127.675,267.464 127.583 C 267.322 127.384,264.788 127.368,263.500 127.558 C 262.996 127.632,262.471 127.697,262.333 127.701 C 261.863 127.716,259.085 129.144,257.500 130.186 C 256.629 130.759,255.092 131.633,254.083 132.130 C 252.019 133.146,250.182 134.530,249.784 135.368 C 249.562 135.837,249.195 136.090,247.551 136.910 C 245.194 138.084,245.228 138.117,248.930 138.279 L 251.277 138.382 253.184 137.781 C 255.025 137.202,257.804 136.378,260.583 135.590 C 261.317 135.382,263.117 134.871,264.583 134.455 C 268.443 133.359,274.422 131.572,275.583 131.167 C 276.133 130.976,277.258 130.631,278.083 130.401 C 278.908 130.171,281.308 129.426,283.417 128.745 C 285.525 128.064,288.487 127.124,290.000 126.655 C 296.757 124.562,297.120 124.346,293.333 124.671 " stroke="none" fill="#1d1b19" fill-rule="evenodd"></path><path id="path1" d="M70.833 38.191 C 68.587 38.268,66.637 38.378,66.500 38.437 C 66.362 38.495,65.800 38.572,65.250 38.608 C 64.700 38.643,63.725 38.778,63.083 38.908 C 62.442 39.039,61.260 39.237,60.458 39.349 C 59.656 39.462,59.000 39.629,59.000 39.721 C 59.000 39.813,58.959 39.847,58.908 39.797 C 58.811 39.700,55.546 40.507,54.833 40.804 C 54.604 40.900,53.893 41.140,53.254 41.337 C 52.614 41.534,51.794 41.839,51.431 42.014 C 51.068 42.190,50.716 42.333,50.650 42.333 C 50.234 42.333,44.751 45.167,43.422 46.069 C 43.094 46.291,42.321 46.636,41.705 46.834 C 40.059 47.363,34.279 50.081,33.804 50.550 C 33.682 50.670,33.227 50.939,32.792 51.149 C 32.356 51.358,32.000 51.598,32.000 51.682 C 32.000 51.765,31.921 51.833,31.823 51.833 C 31.726 51.833,31.319 52.077,30.919 52.375 C 30.519 52.673,29.808 53.179,29.341 53.500 C 28.873 53.821,28.398 54.161,28.287 54.256 C 28.175 54.352,27.446 54.941,26.667 55.566 C 24.937 56.953,20.823 61.078,19.916 62.333 C 19.552 62.837,19.092 63.381,18.893 63.541 C 18.695 63.701,18.325 64.189,18.071 64.624 C 17.817 65.060,17.472 65.515,17.305 65.634 C 17.137 65.754,17.000 65.949,17.000 66.067 C 17.000 66.185,16.852 66.416,16.671 66.580 C 16.489 66.744,16.381 66.943,16.430 67.022 C 16.480 67.102,16.428 67.167,16.315 67.167 C 16.203 67.167,16.156 67.211,16.210 67.265 C 16.264 67.320,16.130 67.564,15.912 67.809 C 15.390 68.395,13.833 70.991,13.833 71.277 C 13.833 71.399,13.777 71.501,13.708 71.503 C 13.640 71.504,13.358 71.973,13.083 72.544 C 12.808 73.116,12.527 73.608,12.458 73.639 C 12.390 73.669,12.333 73.797,12.333 73.922 C 12.333 74.047,12.152 74.490,11.930 74.908 C 11.708 75.325,11.562 75.667,11.606 75.667 C 11.650 75.667,11.569 75.833,11.426 76.037 C 11.283 76.241,11.167 76.578,11.167 76.787 C 11.167 76.996,11.092 77.167,11.000 77.167 C 10.908 77.167,10.833 77.278,10.833 77.413 C 10.833 77.549,10.528 78.416,10.156 79.341 C 9.783 80.265,9.404 81.483,9.313 82.047 C 9.222 82.611,9.087 83.149,9.014 83.244 C 8.940 83.339,8.835 83.679,8.781 84.000 C 8.727 84.321,8.634 84.771,8.575 85.000 C 8.515 85.229,8.436 85.754,8.397 86.167 C 8.359 86.579,8.259 87.104,8.175 87.333 C 7.545 89.047,7.551 102.415,8.182 103.075 C 8.265 103.162,8.333 103.594,8.333 104.035 C 8.333 104.477,8.479 105.363,8.657 106.005 C 8.835 106.647,8.978 107.190,8.975 107.211 C 8.915 107.631,9.466 109.443,10.108 110.942 C 10.232 111.231,10.333 111.518,10.333 111.580 C 10.333 111.763,11.207 113.909,11.319 114.000 C 11.420 114.082,12.391 116.005,12.414 116.167 C 12.429 116.279,12.898 117.021,13.818 118.387 C 14.239 119.013,14.748 119.797,14.948 120.130 C 15.149 120.464,15.553 120.946,15.846 121.202 C 16.139 121.457,16.328 121.667,16.266 121.667 C 16.087 121.667,16.476 122.102,18.184 123.813 C 20.127 125.759,21.101 126.667,21.246 126.667 C 21.306 126.667,21.544 126.892,21.776 127.167 C 22.007 127.442,22.288 127.667,22.400 127.667 C 22.512 127.667,22.780 127.835,22.996 128.042 C 23.649 128.667,27.267 130.918,29.089 131.833 C 29.727 132.154,30.287 132.454,30.333 132.500 C 30.519 132.685,34.625 134.459,35.167 134.588 C 35.809 134.740,36.631 135.105,37.114 135.452 C 37.406 135.662,37.692 135.833,37.750 135.833 C 37.808 135.833,38.094 136.008,38.386 136.221 C 38.678 136.434,39.442 136.865,40.083 137.179 C 40.725 137.493,41.288 137.800,41.335 137.862 C 41.382 137.923,41.626 138.025,41.877 138.088 C 42.128 138.151,42.333 138.264,42.333 138.338 C 42.333 138.413,42.558 138.523,42.833 138.583 C 43.108 138.644,43.333 138.762,43.333 138.847 C 43.333 138.931,43.422 139.000,43.531 139.000 C 43.639 139.000,44.033 139.143,44.406 139.317 C 45.839 139.987,47.887 140.788,48.500 140.917 C 48.637 140.946,49.105 141.124,49.539 141.311 C 49.972 141.499,50.647 141.743,51.039 141.854 C 51.430 141.965,51.825 142.079,51.917 142.107 C 52.008 142.134,52.721 142.335,53.500 142.554 C 54.279 142.772,55.029 142.990,55.167 143.038 C 55.304 143.086,55.829 143.211,56.333 143.316 C 56.837 143.422,57.737 143.624,58.333 143.765 C 58.929 143.906,59.829 144.085,60.333 144.161 C 62.366 144.470,63.544 144.674,63.644 144.736 C 63.702 144.772,64.200 144.849,64.750 144.908 C 68.726 145.336,68.568 145.323,75.167 145.809 C 76.221 145.887,83.346 145.938,91.000 145.922 C 104.566 145.895,106.303 145.841,110.500 145.316 C 111.279 145.219,112.179 145.114,112.500 145.084 C 113.558 144.983,114.737 144.809,114.853 144.738 C 115.990 144.035,120.323 144.069,122.167 144.795 C 122.396 144.885,122.907 145.004,123.302 145.060 C 123.697 145.115,124.072 145.192,124.135 145.231 C 124.684 145.569,128.445 145.989,131.750 146.081 C 133.033 146.116,134.121 146.162,134.167 146.181 C 134.348 146.259,138.667 146.245,138.667 146.167 C 138.667 146.121,139.435 146.079,140.375 146.074 C 143.522 146.056,147.098 145.690,148.528 145.240 C 148.802 145.154,149.183 145.065,149.995 144.898 C 150.221 144.852,150.484 144.751,150.578 144.674 C 150.673 144.597,151.069 144.440,151.458 144.324 C 151.848 144.209,152.167 144.051,152.167 143.974 C 152.167 143.896,152.223 143.852,152.292 143.874 C 152.513 143.946,153.720 143.137,154.833 142.171 C 155.910 141.237,156.746 140.769,157.166 140.866 C 157.378 140.915,157.724 141.208,159.147 142.542 C 159.514 142.885,159.859 143.167,159.914 143.167 C 160.015 143.167,161.015 143.840,161.167 144.011 C 161.241 144.094,163.290 144.895,163.500 144.922 C 163.546 144.928,163.733 144.983,163.917 145.044 C 164.439 145.218,168.159 145.858,169.083 145.933 C 171.722 146.147,182.333 146.338,182.333 146.171 C 182.333 146.123,183.252 146.080,184.375 146.076 C 186.843 146.066,190.161 145.883,191.750 145.669 C 193.255 145.465,197.912 145.465,199.417 145.668 C 202.411 146.073,214.093 146.205,220.917 145.912 C 225.504 145.715,229.380 145.709,232.500 145.892 C 238.266 146.232,239.713 146.241,268.500 146.106 C 286.064 146.023,287.048 146.003,289.725 145.666 C 294.048 145.122,294.934 144.962,298.667 144.050 C 298.896 143.994,299.158 143.930,299.250 143.907 C 299.342 143.885,300.204 143.604,301.167 143.283 C 303.649 142.453,304.581 142.261,305.130 142.466 C 305.804 142.718,306.158 142.825,306.275 142.815 C 306.332 142.809,306.425 142.873,306.481 142.956 C 306.537 143.038,306.921 143.274,307.333 143.478 C 307.746 143.682,308.196 143.915,308.333 143.995 C 309.229 144.514,311.051 145.114,311.333 144.983 C 311.379 144.961,311.567 145.024,311.751 145.123 C 312.666 145.612,316.153 146.005,320.190 146.074 C 321.807 146.102,323.195 146.160,323.273 146.204 C 323.352 146.247,323.754 146.260,324.167 146.232 C 324.579 146.204,326.154 146.145,327.667 146.100 C 332.983 145.945,339.081 144.839,339.472 143.958 C 339.503 143.890,339.620 143.833,339.734 143.833 C 340.311 143.833,342.563 141.793,343.458 140.458 L 343.878 139.833 346.647 139.831 C 349.991 139.828,350.189 139.762,350.383 138.579 C 350.586 137.344,350.608 137.249,351.157 135.083 C 351.436 133.983,351.665 132.919,351.665 132.718 C 351.666 132.517,351.732 132.313,351.811 132.264 C 351.891 132.214,352.008 131.784,352.071 131.308 C 352.134 130.832,352.267 130.290,352.367 130.103 C 352.530 129.799,352.568 129.629,352.645 128.875 C 352.657 128.760,352.760 128.685,352.874 128.708 C 353.014 128.736,353.069 128.552,353.045 128.141 C 353.022 127.734,353.091 127.501,353.255 127.438 C 353.413 127.377,353.500 127.111,353.500 126.686 C 353.500 126.315,353.591 125.991,353.708 125.944 C 353.875 125.876,353.875 125.857,353.708 125.846 C 353.594 125.839,353.500 125.754,353.500 125.657 C 353.500 125.560,353.573 125.525,353.662 125.580 C 353.848 125.695,354.081 124.933,353.933 124.694 C 353.879 124.606,353.941 124.494,354.071 124.444 C 354.216 124.389,354.272 124.220,354.218 124.010 C 354.167 123.815,354.208 123.667,354.314 123.667 C 354.416 123.667,354.500 123.526,354.500 123.354 C 354.500 123.182,354.610 122.949,354.745 122.838 C 355.011 122.617,355.013 122.322,354.750 122.125 C 354.644 122.046,354.666 121.947,354.811 121.854 C 355.002 121.730,355.002 121.693,354.811 121.616 C 354.619 121.540,354.619 121.501,354.811 121.366 C 355.002 121.232,355.002 121.193,354.811 121.117 C 354.649 121.053,354.644 121.023,354.792 121.013 C 354.930 121.004,355.000 120.706,355.001 120.125 C 355.002 119.644,355.114 119.035,355.251 118.773 C 355.388 118.510,355.500 118.074,355.500 117.803 C 355.500 117.533,355.573 117.174,355.663 117.006 C 355.753 116.839,355.860 116.362,355.900 115.947 C 355.941 115.532,356.047 115.056,356.135 114.888 C 356.223 114.720,356.341 114.253,356.397 113.848 C 356.452 113.444,356.568 112.882,356.655 112.598 C 357.172 110.904,357.333 110.241,357.333 109.804 C 357.333 109.534,357.403 109.357,357.488 109.409 C 357.669 109.521,357.809 109.136,357.865 108.375 C 357.886 108.077,357.952 107.833,358.011 107.833 C 358.070 107.833,358.188 107.590,358.274 107.292 C 358.382 106.915,358.553 106.725,358.839 106.664 C 359.065 106.617,359.587 106.415,360.000 106.216 C 360.412 106.017,361.012 105.739,361.333 105.597 C 362.361 105.143,363.904 104.176,364.936 103.338 C 365.221 103.106,365.696 102.729,365.991 102.500 C 366.457 102.138,366.878 101.764,368.583 100.199 C 368.767 100.031,369.479 99.411,370.167 98.822 C 370.854 98.232,371.454 97.712,371.500 97.667 C 371.546 97.621,371.696 97.558,371.833 97.528 C 372.186 97.449,372.511 97.153,372.415 96.997 C 372.370 96.924,372.476 96.902,372.651 96.948 C 372.825 96.993,373.219 96.915,373.526 96.775 C 373.832 96.634,374.796 96.285,375.667 96.000 C 376.537 95.715,377.486 95.373,377.775 95.241 C 378.064 95.108,378.367 95.000,378.449 95.000 C 378.705 95.000,380.923 93.610,381.547 93.058 C 382.302 92.390,383.181 91.142,383.711 89.985 C 384.333 88.629,384.337 88.617,384.749 87.119 C 385.024 86.118,385.420 85.500,385.787 85.500 C 385.904 85.500,386.000 85.425,386.000 85.333 C 386.000 85.242,386.188 85.167,386.417 85.167 C 386.646 85.167,386.834 85.073,386.836 84.958 C 386.838 84.819,386.892 84.833,387.000 85.000 C 387.089 85.137,387.163 85.169,387.164 85.070 C 387.166 84.952,387.642 84.904,388.541 84.931 C 389.314 84.955,390.006 84.897,390.124 84.800 C 390.239 84.704,390.333 84.695,390.333 84.780 C 390.333 85.005,393.316 84.838,393.948 84.578 C 394.363 84.407,394.524 84.202,394.685 83.638 C 394.799 83.241,394.945 82.842,395.011 82.750 C 395.077 82.658,395.173 82.273,395.224 81.893 C 395.276 81.514,395.474 80.927,395.663 80.589 C 395.853 80.252,395.913 80.033,395.796 80.103 C 395.624 80.206,395.624 80.181,395.795 79.970 C 395.911 79.826,395.979 79.606,395.947 79.479 C 395.914 79.353,395.920 79.307,395.958 79.376 C 396.151 79.722,396.333 79.206,396.333 78.314 C 396.333 77.697,396.270 77.353,396.169 77.415 C 396.077 77.472,396.045 77.411,396.095 77.279 C 396.297 76.754,395.369 76.324,394.166 76.385 L 393.050 76.441 393.215 75.762 C 393.305 75.389,393.444 75.012,393.523 74.925 C 393.602 74.838,393.667 74.600,393.667 74.395 C 393.667 74.191,393.777 73.913,393.913 73.778 C 394.048 73.642,394.177 73.294,394.199 73.003 C 394.221 72.712,394.291 72.443,394.355 72.404 C 394.528 72.296,394.359 70.315,394.155 70.069 C 394.017 69.902,392.857 69.855,388.979 69.857 C 383.457 69.860,383.639 69.896,383.349 68.745 C 383.246 68.335,383.088 68.000,382.998 68.000 C 382.907 68.000,382.833 67.888,382.833 67.752 C 382.833 67.370,381.414 65.243,380.711 64.570 C 379.424 63.339,377.045 62.151,375.083 61.761 C 374.808 61.706,374.396 61.623,374.167 61.577 C 371.952 61.132,364.571 61.131,362.500 61.576 C 362.271 61.625,361.821 61.712,361.500 61.768 C 360.731 61.903,359.297 62.348,359.070 62.522 C 358.971 62.598,358.746 62.686,358.570 62.717 C 358.394 62.749,357.725 63.026,357.083 63.332 C 355.854 63.920,354.748 64.414,353.917 64.750 C 353.642 64.861,353.133 65.075,352.786 65.226 C 352.439 65.377,352.045 65.500,351.911 65.500 C 351.777 65.500,351.667 65.587,351.667 65.694 C 351.667 65.801,351.623 65.846,351.570 65.793 C 351.517 65.740,350.936 65.918,350.279 66.189 C 349.621 66.460,349.062 66.674,349.035 66.664 C 348.945 66.630,347.403 67.620,347.145 67.879 C 345.441 69.582,344.730 69.692,335.287 69.704 C 330.724 69.709,326.960 69.763,326.923 69.823 C 326.838 69.960,314.173 69.924,313.833 69.786 C 313.559 69.674,273.533 69.765,271.917 69.881 C 271.367 69.920,270.167 70.006,269.250 70.072 C 268.333 70.138,266.833 70.292,265.917 70.414 C 265.000 70.536,264.119 70.642,263.958 70.651 C 263.363 70.683,263.167 70.725,263.167 70.819 C 263.166 70.873,262.810 70.939,262.375 70.965 C 261.940 70.992,261.208 71.117,260.750 71.241 C 260.292 71.366,259.354 71.591,258.667 71.740 C 257.979 71.890,257.154 72.077,256.833 72.156 C 255.093 72.584,254.561 72.667,253.528 72.667 C 252.904 72.667,251.723 72.524,250.905 72.349 C 250.086 72.175,249.178 71.994,248.885 71.949 C 248.593 71.903,248.273 71.816,248.174 71.755 C 248.075 71.694,247.789 71.611,247.539 71.570 C 247.288 71.530,246.596 71.388,246.000 71.254 C 245.404 71.121,244.643 70.981,244.309 70.943 C 243.975 70.906,243.628 70.829,243.538 70.773 C 243.448 70.718,242.784 70.631,242.062 70.580 C 241.340 70.530,240.300 70.419,239.750 70.334 C 238.626 70.162,235.975 69.973,233.806 69.912 C 233.013 69.890,232.300 69.834,232.223 69.788 C 232.029 69.672,219.287 69.682,219.093 69.798 C 219.007 69.850,218.219 69.908,217.343 69.927 C 216.467 69.946,214.512 70.064,213.000 70.188 C 209.447 70.480,205.066 70.478,201.917 70.182 C 200.542 70.054,198.853 69.938,198.165 69.925 C 197.476 69.913,196.839 69.857,196.748 69.803 C 196.554 69.685,185.564 69.757,183.500 69.889 C 178.163 70.230,176.261 70.673,172.547 72.443 C 170.330 73.498,170.007 73.521,168.445 72.725 C 166.611 71.791,166.471 71.723,165.652 71.357 C 165.232 71.170,164.694 70.981,164.458 70.939 C 164.222 70.896,163.891 70.792,163.723 70.709 C 163.554 70.626,163.079 70.538,162.667 70.513 C 162.255 70.489,161.863 70.435,161.796 70.393 C 161.614 70.281,157.354 69.860,156.574 69.878 C 156.202 69.886,155.827 69.851,155.741 69.800 C 155.654 69.749,153.461 69.702,150.867 69.696 C 148.272 69.689,145.985 69.632,145.783 69.569 C 145.046 69.339,144.959 68.637,145.583 67.964 C 145.813 67.717,146.000 67.473,146.000 67.422 C 146.000 67.327,146.468 66.766,147.563 65.551 C 147.918 65.156,148.148 64.833,148.073 64.833 C 147.998 64.833,148.050 64.740,148.189 64.625 C 148.486 64.380,149.826 62.732,150.120 62.250 C 150.547 61.550,151.250 60.273,151.260 60.180 C 151.266 60.127,151.396 59.795,151.550 59.443 C 151.703 59.091,151.918 58.491,152.026 58.110 C 152.134 57.729,152.285 57.345,152.361 57.258 C 152.438 57.171,152.500 56.864,152.500 56.576 C 152.500 56.289,152.612 55.685,152.748 55.235 C 153.102 54.068,153.103 48.335,152.750 47.333 C 152.612 46.944,152.500 46.446,152.500 46.227 C 152.500 46.008,152.430 45.699,152.344 45.539 C 152.258 45.380,152.020 44.856,151.814 44.375 C 151.609 43.894,151.375 43.500,151.294 43.500 C 151.213 43.500,151.189 43.431,151.241 43.347 C 151.293 43.264,151.159 42.982,150.943 42.722 C 150.726 42.463,150.462 42.083,150.354 41.879 C 150.058 41.315,147.541 39.693,147.185 39.836 C 147.150 39.850,147.073 39.785,147.015 39.691 C 146.957 39.597,146.724 39.484,146.496 39.440 C 146.269 39.396,145.596 39.211,145.000 39.029 C 144.005 38.725,143.222 38.577,141.667 38.395 C 138.398 38.013,80.876 37.848,70.833 38.191 M132.783 45.641 C 133.444 45.707,134.030 45.808,134.087 45.865 C 134.297 46.075,133.432 47.418,131.711 49.553 C 124.702 58.247,118.762 64.625,113.635 68.961 L 112.203 70.172 110.893 69.859 C 109.558 69.539,101.534 67.484,98.667 66.728 C 97.796 66.498,95.621 65.936,93.833 65.478 C 92.046 65.021,89.721 64.420,88.667 64.143 C 77.994 61.338,69.562 61.627,61.616 65.071 C 49.195 70.453,38.466 88.198,41.794 97.853 C 42.744 100.608,49.878 103.758,52.657 102.650 C 59.178 100.048,65.978 94.530,72.341 86.674 C 74.671 83.798,74.568 83.813,75.756 86.178 C 80.637 95.898,74.277 106.958,63.750 107.054 C 61.775 107.072,60.620 106.905,54.624 105.731 C 52.627 105.340,52.578 105.350,50.451 106.581 C 48.350 107.798,48.311 107.847,48.875 108.607 C 51.125 111.638,56.615 116.040,62.667 119.666 C 63.629 120.242,64.604 120.845,64.833 121.004 C 65.326 121.347,69.196 123.609,84.417 132.451 C 86.285 133.537,87.193 134.079,90.318 135.974 C 94.484 138.501,94.486 138.501,78.320 138.497 C 59.683 138.493,54.297 138.188,47.250 136.739 C 19.704 131.073,5.704 113.030,9.431 88.000 C 12.666 66.274,33.426 46.641,54.250 45.612 C 56.483 45.502,131.672 45.530,132.783 45.641 M151.618 49.373 C 151.578 49.580,151.544 49.450,151.542 49.083 C 151.540 48.717,151.573 48.547,151.615 48.706 C 151.656 48.866,151.658 49.166,151.618 49.373 M145.461 70.619 C 145.211 70.657,144.761 70.658,144.461 70.621 C 144.162 70.584,144.367 70.553,144.917 70.552 C 145.467 70.551,145.712 70.581,145.461 70.619 M150.048 70.623 C 149.570 70.656,148.745 70.657,148.214 70.623 C 147.684 70.590,148.075 70.563,149.083 70.562 C 150.092 70.562,150.526 70.589,150.048 70.623 M191.714 70.623 C 191.237 70.656,190.412 70.657,189.881 70.623 C 189.351 70.590,189.742 70.563,190.750 70.562 C 191.758 70.562,192.192 70.589,191.714 70.623 M225.042 70.623 C 224.560 70.657,223.773 70.657,223.292 70.623 C 222.810 70.589,223.204 70.562,224.167 70.562 C 225.129 70.562,225.523 70.589,225.042 70.623 M228.542 70.622 C 228.152 70.657,227.515 70.657,227.125 70.622 C 226.735 70.587,227.054 70.558,227.833 70.558 C 228.612 70.558,228.931 70.587,228.542 70.622 M279.214 70.623 C 278.737 70.656,277.912 70.657,277.381 70.623 C 276.851 70.590,277.242 70.563,278.250 70.562 C 279.258 70.562,279.692 70.589,279.214 70.623 M283.381 70.623 C 282.903 70.656,282.078 70.657,281.548 70.623 C 281.017 70.590,281.408 70.563,282.417 70.562 C 283.425 70.562,283.859 70.589,283.381 70.623 M287.548 70.623 C 287.070 70.656,286.245 70.657,285.714 70.623 C 285.184 70.590,285.575 70.563,286.583 70.562 C 287.592 70.562,288.026 70.589,287.548 70.623 M291.714 70.623 C 291.237 70.656,290.412 70.657,289.881 70.623 C 289.351 70.590,289.742 70.563,290.750 70.562 C 291.758 70.562,292.192 70.589,291.714 70.623 M295.881 70.623 C 295.403 70.656,294.578 70.657,294.048 70.623 C 293.517 70.590,293.908 70.563,294.917 70.562 C 295.925 70.562,296.359 70.589,295.881 70.623 M300.048 70.623 C 299.570 70.656,298.745 70.657,298.214 70.623 C 297.684 70.590,298.075 70.563,299.083 70.562 C 300.092 70.562,300.526 70.589,300.048 70.623 M304.214 70.623 C 303.737 70.656,302.912 70.657,302.381 70.623 C 301.851 70.590,302.242 70.563,303.250 70.562 C 304.258 70.562,304.692 70.589,304.214 70.623 M308.381 70.623 C 307.903 70.656,307.078 70.657,306.548 70.623 C 306.017 70.590,306.408 70.563,307.417 70.562 C 308.425 70.562,308.859 70.589,308.381 70.623 M333.381 70.623 C 332.903 70.656,332.078 70.657,331.548 70.623 C 331.017 70.590,331.408 70.563,332.417 70.562 C 333.425 70.562,333.859 70.589,333.381 70.623 M337.548 70.623 C 337.070 70.656,336.245 70.657,335.714 70.623 C 335.184 70.590,335.575 70.563,336.583 70.562 C 337.592 70.562,338.026 70.589,337.548 70.623 M341.714 70.623 C 341.237 70.656,340.412 70.657,339.881 70.623 C 339.351 70.590,339.742 70.563,340.750 70.562 C 341.758 70.562,342.192 70.589,341.714 70.623 M392.710 71.310 C 392.922 71.522,392.775 72.366,392.025 75.250 L 391.549 77.083 390.733 77.190 C 389.824 77.308,383.749 77.208,383.292 77.067 C 382.867 76.937,382.922 76.485,383.676 73.906 C 384.448 71.263,384.479 71.212,385.304 71.109 C 386.515 70.959,392.521 71.121,392.710 71.310 M378.490 75.792 C 378.444 77.836,377.755 78.410,375.472 78.307 C 373.866 78.234,373.860 78.226,374.329 76.873 C 374.881 75.279,374.794 75.333,376.770 75.333 L 378.500 75.333 378.490 75.792 M394.534 78.500 C 394.465 79.328,393.492 82.706,393.247 82.973 C 392.989 83.253,388.061 83.295,387.786 83.019 C 387.560 82.794,388.484 78.701,388.919 77.996 C 388.986 77.887,390.033 77.842,391.804 77.871 L 394.583 77.917 394.534 78.500 M121.534 80.968 C 121.820 81.254,121.546 82.243,119.946 86.685 C 119.174 88.829,117.778 92.721,116.844 95.333 C 115.910 97.946,114.928 100.646,114.663 101.333 C 113.702 103.825,111.962 108.626,111.341 110.500 C 110.992 111.554,110.280 113.579,109.759 115.000 C 107.938 119.970,107.470 121.260,107.006 122.583 C 106.750 123.317,106.161 124.929,105.699 126.167 C 105.236 127.404,104.370 129.767,103.774 131.417 C 102.338 135.395,101.880 136.624,101.551 137.382 L 101.277 138.013 100.098 137.965 L 98.920 137.917 98.791 137.012 C 98.596 135.651,98.715 109.551,98.917 109.356 C 99.008 109.268,100.771 109.107,102.833 108.998 C 104.896 108.889,107.446 108.751,108.500 108.691 L 110.417 108.583 110.500 94.883 C 110.554 86.083,110.643 81.124,110.750 81.018 C 111.128 80.645,121.164 80.597,121.534 80.968 M155.379 81.208 C 155.570 81.748,153.692 84.787,144.587 98.667 C 143.655 100.087,142.373 102.057,141.738 103.044 C 141.103 104.030,139.491 106.505,138.156 108.544 C 135.169 113.107,135.305 112.867,136.095 112.167 C 142.631 106.367,146.061 103.451,147.830 102.188 L 148.910 101.417 159.080 101.434 C 164.674 101.444,170.006 101.421,170.930 101.382 L 172.610 101.312 172.881 100.365 C 173.806 97.134,174.776 93.370,175.830 88.917 C 176.651 85.447,177.341 82.747,177.758 81.375 L 177.872 81.000 189.418 81.000 C 203.201 81.000,202.503 80.849,198.333 82.928 C 194.471 84.854,192.107 86.551,189.496 89.270 C 185.760 93.162,184.879 95.488,181.170 111.250 C 180.521 114.009,179.030 120.108,178.662 121.507 C 178.577 121.832,178.464 122.732,178.412 123.507 C 177.977 129.903,180.690 134.158,187.543 137.833 C 188.162 138.165,188.172 138.394,187.574 138.522 C 186.685 138.713,164.083 138.683,163.891 138.491 C 163.654 138.254,165.572 129.682,166.836 125.333 C 167.646 122.547,169.038 116.483,168.900 116.345 C 168.761 116.206,146.987 116.113,145.576 116.245 L 144.376 116.358 144.108 117.387 C 143.961 117.953,143.622 119.317,143.356 120.417 C 142.483 124.020,138.808 138.406,138.727 138.538 C 138.622 138.708,118.644 138.700,118.377 138.530 C 118.139 138.380,118.343 137.123,119.084 134.163 C 119.324 133.202,119.709 131.667,119.938 130.750 C 120.168 129.833,120.461 128.633,120.588 128.083 C 120.716 127.533,120.929 126.671,121.062 126.167 C 121.670 123.866,122.610 120.105,124.001 114.417 C 124.830 111.025,125.621 107.800,125.759 107.250 C 127.639 99.761,129.539 92.168,130.492 88.333 C 131.926 82.567,132.216 81.478,132.387 81.208 C 132.491 81.045,134.980 81.000,143.913 81.000 C 152.877 81.000,155.321 81.044,155.379 81.208 M240.167 81.316 C 244.675 81.855,249.076 82.728,251.153 83.496 C 259.403 86.547,262.985 92.401,261.251 100.000 C 257.963 114.417,257.214 117.073,255.474 120.504 C 249.966 131.359,239.127 137.175,221.917 138.508 C 219.103 138.726,205.216 138.621,202.833 138.364 C 191.442 137.133,184.788 133.511,182.361 127.217 C 181.674 125.437,181.722 120.737,182.453 118.083 C 183.398 114.653,184.974 108.428,185.978 104.157 C 187.105 99.362,187.454 98.324,188.782 95.833 C 193.157 87.622,201.796 83.050,215.917 81.473 C 219.740 81.046,236.972 80.935,240.167 81.316 M331.536 81.306 C 331.385 81.693,329.957 82.962,326.858 85.464 C 322.465 89.010,320.445 90.665,318.611 92.220 C 316.518 93.993,315.425 94.659,313.612 95.266 C 310.561 96.287,311.751 96.223,295.250 96.254 C 278.965 96.284,278.116 96.315,276.592 96.934 C 273.502 98.190,272.664 101.571,275.142 102.788 L 276.083 103.250 289.583 103.357 C 297.008 103.415,303.383 103.511,303.750 103.570 C 304.117 103.629,305.017 103.753,305.750 103.846 C 317.076 105.280,321.250 108.643,321.250 116.333 C 321.250 128.645,312.312 136.815,297.095 138.413 C 293.058 138.837,237.154 138.780,237.171 138.352 C 237.173 138.296,238.504 137.727,240.129 137.088 C 246.837 134.449,253.249 130.685,259.610 125.651 L 261.470 124.180 279.114 124.131 L 296.757 124.083 297.857 123.542 C 301.115 121.938,301.806 118.587,299.156 117.244 L 298.344 116.833 284.091 116.833 C 272.077 116.833,269.464 116.791,267.460 116.565 C 265.012 116.288,261.493 115.507,261.054 115.142 C 260.750 114.890,260.745 114.923,261.807 110.745 C 262.274 108.909,262.843 106.547,263.071 105.495 C 263.299 104.444,263.748 102.496,264.068 101.167 C 265.618 94.728,265.440 91.813,263.265 87.973 C 262.333 86.329,262.331 86.476,263.297 85.857 C 266.826 83.592,273.560 81.750,280.667 81.106 C 283.603 80.840,331.645 81.028,331.536 81.306 M377.044 81.208 C 377.084 81.323,377.016 81.706,376.893 82.059 C 376.561 83.011,376.511 83.000,381.167 83.000 C 383.878 83.000,385.519 83.062,385.584 83.168 C 385.691 83.341,383.532 85.470,380.920 87.767 C 380.096 88.491,378.934 89.538,378.336 90.094 C 371.952 96.036,371.665 96.161,364.172 96.316 L 359.260 96.417 359.122 97.167 C 359.046 97.579,358.728 98.967,358.415 100.250 C 358.102 101.533,357.617 103.558,357.335 104.750 C 357.054 105.942,356.601 107.742,356.329 108.750 C 355.587 111.496,355.546 111.655,355.253 112.917 C 355.104 113.558,354.912 114.346,354.825 114.667 C 354.615 115.444,353.265 121.052,352.859 122.833 C 352.000 126.607,348.989 138.229,348.818 138.435 C 348.654 138.632,347.068 138.663,338.770 138.626 L 328.917 138.583 328.954 137.697 C 328.975 137.209,329.179 136.084,329.408 135.197 C 329.637 134.309,330.768 129.758,331.921 125.083 C 333.073 120.408,334.192 115.871,334.407 115.000 C 334.622 114.129,335.750 109.638,336.914 105.019 C 338.608 98.297,338.985 96.593,338.807 96.480 C 338.684 96.402,335.583 96.337,331.917 96.335 C 323.214 96.332,318.500 96.182,318.500 95.910 C 318.500 95.798,319.119 95.178,319.875 94.533 C 320.631 93.888,321.910 92.797,322.717 92.109 C 323.525 91.421,324.748 90.422,325.437 89.888 C 326.126 89.354,328.240 87.651,330.136 86.104 C 334.195 82.793,335.744 81.935,338.903 81.247 C 340.352 80.932,376.936 80.895,377.044 81.208 M104.167 81.417 C 104.396 81.478,104.846 81.589,105.167 81.663 C 105.487 81.736,105.975 81.874,106.250 81.968 C 106.525 82.062,106.956 82.184,107.208 82.239 L 107.667 82.340 107.667 88.882 L 107.667 95.424 106.875 95.628 C 106.440 95.740,105.896 95.871,105.667 95.919 C 105.438 95.967,104.854 96.203,104.370 96.442 C 103.886 96.682,103.461 96.850,103.426 96.814 C 103.238 96.625,102.999 93.842,102.995 91.780 C 102.990 89.880,102.926 89.237,102.667 88.500 C 102.489 87.996,102.339 87.208,102.333 86.750 C 102.327 86.292,102.207 85.429,102.067 84.833 C 101.629 82.970,101.573 81.381,101.942 81.276 C 102.297 81.175,103.557 81.254,104.167 81.417 M208.333 94.811 C 204.742 95.984,203.938 97.104,202.422 103.042 C 202.007 104.669,201.320 107.331,200.897 108.958 C 200.474 110.585,200.032 112.329,199.915 112.833 C 199.799 113.337,199.283 115.458,198.769 117.545 C 197.326 123.396,197.648 124.742,200.693 125.609 C 201.980 125.975,225.421 125.962,228.028 125.593 C 233.772 124.782,237.654 122.512,239.463 118.907 C 240.678 116.485,240.700 116.590,239.000 116.641 C 238.221 116.664,237.171 116.804,236.667 116.951 C 235.731 117.223,212.954 117.315,210.458 117.056 C 209.398 116.946,209.372 116.902,209.681 115.750 C 209.990 114.597,209.128 114.667,223.092 114.667 C 236.644 114.667,236.930 114.651,238.621 113.824 C 241.053 112.634,241.800 111.512,242.562 107.902 C 243.057 105.557,243.157 105.739,241.552 106.058 C 238.856 106.594,237.785 106.642,237.386 106.243 C 237.204 106.061,237.061 106.052,236.703 106.203 C 236.228 106.402,213.405 106.428,212.773 106.229 C 212.422 106.120,212.462 105.388,212.866 104.546 C 213.195 103.858,213.304 103.853,227.482 103.854 L 240.381 103.856 241.470 103.320 C 245.684 101.245,245.770 96.286,241.618 94.882 C 240.258 94.422,209.723 94.358,208.333 94.811 M210.091 99.076 C 211.605 100.590,208.663 103.291,207.013 101.902 C 206.184 101.204,206.389 100.044,207.507 99.103 C 208.229 98.496,209.497 98.482,210.091 99.076 M214.417 100.417 C 214.417 100.508,214.248 100.607,214.042 100.637 C 213.784 100.673,213.667 100.605,213.667 100.417 C 213.667 100.229,213.784 100.160,214.042 100.197 C 214.248 100.226,214.417 100.325,214.417 100.417 M207.409 109.063 C 208.794 109.971,207.266 112.500,205.331 112.500 C 203.848 112.500,203.204 111.205,204.026 109.875 C 204.699 108.785,206.372 108.383,207.409 109.063 M212.622 110.386 C 212.857 110.902,212.632 111.264,211.932 111.495 C 210.750 111.885,210.121 111.282,210.759 110.370 C 211.140 109.828,212.373 109.838,212.622 110.386 M204.846 118.821 C 205.429 119.404,205.448 119.667,204.968 120.520 C 203.910 122.403,201.333 122.315,201.333 120.396 C 201.333 118.767,203.721 117.696,204.846 118.821 " stroke="none" fill="#faf8f7" fill-rule="evenodd"></path><path id="path2" d="M61.667 46.689 C 57.110 46.749,53.074 46.877,52.417 46.981 C 46.405 47.938,44.332 48.516,40.083 50.419 C 30.894 54.536,23.197 61.303,17.717 70.083 C 15.871 73.042,15.259 74.115,14.638 75.484 C 14.280 76.272,13.918 77.067,13.833 77.250 C 8.337 89.086,9.063 105.465,15.554 116.083 C 22.757 127.866,39.008 135.841,58.000 136.912 C 58.962 136.967,60.387 137.053,61.167 137.103 C 63.459 137.252,82.112 137.294,83.767 137.154 C 87.355 136.850,87.377 135.637,83.833 133.482 C 81.245 131.908,75.996 128.833,75.897 128.833 C 75.863 128.833,75.029 128.355,74.043 127.770 C 70.667 125.769,65.750 122.880,64.917 122.410 C 64.458 122.151,63.783 121.735,63.417 121.487 C 63.050 121.238,61.937 120.531,60.944 119.915 C 53.961 115.588,50.275 112.337,48.606 109.033 C 47.970 107.774,47.971 107.625,48.620 107.110 C 50.479 105.636,49.979 104.562,46.667 102.917 C 43.052 101.122,41.512 99.650,40.739 97.250 C 37.613 87.552,47.440 71.023,60.134 64.630 C 68.807 60.261,77.386 59.952,91.083 63.513 C 92.825 63.966,96.162 64.836,98.500 65.445 C 111.906 68.940,111.507 68.917,114.667 66.385 C 118.318 63.459,129.086 51.512,130.213 49.138 C 130.757 47.991,130.355 47.198,129.050 46.847 C 128.290 46.642,74.783 46.517,61.667 46.689 M387.152 72.659 C 383.679 73.712,386.501 77.555,390.157 76.752 L 390.667 76.640 390.666 75.362 C 390.665 73.071,389.288 72.012,387.152 72.659 M389.944 78.611 C 389.599 78.957,390.016 80.574,390.521 80.844 C 391.504 81.371,392.297 79.765,391.482 78.898 C 391.123 78.515,390.210 78.345,389.944 78.611 M114.353 82.003 C 113.131 82.261,112.487 82.810,112.016 83.995 C 111.514 85.261,111.643 97.319,112.181 99.292 C 112.741 101.346,114.264 99.131,116.336 93.250 C 116.595 92.517,117.192 90.867,117.663 89.583 C 119.404 84.847,119.570 84.108,119.100 83.198 C 118.566 82.165,116.295 81.593,114.353 82.003 M222.333 82.355 C 217.482 82.458,216.028 82.587,211.417 83.328 C 197.480 85.566,189.711 91.979,187.184 103.333 C 186.990 104.204,186.604 105.854,186.326 107.000 C 186.049 108.146,185.667 109.758,185.478 110.583 C 185.288 111.408,184.796 113.246,184.384 114.667 C 183.195 118.769,183.157 118.960,183.056 121.417 C 182.584 132.904,191.352 137.499,213.667 137.457 C 223.476 137.439,225.928 137.191,234.083 135.391 C 245.570 132.855,253.037 125.809,256.838 113.917 C 257.352 112.309,257.387 112.174,258.255 108.500 C 258.568 107.171,259.091 104.964,259.417 103.596 C 261.124 96.417,260.818 93.284,258.053 89.663 C 255.389 86.173,250.954 84.155,243.184 82.894 C 239.803 82.346,232.109 82.147,222.333 82.355 M72.651 88.542 C 72.243 88.840,71.464 89.571,70.920 90.167 C 66.956 94.506,62.478 98.441,59.250 100.419 C 54.341 103.428,54.341 104.378,59.250 105.336 C 66.356 106.723,72.055 104.313,74.887 98.725 C 77.478 93.611,75.851 86.203,72.651 88.542 M240.307 93.760 C 245.591 94.753,246.847 98.756,243.338 103.417 C 242.189 104.942,242.146 105.099,242.833 105.250 C 243.413 105.377,243.406 105.310,243.171 108.143 C 242.986 110.378,242.493 111.628,241.197 113.144 C 239.586 115.030,239.288 115.890,240.178 116.086 C 240.459 116.148,240.729 116.302,240.778 116.429 C 240.915 116.786,239.538 120.635,238.986 121.437 C 237.193 124.043,232.002 126.326,226.750 126.818 C 224.300 127.047,203.366 127.044,202.044 126.814 C 198.167 126.140,196.503 123.480,197.344 119.300 C 197.741 117.326,198.730 112.990,199.105 111.583 C 199.324 110.758,199.984 108.208,200.572 105.917 C 203.041 96.287,204.917 94.012,210.801 93.515 C 213.476 93.289,238.927 93.500,240.307 93.760 M313.103 108.707 C 315.123 110.280,314.982 110.604,311.833 111.626 C 301.134 115.098,300.450 115.340,300.058 115.796 C 299.565 116.369,299.568 116.407,300.134 116.810 C 301.873 118.048,302.045 122.186,300.409 123.434 C 299.561 124.081,296.715 125.123,294.260 125.686 C 290.966 126.441,286.971 127.568,283.083 128.840 C 281.158 129.470,278.908 130.173,278.083 130.402 C 277.258 130.631,276.133 130.976,275.583 131.167 C 274.372 131.589,268.021 133.486,265.234 134.258 C 262.181 135.104,259.499 135.933,258.052 136.479 C 257.336 136.749,256.473 137.065,256.134 137.182 C 254.898 137.607,255.667 137.719,259.067 137.608 C 260.909 137.549,269.654 137.491,278.500 137.481 C 295.560 137.461,296.709 137.422,300.500 136.733 C 310.485 134.918,317.030 129.727,319.324 121.802 C 319.997 119.477,320.218 117.714,319.999 116.428 C 319.904 115.872,319.742 114.929,319.640 114.333 C 319.195 111.739,318.168 110.167,316.917 110.167 C 316.697 110.167,316.184 109.942,315.778 109.668 C 314.241 108.631,311.944 107.806,313.103 108.707 M103.104 110.184 C 100.181 110.610,99.829 111.540,99.841 118.814 C 99.870 136.855,100.683 137.061,106.499 120.500 C 107.031 118.987,107.856 116.700,108.333 115.417 C 109.612 111.982,109.643 110.590,108.451 110.175 C 107.866 109.971,104.523 109.976,103.104 110.184 M279.750 126.015 C 279.200 126.076,277.887 126.173,276.833 126.231 C 275.779 126.289,274.579 126.375,274.167 126.421 C 272.946 126.557,271.280 126.647,267.833 126.761 C 265.059 126.853,264.109 126.946,263.083 127.225 C 262.435 127.401,262.175 127.546,262.259 127.681 C 262.313 127.768,262.423 127.798,262.504 127.748 C 263.013 127.433,267.257 127.292,267.464 127.583 C 267.530 127.675,267.883 127.750,268.250 127.750 C 269.347 127.750,270.708 128.365,270.993 128.990 C 271.250 129.552,272.085 129.613,273.333 129.163 C 273.563 129.080,274.762 128.779,276.000 128.494 C 282.149 127.076,284.500 126.378,284.500 125.968 C 284.500 125.799,281.439 125.829,279.750 126.015 " stroke="none" fill="#fb680d" fill-rule="evenodd"></path><path id="path3" d="M56.149 46.069 C 56.113 46.103,55.333 46.181,54.417 46.243 C 52.310 46.385,48.967 46.852,47.338 47.232 C 45.956 47.555,44.172 48.127,42.500 48.785 C 41.446 49.200,40.101 49.718,39.512 49.938 C 38.246 50.410,35.244 52.057,33.757 53.097 C 33.178 53.502,32.652 53.833,32.590 53.833 C 32.351 53.833,30.012 55.570,27.698 57.465 C 25.054 59.631,20.746 64.457,18.668 67.583 C 17.937 68.683,17.143 69.855,16.904 70.186 C 16.413 70.867,16.277 71.093,15.608 72.339 C 15.346 72.826,14.875 73.611,14.562 74.083 C 13.929 75.036,13.571 75.929,12.157 80.083 C 11.281 82.656,10.581 85.074,10.397 86.167 C 10.358 86.396,10.291 86.771,10.248 87.000 C 10.205 87.229,10.054 88.429,9.913 89.667 C 9.772 90.904,9.604 92.292,9.540 92.750 C 8.849 97.695,10.596 107.790,12.986 112.667 C 15.962 118.739,20.477 124.029,25.417 127.232 C 25.967 127.588,26.738 128.095,27.130 128.357 C 27.522 128.619,27.875 128.833,27.914 128.833 C 27.953 128.833,28.382 129.069,28.868 129.357 C 32.593 131.569,36.842 133.274,43.583 135.261 C 45.056 135.696,49.465 136.639,50.583 136.760 C 50.950 136.799,52.150 136.943,53.250 137.079 C 57.928 137.659,60.512 137.745,73.417 137.747 C 87.334 137.750,87.515 137.739,88.002 136.830 C 88.297 136.278,86.236 133.667,85.505 133.667 C 85.401 133.667,84.873 133.367,84.333 133.000 C 83.793 132.633,83.308 132.333,83.254 132.333 C 83.133 132.333,81.513 131.403,79.000 129.890 C 77.946 129.256,76.596 128.486,76.000 128.180 C 75.404 127.873,74.718 127.482,74.474 127.311 C 74.231 127.140,73.999 127.000,73.959 127.000 C 73.875 127.000,67.604 123.284,65.500 121.988 C 64.721 121.508,63.521 120.778,62.833 120.367 C 59.253 118.224,55.320 115.517,54.055 114.325 C 53.612 113.907,52.906 113.331,52.485 113.043 C 51.436 112.327,48.167 108.375,48.167 107.824 C 48.167 107.747,48.598 107.403,49.125 107.059 C 50.071 106.441,50.402 106.142,51.450 104.961 L 51.983 104.361 51.581 104.097 C 51.359 103.952,51.101 103.833,51.007 103.833 C 50.787 103.833,48.834 103.194,48.489 103.009 C 48.346 102.932,47.646 102.636,46.933 102.351 C 44.866 101.523,42.230 99.608,41.691 98.542 C 40.516 96.220,40.536 90.722,41.733 87.214 C 42.856 83.920,45.376 79.061,46.725 77.587 C 46.895 77.402,47.414 76.688,47.878 76.000 C 52.257 69.511,59.099 64.769,67.167 62.632 C 71.816 61.401,79.362 61.418,84.940 62.672 C 85.752 62.854,86.904 63.113,87.500 63.246 C 88.096 63.379,89.408 63.707,90.417 63.975 C 92.590 64.552,92.777 64.600,97.106 65.675 C 98.952 66.133,101.390 66.772,102.523 67.094 C 110.198 69.276,111.460 69.346,113.963 67.729 C 114.975 67.075,121.762 60.383,123.829 58.000 C 124.505 57.221,125.106 56.546,125.164 56.500 C 125.222 56.454,125.708 55.892,126.244 55.250 C 126.781 54.608,127.564 53.681,127.985 53.190 C 132.144 48.333,132.423 46.964,129.417 46.176 C 128.796 46.013,56.322 45.907,56.149 46.069 M129.050 46.847 C 130.355 47.198,130.757 47.991,130.213 49.138 C 129.086 51.512,118.318 63.459,114.667 66.385 C 111.507 68.917,111.906 68.940,98.500 65.445 C 96.162 64.836,92.825 63.966,91.083 63.513 C 77.386 59.952,68.807 60.261,60.134 64.630 C 47.440 71.023,37.613 87.552,40.739 97.250 C 41.512 99.650,43.052 101.122,46.667 102.917 C 49.979 104.562,50.479 105.636,48.620 107.110 C 47.971 107.625,47.970 107.774,48.606 109.033 C 50.275 112.337,53.961 115.588,60.944 119.915 C 61.937 120.531,63.050 121.238,63.417 121.487 C 63.783 121.735,64.458 122.151,64.917 122.410 C 65.750 122.880,70.667 125.769,74.043 127.770 C 75.029 128.355,75.863 128.833,75.897 128.833 C 75.996 128.833,81.245 131.908,83.833 133.482 C 87.377 135.637,87.355 136.850,83.767 137.154 C 82.112 137.294,63.459 137.252,61.167 137.103 C 60.387 137.053,58.962 136.967,58.000 136.912 C 39.008 135.841,22.757 127.866,15.554 116.083 C 9.063 105.465,8.337 89.086,13.833 77.250 C 13.918 77.067,14.280 76.272,14.638 75.484 C 15.259 74.115,15.871 73.042,17.717 70.083 C 23.197 61.303,30.894 54.536,40.083 50.419 C 44.332 48.516,46.405 47.938,52.417 46.981 C 55.041 46.564,127.526 46.436,129.050 46.847 M151.542 49.083 C 151.544 49.450,151.578 49.580,151.618 49.373 C 151.658 49.166,151.656 48.866,151.615 48.706 C 151.573 48.547,151.540 48.717,151.542 49.083 M144.461 70.621 C 144.761 70.658,145.211 70.657,145.461 70.619 C 145.712 70.581,145.467 70.551,144.917 70.552 C 144.367 70.553,144.162 70.584,144.461 70.621 M148.214 70.623 C 148.745 70.657,149.570 70.656,150.048 70.623 C 150.526 70.589,150.092 70.562,149.083 70.562 C 148.075 70.563,147.684 70.590,148.214 70.623 M189.881 70.623 C 190.412 70.657,191.237 70.656,191.714 70.623 C 192.192 70.589,191.758 70.562,190.750 70.562 C 189.742 70.563,189.351 70.590,189.881 70.623 M223.292 70.623 C 223.773 70.657,224.560 70.657,225.042 70.623 C 225.523 70.589,225.129 70.562,224.167 70.562 C 223.204 70.562,222.810 70.589,223.292 70.623 M227.125 70.622 C 227.515 70.657,228.152 70.657,228.542 70.622 C 228.931 70.587,228.612 70.558,227.833 70.558 C 227.054 70.558,226.735 70.587,227.125 70.622 M277.381 70.623 C 277.912 70.657,278.737 70.656,279.214 70.623 C 279.692 70.589,279.258 70.562,278.250 70.562 C 277.242 70.563,276.851 70.590,277.381 70.623 M281.548 70.623 C 282.078 70.657,282.903 70.656,283.381 70.623 C 283.859 70.589,283.425 70.562,282.417 70.562 C 281.408 70.563,281.017 70.590,281.548 70.623 M285.714 70.623 C 286.245 70.657,287.070 70.656,287.548 70.623 C 288.026 70.589,287.592 70.562,286.583 70.562 C 285.575 70.563,285.184 70.590,285.714 70.623 M289.881 70.623 C 290.412 70.657,291.237 70.656,291.714 70.623 C 292.192 70.589,291.758 70.562,290.750 70.562 C 289.742 70.563,289.351 70.590,289.881 70.623 M294.048 70.623 C 294.578 70.657,295.403 70.656,295.881 70.623 C 296.359 70.589,295.925 70.562,294.917 70.562 C 293.908 70.563,293.517 70.590,294.048 70.623 M298.214 70.623 C 298.745 70.657,299.570 70.656,300.048 70.623 C 300.526 70.589,300.092 70.562,299.083 70.562 C 298.075 70.563,297.684 70.590,298.214 70.623 M302.381 70.623 C 302.912 70.657,303.737 70.656,304.214 70.623 C 304.692 70.589,304.258 70.562,303.250 70.562 C 302.242 70.563,301.851 70.590,302.381 70.623 M306.548 70.623 C 307.078 70.657,307.903 70.656,308.381 70.623 C 308.859 70.589,308.425 70.562,307.417 70.562 C 306.408 70.563,306.017 70.590,306.548 70.623 M331.548 70.623 C 332.078 70.657,332.903 70.656,333.381 70.623 C 333.859 70.589,333.425 70.562,332.417 70.562 C 331.408 70.563,331.017 70.590,331.548 70.623 M335.714 70.623 C 336.245 70.657,337.070 70.656,337.548 70.623 C 338.026 70.589,337.592 70.562,336.583 70.562 C 335.575 70.563,335.184 70.590,335.714 70.623 M339.881 70.623 C 340.412 70.657,341.237 70.656,341.714 70.623 C 342.192 70.589,341.758 70.562,340.750 70.562 C 339.742 70.563,339.351 70.590,339.881 70.623 M387.083 71.979 C 383.984 72.797,383.885 76.469,386.952 76.851 C 388.958 77.102,391.166 77.029,391.292 76.708 C 392.406 73.883,390.021 71.204,387.083 71.979 M389.453 72.778 C 390.360 73.209,390.665 73.858,390.666 75.362 L 390.667 76.640 390.157 76.752 C 388.263 77.168,385.500 75.879,385.500 74.578 C 385.500 72.995,387.750 71.971,389.453 72.778 M389.112 78.292 C 388.292 79.675,389.361 82.000,390.817 82.000 C 391.455 82.000,392.750 81.269,392.585 81.003 C 392.535 80.922,392.571 80.809,392.664 80.752 C 392.929 80.588,392.863 79.406,392.552 78.756 L 392.272 78.167 390.729 78.167 C 389.881 78.167,389.153 78.223,389.112 78.292 M391.482 78.898 C 392.297 79.765,391.504 81.371,390.521 80.844 C 390.016 80.574,389.599 78.957,389.944 78.611 C 390.210 78.345,391.123 78.515,391.482 78.898 M132.464 81.292 C 132.325 81.452,132.173 81.771,132.128 82.000 C 132.083 82.229,131.550 84.367,130.943 86.750 C 129.640 91.864,126.507 104.397,125.817 107.250 C 125.551 108.350,125.150 109.962,124.926 110.833 C 124.702 111.704,124.330 113.204,124.098 114.167 C 122.872 119.265,121.608 124.385,121.322 125.417 C 121.143 126.058,120.666 127.933,120.261 129.583 C 119.856 131.233,119.414 132.996,119.278 133.500 C 118.945 134.741,118.333 137.738,118.333 138.134 C 118.333 138.389,118.492 138.476,119.107 138.561 C 120.301 138.724,137.928 138.686,138.368 138.519 C 138.713 138.387,138.848 138.009,139.547 135.227 C 139.981 133.498,140.528 131.371,140.762 130.500 C 140.995 129.629,141.287 128.467,141.411 127.917 C 141.534 127.367,141.912 125.867,142.252 124.583 C 142.592 123.300,143.086 121.350,143.350 120.250 C 144.090 117.175,144.307 116.453,144.538 116.307 C 144.856 116.105,168.791 116.130,168.916 116.332 C 169.033 116.522,168.608 118.541,167.740 121.917 C 167.411 123.200,167.081 124.513,167.008 124.833 C 166.936 125.154,166.275 127.817,165.542 130.750 C 164.103 136.501,163.726 138.282,163.910 138.466 C 164.075 138.631,186.074 138.613,187.045 138.448 C 188.049 138.276,188.018 138.236,185.956 137.031 C 179.449 133.227,177.031 127.335,178.967 120.000 C 179.568 117.722,180.131 115.418,181.758 108.583 C 182.347 106.108,182.947 103.633,183.091 103.083 C 183.236 102.533,183.539 101.371,183.765 100.500 C 186.089 91.563,189.791 87.180,198.958 82.507 C 199.898 82.028,200.667 81.581,200.667 81.513 C 200.667 81.106,198.099 81.000,188.286 81.000 L 178.028 81.000 177.746 81.792 C 177.197 83.332,177.219 83.248,175.753 89.417 C 174.105 96.347,172.783 101.157,172.474 101.353 C 172.351 101.431,166.993 101.496,160.569 101.497 L 148.888 101.500 147.902 102.196 C 146.435 103.233,141.822 107.105,138.410 110.164 C 137.556 110.929,136.408 111.942,135.681 112.569 C 135.167 113.014,135.126 113.083,137.990 108.720 C 139.325 106.686,140.989 104.136,141.688 103.053 C 143.685 99.960,146.039 96.339,148.113 93.167 C 153.563 84.833,155.533 81.615,155.303 81.422 C 154.838 81.035,153.881 81.000,143.620 81.000 C 133.445 81.000,132.701 81.019,132.464 81.292 M279.000 81.337 C 274.088 81.871,270.385 82.765,266.417 84.377 C 264.753 85.052,264.505 85.178,263.250 85.979 C 262.883 86.213,262.562 86.415,262.537 86.429 C 262.512 86.443,262.805 87.008,263.190 87.685 C 264.901 90.700,265.538 94.033,264.989 97.094 C 264.752 98.418,262.846 106.758,261.822 110.954 C 260.744 115.374,260.713 115.091,262.333 115.571 C 265.719 116.573,265.549 116.564,282.833 116.661 L 298.750 116.750 299.542 117.216 C 302.355 118.869,300.693 123.143,296.903 123.999 C 296.006 124.201,286.815 124.291,262.912 124.331 C 261.433 124.334,261.605 124.244,258.752 126.490 C 258.201 126.924,256.925 127.840,255.917 128.527 C 254.908 129.213,253.371 130.261,252.500 130.856 C 249.362 132.998,244.567 135.476,240.250 137.187 C 238.520 137.873,237.519 138.349,237.679 138.412 C 238.168 138.601,252.040 138.582,258.250 138.384 C 261.642 138.276,271.429 138.144,280.000 138.090 C 299.564 137.969,299.374 137.984,305.417 136.133 C 310.831 134.475,316.243 130.210,318.279 125.999 C 319.638 123.187,320.415 120.852,320.603 119.010 C 320.646 118.592,320.719 117.987,320.765 117.667 C 321.845 110.141,317.629 105.745,307.917 104.267 C 302.818 103.492,302.958 103.498,290.250 103.496 C 277.652 103.493,276.322 103.433,275.026 102.805 C 272.852 101.753,273.373 98.573,275.943 97.215 C 277.927 96.167,277.931 96.167,294.809 96.165 L 310.083 96.163 311.667 95.765 C 314.624 95.022,316.162 94.262,318.049 92.610 C 318.618 92.111,319.955 91.002,321.021 90.143 C 328.938 83.767,331.333 81.736,331.333 81.398 C 331.333 80.860,283.901 80.805,279.000 81.337 M338.833 81.325 C 335.424 82.052,334.769 82.444,328.392 87.576 C 321.051 93.483,318.667 95.512,318.667 95.849 C 318.667 96.149,325.551 96.349,335.458 96.338 C 338.799 96.334,339.000 96.351,339.000 96.643 C 339.000 96.884,336.580 106.653,334.596 114.417 C 334.456 114.967,333.510 118.792,332.496 122.917 C 331.481 127.042,330.287 131.879,329.842 133.667 C 328.790 137.895,328.748 138.374,329.417 138.519 C 330.035 138.653,347.948 138.698,348.436 138.567 C 348.672 138.504,348.858 138.242,348.997 137.778 C 349.112 137.396,349.266 136.896,349.340 136.667 C 349.491 136.200,352.613 123.628,353.665 119.250 C 355.147 113.081,355.516 111.560,355.667 111.000 C 356.578 107.621,356.881 106.446,357.323 104.583 C 357.606 103.392,358.160 101.067,358.555 99.417 L 359.272 96.417 363.844 96.312 C 370.607 96.157,371.572 95.888,374.604 93.309 C 379.009 89.564,385.333 83.740,385.333 83.429 C 385.333 83.182,382.630 83.000,378.954 83.000 L 376.628 83.000 376.732 82.542 C 376.789 82.290,376.882 81.840,376.940 81.542 L 377.044 81.000 358.647 81.012 C 341.544 81.023,340.150 81.045,338.833 81.325 M114.167 81.311 C 111.269 81.952,111.017 82.816,111.090 91.876 C 111.157 100.146,111.338 101.860,112.202 102.397 C 113.047 102.921,114.750 99.737,116.828 93.750 C 117.877 90.729,118.266 89.666,118.962 87.917 C 120.885 83.088,120.225 81.435,116.301 81.254 C 115.448 81.215,114.487 81.240,114.167 81.311 M376.000 81.733 C 376.352 81.896,376.408 82.021,376.363 82.540 C 376.299 83.267,376.291 83.264,378.701 83.417 C 384.173 83.763,383.605 85.147,375.007 92.423 C 371.253 95.599,370.347 95.818,360.167 95.992 C 358.946 96.013,359.045 95.788,357.567 101.917 C 357.235 103.292,356.590 105.879,356.134 107.667 C 355.678 109.454,354.707 113.354,353.977 116.333 C 348.442 138.922,349.109 136.774,347.329 137.750 L 346.417 138.250 339.250 138.250 C 329.305 138.250,329.149 138.145,330.576 132.401 C 330.892 131.126,331.944 126.858,332.911 122.917 C 334.987 114.464,335.236 113.468,336.916 106.917 C 338.445 100.953,339.390 96.490,339.170 96.270 C 338.921 96.021,334.983 95.852,329.199 95.842 C 325.813 95.837,323.540 95.764,323.074 95.647 C 322.324 95.458,321.333 94.639,321.333 94.208 C 321.333 93.878,323.466 91.870,325.500 90.285 C 326.462 89.534,328.225 88.127,329.417 87.158 C 333.838 83.560,335.104 82.791,337.968 81.961 C 339.905 81.400,374.829 81.190,376.000 81.733 M151.737 81.683 C 152.703 81.952,153.333 82.655,153.333 83.464 C 153.333 84.490,153.023 85.021,147.623 93.250 C 146.420 95.083,144.032 98.796,142.316 101.500 C 140.601 104.204,138.384 107.675,137.390 109.213 C 136.396 110.750,135.446 112.231,135.277 112.503 C 134.711 113.417,135.086 113.410,136.101 112.489 C 139.635 109.282,146.718 103.440,147.895 102.760 C 149.284 101.958,149.296 101.957,161.203 101.851 C 170.931 101.764,172.521 101.715,172.721 101.500 C 173.126 101.066,174.117 97.637,175.853 90.668 C 177.830 82.726,177.800 82.800,179.500 81.894 C 180.250 81.495,193.432 81.411,194.526 81.799 C 196.566 82.523,196.441 83.142,193.875 85.020 C 186.692 90.275,185.264 92.874,181.848 106.917 C 181.000 110.400,179.866 115.050,179.328 117.250 C 177.973 122.792,177.934 123.038,178.052 125.390 C 178.242 129.199,179.226 131.492,181.857 134.258 C 184.027 136.541,184.139 137.146,182.527 137.891 C 181.768 138.242,181.577 138.250,174.333 138.250 L 166.917 138.250 166.145 137.796 C 165.346 137.327,164.833 136.462,164.833 135.585 C 164.833 135.361,165.579 132.194,166.490 128.547 C 168.815 119.235,169.443 116.372,169.206 116.144 C 168.515 115.477,144.896 115.516,144.252 116.185 C 143.955 116.494,143.635 117.631,141.752 125.083 C 140.871 128.567,140.039 131.829,139.903 132.333 C 138.205 138.612,138.887 138.250,128.750 138.250 C 117.576 138.250,118.093 139.284,121.925 124.583 C 122.331 123.025,123.190 119.575,123.833 116.917 C 124.477 114.258,125.082 111.799,125.177 111.451 C 125.273 111.104,125.490 110.204,125.660 109.451 C 125.830 108.699,126.659 105.383,127.502 102.083 C 128.345 98.783,129.433 94.433,129.919 92.417 C 132.284 82.610,132.463 82.213,134.750 81.656 C 135.585 81.452,150.995 81.477,151.737 81.683 M327.170 81.955 C 329.195 82.953,329.022 83.236,323.769 87.514 C 321.742 89.165,319.333 91.136,318.417 91.894 C 313.713 95.782,313.398 95.833,294.255 95.833 C 277.931 95.833,277.987 95.830,276.031 96.818 C 273.083 98.306,272.436 101.647,274.836 102.987 C 276.314 103.812,276.570 103.827,289.583 103.842 C 303.178 103.858,302.674 103.820,301.510 104.742 C 300.561 105.494,300.562 105.669,301.515 105.560 C 302.504 105.446,307.554 106.308,308.875 106.816 C 309.127 106.912,309.333 106.960,309.333 106.922 C 309.333 106.799,311.056 107.438,311.957 107.895 C 312.433 108.136,312.918 108.334,313.036 108.335 C 313.363 108.337,314.950 109.109,315.778 109.668 C 316.184 109.942,316.697 110.167,316.917 110.167 C 318.168 110.167,319.195 111.739,319.640 114.333 C 319.742 114.929,319.904 115.872,319.999 116.428 C 320.218 117.714,319.997 119.477,319.324 121.802 C 317.030 129.727,310.485 134.918,300.500 136.733 C 296.709 137.422,295.560 137.461,278.500 137.481 C 269.654 137.491,260.909 137.549,259.067 137.608 C 255.669 137.719,254.896 137.607,256.134 137.183 C 259.880 135.900,257.852 136.303,253.264 137.754 L 251.277 138.382 248.930 138.279 C 245.228 138.117,245.194 138.084,247.551 136.910 C 249.195 136.090,249.562 135.837,249.784 135.368 C 250.182 134.529,252.020 133.145,254.083 132.131 C 255.092 131.635,256.592 130.785,257.417 130.242 C 258.790 129.339,262.404 127.396,263.000 127.241 C 264.169 126.937,264.998 126.855,267.833 126.760 C 271.430 126.640,273.286 126.541,274.167 126.422 C 274.487 126.379,275.688 126.298,276.833 126.242 C 277.979 126.186,279.024 126.106,279.155 126.064 C 279.287 126.022,280.543 125.942,281.947 125.886 C 284.545 125.783,285.058 125.895,283.995 126.336 C 282.999 126.748,283.655 126.665,285.851 126.101 C 288.958 125.303,292.418 124.705,294.583 124.593 L 296.417 124.497 294.667 125.132 C 293.704 125.482,292.558 125.868,292.120 125.990 C 290.466 126.452,291.547 126.318,293.946 125.762 C 296.692 125.127,299.529 124.105,300.409 123.434 C 302.045 122.186,301.873 118.048,300.134 116.810 C 299.577 116.414,299.566 116.337,300.000 115.872 C 300.432 115.408,300.420 115.333,299.917 115.333 C 299.688 115.333,298.806 115.212,297.958 115.064 C 296.802 114.861,295.937 114.822,294.500 114.905 C 293.446 114.967,289.208 115.087,285.083 115.174 C 274.589 115.393,273.154 115.467,271.500 115.867 C 267.987 116.716,263.236 115.790,262.092 114.032 C 261.653 113.359,261.719 112.507,262.408 109.917 C 262.708 108.789,264.329 101.873,264.947 99.083 C 265.750 95.459,265.638 92.665,264.570 89.677 C 263.359 86.291,264.219 85.301,269.836 83.609 C 276.756 81.524,276.500 81.539,303.833 81.563 L 326.417 81.583 327.170 81.955 M220.000 81.713 C 219.954 81.755,219.092 81.834,218.083 81.889 C 216.232 81.989,212.950 82.372,211.417 82.668 C 202.214 84.442,197.474 86.506,193.250 90.577 C 190.478 93.249,187.698 98.144,186.920 101.724 C 186.797 102.288,186.575 103.311,186.426 103.998 C 185.946 106.208,184.493 111.992,183.578 115.333 C 182.173 120.464,181.973 122.598,182.602 125.778 C 183.212 128.867,186.552 132.925,189.667 134.363 C 192.586 135.710,195.812 136.659,199.483 137.251 C 204.456 138.052,205.991 138.137,214.083 138.062 C 220.822 138.000,223.205 137.931,223.917 137.780 C 224.100 137.741,224.700 137.657,225.250 137.593 C 225.800 137.530,227.412 137.286,228.833 137.053 C 230.254 136.819,231.567 136.607,231.750 136.582 C 231.933 136.557,232.421 136.446,232.833 136.334 C 233.245 136.223,233.732 136.104,233.916 136.070 C 237.977 135.318,242.931 133.103,246.500 130.443 C 250.744 127.279,254.548 122.058,256.719 116.417 C 257.164 115.259,259.744 105.050,260.719 100.583 C 262.171 93.938,259.462 88.185,253.476 85.199 C 251.388 84.157,246.385 82.697,243.917 82.409 C 243.367 82.345,242.392 82.181,241.750 82.045 C 240.627 81.807,220.235 81.495,220.000 81.713 M118.166 82.333 C 119.793 83.163,119.739 83.934,117.663 89.583 C 117.192 90.867,116.595 92.517,116.336 93.250 C 114.264 99.131,112.741 101.346,112.181 99.292 C 111.643 97.319,111.514 85.261,112.016 83.995 C 112.806 82.004,115.889 81.171,118.166 82.333 M237.250 82.400 C 247.006 82.612,254.729 85.308,258.053 89.663 C 260.818 93.284,261.124 96.417,259.417 103.596 C 259.091 104.964,258.568 107.171,258.255 108.500 C 257.387 112.174,257.352 112.309,256.838 113.917 C 254.233 122.066,250.579 127.046,243.993 131.421 C 240.271 133.894,237.933 134.696,229.750 136.308 C 220.798 138.071,203.804 137.921,196.299 136.012 C 186.670 133.564,182.735 129.227,183.056 121.417 C 183.157 118.960,183.195 118.769,184.384 114.667 C 184.796 113.246,185.288 111.408,185.478 110.583 C 185.667 109.758,186.049 108.146,186.326 107.000 C 186.604 105.854,186.990 104.204,187.184 103.333 C 188.622 96.873,192.108 91.633,197.194 88.289 C 201.602 85.390,206.246 83.977,215.500 82.719 C 218.529 82.308,227.156 82.181,237.250 82.400 M72.991 87.369 C 72.320 87.702,69.788 90.269,68.000 92.428 C 67.771 92.705,67.368 93.096,67.105 93.297 C 66.842 93.498,65.976 94.263,65.181 94.996 C 62.701 97.283,57.694 101.000,57.094 101.000 C 57.017 101.000,55.922 101.695,55.583 101.958 C 55.492 102.029,54.929 102.451,54.333 102.894 C 52.867 103.986,52.820 104.102,53.699 104.476 C 54.807 104.948,56.480 105.455,57.583 105.654 C 58.133 105.753,58.733 105.863,58.917 105.897 C 66.742 107.355,72.504 104.879,75.548 98.750 C 78.159 93.493,76.402 85.673,72.991 87.369 M74.920 88.553 C 76.557 90.190,76.540 95.464,74.887 98.725 C 72.055 104.313,66.356 106.723,59.250 105.336 C 54.341 104.378,54.341 103.428,59.250 100.419 C 62.478 98.441,66.956 94.506,70.920 90.167 C 72.942 87.953,73.924 87.557,74.920 88.553 M210.801 93.515 C 204.917 94.012,203.041 96.287,200.572 105.917 C 199.984 108.208,199.324 110.758,199.105 111.583 C 198.730 112.990,197.741 117.326,197.344 119.300 C 196.503 123.480,198.167 126.140,202.044 126.814 C 203.366 127.044,224.300 127.047,226.750 126.818 C 232.002 126.326,237.193 124.043,238.986 121.437 C 239.538 120.635,240.915 116.786,240.778 116.429 C 240.729 116.302,240.459 116.148,240.178 116.086 C 239.288 115.890,239.586 115.030,241.197 113.144 C 242.523 111.592,242.986 110.390,243.180 107.996 C 243.271 106.874,243.305 105.916,243.256 105.867 C 243.207 105.818,243.167 105.965,243.167 106.194 C 243.167 109.057,241.711 112.471,240.009 113.597 C 238.184 114.805,238.041 116.110,239.714 116.283 C 240.795 116.396,240.762 116.357,240.511 117.207 C 238.961 122.471,234.546 125.379,226.917 126.161 C 224.834 126.374,204.996 126.512,202.793 126.329 C 198.259 125.951,196.877 124.122,197.822 119.750 C 198.020 118.833,198.327 117.404,198.504 116.575 C 198.832 115.032,199.451 112.581,200.666 108.000 C 201.043 106.579,201.498 104.817,201.677 104.083 C 201.856 103.350,202.073 102.600,202.158 102.417 C 202.244 102.233,202.388 101.746,202.478 101.333 C 203.446 96.897,205.873 94.538,209.882 94.135 C 212.909 93.831,240.099 94.061,241.243 94.401 C 246.181 95.865,246.434 100.339,241.779 103.881 C 241.151 104.360,240.557 105.280,240.752 105.474 C 240.897 105.618,243.332 105.616,243.333 105.472 C 243.333 105.410,243.108 105.310,242.833 105.250 C 242.146 105.099,242.189 104.942,243.338 103.417 C 246.847 98.756,245.591 94.753,240.307 93.760 C 238.927 93.500,213.476 93.289,210.801 93.515 M106.500 109.214 C 106.454 109.258,105.629 109.342,104.667 109.401 C 99.307 109.731,99.315 109.713,99.334 121.750 C 99.352 133.141,99.467 134.318,100.597 134.602 C 101.423 134.809,103.324 131.857,103.835 129.574 C 103.989 128.888,104.789 126.730,105.746 124.417 C 105.860 124.142,106.036 123.712,106.138 123.461 C 106.240 123.211,106.772 121.673,107.320 120.045 C 107.868 118.416,108.661 116.221,109.081 115.167 C 110.365 111.948,110.441 109.757,109.281 109.431 C 108.769 109.287,106.601 109.118,106.500 109.214 M108.451 110.175 C 109.643 110.590,109.612 111.982,108.333 115.417 C 107.856 116.700,107.031 118.987,106.499 120.500 C 100.683 137.061,99.870 136.855,99.841 118.814 C 99.831 112.566,100.028 111.555,101.417 110.741 C 102.527 110.090,107.143 109.719,108.451 110.175 " stroke="none" fill="#dc9a73" fill-rule="evenodd"></path><path id="path4" d="M54.250 45.612 C 33.426 46.641,12.666 66.274,9.431 88.000 C 6.285 109.129,15.751 125.463,35.681 133.294 C 46.841 137.679,53.498 138.492,78.320 138.497 C 94.486 138.501,94.484 138.501,90.318 135.974 C 87.193 134.079,86.285 133.537,84.417 132.451 C 69.196 123.609,65.326 121.347,64.833 121.004 C 64.604 120.845,63.629 120.242,62.667 119.666 C 56.615 116.040,51.125 111.638,48.875 108.607 C 48.311 107.847,48.350 107.798,50.451 106.581 C 52.578 105.350,52.627 105.340,54.624 105.731 C 60.620 106.905,61.775 107.072,63.750 107.054 C 74.277 106.958,80.637 95.898,75.756 86.178 C 74.568 83.813,74.671 83.798,72.341 86.674 C 65.978 94.530,59.178 100.048,52.657 102.650 C 49.878 103.758,42.744 100.608,41.794 97.853 C 38.466 88.198,49.195 70.453,61.616 65.071 C 69.562 61.627,77.994 61.338,88.667 64.143 C 89.721 64.420,92.046 65.021,93.833 65.478 C 95.621 65.936,97.796 66.498,98.667 66.728 C 101.534 67.484,109.558 69.539,110.893 69.859 L 112.203 70.172 113.635 68.961 C 118.762 64.625,124.702 58.247,131.711 49.553 C 133.432 47.418,134.297 46.075,134.087 45.865 C 134.030 45.808,133.444 45.707,132.783 45.641 C 131.672 45.530,56.483 45.502,54.250 45.612 M129.417 46.176 C 132.423 46.964,132.144 48.333,127.985 53.190 C 127.564 53.681,126.781 54.608,126.244 55.250 C 125.708 55.892,125.222 56.454,125.164 56.500 C 125.106 56.546,124.505 57.221,123.829 58.000 C 121.762 60.383,114.975 67.075,113.963 67.729 C 111.460 69.346,110.198 69.276,102.523 67.094 C 101.390 66.772,98.952 66.133,97.106 65.675 C 92.777 64.600,92.590 64.552,90.417 63.975 C 89.408 63.707,88.096 63.379,87.500 63.246 C 86.904 63.113,85.752 62.854,84.940 62.672 C 79.362 61.418,71.816 61.401,67.167 62.632 C 59.099 64.769,52.257 69.511,47.878 76.000 C 47.414 76.688,46.895 77.402,46.725 77.587 C 45.376 79.061,42.856 83.920,41.733 87.214 C 40.536 90.722,40.516 96.220,41.691 98.542 C 42.230 99.608,44.866 101.523,46.933 102.351 C 47.646 102.636,48.346 102.932,48.489 103.009 C 48.834 103.194,50.787 103.833,51.007 103.833 C 51.101 103.833,51.359 103.952,51.581 104.097 L 51.983 104.361 51.450 104.961 C 50.402 106.142,50.071 106.441,49.125 107.059 C 48.598 107.403,48.167 107.747,48.167 107.824 C 48.167 108.375,51.436 112.327,52.485 113.043 C 52.906 113.331,53.612 113.907,54.055 114.325 C 55.320 115.517,59.253 118.224,62.833 120.367 C 63.521 120.778,64.721 121.508,65.500 121.988 C 67.604 123.284,73.875 127.000,73.959 127.000 C 73.999 127.000,74.231 127.140,74.474 127.311 C 74.718 127.482,75.404 127.873,76.000 128.180 C 76.596 128.486,77.946 129.256,79.000 129.890 C 81.513 131.403,83.133 132.333,83.254 132.333 C 83.308 132.333,83.793 132.633,84.333 133.000 C 84.873 133.367,85.401 133.667,85.505 133.667 C 86.236 133.667,88.297 136.278,88.002 136.830 C 87.515 137.739,87.334 137.750,73.417 137.747 C 60.512 137.745,57.928 137.659,53.250 137.079 C 52.150 136.943,50.950 136.799,50.583 136.760 C 49.465 136.639,45.056 135.696,43.583 135.261 C 36.842 133.274,32.593 131.569,28.868 129.357 C 28.382 129.069,27.953 128.833,27.914 128.833 C 27.875 128.833,27.522 128.619,27.130 128.357 C 26.738 128.095,25.967 127.588,25.417 127.232 C 20.477 124.029,15.962 118.739,12.986 112.667 C 10.596 107.790,8.849 97.695,9.540 92.750 C 9.604 92.292,9.772 90.904,9.913 89.667 C 10.054 88.429,10.205 87.229,10.248 87.000 C 10.291 86.771,10.358 86.396,10.397 86.167 C 10.581 85.074,11.281 82.656,12.157 80.083 C 13.571 75.929,13.929 75.036,14.562 74.083 C 14.875 73.611,15.346 72.826,15.608 72.339 C 16.277 71.093,16.413 70.867,16.904 70.186 C 17.143 69.855,17.937 68.683,18.668 67.583 C 20.746 64.457,25.054 59.631,27.698 57.465 C 30.012 55.570,32.351 53.833,32.590 53.833 C 32.652 53.833,33.178 53.502,33.757 53.097 C 35.244 52.057,38.246 50.410,39.512 49.938 C 40.101 49.718,41.446 49.200,42.500 48.785 C 44.172 48.127,45.956 47.555,47.338 47.232 C 48.967 46.852,52.310 46.385,54.417 46.243 C 55.333 46.181,56.113 46.103,56.149 46.069 C 56.322 45.907,128.796 46.013,129.417 46.176 M385.304 71.109 C 384.479 71.212,384.448 71.263,383.676 73.906 C 382.922 76.485,382.867 76.937,383.292 77.067 C 383.749 77.208,389.824 77.308,390.733 77.190 L 391.549 77.083 392.025 75.250 C 392.775 72.366,392.922 71.522,392.710 71.310 C 392.521 71.121,386.515 70.959,385.304 71.109 M390.168 72.334 C 391.291 73.134,391.847 75.300,391.292 76.708 C 391.166 77.029,388.958 77.102,386.952 76.851 C 383.885 76.469,383.984 72.797,387.083 71.979 C 387.933 71.755,389.628 71.950,390.168 72.334 M374.879 75.542 C 374.591 75.914,373.936 77.992,374.067 78.122 C 374.260 78.316,376.675 78.384,377.330 78.214 C 377.940 78.056,378.464 76.962,378.490 75.792 L 378.500 75.333 376.770 75.333 C 375.584 75.333,374.990 75.399,374.879 75.542 M388.919 77.996 C 388.484 78.701,387.560 82.794,387.786 83.019 C 388.061 83.295,392.989 83.253,393.247 82.973 C 393.492 82.706,394.465 79.328,394.534 78.500 L 394.583 77.917 391.804 77.871 C 390.033 77.842,388.986 77.887,388.919 77.996 M392.552 78.756 C 392.863 79.406,392.929 80.588,392.664 80.752 C 392.571 80.809,392.535 80.922,392.585 81.003 C 392.635 81.083,392.393 81.340,392.049 81.574 C 390.391 82.701,388.638 81.397,388.926 79.250 C 389.078 78.118,388.997 78.167,390.729 78.167 L 392.272 78.167 392.552 78.756 M111.750 80.779 C 111.292 80.820,110.842 80.928,110.750 81.018 C 110.643 81.124,110.554 86.083,110.500 94.883 L 110.417 108.583 108.500 108.691 C 107.446 108.751,104.896 108.889,102.833 108.998 C 100.771 109.107,99.008 109.268,98.917 109.356 C 98.715 109.551,98.596 135.651,98.791 137.012 L 98.920 137.917 100.098 137.965 L 101.277 138.013 101.551 137.382 C 101.880 136.624,102.338 135.395,103.774 131.417 C 104.370 129.767,105.236 127.404,105.699 126.167 C 106.161 124.929,106.750 123.317,107.006 122.583 C 107.470 121.260,107.938 119.970,109.759 115.000 C 110.280 113.579,110.992 111.554,111.341 110.500 C 111.962 108.626,113.702 103.825,114.663 101.333 C 114.928 100.646,115.910 97.946,116.844 95.333 C 117.778 92.721,119.174 88.829,119.946 86.685 C 121.546 82.243,121.820 81.254,121.534 80.968 C 121.339 80.773,113.518 80.622,111.750 80.779 M154.681 81.061 C 155.023 81.360,155.484 81.485,155.395 81.254 C 155.342 81.114,155.143 81.000,154.954 81.000 C 154.766 81.000,154.642 81.027,154.681 81.061 M199.750 81.208 C 200.775 81.415,200.804 81.440,200.404 81.764 C 200.165 81.958,200.217 81.950,200.609 81.735 C 201.426 81.287,201.153 80.996,199.941 81.020 L 198.917 81.039 199.750 81.208 M221.917 81.176 C 204.522 81.676,193.798 86.420,188.782 95.833 C 187.454 98.324,187.105 99.362,185.978 104.157 C 184.974 108.428,183.398 114.653,182.453 118.083 C 181.722 120.737,181.674 125.437,182.361 127.217 C 184.788 133.511,191.442 137.133,202.833 138.364 C 205.216 138.621,219.103 138.726,221.917 138.508 C 239.127 137.175,249.966 131.359,255.474 120.504 C 257.242 117.018,257.103 117.490,260.153 104.667 C 261.487 99.060,261.533 98.820,261.622 97.000 C 262.061 87.980,255.441 83.141,240.167 81.316 C 238.203 81.082,227.941 81.003,221.917 81.176 M330.808 81.122 C 331.263 81.178,331.351 81.250,331.282 81.512 C 331.236 81.689,331.257 81.797,331.329 81.753 C 331.840 81.437,331.608 81.001,330.943 81.027 C 330.303 81.051,330.293 81.059,330.808 81.122 M118.588 81.651 C 120.340 82.426,120.445 84.192,118.962 87.917 C 118.266 89.666,117.877 90.729,116.828 93.750 C 114.750 99.737,113.047 102.921,112.202 102.397 C 111.338 101.860,111.157 100.146,111.090 91.876 C 111.022 83.416,111.159 82.713,113.061 81.714 C 114.268 81.081,117.222 81.047,118.588 81.651 M241.750 82.045 C 242.392 82.181,243.367 82.345,243.917 82.409 C 246.385 82.697,251.388 84.157,253.476 85.199 C 259.462 88.185,262.171 93.938,260.719 100.583 C 259.744 105.050,257.164 115.259,256.719 116.417 C 252.726 126.794,244.164 134.174,233.916 136.070 C 233.732 136.104,233.245 136.223,232.833 136.334 C 232.421 136.446,231.933 136.557,231.750 136.582 C 231.567 136.607,230.254 136.819,228.833 137.053 C 227.412 137.286,225.800 137.530,225.250 137.593 C 224.700 137.657,224.100 137.741,223.917 137.780 C 223.205 137.931,220.822 138.000,214.083 138.062 C 205.991 138.137,204.456 138.052,199.483 137.251 C 195.812 136.659,192.586 135.710,189.667 134.363 C 186.552 132.925,183.212 128.867,182.602 125.778 C 181.973 122.598,182.173 120.464,183.578 115.333 C 184.493 111.992,185.946 106.208,186.426 103.998 C 186.575 103.311,186.797 102.288,186.920 101.724 C 187.698 98.144,190.478 93.249,193.250 90.577 C 197.474 86.506,202.214 84.442,211.417 82.668 C 212.950 82.372,216.232 81.989,218.083 81.889 C 219.092 81.834,219.954 81.755,220.000 81.713 C 220.235 81.495,240.627 81.807,241.750 82.045 M330.073 82.708 L 329.583 83.250 330.125 82.760 C 330.423 82.491,330.667 82.248,330.667 82.219 C 330.667 82.090,330.529 82.203,330.073 82.708 M383.958 83.124 C 385.364 83.181,385.540 83.288,385.125 83.828 C 385.010 83.978,385.086 83.922,385.294 83.704 C 385.856 83.116,385.630 82.996,384.032 83.034 L 382.583 83.068 383.958 83.124 M74.671 87.271 C 77.010 88.251,77.510 94.800,75.548 98.750 C 72.504 104.879,66.742 107.355,58.917 105.897 C 58.733 105.863,58.133 105.753,57.583 105.654 C 56.480 105.455,54.807 104.948,53.699 104.476 C 52.820 104.102,52.867 103.986,54.333 102.894 C 54.929 102.451,55.492 102.029,55.583 101.958 C 55.922 101.695,57.017 101.000,57.094 101.000 C 57.694 101.000,62.701 97.283,65.181 94.996 C 65.976 94.263,66.842 93.498,67.105 93.297 C 67.368 93.096,67.771 92.705,68.000 92.428 C 71.667 88.000,73.335 86.711,74.671 87.271 M189.667 88.917 C 189.262 89.329,188.968 89.667,189.014 89.667 C 189.060 89.667,189.428 89.329,189.833 88.917 C 190.238 88.504,190.532 88.167,190.486 88.167 C 190.440 88.167,190.072 88.504,189.667 88.917 M209.483 94.155 C 205.909 94.537,203.400 97.108,202.478 101.333 C 202.388 101.746,202.244 102.233,202.158 102.417 C 202.073 102.600,201.856 103.350,201.677 104.083 C 201.498 104.817,201.043 106.579,200.666 108.000 C 199.451 112.581,198.832 115.032,198.504 116.575 C 198.327 117.404,198.020 118.833,197.822 119.750 C 196.877 124.122,198.259 125.951,202.793 126.329 C 204.996 126.512,224.834 126.374,226.917 126.161 C 234.546 125.379,238.961 122.471,240.511 117.207 C 240.762 116.357,240.795 116.396,239.714 116.283 C 238.041 116.110,238.184 114.805,240.009 113.597 C 241.773 112.430,242.787 110.039,243.198 106.083 L 243.250 105.583 242.057 105.583 C 241.401 105.583,240.814 105.534,240.753 105.474 C 240.557 105.280,241.150 104.360,241.779 103.881 C 246.434 100.339,246.181 95.866,241.243 94.400 C 240.191 94.088,212.142 93.872,209.483 94.155 M241.618 94.882 C 245.770 96.286,245.684 101.245,241.470 103.320 L 240.381 103.856 227.482 103.854 C 213.304 103.853,213.195 103.858,212.866 104.546 C 212.462 105.388,212.422 106.120,212.773 106.229 C 213.405 106.428,236.228 106.402,236.703 106.203 C 237.061 106.052,237.204 106.061,237.386 106.243 C 237.785 106.642,238.856 106.594,241.552 106.058 C 243.157 105.739,243.057 105.557,242.562 107.902 C 241.800 111.512,241.053 112.634,238.621 113.824 C 236.930 114.651,236.644 114.667,223.092 114.667 C 209.128 114.667,209.990 114.597,209.681 115.750 C 209.372 116.902,209.398 116.946,210.458 117.056 C 212.954 117.315,235.731 117.223,236.667 116.951 C 237.171 116.804,238.221 116.664,239.000 116.641 C 240.700 116.590,240.678 116.485,239.463 118.907 C 237.654 122.512,233.772 124.782,228.028 125.593 C 225.421 125.962,201.980 125.975,200.693 125.609 C 197.648 124.742,197.326 123.396,198.769 117.545 C 199.283 115.458,199.799 113.337,199.915 112.833 C 200.032 112.329,200.474 110.585,200.897 108.958 C 201.320 107.331,202.007 104.669,202.422 103.042 C 203.938 97.104,204.742 95.984,208.333 94.811 C 209.723 94.358,240.258 94.422,241.618 94.882 M318.862 95.386 C 318.372 95.907,318.406 96.171,318.958 96.144 C 319.351 96.125,319.363 96.111,319.042 96.049 C 318.576 95.959,318.574 95.870,319.029 95.386 C 319.228 95.174,319.354 95.000,319.308 95.000 C 319.262 95.000,319.062 95.174,318.862 95.386 M279.796 96.289 C 280.188 96.324,280.788 96.324,281.129 96.288 C 281.471 96.252,281.150 96.223,280.417 96.224 C 279.683 96.224,279.404 96.254,279.796 96.289 M290.720 96.292 C 292.903 96.318,296.428 96.318,298.553 96.291 C 300.678 96.265,298.892 96.244,294.583 96.244 C 290.275 96.244,288.536 96.265,290.720 96.292 M305.300 96.291 C 306.060 96.322,307.260 96.322,307.966 96.290 C 308.672 96.259,308.050 96.234,306.583 96.234 C 305.117 96.234,304.539 96.260,305.300 96.291 M323.292 96.284 C 323.498 96.324,323.835 96.324,324.042 96.284 C 324.248 96.245,324.079 96.212,323.667 96.212 C 323.254 96.212,323.085 96.245,323.292 96.284 M207.507 99.103 C 206.389 100.044,206.184 101.204,207.013 101.902 C 208.663 103.291,211.605 100.590,210.091 99.076 C 209.497 98.482,208.229 98.496,207.507 99.103 M213.667 100.417 C 213.667 100.605,213.784 100.673,214.042 100.637 C 214.248 100.607,214.417 100.508,214.417 100.417 C 214.417 100.325,214.248 100.226,214.042 100.197 C 213.784 100.160,213.667 100.229,213.667 100.417 M150.625 101.457 C 151.198 101.489,152.135 101.489,152.708 101.457 C 153.281 101.424,152.813 101.398,151.667 101.398 C 150.521 101.398,150.052 101.424,150.625 101.457 M156.792 101.451 C 156.998 101.491,157.335 101.491,157.542 101.451 C 157.748 101.411,157.579 101.379,157.167 101.379 C 156.754 101.379,156.585 101.411,156.792 101.451 M170.213 101.456 C 170.652 101.490,171.327 101.490,171.713 101.455 C 172.100 101.420,171.742 101.392,170.917 101.392 C 170.092 101.393,169.775 101.422,170.213 101.456 M283.708 103.458 C 287.077 103.483,292.590 103.483,295.958 103.458 C 299.327 103.433,296.571 103.412,289.833 103.412 C 283.096 103.412,280.340 103.433,283.708 103.458 M304.375 103.782 C 304.535 103.823,304.798 103.823,304.958 103.782 C 305.119 103.740,304.987 103.705,304.667 103.705 C 304.346 103.705,304.215 103.740,304.375 103.782 M305.542 103.948 C 305.702 103.990,305.965 103.990,306.125 103.948 C 306.285 103.906,306.154 103.872,305.833 103.872 C 305.512 103.872,305.381 103.906,305.542 103.948 M310.167 104.667 C 310.737 104.849,311.175 104.849,310.750 104.667 C 310.567 104.588,310.267 104.526,310.083 104.528 C 309.815 104.532,309.832 104.559,310.167 104.667 M313.448 105.553 C 319.119 107.740,321.600 111.847,320.765 117.667 C 320.719 117.987,320.646 118.592,320.603 119.010 C 320.415 120.852,319.638 123.187,318.279 125.999 C 316.243 130.210,310.831 134.475,305.417 136.133 C 299.414 137.972,299.383 137.974,281.000 138.083 C 264.263 138.182,254.533 138.327,253.000 138.501 C 252.404 138.568,261.538 138.633,273.296 138.645 C 296.448 138.668,297.052 138.649,301.548 137.753 C 313.856 135.299,321.250 127.261,321.250 116.333 C 321.250 113.034,320.963 111.910,319.601 109.877 C 318.346 108.004,314.897 105.615,312.917 105.248 C 312.642 105.197,312.881 105.334,313.448 105.553 M205.067 108.975 C 203.072 109.907,203.267 112.500,205.331 112.500 C 207.266 112.500,208.794 109.971,207.409 109.063 C 206.779 108.650,205.838 108.615,205.067 108.975 M109.281 109.431 C 110.441 109.757,110.365 111.948,109.081 115.167 C 108.661 116.221,107.868 118.416,107.320 120.045 C 106.772 121.673,106.240 123.211,106.138 123.461 C 106.036 123.712,105.860 124.142,105.746 124.417 C 104.789 126.730,103.989 128.888,103.835 129.574 C 103.324 131.857,101.423 134.809,100.597 134.602 C 99.467 134.318,99.352 133.141,99.334 121.750 C 99.315 109.713,99.307 109.731,104.667 109.401 C 105.629 109.342,106.454 109.258,106.500 109.214 C 106.601 109.118,108.769 109.287,109.281 109.431 M210.759 110.370 C 210.121 111.282,210.750 111.885,211.932 111.495 C 212.632 111.264,212.857 110.902,212.622 110.386 C 212.373 109.838,211.140 109.828,210.759 110.370 M260.856 114.521 C 260.844 114.763,260.964 115.062,261.125 115.188 C 261.379 115.387,261.392 115.384,261.224 115.167 C 261.119 115.029,260.997 114.729,260.955 114.500 L 260.879 114.083 260.856 114.521 M166.792 116.289 C 167.181 116.324,167.819 116.324,168.208 116.289 C 168.598 116.254,168.279 116.225,167.500 116.225 C 166.721 116.225,166.402 116.254,166.792 116.289 M283.833 116.832 L 298.583 116.917 299.276 117.287 C 301.651 118.557,301.122 121.705,298.258 123.348 C 297.795 123.613,297.504 123.831,297.610 123.832 C 297.716 123.833,298.278 123.515,298.858 123.125 C 301.410 121.411,301.706 118.461,299.456 117.170 L 298.583 116.670 283.833 116.708 L 269.083 116.746 283.833 116.832 M202.583 118.589 C 201.953 118.902,201.333 119.797,201.333 120.396 C 201.333 122.315,203.910 122.403,204.968 120.520 C 205.834 118.980,204.300 117.738,202.583 118.589 M259.389 125.804 C 258.274 126.691,257.299 127.488,257.222 127.574 C 257.041 127.780,258.289 126.858,260.028 125.500 L 261.417 124.417 262.917 124.321 L 264.417 124.225 262.917 124.208 L 261.417 124.191 259.389 125.804 M273.029 124.292 C 276.391 124.317,281.941 124.317,285.363 124.292 C 288.784 124.266,286.033 124.246,279.250 124.246 C 272.467 124.246,269.667 124.266,273.029 124.292 M254.417 129.431 L 253.917 129.861 254.458 129.502 C 254.756 129.305,255.000 129.112,255.000 129.072 C 255.000 128.947,254.929 128.991,254.417 129.431 M248.292 133.262 C 247.669 133.600,247.707 133.741,248.333 133.417 C 248.608 133.274,248.833 133.123,248.833 133.079 C 248.833 132.972,248.815 132.978,248.292 133.262 M242.833 136.000 C 242.512 136.176,242.325 136.319,242.417 136.319 C 242.508 136.319,242.846 136.176,243.167 136.000 C 243.487 135.824,243.675 135.681,243.583 135.681 C 243.492 135.681,243.154 135.824,242.833 136.000 M240.451 136.945 C 239.645 137.273,239.013 137.569,239.047 137.602 C 239.106 137.662,242.011 136.538,242.153 136.400 C 242.333 136.227,241.794 136.399,240.451 136.945 M187.521 137.984 L 187.913 138.301 187.165 138.400 C 186.753 138.455,186.154 138.528,185.833 138.563 C 185.512 138.598,185.826 138.605,186.531 138.580 C 188.093 138.523,188.359 138.399,187.814 137.980 C 187.286 137.574,187.019 137.577,187.521 137.984 M328.976 138.542 C 329.060 138.626,329.306 138.667,329.522 138.633 C 329.856 138.580,329.833 138.557,329.370 138.480 C 329.039 138.425,328.883 138.450,328.976 138.542 M239.382 138.624 C 240.004 138.656,240.979 138.656,241.549 138.623 C 242.118 138.591,241.608 138.564,240.417 138.565 C 239.225 138.565,238.759 138.592,239.382 138.624 " stroke="none" fill="#fabd95" fill-rule="evenodd"></path></g></svg>