<svg id="svg" version="1.1" xmlns="http://www.w3.org/2000/svg" xmlns:xlink="http://www.w3.org/1999/xlink" width="400" height="177.69607843137254" viewBox="0, 0, 400,177.69607843137254"><g id="svgg"><path id="path0" d="M129.172 77.375 C 129.088 77.581,128.906 78.237,128.769 78.833 C 128.632 79.429,126.750 87.042,124.586 95.750 C 122.422 104.458,120.546 112.033,120.417 112.583 C 120.287 113.133,119.759 115.271,119.242 117.333 C 115.037 134.120,114.576 136.040,114.740 136.102 C 114.837 136.139,119.567 136.150,125.250 136.127 L 135.583 136.083 135.738 135.417 C 136.097 133.874,137.559 128.054,138.836 123.083 C 139.589 120.150,140.306 117.263,140.429 116.667 C 140.742 115.148,141.280 113.165,141.416 113.030 C 141.568 112.878,167.050 112.988,167.205 113.140 C 167.272 113.206,166.918 114.870,166.419 116.838 C 163.577 128.050,161.623 136.012,161.696 136.085 C 161.742 136.131,167.511 136.150,174.515 136.126 C 185.752 136.088,187.181 136.055,186.667 135.845 C 180.610 133.367,177.046 129.115,176.471 123.680 C 176.208 121.194,176.394 119.700,177.566 114.917 C 178.149 112.533,178.905 109.421,179.244 108.000 C 180.074 104.526,181.462 98.888,181.664 98.167 C 184.022 89.765,185.003 87.898,189.111 84.000 C 191.843 81.407,196.223 78.714,199.699 77.490 C 200.038 77.370,200.278 77.211,200.231 77.136 C 200.037 76.823,176.358 76.976,176.194 77.292 C 176.111 77.452,175.801 78.596,175.506 79.833 C 173.709 87.375,172.640 91.672,171.735 95.000 C 171.498 95.871,171.243 96.829,171.168 97.130 C 170.892 98.244,171.847 98.167,158.423 98.167 L 146.221 98.167 145.235 98.866 C 144.155 99.633,139.737 103.335,137.500 105.347 C 136.721 106.048,135.157 107.457,134.025 108.478 C 130.868 111.324,130.870 111.078,134.042 106.311 C 135.348 104.347,137.467 101.131,138.750 99.163 C 140.033 97.195,142.471 93.468,144.167 90.881 C 150.487 81.239,152.994 77.291,152.897 77.135 C 152.851 77.061,147.529 77.000,141.070 77.000 L 129.326 77.000 129.172 77.375 M283.083 77.107 C 276.906 77.452,270.323 79.076,265.542 81.435 C 263.742 82.322,263.474 82.528,263.828 82.747 C 264.154 82.948,265.559 85.739,265.957 86.977 C 267.069 90.427,266.610 93.720,263.084 107.583 C 261.858 112.402,261.780 111.971,263.977 112.483 C 268.148 113.455,272.357 113.689,273.250 113.000 C 273.561 112.760,274.809 112.636,275.116 112.815 C 275.377 112.967,275.350 112.994,274.917 113.020 C 274.541 113.043,274.603 113.075,275.167 113.150 C 276.007 113.262,278.604 113.158,278.083 113.033 C 277.811 112.968,277.857 112.916,278.333 112.749 C 278.701 112.621,278.908 112.445,278.894 112.273 C 278.881 112.123,278.927 112.000,278.996 112.000 C 279.065 112.000,279.113 111.719,279.102 111.375 C 279.077 110.530,280.235 109.966,285.500 108.256 C 293.624 105.618,295.114 105.074,300.667 102.723 C 304.857 100.948,305.596 100.560,305.292 100.297 C 305.269 100.277,299.025 100.221,291.417 100.172 L 277.583 100.083 276.728 99.696 C 273.121 98.064,274.848 93.554,279.455 92.578 C 280.389 92.380,283.290 92.339,296.286 92.336 C 316.265 92.333,316.638 92.274,321.002 88.457 C 322.485 87.161,323.595 86.256,330.561 80.667 C 332.903 78.787,334.822 77.194,334.826 77.125 C 334.833 77.012,285.083 76.995,283.083 77.107 M343.083 77.173 C 340.484 77.514,337.854 78.795,335.083 81.070 C 333.892 82.048,332.279 83.363,331.500 83.992 C 330.721 84.621,329.122 85.912,327.948 86.860 C 323.006 90.849,322.442 91.315,321.944 91.812 L 321.423 92.333 331.865 92.333 C 337.607 92.333,342.425 92.379,342.570 92.434 C 342.975 92.590,342.959 92.672,340.896 100.791 C 338.813 108.989,338.827 108.933,335.234 123.417 C 333.915 128.733,332.685 133.641,332.501 134.322 C 332.317 135.003,332.167 135.697,332.167 135.864 C 332.167 136.153,332.618 136.167,342.337 136.167 L 352.507 136.167 352.663 135.792 C 352.749 135.585,353.732 131.704,354.846 127.167 C 355.961 122.629,357.697 115.617,358.703 111.583 C 361.351 100.970,362.641 95.613,363.008 93.711 C 363.282 92.296,362.982 92.371,368.667 92.293 C 373.982 92.219,374.736 92.125,376.693 91.290 C 377.290 91.035,381.090 87.867,383.421 85.681 C 384.064 85.077,385.919 83.421,387.543 82.000 C 389.166 80.579,390.496 79.342,390.497 79.250 C 390.499 79.142,388.896 79.101,385.915 79.135 C 380.791 79.192,380.848 79.206,381.393 78.063 C 381.544 77.747,381.667 77.379,381.667 77.244 C 381.667 76.972,345.130 76.905,343.083 77.173 M148.542 114.615 C 148.702 114.657,148.965 114.657,149.125 114.615 C 149.285 114.573,149.154 114.539,148.833 114.539 C 148.512 114.539,148.381 114.573,148.542 114.615 M152.708 114.615 C 152.869 114.657,153.131 114.657,153.292 114.615 C 153.452 114.573,153.321 114.539,153.000 114.539 C 152.679 114.539,152.548 114.573,152.708 114.615 M156.875 114.615 C 157.035 114.657,157.298 114.657,157.458 114.615 C 157.619 114.573,157.487 114.539,157.167 114.539 C 156.846 114.539,156.715 114.573,156.875 114.615 M161.042 114.615 C 161.202 114.657,161.465 114.657,161.625 114.615 C 161.785 114.573,161.654 114.539,161.333 114.539 C 161.012 114.539,160.881 114.573,161.042 114.615 M295.583 121.664 C 294.483 121.724,293.412 121.866,293.204 121.979 C 292.995 122.091,292.132 122.333,291.287 122.517 C 290.442 122.700,289.037 123.066,288.167 123.331 C 287.296 123.596,285.383 124.123,283.917 124.502 C 282.450 124.881,280.387 125.442,279.333 125.748 C 276.997 126.427,271.106 128.028,268.515 128.687 C 267.470 128.953,265.070 129.611,263.182 130.150 C 261.294 130.688,258.850 131.368,257.750 131.661 C 253.522 132.787,253.307 132.851,247.667 134.645 C 246.246 135.097,244.540 135.561,243.875 135.677 C 243.210 135.792,242.667 135.950,242.667 136.027 C 242.667 136.208,252.550 136.210,252.758 136.029 C 253.260 135.594,258.593 133.914,269.500 130.756 C 274.040 129.442,278.056 128.210,284.750 126.080 C 286.858 125.409,290.046 124.434,291.833 123.914 C 300.606 121.361,300.561 121.388,295.583 121.664 M238.305 135.726 C 237.295 136.041,237.382 136.167,238.611 136.167 C 239.882 136.167,240.105 136.082,239.754 135.730 C 239.486 135.462,239.152 135.461,238.305 135.726 M117.042 137.789 C 117.477 137.824,118.190 137.824,118.625 137.789 C 119.060 137.755,118.704 137.727,117.833 137.727 C 116.962 137.727,116.606 137.755,117.042 137.789 M121.208 137.789 C 121.644 137.824,122.356 137.824,122.792 137.789 C 123.227 137.755,122.871 137.727,122.000 137.727 C 121.129 137.727,120.773 137.755,121.208 137.789 M125.375 137.789 C 125.810 137.824,126.523 137.824,126.958 137.789 C 127.394 137.755,127.037 137.727,126.167 137.727 C 125.296 137.727,124.940 137.755,125.375 137.789 M129.542 137.789 C 129.977 137.824,130.690 137.824,131.125 137.789 C 131.560 137.755,131.204 137.727,130.333 137.727 C 129.462 137.727,129.106 137.755,129.542 137.789 M133.708 137.789 C 134.144 137.824,134.856 137.824,135.292 137.789 C 135.727 137.755,135.371 137.727,134.500 137.727 C 133.629 137.727,133.273 137.755,133.708 137.789 M163.047 137.789 C 163.485 137.824,164.160 137.823,164.547 137.788 C 164.934 137.754,164.575 137.725,163.750 137.726 C 162.925 137.726,162.609 137.755,163.047 137.789 M167.042 137.789 C 167.477 137.824,168.190 137.824,168.625 137.789 C 169.060 137.755,168.704 137.727,167.833 137.727 C 166.962 137.727,166.606 137.755,167.042 137.789 M171.208 137.789 C 171.644 137.824,172.356 137.824,172.792 137.789 C 173.227 137.755,172.871 137.727,172.000 137.727 C 171.129 137.727,170.773 137.755,171.208 137.789 M175.375 137.789 C 175.810 137.824,176.523 137.824,176.958 137.789 C 177.394 137.755,177.037 137.727,176.167 137.727 C 175.296 137.727,174.940 137.755,175.375 137.789 M180.461 137.787 C 180.761 137.825,181.211 137.824,181.461 137.786 C 181.712 137.748,181.467 137.717,180.917 137.718 C 180.367 137.719,180.162 137.750,180.461 137.787 M183.375 137.786 C 183.627 137.824,184.040 137.824,184.292 137.786 C 184.544 137.748,184.338 137.717,183.833 137.717 C 183.329 137.717,183.123 137.748,183.375 137.786 M205.792 137.784 C 205.998 137.824,206.335 137.824,206.542 137.784 C 206.748 137.745,206.579 137.712,206.167 137.712 C 205.754 137.712,205.585 137.745,205.792 137.784 M237.708 137.788 C 238.052 137.824,238.615 137.824,238.958 137.788 C 239.302 137.752,239.021 137.723,238.333 137.723 C 237.646 137.723,237.365 137.752,237.708 137.788 M247.458 137.784 C 247.665 137.824,248.002 137.824,248.208 137.784 C 248.415 137.745,248.246 137.712,247.833 137.712 C 247.421 137.712,247.252 137.745,247.458 137.784 M254.542 137.789 C 254.977 137.824,255.690 137.824,256.125 137.789 C 256.560 137.755,256.204 137.727,255.333 137.727 C 254.463 137.727,254.106 137.755,254.542 137.789 M258.292 137.784 C 258.498 137.824,258.835 137.824,259.042 137.784 C 259.248 137.745,259.079 137.712,258.667 137.712 C 258.254 137.712,258.085 137.745,258.292 137.784 M333.708 137.789 C 334.144 137.824,334.856 137.824,335.292 137.789 C 335.727 137.755,335.371 137.727,334.500 137.727 C 333.629 137.727,333.273 137.755,333.708 137.789 M337.875 137.789 C 338.310 137.824,339.023 137.824,339.458 137.789 C 339.894 137.755,339.537 137.727,338.667 137.727 C 337.796 137.727,337.440 137.755,337.875 137.789 M342.042 137.789 C 342.477 137.824,343.190 137.824,343.625 137.789 C 344.060 137.755,343.704 137.727,342.833 137.727 C 341.962 137.727,341.606 137.755,342.042 137.789 M346.208 137.789 C 346.644 137.824,347.356 137.824,347.792 137.789 C 348.227 137.755,347.871 137.727,347.000 137.727 C 346.129 137.727,345.773 137.755,346.208 137.789 M350.375 137.789 C 350.810 137.824,351.523 137.824,351.958 137.789 C 352.394 137.755,352.037 137.727,351.167 137.727 C 350.296 137.727,349.940 137.755,350.375 137.789 " stroke="none" fill="#0c0806" fill-rule="evenodd"></path><path id="path1" d="M46.316 39.073 C 46.278 39.111,45.442 39.233,44.460 39.344 C 43.478 39.454,42.703 39.591,42.738 39.647 C 42.773 39.704,42.612 39.761,42.380 39.775 C 42.148 39.789,41.574 39.913,41.104 40.050 C 40.635 40.186,39.800 40.390,39.250 40.503 C 38.700 40.615,37.725 40.894,37.083 41.122 C 36.442 41.350,35.729 41.572,35.500 41.614 C 35.271 41.657,34.933 41.757,34.750 41.837 C 34.567 41.917,34.065 42.136,33.634 42.324 C 33.204 42.513,32.812 42.667,32.764 42.667 C 32.610 42.667,30.754 43.562,30.667 43.678 C 30.564 43.815,28.769 44.667,28.583 44.667 C 28.509 44.667,28.216 44.844,27.932 45.060 C 27.649 45.276,27.361 45.465,27.293 45.479 C 27.037 45.533,24.707 47.048,23.667 47.837 C 23.071 48.289,22.321 48.806,22.000 48.987 C 21.679 49.167,21.154 49.563,20.833 49.866 C 20.512 50.170,19.950 50.638,19.583 50.906 C 18.601 51.626,13.155 57.180,13.262 57.352 C 13.312 57.434,13.282 57.500,13.195 57.500 C 13.000 57.500,11.167 59.722,11.167 59.959 C 11.167 60.054,11.043 60.178,10.893 60.236 C 10.742 60.294,10.661 60.383,10.712 60.434 C 10.764 60.486,10.681 60.662,10.528 60.826 C 10.080 61.307,9.450 62.171,9.211 62.631 C 9.090 62.866,8.730 63.420,8.412 63.863 C 8.094 64.305,7.833 64.742,7.833 64.834 C 7.833 64.925,7.754 65.000,7.657 65.000 C 7.560 65.000,7.521 65.066,7.571 65.147 C 7.621 65.228,7.495 65.506,7.292 65.765 C 6.938 66.215,6.692 66.657,5.541 68.917 C 4.971 70.035,4.096 71.966,3.917 72.500 C 3.901 72.546,3.802 72.793,3.696 73.049 C 3.590 73.305,3.453 73.713,3.392 73.955 C 3.332 74.197,3.181 74.587,3.059 74.822 C 2.936 75.058,2.835 75.338,2.834 75.445 C 2.834 75.552,2.644 76.016,2.413 76.476 C 2.182 76.936,2.009 77.373,2.028 77.448 C 2.047 77.522,2.005 77.901,1.934 78.289 C 1.863 78.678,1.818 79.044,1.833 79.104 C 1.849 79.164,1.796 79.259,1.716 79.315 C 1.539 79.438,1.054 81.975,0.900 83.583 C 0.839 84.225,0.716 84.890,0.628 85.062 C 0.407 85.489,0.413 97.683,0.634 98.100 C 0.726 98.274,0.887 99.183,0.992 100.119 C 1.179 101.795,1.578 104.011,1.780 104.500 C 1.836 104.638,1.868 104.909,1.849 105.104 C 1.830 105.299,1.932 105.574,2.074 105.717 C 2.217 105.860,2.333 106.125,2.333 106.308 C 2.333 106.490,2.442 106.852,2.575 107.111 C 2.779 107.510,2.897 107.794,3.083 108.333 C 3.479 109.479,4.245 111.283,4.499 111.667 C 4.651 111.896,4.877 112.346,5.002 112.667 C 5.275 113.366,5.875 114.363,6.520 115.185 C 6.779 115.516,6.956 115.821,6.914 115.864 C 6.872 115.906,7.061 116.156,7.335 116.418 C 7.609 116.681,7.833 116.967,7.833 117.054 C 7.833 117.613,10.980 121.129,13.154 123.000 C 13.740 123.504,14.498 124.160,14.838 124.458 C 15.179 124.756,15.527 125.000,15.613 125.000 C 15.698 125.000,16.022 125.263,16.333 125.583 C 16.644 125.904,16.966 126.167,17.047 126.167 C 17.129 126.167,17.733 126.530,18.389 126.974 C 19.923 128.011,22.453 129.500,22.681 129.500 C 22.778 129.500,23.206 129.704,23.632 129.954 C 24.058 130.204,24.484 130.419,24.578 130.433 C 24.673 130.447,25.158 130.655,25.656 130.896 C 26.155 131.137,26.698 131.333,26.865 131.333 C 27.031 131.333,27.167 131.407,27.167 131.497 C 27.167 131.587,27.368 131.711,27.614 131.773 C 27.860 131.834,28.254 131.985,28.489 132.108 C 28.724 132.231,29.011 132.332,29.127 132.332 C 29.243 132.333,29.468 132.410,29.627 132.503 C 30.239 132.861,34.358 134.238,35.333 134.410 C 35.593 134.455,35.978 134.585,36.633 134.847 C 36.843 134.931,37.208 135.000,37.442 135.000 C 37.677 135.000,38.292 135.106,38.809 135.236 C 39.327 135.366,40.052 135.512,40.421 135.560 C 40.790 135.607,41.290 135.722,41.533 135.814 C 41.776 135.906,42.261 136.017,42.612 136.060 C 42.963 136.102,43.587 136.214,44.000 136.308 C 44.413 136.402,45.237 136.501,45.833 136.527 C 46.429 136.553,46.956 136.629,47.005 136.696 C 47.053 136.763,47.953 136.861,49.005 136.913 C 50.056 136.966,51.967 137.085,53.250 137.179 C 57.693 137.502,90.498 137.491,91.083 137.166 C 92.243 136.523,93.027 136.393,93.296 136.798 C 93.679 137.375,97.505 137.355,98.644 136.770 C 99.069 136.552,99.904 136.147,100.500 135.871 C 101.096 135.594,102.371 134.989,103.333 134.526 C 104.296 134.063,105.121 133.685,105.167 133.685 C 105.212 133.686,106.102 133.250,107.143 132.718 L 109.036 131.750 109.511 130.625 C 109.772 130.006,109.957 129.500,109.922 129.500 C 109.887 129.500,110.048 129.031,110.280 128.458 C 110.511 127.885,110.779 127.192,110.875 126.917 C 110.971 126.642,111.103 126.267,111.169 126.083 C 111.234 125.900,111.421 125.337,111.583 124.833 C 111.745 124.329,111.975 123.692,112.095 123.417 C 112.214 123.142,112.495 122.392,112.720 121.750 C 113.769 118.752,114.095 117.908,114.245 117.801 C 114.334 117.737,114.360 117.637,114.302 117.580 C 114.244 117.522,114.379 117.077,114.601 116.592 C 114.823 116.107,115.190 115.090,115.417 114.333 C 115.643 113.576,115.895 112.872,115.976 112.770 C 116.094 112.619,116.993 110.099,117.097 109.625 C 117.113 109.556,117.143 109.444,117.166 109.375 C 117.188 109.306,117.197 109.194,117.186 109.125 C 117.176 109.056,117.242 109.000,117.333 109.000 C 117.425 109.000,117.500 108.886,117.500 108.748 C 117.500 108.609,117.571 108.365,117.658 108.206 C 117.838 107.876,118.405 106.107,118.354 106.038 C 118.335 106.012,118.432 105.787,118.570 105.538 C 118.845 105.040,119.643 102.831,119.787 102.167 C 119.837 101.938,119.933 101.675,120.000 101.583 C 120.067 101.492,120.286 100.892,120.487 100.250 C 120.687 99.608,120.922 98.953,121.009 98.794 C 121.096 98.635,121.167 98.395,121.167 98.262 C 121.167 98.129,121.241 97.974,121.331 97.918 C 121.426 97.859,121.454 97.926,121.397 98.075 C 121.337 98.230,121.388 98.334,121.524 98.336 C 121.712 98.338,121.711 98.363,121.520 98.484 C 121.205 98.684,121.432 98.994,121.837 98.916 C 122.159 98.854,122.170 100.066,121.850 100.333 C 121.795 100.379,121.743 100.492,121.736 100.583 C 121.728 100.675,121.628 101.087,121.513 101.500 C 121.399 101.912,121.242 102.513,121.164 102.833 C 121.085 103.154,120.904 103.872,120.761 104.428 C 120.617 104.984,120.500 105.602,120.500 105.803 C 120.500 106.022,120.396 106.167,120.240 106.167 C 120.091 106.167,119.992 106.292,120.009 106.458 C 120.069 107.053,119.994 107.333,119.773 107.333 C 119.621 107.333,119.572 107.471,119.626 107.750 C 119.670 107.982,119.627 108.167,119.529 108.167 C 119.427 108.167,119.355 108.527,119.359 109.022 C 119.363 109.564,119.283 109.929,119.141 110.019 C 118.959 110.135,118.964 110.163,119.167 110.167 C 119.389 110.171,119.389 110.190,119.167 110.333 C 119.029 110.422,118.987 110.496,119.074 110.497 C 119.160 110.499,119.085 110.610,118.907 110.745 C 118.659 110.932,118.642 110.991,118.833 110.997 C 119.056 111.004,119.056 111.023,118.833 111.169 C 118.626 111.305,118.622 111.358,118.809 111.479 C 118.966 111.580,118.979 111.660,118.852 111.738 C 118.751 111.801,118.586 112.007,118.484 112.196 C 118.383 112.385,118.372 112.496,118.459 112.442 C 118.695 112.296,118.487 113.204,118.223 113.467 C 118.054 113.636,118.045 113.772,118.184 114.032 C 118.317 114.280,118.317 114.343,118.183 114.260 C 117.987 114.139,117.970 114.179,117.931 114.856 C 117.917 115.098,117.813 115.408,117.699 115.545 C 117.585 115.682,117.481 116.066,117.469 116.397 C 117.456 116.729,117.374 117.000,117.286 117.000 C 117.198 117.000,117.213 117.105,117.320 117.234 C 117.469 117.413,117.464 117.488,117.299 117.554 C 117.125 117.624,117.125 117.643,117.302 117.654 C 117.431 117.661,117.468 117.750,117.393 117.872 C 117.323 117.985,117.249 118.191,117.228 118.330 C 117.112 119.102,116.937 119.920,116.573 121.382 C 116.349 122.279,116.167 123.193,116.167 123.414 C 116.167 123.634,116.102 123.853,116.024 123.902 C 115.945 123.951,115.790 124.461,115.678 125.037 C 115.567 125.612,115.406 126.214,115.321 126.374 C 115.235 126.534,115.122 126.946,115.069 127.291 C 115.017 127.635,114.880 128.110,114.764 128.345 C 114.649 128.581,114.576 128.915,114.601 129.087 C 114.626 129.259,114.504 129.499,114.329 129.622 C 114.095 129.786,114.035 129.969,114.105 130.315 C 114.183 130.704,114.133 130.803,113.822 130.885 C 113.487 130.972,113.471 131.015,113.681 131.274 C 113.832 131.460,113.842 131.519,113.708 131.439 C 113.502 131.315,113.417 131.850,113.493 132.792 C 113.510 132.998,113.443 133.167,113.345 133.167 C 113.247 133.167,113.167 133.317,113.167 133.500 C 113.167 133.683,113.100 133.833,113.018 133.833 C 112.765 133.833,112.650 134.363,112.851 134.604 C 112.984 134.765,112.986 134.833,112.859 134.833 C 112.759 134.833,112.720 134.946,112.773 135.083 C 112.826 135.221,112.805 135.333,112.726 135.333 C 112.555 135.333,112.543 137.265,112.714 137.436 C 112.780 137.502,112.833 137.464,112.833 137.352 C 112.833 137.210,112.984 137.237,113.324 137.438 C 113.594 137.597,113.787 137.774,113.752 137.831 C 113.717 137.887,114.021 137.931,114.427 137.927 C 114.834 137.923,115.167 137.871,115.167 137.811 C 115.167 137.750,119.961 137.700,125.821 137.698 L 136.475 137.696 137.488 136.982 C 138.044 136.589,138.500 136.207,138.500 136.134 C 138.500 136.060,138.578 136.000,138.673 136.000 C 138.832 136.000,140.977 134.433,141.167 134.178 C 141.212 134.116,141.550 133.845,141.917 133.575 C 142.980 132.790,142.997 132.777,143.569 132.201 C 144.106 131.661,144.617 130.500,144.318 130.500 C 144.235 130.500,144.167 130.421,144.167 130.323 C 144.167 130.226,144.242 130.193,144.333 130.250 C 144.425 130.307,144.513 130.199,144.529 130.010 C 144.647 128.625,144.702 128.299,145.078 126.750 C 145.212 126.200,145.427 125.300,145.557 124.750 C 145.686 124.200,145.836 123.638,145.888 123.500 C 145.941 123.362,146.022 123.025,146.069 122.750 C 146.141 122.318,146.914 119.260,147.331 117.750 C 147.710 116.380,148.025 115.504,148.171 115.414 C 148.260 115.359,148.333 115.140,148.333 114.927 L 148.333 114.541 151.766 114.562 C 153.654 114.574,155.232 114.530,155.272 114.465 C 155.312 114.399,155.511 114.401,155.714 114.468 C 155.917 114.535,158.165 114.583,160.708 114.576 L 165.333 114.562 165.333 115.031 C 165.333 115.289,165.258 115.500,165.167 115.500 C 165.075 115.500,165.000 115.721,165.000 115.990 C 165.000 116.260,164.925 116.527,164.833 116.583 C 164.742 116.640,164.667 116.899,164.667 117.159 C 164.667 117.433,164.558 117.673,164.406 117.731 C 164.263 117.786,164.189 117.901,164.242 117.987 C 164.295 118.073,164.255 118.196,164.152 118.259 C 164.019 118.341,164.030 118.417,164.191 118.521 C 164.339 118.616,164.357 118.710,164.245 118.792 C 164.151 118.860,164.089 119.104,164.107 119.333 C 164.139 119.742,163.834 120.667,163.667 120.667 C 163.621 120.667,163.573 120.873,163.562 121.125 C 163.533 121.752,163.434 122.207,163.267 122.475 C 163.190 122.599,163.098 123.081,163.062 123.546 C 163.027 124.012,162.896 124.510,162.772 124.655 C 162.647 124.799,162.497 125.286,162.438 125.738 C 162.372 126.246,162.201 126.682,161.991 126.878 C 161.704 127.145,161.684 127.238,161.867 127.463 C 161.991 127.617,162.002 127.682,161.892 127.616 C 161.670 127.483,161.447 127.947,161.609 128.207 C 161.673 128.312,161.639 128.336,161.526 128.266 C 161.420 128.201,161.333 128.222,161.333 128.314 C 161.333 128.405,161.416 128.532,161.518 128.594 C 161.650 128.676,161.645 128.744,161.501 128.832 C 161.391 128.901,161.291 129.323,161.278 129.770 C 161.265 130.265,161.157 130.670,161.003 130.804 C 160.864 130.925,160.844 130.977,160.958 130.919 C 161.206 130.794,161.242 131.100,160.997 131.252 C 160.904 131.309,160.871 131.426,160.924 131.512 C 160.977 131.597,160.932 131.667,160.824 131.667 C 160.704 131.667,160.659 131.831,160.708 132.087 C 160.752 132.319,160.722 132.549,160.642 132.599 C 160.561 132.649,160.538 132.760,160.590 132.845 C 160.643 132.930,160.614 133.000,160.525 133.000 C 160.436 133.000,160.383 133.189,160.409 133.421 C 160.434 133.652,160.390 133.882,160.311 133.931 C 159.997 134.125,160.142 137.308,160.473 137.486 C 160.838 137.681,164.794 137.757,167.667 137.625 C 168.354 137.593,169.057 137.635,169.228 137.717 C 169.456 137.826,169.507 137.812,169.417 137.667 C 169.326 137.521,169.377 137.508,169.605 137.619 C 169.776 137.703,170.104 137.752,170.333 137.730 C 170.755 137.688,172.625 137.669,174.000 137.694 C 174.412 137.701,175.463 137.700,176.333 137.692 C 177.204 137.683,178.160 137.678,178.458 137.680 C 178.756 137.682,179.600 137.684,180.333 137.684 C 181.067 137.685,181.985 137.686,182.375 137.687 C 187.863 137.701,189.346 137.494,189.061 136.751 C 189.015 136.631,189.057 136.484,189.155 136.424 C 189.253 136.363,189.333 136.071,189.333 135.773 C 189.333 135.035,189.633 134.751,190.031 135.111 C 190.252 135.312,190.333 135.326,190.333 135.167 C 190.333 135.003,190.406 135.014,190.625 135.209 C 190.785 135.353,191.156 135.507,191.449 135.552 C 191.742 135.598,192.229 135.714,192.532 135.811 C 192.835 135.908,193.271 136.011,193.500 136.040 C 193.729 136.068,193.992 136.137,194.083 136.193 C 194.337 136.348,195.701 136.564,196.125 136.518 C 196.331 136.495,196.500 136.548,196.500 136.636 C 196.500 136.724,196.856 136.847,197.292 136.910 C 197.727 136.973,198.346 137.064,198.667 137.113 C 198.987 137.162,199.703 137.218,200.257 137.237 C 200.811 137.255,201.371 137.337,201.502 137.418 C 201.877 137.650,203.940 137.681,215.207 137.624 C 221.004 137.594,223.183 137.634,223.235 137.772 C 223.351 138.074,226.611 137.913,226.934 137.590 C 227.075 137.449,227.129 137.329,227.054 137.323 C 226.802 137.303,227.743 136.969,228.250 136.898 C 228.525 136.859,229.012 136.778,229.333 136.719 C 229.654 136.659,230.104 136.589,230.333 136.564 C 230.563 136.538,230.900 136.482,231.083 136.438 C 231.267 136.394,231.665 136.353,231.968 136.346 C 232.291 136.339,232.477 136.264,232.417 136.167 C 232.356 136.069,232.543 135.995,232.865 135.987 C 233.535 135.972,233.999 135.890,234.123 135.766 C 234.221 135.668,234.833 136.301,234.833 136.500 C 234.833 136.564,235.081 136.871,235.384 137.183 L 235.935 137.750 240.926 137.719 C 245.632 137.690,248.204 137.677,248.583 137.683 C 248.675 137.684,249.575 137.673,250.583 137.659 C 251.592 137.645,253.954 137.641,255.833 137.650 C 257.712 137.660,268.080 137.653,278.871 137.635 C 289.663 137.618,298.550 137.667,298.621 137.745 C 298.692 137.823,298.637 137.825,298.500 137.750 C 298.362 137.675,298.308 137.677,298.378 137.754 C 298.559 137.953,299.526 137.984,299.880 137.802 C 300.312 137.580,301.225 137.491,301.330 137.661 C 301.688 138.240,303.330 137.889,303.184 137.265 C 303.126 137.013,303.547 136.847,303.844 137.006 C 303.997 137.088,304.170 137.108,304.228 137.050 C 304.286 136.992,304.333 137.017,304.333 137.105 C 304.333 137.494,306.106 137.904,306.490 137.604 C 306.674 137.461,306.701 137.466,306.605 137.625 C 306.537 137.740,306.541 137.832,306.615 137.831 C 306.954 137.824,307.110 137.533,307.092 136.945 C 307.072 136.268,307.326 136.000,307.989 136.000 C 308.178 136.000,308.333 135.938,308.333 135.861 C 308.333 135.716,308.392 135.701,309.324 135.613 C 309.639 135.583,309.925 135.474,309.959 135.372 C 309.994 135.269,310.132 135.228,310.267 135.280 C 310.402 135.331,310.647 135.252,310.811 135.103 C 310.976 134.954,311.165 134.887,311.231 134.953 C 311.297 135.019,311.404 134.998,311.467 134.905 C 311.531 134.812,312.355 134.346,313.297 133.869 C 314.240 133.392,315.173 132.852,315.370 132.668 C 315.568 132.484,315.819 132.333,315.928 132.333 C 316.037 132.333,316.215 132.226,316.324 132.094 C 316.494 131.890,316.568 131.902,316.844 132.178 C 317.022 132.355,317.304 132.500,317.472 132.500 C 317.640 132.500,317.834 132.556,317.903 132.625 C 317.972 132.694,318.078 132.755,318.139 132.762 C 318.200 132.768,318.438 132.858,318.667 132.961 C 319.429 133.304,323.744 134.858,324.156 134.939 C 324.379 134.982,324.754 135.117,324.989 135.238 C 325.763 135.636,326.674 136.000,326.897 136.000 C 327.017 136.000,327.333 136.107,327.599 136.237 C 327.866 136.367,328.233 136.498,328.417 136.529 C 328.600 136.559,328.787 136.627,328.833 136.681 C 328.879 136.735,329.515 136.989,330.246 137.247 C 331.577 137.716,331.915 137.749,334.437 137.666 C 335.182 137.641,335.887 137.680,336.005 137.753 C 336.151 137.843,336.177 137.819,336.089 137.676 C 335.992 137.519,336.038 137.505,336.272 137.619 C 336.443 137.703,336.771 137.753,337.000 137.731 C 338.051 137.630,340.508 137.619,340.604 137.715 C 340.662 137.774,340.860 137.742,341.042 137.644 C 341.281 137.516,341.342 137.518,341.261 137.650 C 341.183 137.775,341.267 137.790,341.532 137.698 C 341.744 137.623,342.217 137.586,342.583 137.614 C 344.400 137.752,353.293 137.674,353.708 137.516 C 354.139 137.352,354.195 137.230,354.236 136.375 C 354.244 136.215,354.294 136.046,354.348 136.000 C 354.476 135.891,355.167 132.955,355.167 132.521 C 355.167 132.337,355.233 132.145,355.315 132.095 C 355.396 132.044,355.504 131.759,355.553 131.460 C 355.781 130.081,356.758 126.541,356.988 126.264 C 357.091 126.140,357.159 125.824,357.140 125.561 C 357.121 125.298,357.184 124.933,357.280 124.750 C 357.376 124.567,357.425 124.334,357.389 124.233 C 357.352 124.133,357.433 123.958,357.568 123.846 C 357.703 123.734,357.771 123.532,357.720 123.398 C 357.668 123.264,357.744 123.024,357.887 122.866 C 358.031 122.707,358.126 122.429,358.099 122.247 C 358.072 122.065,358.151 121.761,358.275 121.570 C 358.400 121.379,358.451 121.173,358.389 121.112 C 358.328 121.050,358.360 121.000,358.460 121.000 C 358.566 121.000,358.616 120.788,358.578 120.495 C 358.543 120.217,358.581 120.030,358.662 120.080 C 358.904 120.230,359.055 119.502,359.093 118.000 C 359.112 117.221,359.221 116.358,359.335 116.083 C 359.549 115.569,359.667 115.093,360.079 113.083 C 360.400 111.521,360.735 110.127,361.080 108.917 C 361.237 108.367,361.440 107.542,361.531 107.083 C 361.622 106.625,361.771 106.160,361.862 106.050 C 362.027 105.850,362.178 105.180,362.184 104.621 C 362.186 104.448,362.263 104.373,362.372 104.440 C 362.491 104.514,362.519 104.457,362.450 104.277 C 362.392 104.125,362.409 104.000,362.490 104.000 C 362.570 104.000,362.596 103.850,362.548 103.666 C 362.500 103.482,362.544 103.231,362.646 103.109 C 362.747 102.986,362.781 102.837,362.721 102.776 C 362.660 102.716,362.698 102.667,362.804 102.667 C 362.910 102.667,362.997 102.479,362.998 102.250 C 363.003 101.205,363.031 100.932,363.114 101.137 C 363.172 101.283,363.280 101.207,363.434 100.911 C 363.561 100.666,363.621 100.395,363.568 100.309 C 363.515 100.223,363.559 100.046,363.667 99.916 C 363.775 99.786,363.827 99.417,363.783 99.090 C 363.739 98.766,363.758 98.500,363.824 98.500 C 363.890 98.500,363.953 98.406,363.964 98.292 C 364.021 97.680,364.100 97.404,364.250 97.294 C 364.352 97.219,364.332 97.171,364.198 97.169 C 364.071 97.168,364.032 97.083,364.105 96.965 C 364.173 96.855,364.255 96.573,364.286 96.340 C 364.317 96.107,364.365 95.748,364.394 95.541 C 364.422 95.335,364.495 95.116,364.556 95.055 C 364.617 94.994,364.667 94.730,364.667 94.467 C 364.667 93.823,364.471 93.849,369.833 93.778 C 372.446 93.743,374.958 93.635,375.417 93.537 C 375.875 93.440,376.511 93.312,376.829 93.254 C 377.148 93.196,377.456 93.071,377.514 92.977 C 377.573 92.882,377.669 92.813,377.729 92.822 C 377.939 92.857,378.833 92.322,378.833 92.162 C 378.833 92.073,378.916 92.000,379.016 92.000 C 379.221 92.000,381.259 90.177,381.346 89.917 C 381.377 89.825,381.706 89.549,382.077 89.303 C 382.448 89.057,383.248 88.382,383.853 87.803 C 384.459 87.224,385.278 86.487,385.674 86.167 C 386.069 85.846,386.594 85.396,386.840 85.167 C 388.686 83.445,389.172 83.007,389.833 82.470 C 390.246 82.135,390.838 81.624,391.149 81.334 L 391.716 80.807 393.131 80.925 C 393.937 80.993,394.508 80.980,394.456 80.897 C 394.406 80.815,395.378 80.744,396.641 80.737 C 398.254 80.728,399.063 80.655,399.417 80.485 L 399.917 80.246 399.949 77.498 C 399.985 74.440,399.928 74.435,399.135 77.414 C 398.673 79.148,398.933 79.015,395.866 79.080 C 392.420 79.153,392.535 79.239,393.187 77.083 C 393.464 76.167,393.771 75.117,393.870 74.750 C 394.150 73.705,394.111 73.719,397.169 73.588 L 400.000 73.467 400.000 72.817 L 400.000 72.167 399.263 72.167 L 398.527 72.167 398.694 71.563 C 398.785 71.230,398.885 70.832,398.914 70.678 C 398.944 70.524,399.099 70.103,399.260 69.741 C 399.420 69.379,399.535 68.984,399.515 68.862 C 399.495 68.740,399.596 68.461,399.740 68.242 C 399.903 67.993,400.000 67.471,400.000 66.843 C 400.000 65.341,399.820 65.262,396.524 65.310 C 390.542 65.397,387.510 65.532,386.304 65.768 C 385.703 65.885,385.031 65.972,383.250 66.166 C 382.425 66.256,381.563 66.369,381.333 66.418 C 381.104 66.467,380.204 66.579,379.333 66.667 C 378.462 66.755,377.579 66.862,377.370 66.905 C 377.019 66.977,375.087 67.210,373.083 67.421 C 368.747 67.879,368.044 68.086,367.899 68.951 C 367.880 69.062,367.745 69.392,367.599 69.685 C 367.453 69.978,367.333 70.350,367.333 70.512 C 367.333 70.756,367.144 70.819,366.208 70.881 C 365.590 70.923,364.858 71.000,364.583 71.052 C 364.308 71.104,363.558 71.190,362.917 71.244 C 361.738 71.342,360.821 71.452,359.930 71.600 C 359.288 71.707,358.882 72.252,358.980 72.875 C 358.991 72.944,358.908 72.981,358.796 72.958 C 358.683 72.935,358.565 73.087,358.534 73.294 C 358.502 73.502,358.415 73.634,358.340 73.588 C 358.192 73.496,357.930 74.919,358.057 75.125 C 358.100 75.194,354.973 75.259,351.109 75.271 C 347.245 75.282,343.671 75.339,343.167 75.398 C 342.662 75.457,341.868 75.530,341.401 75.560 C 340.934 75.590,340.454 75.676,340.333 75.750 C 340.189 75.839,340.155 75.820,340.234 75.692 C 340.362 75.486,340.131 75.425,339.941 75.615 C 339.782 75.773,337.412 75.924,336.250 75.850 C 335.972 75.832,335.958 75.801,336.167 75.667 C 336.466 75.473,336.573 75.485,333.583 75.387 C 330.194 75.277,307.603 75.211,307.420 75.311 C 307.180 75.442,306.667 75.461,306.667 75.339 C 306.667 75.223,301.016 75.256,300.292 75.378 C 300.040 75.420,299.833 75.405,299.833 75.345 C 299.833 75.138,283.113 75.243,282.741 75.451 C 282.538 75.566,282.305 75.585,282.167 75.500 C 282.037 75.420,281.816 75.420,281.667 75.500 C 281.517 75.580,281.296 75.580,281.166 75.499 C 281.037 75.420,280.856 75.403,280.763 75.460 C 280.669 75.518,280.376 75.549,280.110 75.528 C 279.845 75.508,279.509 75.587,279.365 75.704 C 279.178 75.856,279.137 75.859,279.224 75.715 C 279.343 75.516,278.819 75.530,277.667 75.756 C 277.438 75.801,276.837 75.883,276.333 75.937 C 275.829 75.992,275.342 76.096,275.250 76.169 C 275.158 76.243,274.485 76.351,273.755 76.411 C 273.024 76.472,272.349 76.577,272.255 76.647 C 272.160 76.716,271.870 76.786,271.610 76.802 C 271.065 76.837,270.794 76.969,270.905 77.148 C 270.947 77.216,270.630 77.290,270.199 77.312 C 269.769 77.334,269.117 77.424,268.750 77.512 C 268.383 77.600,267.725 77.707,267.287 77.749 C 266.849 77.792,266.352 77.901,266.184 77.991 C 266.015 78.081,265.841 78.119,265.797 78.074 C 265.752 78.030,265.499 78.107,265.233 78.245 C 264.948 78.393,264.727 78.428,264.694 78.331 C 264.664 78.241,264.528 78.167,264.393 78.167 C 264.258 78.167,264.182 78.223,264.224 78.292 C 264.267 78.360,264.065 78.431,263.776 78.448 C 263.487 78.465,263.063 78.512,262.833 78.552 C 262.604 78.591,262.356 78.634,262.282 78.645 C 262.208 78.657,262.188 78.733,262.238 78.815 C 262.289 78.896,262.237 78.959,262.123 78.955 C 261.513 78.933,261.159 79.019,261.250 79.167 C 261.380 79.376,260.641 79.667,259.979 79.667 C 259.705 79.667,259.523 79.736,259.576 79.821 C 259.629 79.907,259.502 80.002,259.294 80.034 C 259.087 80.065,258.929 80.165,258.945 80.254 C 258.996 80.553,257.697 80.438,257.466 80.123 C 257.347 79.962,257.063 79.794,256.833 79.750 C 256.471 79.681,254.825 78.959,253.961 78.490 C 253.801 78.404,253.564 78.333,253.433 78.333 C 253.302 78.333,253.168 78.253,253.135 78.156 C 253.103 78.058,252.759 77.936,252.371 77.884 C 251.984 77.832,251.667 77.728,251.667 77.652 C 251.667 77.471,250.564 77.255,249.848 77.297 C 249.535 77.315,249.186 77.252,249.072 77.157 C 248.868 76.988,247.657 76.717,246.500 76.582 C 245.369 76.450,243.573 76.183,242.683 76.015 C 242.187 75.922,241.719 75.885,241.641 75.932 C 241.563 75.980,241.500 75.950,241.500 75.866 C 241.500 75.781,241.331 75.725,241.125 75.741 C 240.919 75.756,240.656 75.700,240.542 75.614 C 240.427 75.529,240.333 75.509,240.333 75.569 C 240.333 75.629,240.198 75.606,240.033 75.517 C 239.858 75.424,239.634 75.417,239.497 75.502 C 239.367 75.582,239.184 75.586,239.089 75.511 C 238.836 75.311,225.494 75.355,225.618 75.556 C 225.681 75.657,225.630 75.662,225.484 75.569 C 225.118 75.336,223.477 75.326,223.616 75.558 C 223.697 75.694,223.658 75.692,223.485 75.552 C 223.339 75.433,222.939 75.385,222.495 75.432 C 222.085 75.476,221.600 75.500,221.417 75.485 C 220.086 75.376,217.500 75.499,217.500 75.672 C 217.500 75.727,217.144 75.757,216.708 75.738 C 215.647 75.691,215.634 75.688,215.736 75.523 C 215.827 75.375,215.127 75.402,214.877 75.557 C 214.798 75.605,214.626 75.578,214.494 75.496 C 214.325 75.392,214.113 75.482,213.783 75.799 C 213.376 76.190,213.088 76.276,211.615 76.450 C 208.543 76.811,207.784 76.952,207.902 77.142 C 207.947 77.215,207.599 77.292,207.130 77.313 C 206.661 77.335,206.027 77.457,205.722 77.584 C 205.241 77.785,205.167 77.784,205.167 77.575 C 205.167 77.442,205.110 77.342,205.042 77.353 C 204.973 77.364,204.879 77.357,204.833 77.338 C 204.327 77.125,203.500 77.276,203.500 77.580 C 203.500 77.844,203.385 77.925,202.991 77.941 C 202.710 77.952,202.382 78.098,202.260 78.265 C 202.070 78.525,202.048 78.402,202.109 77.402 C 202.174 76.324,202.147 76.207,201.756 75.839 C 201.524 75.621,201.333 75.502,201.333 75.575 C 201.333 75.648,201.240 75.632,201.125 75.539 C 200.834 75.303,199.975 75.323,200.118 75.563 C 200.201 75.701,200.168 75.701,199.990 75.563 C 199.836 75.444,198.818 75.378,197.149 75.380 C 195.718 75.381,194.481 75.346,194.399 75.302 C 193.833 74.997,175.470 75.340,175.364 75.658 C 175.332 75.754,175.214 75.833,175.103 75.833 C 174.851 75.833,174.500 76.771,174.500 77.445 C 174.500 77.722,174.381 78.188,174.235 78.481 C 174.089 78.773,174.008 79.113,174.055 79.236 C 174.106 79.370,174.031 79.450,173.863 79.438 C 173.660 79.422,173.591 79.546,173.605 79.905 C 173.615 80.174,173.488 80.539,173.323 80.716 C 173.090 80.966,173.043 81.207,173.114 81.789 C 173.177 82.303,173.139 82.581,172.993 82.671 C 172.876 82.743,172.761 82.978,172.737 83.193 C 172.714 83.408,172.680 83.583,172.663 83.583 C 172.645 83.583,172.614 83.771,172.594 84.000 C 172.574 84.229,172.512 84.529,172.458 84.667 C 172.366 84.897,172.225 85.597,172.106 86.417 C 172.079 86.600,172.013 86.862,171.960 87.000 C 171.907 87.138,171.767 87.827,171.650 88.531 C 171.533 89.236,171.395 89.808,171.344 89.803 C 170.972 89.766,170.811 89.867,170.894 90.083 C 170.946 90.221,170.934 90.333,170.865 90.333 C 170.797 90.333,170.771 90.643,170.807 91.022 C 170.843 91.400,170.796 91.981,170.702 92.313 C 170.608 92.645,170.386 93.552,170.210 94.329 L 169.889 95.742 162.935 95.723 C 159.111 95.713,155.936 95.658,155.880 95.602 C 155.704 95.426,155.475 95.491,155.594 95.683 C 155.672 95.810,155.611 95.821,155.395 95.717 C 155.224 95.635,154.708 95.590,154.250 95.617 C 151.879 95.757,150.558 95.882,150.333 95.990 C 150.016 96.142,148.667 96.225,148.667 96.093 C 148.667 96.038,148.843 95.714,149.059 95.372 C 149.275 95.030,149.444 94.711,149.434 94.663 C 149.425 94.614,149.511 94.464,149.627 94.329 C 149.998 93.896,151.333 91.812,151.333 91.668 C 151.333 91.591,151.390 91.503,151.460 91.472 C 151.616 91.403,152.569 90.173,152.729 89.833 C 153.030 89.194,153.289 88.845,153.390 88.945 C 153.487 89.043,153.528 88.877,153.486 88.560 C 153.478 88.502,153.544 88.408,153.632 88.352 C 153.721 88.296,154.195 87.575,154.686 86.750 C 155.177 85.925,155.655 85.129,155.748 84.981 C 155.841 84.833,156.085 84.405,156.292 84.029 C 156.498 83.653,156.836 83.189,157.042 82.997 C 157.248 82.805,157.417 82.596,157.418 82.532 C 157.420 82.323,157.945 81.667,158.037 81.759 C 158.086 81.808,158.173 81.665,158.229 81.440 C 158.286 81.215,158.595 80.632,158.916 80.145 C 159.862 78.708,159.597 76.833,158.449 76.833 C 158.330 76.833,158.147 76.747,158.040 76.640 C 157.894 76.494,157.783 76.501,157.581 76.669 C 157.367 76.846,157.325 76.847,157.366 76.674 C 157.396 76.544,157.217 76.428,156.920 76.385 C 156.647 76.344,156.384 76.260,156.336 76.197 C 156.289 76.135,156.163 76.067,156.057 76.047 C 155.951 76.027,155.613 75.966,155.307 75.912 C 155.001 75.859,154.679 75.744,154.592 75.657 C 154.360 75.428,154.126 75.465,154.272 75.708 C 154.351 75.840,154.289 75.829,154.104 75.679 C 153.912 75.522,153.255 75.416,152.197 75.369 C 150.400 75.289,150.057 75.289,141.609 75.364 C 138.323 75.393,135.608 75.373,135.574 75.319 C 135.527 75.242,132.177 75.255,128.783 75.345 C 128.617 75.349,128.441 75.461,128.390 75.593 C 128.339 75.725,128.193 75.833,128.066 75.833 C 127.917 75.833,127.833 76.020,127.833 76.351 C 127.833 76.782,127.784 76.847,127.542 76.741 C 127.381 76.670,126.725 76.545,126.083 76.462 C 125.442 76.380,124.692 76.248,124.417 76.169 C 124.142 76.090,123.469 75.977,122.923 75.917 C 122.376 75.858,121.879 75.778,121.818 75.741 C 121.758 75.703,121.343 75.630,120.896 75.579 C 120.449 75.527,119.858 75.426,119.583 75.355 C 119.308 75.283,117.583 75.249,115.750 75.278 C 111.486 75.347,108.922 75.344,107.263 75.268 C 106.074 75.214,105.906 75.245,105.570 75.582 L 105.196 75.955 105.223 89.478 C 105.241 98.395,105.193 103.003,105.083 103.008 C 104.529 103.037,103.300 103.207,102.583 103.354 C 102.125 103.448,101.225 103.586,100.583 103.661 C 99.942 103.735,99.267 103.833,99.083 103.877 C 98.656 103.980,97.207 104.209,96.667 104.259 C 96.438 104.281,96.063 104.344,95.833 104.400 C 95.604 104.456,95.004 104.549,94.500 104.607 C 93.052 104.773,93.167 103.905,93.167 114.687 C 93.167 119.993,93.123 124.333,93.071 124.333 C 92.976 124.333,91.572 123.527,87.833 121.324 C 85.681 120.056,84.834 119.572,84.034 119.151 C 83.732 118.992,83.376 118.771,83.242 118.660 C 83.109 118.550,83.000 118.517,83.000 118.589 C 83.000 118.660,82.869 118.613,82.708 118.484 C 82.548 118.355,82.267 118.168,82.083 118.068 C 81.255 117.615,80.911 117.410,80.833 117.325 C 80.692 117.170,78.982 116.140,77.667 115.418 C 76.060 114.537,75.603 114.271,75.500 114.159 C 75.454 114.109,74.926 113.772,74.327 113.409 C 73.728 113.047,73.091 112.656,72.911 112.540 C 72.731 112.425,72.396 112.238,72.167 112.124 C 71.938 112.010,71.637 111.827,71.500 111.717 C 70.622 111.015,68.613 109.667,68.447 109.667 C 68.337 109.667,68.153 109.517,68.039 109.333 C 67.924 109.150,67.733 109.000,67.614 109.000 C 67.496 109.000,67.127 108.756,66.796 108.458 C 66.465 108.160,65.848 107.654,65.426 107.333 C 65.004 107.013,64.163 106.288,63.558 105.723 L 62.457 104.696 63.437 104.596 C 66.658 104.269,69.813 103.902,70.500 103.774 C 70.729 103.731,71.587 103.648,72.406 103.589 C 73.225 103.530,73.952 103.446,74.023 103.403 C 74.093 103.359,74.623 103.287,75.200 103.242 C 76.369 103.150,78.833 102.513,78.833 102.302 C 78.833 102.228,78.965 102.166,79.125 102.166 C 79.399 102.165,80.165 101.725,81.840 100.606 C 84.016 99.151,86.322 95.672,86.833 93.073 C 87.222 91.088,86.981 85.629,86.442 84.250 C 86.192 83.608,85.957 82.955,85.921 82.799 C 85.832 82.412,85.266 81.228,84.783 80.417 C 84.297 79.600,84.433 79.625,78.167 79.166 C 75.942 79.002,75.114 78.934,73.234 78.756 C 70.806 78.526,68.167 78.468,68.167 78.643 C 68.167 78.748,68.046 78.833,67.899 78.833 C 67.732 78.833,67.666 78.925,67.725 79.078 C 67.777 79.213,67.746 79.368,67.657 79.422 C 67.569 79.477,67.231 79.936,66.907 80.443 C 66.583 80.949,66.134 81.534,65.909 81.742 C 65.684 81.951,65.499 82.188,65.499 82.269 C 65.497 82.402,64.691 83.300,62.814 85.259 C 62.458 85.630,62.163 86.005,62.158 86.092 C 62.153 86.179,61.845 86.494,61.473 86.792 C 61.102 87.090,60.842 87.333,60.896 87.333 C 60.990 87.333,60.556 87.753,59.167 89.007 C 58.846 89.297,58.208 89.883,57.750 90.310 C 56.763 91.228,55.895 91.957,55.240 92.417 C 54.978 92.600,54.636 92.876,54.478 93.029 C 54.209 93.292,54.186 93.267,54.090 92.612 C 54.033 92.230,53.908 91.608,53.812 91.231 C 53.455 89.838,53.889 86.873,54.836 84.232 C 55.201 83.213,55.500 82.301,55.500 82.204 C 55.500 82.107,55.579 82.001,55.676 81.969 C 55.772 81.937,55.871 81.799,55.896 81.664 C 55.920 81.528,56.141 81.009,56.387 80.510 C 56.632 80.012,56.833 79.554,56.833 79.494 C 56.833 79.369,58.182 77.263,58.591 76.750 C 58.737 76.567,59.170 75.980,59.553 75.447 C 62.340 71.565,65.145 68.733,68.000 66.917 C 68.688 66.480,69.275 66.057,69.306 65.978 C 69.336 65.898,69.436 65.833,69.528 65.833 C 69.621 65.833,70.174 65.566,70.758 65.239 C 71.343 64.912,71.860 64.647,71.908 64.651 C 71.956 64.654,72.353 64.503,72.790 64.315 C 73.592 63.969,75.846 63.192,76.365 63.082 C 76.520 63.050,77.195 62.873,77.865 62.691 C 81.109 61.807,86.669 61.638,89.500 62.338 C 89.912 62.440,90.400 62.543,90.583 62.566 C 90.767 62.590,91.029 62.656,91.167 62.713 C 91.471 62.839,92.791 63.200,93.250 63.282 C 93.433 63.315,94.183 63.508,94.917 63.711 C 95.650 63.914,96.325 64.081,96.417 64.082 C 96.508 64.083,96.621 64.131,96.667 64.190 C 96.712 64.248,97.013 64.334,97.333 64.380 C 97.654 64.426,98.133 64.549,98.398 64.653 C 98.663 64.757,98.917 64.806,98.962 64.761 C 99.007 64.715,99.178 64.750,99.342 64.838 C 99.506 64.926,99.918 65.042,100.258 65.096 C 101.254 65.254,101.491 65.308,101.670 65.419 C 101.844 65.526,102.526 65.673,103.042 65.714 C 103.202 65.727,103.333 65.784,103.333 65.841 C 103.333 65.898,103.427 65.951,103.542 65.960 C 103.849 65.983,104.701 66.164,105.083 66.288 C 105.613 66.460,105.721 66.488,106.250 66.593 C 106.525 66.647,106.900 66.756,107.083 66.835 C 107.267 66.913,107.679 67.020,108.000 67.073 C 108.814 67.207,109.046 67.259,109.333 67.372 C 109.471 67.426,109.996 67.555,110.500 67.659 C 111.004 67.763,111.717 67.923,112.083 68.016 C 112.450 68.108,112.862 68.207,113.000 68.235 C 113.138 68.264,113.362 68.326,113.500 68.373 C 113.723 68.449,114.582 68.636,116.083 68.934 C 116.358 68.988,116.710 69.101,116.864 69.183 C 117.740 69.652,118.757 69.372,120.023 68.314 C 121.322 67.229,124.669 64.125,125.552 63.186 C 125.844 62.875,126.646 62.049,127.333 61.350 C 128.021 60.650,128.839 59.779,129.152 59.414 C 129.464 59.049,130.187 58.225,130.758 57.583 C 132.424 55.711,133.893 53.989,134.815 52.830 C 135.286 52.236,135.952 51.419,136.295 51.014 C 136.637 50.609,137.025 50.122,137.157 49.931 C 137.289 49.740,137.447 49.546,137.507 49.500 C 137.636 49.402,138.883 47.852,139.542 46.969 C 140.324 45.922,140.099 44.000,139.195 44.000 C 139.088 44.000,139.000 43.931,139.000 43.847 C 139.000 43.763,138.719 43.522,138.375 43.311 C 138.031 43.101,137.665 42.851,137.562 42.756 C 137.459 42.661,137.206 42.471,137.000 42.333 C 136.794 42.196,136.541 42.005,136.438 41.909 C 136.131 41.625,133.677 39.833,133.594 39.833 C 133.552 39.833,133.315 39.646,133.067 39.416 L 132.617 38.999 89.502 39.001 C 65.788 39.002,46.355 39.034,46.316 39.073 M131.331 40.375 C 131.326 40.871,123.691 50.110,119.245 55.000 C 116.746 57.748,112.551 61.873,110.018 64.072 L 108.303 65.561 106.860 65.201 C 105.362 64.826,100.838 63.661,94.667 62.059 C 77.623 57.636,76.086 57.337,70.380 57.335 C 57.716 57.329,47.990 62.916,40.116 74.717 C 35.421 81.755,33.320 92.050,35.942 95.166 C 37.901 97.494,44.195 100.182,46.130 99.517 C 52.504 97.326,61.335 90.248,67.190 82.637 C 67.918 81.691,68.683 80.697,68.890 80.428 C 69.407 79.759,69.567 79.907,70.526 81.938 C 73.963 89.226,72.238 96.855,66.192 101.102 C 62.261 103.863,59.095 104.224,51.473 102.779 C 46.314 101.801,46.799 101.775,44.415 103.168 C 42.203 104.460,42.178 104.487,42.596 105.130 C 44.408 107.920,50.435 112.762,57.373 117.003 C 58.588 117.746,59.921 118.563,60.333 118.819 C 61.183 119.347,65.803 122.043,73.500 126.502 C 76.387 128.176,79.987 130.273,81.500 131.164 C 83.012 132.055,85.431 133.478,86.874 134.325 C 88.318 135.173,89.457 135.934,89.406 136.017 C 89.280 136.221,62.179 136.206,56.917 135.998 C 39.111 135.297,25.586 131.025,15.583 122.942 C 5.476 114.774,0.487 101.794,1.826 87.150 C 4.039 62.962,25.663 41.439,48.917 40.280 C 52.588 40.096,131.333 40.188,131.331 40.375 M398.378 66.767 C 398.434 66.822,398.402 67.066,398.308 67.309 C 398.214 67.551,397.813 68.875,397.417 70.250 L 396.697 72.750 392.265 72.794 C 387.278 72.844,387.635 72.961,388.155 71.450 C 388.332 70.935,388.677 69.779,388.922 68.882 C 389.596 66.409,389.007 66.667,393.978 66.667 C 396.343 66.667,398.323 66.712,398.378 66.767 M383.656 71.208 C 383.650 71.415,383.441 72.108,383.190 72.750 L 382.735 73.917 380.756 73.964 C 378.200 74.025,378.261 74.160,379.502 71.208 C 379.653 70.849,379.743 70.833,381.663 70.833 C 383.633 70.833,383.666 70.840,383.656 71.208 M118.239 76.648 C 118.289 76.730,117.649 78.661,116.817 80.940 C 115.985 83.219,115.131 85.608,114.919 86.250 C 114.708 86.892,114.184 88.354,113.755 89.500 C 113.326 90.646,112.501 92.933,111.922 94.583 C 111.343 96.233,110.679 98.071,110.447 98.667 C 109.855 100.187,108.109 105.021,107.258 107.500 C 106.567 109.511,105.586 112.219,102.335 121.083 C 101.495 123.375,100.447 126.263,100.008 127.500 C 99.568 128.737,98.891 130.612,98.504 131.667 C 98.116 132.721,97.612 134.090,97.385 134.708 L 96.971 135.833 95.753 135.833 C 94.797 135.833,94.514 135.777,94.434 135.570 C 94.270 135.140,94.323 106.442,94.489 106.179 C 94.608 105.990,95.820 105.889,100.472 105.679 C 103.681 105.535,106.368 105.354,106.444 105.278 C 106.521 105.201,106.603 98.755,106.628 90.953 C 106.662 79.927,106.718 76.737,106.878 76.636 C 107.165 76.453,118.126 76.466,118.239 76.648 M152.958 76.772 C 153.417 76.895,153.434 77.203,153.017 77.798 C 152.543 78.473,149.702 82.860,148.572 84.659 C 148.028 85.525,146.533 87.831,145.250 89.782 C 143.967 91.734,141.604 95.333,140.000 97.781 C 138.396 100.229,136.033 103.809,134.750 105.737 C 133.467 107.665,132.349 109.357,132.267 109.496 C 132.084 109.807,132.252 109.664,135.417 106.820 C 139.730 102.944,143.014 100.151,144.866 98.782 L 146.149 97.833 158.401 97.833 L 170.653 97.833 170.980 96.708 C 171.368 95.375,172.946 89.118,174.248 83.750 C 174.759 81.642,175.334 79.279,175.526 78.500 C 176.024 76.475,174.704 76.667,188.188 76.667 C 202.412 76.667,202.382 76.662,198.709 78.251 C 190.235 81.919,185.618 86.601,183.152 94.032 C 182.361 96.414,181.697 99.014,179.583 108.000 C 178.964 110.632,178.046 114.347,177.607 116.000 C 175.073 125.524,178.422 132.664,186.750 135.498 C 189.355 136.384,186.619 136.558,171.389 136.472 C 165.965 136.442,161.467 136.356,161.392 136.281 C 161.318 136.207,162.180 132.494,163.308 128.031 C 164.436 123.568,165.535 119.204,165.750 118.333 C 165.966 117.462,166.329 116.001,166.557 115.087 C 166.785 114.172,166.937 113.366,166.893 113.295 C 166.788 113.126,141.977 113.133,141.711 113.303 C 141.597 113.375,141.249 114.517,140.937 115.842 C 140.625 117.166,140.206 118.850,140.005 119.583 C 139.478 121.505,139.088 123.044,138.695 124.750 C 138.611 125.117,138.050 127.367,137.450 129.750 C 136.849 132.133,136.266 134.533,136.154 135.083 C 135.840 136.616,136.741 136.500,125.124 136.500 C 114.585 136.500,114.016 136.467,114.244 135.873 C 114.413 135.431,121.275 107.992,121.922 105.167 C 122.146 104.190,126.164 88.110,127.024 84.750 C 127.305 83.650,127.753 81.850,128.018 80.750 C 128.283 79.650,128.575 78.520,128.666 78.238 C 128.758 77.957,128.833 77.560,128.833 77.358 C 128.833 77.131,128.978 76.931,129.208 76.839 C 129.621 76.673,152.350 76.609,152.958 76.772 M335.075 76.890 C 335.357 77.096,333.200 79.016,329.333 82.000 C 328.921 82.319,327.533 83.443,326.250 84.499 C 324.967 85.555,323.542 86.715,323.083 87.076 C 322.625 87.437,321.688 88.230,321.000 88.837 C 318.816 90.765,316.963 91.638,313.572 92.336 C 312.034 92.652,311.275 92.667,296.262 92.667 C 285.605 92.667,280.244 92.725,279.572 92.849 C 275.403 93.618,273.521 97.913,276.720 99.360 L 277.583 99.750 291.500 99.850 C 299.154 99.905,305.642 99.997,305.917 100.055 C 306.192 100.112,307.354 100.276,308.500 100.418 C 311.370 100.776,314.347 101.387,316.333 102.026 C 323.962 104.483,326.424 112.719,322.320 122.053 C 318.659 130.380,310.980 134.915,298.583 136.070 C 295.710 136.338,237.229 136.578,236.818 136.324 C 236.449 136.096,236.848 135.849,238.296 135.408 C 243.295 133.886,248.794 131.183,253.669 127.851 C 255.091 126.879,256.702 125.783,257.248 125.417 C 257.795 125.050,259.211 123.981,260.396 123.042 L 262.550 121.333 280.067 121.332 C 291.323 121.331,297.963 121.269,298.645 121.159 C 302.796 120.485,304.745 116.016,301.654 114.263 L 300.750 113.750 285.750 113.801 C 268.786 113.858,265.680 113.670,262.476 112.388 C 261.641 112.054,261.646 111.932,262.655 108.083 C 263.040 106.617,263.684 103.954,264.087 102.167 C 264.490 100.379,265.100 97.754,265.444 96.333 C 266.283 92.866,266.353 88.928,265.613 86.858 C 265.164 85.603,263.785 82.926,263.495 82.747 C 263.165 82.543,263.352 82.184,263.958 81.857 C 266.062 80.721,269.567 79.280,271.284 78.845 C 275.578 77.756,277.540 77.334,278.301 77.333 C 278.604 77.333,279.167 77.258,279.551 77.167 C 281.644 76.667,334.410 76.404,335.075 76.890 M381.828 76.826 C 382.041 76.961,382.036 77.084,381.785 77.782 C 381.628 78.223,381.499 78.640,381.499 78.708 C 381.500 78.777,383.637 78.833,386.250 78.833 C 391.914 78.833,391.712 78.672,389.042 81.050 C 387.965 82.009,386.004 83.759,384.685 84.938 C 377.514 91.352,377.361 91.470,375.620 91.990 C 373.845 92.519,373.707 92.532,368.583 92.642 L 363.583 92.750 363.395 93.583 C 362.404 97.958,361.724 100.732,359.698 108.667 C 359.335 110.087,358.533 113.388,357.915 116.000 C 357.297 118.612,356.539 121.725,356.230 122.917 C 355.921 124.108,355.179 127.071,354.581 129.500 C 353.983 131.929,353.428 134.142,353.346 134.417 C 353.265 134.692,353.150 135.201,353.090 135.549 C 353.010 136.018,352.874 136.223,352.564 136.341 C 352.022 136.547,332.337 136.550,332.012 136.344 C 331.773 136.193,331.917 135.097,332.342 133.833 C 332.420 133.604,333.094 130.904,333.841 127.833 C 334.588 124.763,335.689 120.337,336.287 118.000 C 336.885 115.662,337.474 113.263,337.595 112.667 C 337.716 112.071,338.045 110.721,338.326 109.667 C 338.606 108.612,339.360 105.650,340.001 103.083 C 340.641 100.517,341.493 97.163,341.894 95.631 C 342.295 94.098,342.582 92.805,342.533 92.756 C 342.485 92.707,337.661 92.667,331.815 92.667 C 323.781 92.667,321.156 92.618,321.064 92.468 C 320.932 92.255,321.816 91.403,323.681 89.943 C 324.285 89.470,325.681 88.333,326.784 87.417 C 327.886 86.500,329.754 84.988,330.936 84.057 C 332.117 83.126,333.946 81.640,335.000 80.756 C 338.091 78.164,340.783 77.033,344.333 76.836 C 347.572 76.656,381.545 76.648,381.828 76.826 M240.500 77.243 C 252.052 78.438,258.531 81.433,261.252 86.837 C 263.102 90.511,263.028 93.097,260.816 102.148 C 260.354 104.038,259.644 106.971,259.237 108.667 C 257.959 114.001,257.845 114.362,256.705 116.667 C 252.976 124.206,248.006 128.704,239.250 132.465 C 228.189 137.216,202.170 137.823,190.955 133.593 C 184.552 131.177,180.927 127.181,180.337 121.891 C 180.033 119.160,180.345 117.327,182.417 109.667 C 182.628 108.888,183.340 105.962,184.001 103.167 C 185.678 96.064,185.871 95.415,187.014 93.068 C 191.565 83.720,200.844 78.772,216.667 77.256 C 219.962 76.941,237.483 76.931,240.500 77.243 M124.006 90.989 C 123.911 91.166,123.833 91.461,123.833 91.644 C 123.833 91.827,123.734 92.075,123.614 92.196 C 123.493 92.318,123.401 92.704,123.410 93.054 C 123.420 93.405,123.367 93.729,123.294 93.774 C 123.221 93.819,123.207 93.931,123.264 94.022 C 123.320 94.113,123.239 94.328,123.083 94.500 C 122.928 94.672,122.839 94.875,122.886 94.951 C 122.933 95.027,122.896 95.463,122.804 95.919 C 122.711 96.376,122.630 96.835,122.623 96.939 C 122.617 97.043,122.365 97.203,122.064 97.296 L 121.517 97.464 121.940 96.357 C 122.173 95.748,122.379 95.175,122.399 95.083 C 122.465 94.772,123.190 92.585,123.338 92.250 C 123.419 92.067,123.597 91.635,123.734 91.292 C 123.871 90.948,124.027 90.667,124.081 90.667 C 124.134 90.667,124.101 90.812,124.006 90.989 M207.491 90.978 C 206.064 91.439,204.908 92.138,204.017 93.081 C 202.680 94.495,202.817 94.097,200.315 103.833 C 199.950 105.254,199.580 106.642,199.493 106.918 C 199.406 107.194,199.152 108.206,198.930 109.168 C 198.708 110.130,198.100 112.604,197.578 114.667 C 196.106 120.487,196.355 121.677,199.289 122.862 L 200.250 123.250 213.250 123.227 C 229.757 123.198,231.243 123.007,235.866 120.313 C 238.049 119.041,241.057 115.021,240.802 113.717 C 240.728 113.338,238.383 113.414,236.880 113.844 C 235.431 114.258,208.500 114.358,208.500 113.949 C 208.500 113.492,209.206 111.666,209.390 111.648 C 209.496 111.638,215.733 111.617,223.250 111.602 C 238.465 111.571,237.510 111.640,239.589 110.422 C 241.832 109.108,242.585 107.634,243.446 102.875 C 243.566 102.209,243.638 102.213,241.000 102.750 C 238.605 103.238,238.049 103.262,237.646 102.898 C 237.401 102.677,237.254 102.662,236.816 102.814 C 236.247 103.013,211.816 103.094,211.620 102.898 C 211.486 102.764,212.140 100.986,212.442 100.667 C 212.649 100.449,214.481 100.414,226.801 100.397 L 240.923 100.377 242.003 99.837 C 246.325 97.677,246.324 92.469,242.002 91.057 C 240.577 90.592,208.912 90.520,207.491 90.978 M211.542 92.226 C 211.979 92.260,212.333 92.217,212.333 92.129 C 212.333 92.034,212.622 92.015,213.042 92.083 C 213.431 92.145,219.049 92.209,225.526 92.223 C 232.002 92.238,237.267 92.306,237.224 92.375 C 237.182 92.444,237.295 92.500,237.476 92.500 C 238.651 92.500,239.382 94.427,238.653 95.605 C 238.462 95.914,238.360 96.167,238.426 96.167 C 238.492 96.167,238.254 96.387,237.898 96.656 C 237.542 96.925,237.118 97.263,236.957 97.407 C 236.461 97.851,234.596 97.920,225.431 97.833 L 216.611 97.750 216.611 96.591 C 216.611 95.197,215.888 94.306,214.564 94.066 C 214.305 94.019,214.016 93.920,213.922 93.847 C 213.607 93.603,211.764 93.643,211.130 93.908 C 210.708 94.084,210.483 94.108,210.407 93.985 C 210.305 93.819,208.961 93.154,208.583 93.082 C 208.492 93.065,208.173 93.039,207.875 93.025 C 206.947 92.982,207.567 92.453,208.583 92.422 C 208.675 92.419,208.856 92.316,208.985 92.194 C 209.146 92.041,209.460 92.001,209.985 92.067 C 210.406 92.120,211.106 92.191,211.542 92.226 M321.813 93.831 L 325.542 93.833 325.435 94.367 C 325.376 94.660,325.244 94.953,325.140 95.017 C 325.036 95.081,324.998 95.253,325.054 95.400 C 325.110 95.547,325.074 95.667,324.974 95.667 C 324.860 95.667,324.829 95.855,324.892 96.167 C 324.954 96.477,324.923 96.667,324.810 96.667 C 324.703 96.667,324.659 96.872,324.702 97.167 C 324.743 97.442,324.706 97.667,324.620 97.667 C 324.534 97.667,324.509 97.783,324.564 97.925 C 324.618 98.068,324.595 98.142,324.513 98.091 C 324.339 97.984,324.091 99.242,324.239 99.482 C 324.294 99.571,324.274 99.683,324.196 99.732 C 324.117 99.781,324.066 100.045,324.083 100.320 C 324.099 100.595,324.049 100.781,323.973 100.733 C 323.896 100.686,323.833 100.846,323.833 101.089 C 323.833 101.333,323.725 101.731,323.593 101.974 C 323.370 102.383,323.076 103.808,323.113 104.292 C 323.137 104.600,322.939 104.545,322.667 104.167 C 322.535 103.983,322.330 103.833,322.213 103.833 C 322.096 103.833,322.000 103.757,322.000 103.663 C 322.000 103.570,321.426 103.119,320.725 102.661 C 320.024 102.203,319.351 101.698,319.230 101.539 C 319.109 101.380,319.008 101.312,319.005 101.387 C 319.002 101.462,318.882 101.406,318.738 101.262 C 318.594 101.118,318.287 101.000,318.055 101.000 C 317.823 101.000,317.397 100.896,317.109 100.768 C 316.389 100.451,314.652 100.000,314.147 100.000 C 313.920 100.000,313.662 99.936,313.575 99.857 C 313.488 99.778,312.779 99.627,312.000 99.522 C 311.221 99.417,310.396 99.292,310.167 99.243 C 309.352 99.071,307.355 98.842,304.500 98.593 C 303.264 98.486,301.959 98.364,300.750 98.244 C 300.292 98.198,299.429 98.127,298.833 98.085 C 298.237 98.043,297.563 97.955,297.333 97.889 C 297.104 97.823,292.342 97.727,286.750 97.676 L 276.583 97.583 276.638 97.026 C 276.707 96.321,277.443 95.239,278.042 94.963 C 278.294 94.847,278.500 94.695,278.500 94.626 C 278.500 94.557,278.556 94.514,278.625 94.530 C 278.694 94.547,279.162 94.415,279.667 94.238 C 280.551 93.928,307.996 93.579,316.000 93.777 C 317.146 93.805,319.761 93.830,321.813 93.831 M209.533 95.508 C 210.426 96.400,209.807 97.913,208.240 98.672 C 206.966 99.288,205.667 98.670,205.667 97.446 C 205.667 95.485,208.227 94.201,209.533 95.508 M214.589 95.908 C 215.774 96.404,215.108 97.385,213.643 97.301 C 212.764 97.251,212.751 97.242,212.786 96.750 C 212.853 95.825,213.578 95.486,214.589 95.908 M203.779 97.610 C 203.719 97.670,203.763 97.834,203.876 97.975 C 204.047 98.186,204.041 98.205,203.842 98.085 C 203.710 98.005,203.785 98.185,204.009 98.485 C 204.233 98.785,204.509 99.192,204.623 99.390 C 204.736 99.588,204.830 99.697,204.831 99.633 C 204.832 99.569,205.037 99.704,205.285 99.935 C 205.715 100.333,205.818 100.351,207.423 100.302 L 209.110 100.250 209.092 101.333 C 209.078 102.133,209.151 102.521,209.370 102.814 C 209.779 103.362,209.742 103.520,209.226 103.427 C 208.781 103.346,208.193 103.564,207.951 103.900 C 207.868 104.016,207.837 103.987,207.868 103.821 C 207.957 103.339,206.865 102.536,205.935 102.401 C 204.043 102.127,203.390 102.206,202.642 102.803 C 202.238 103.124,202.177 102.857,202.439 101.917 C 202.566 101.458,202.711 100.901,202.761 100.678 C 202.810 100.456,202.894 100.204,202.946 100.119 C 202.998 100.034,203.073 99.692,203.112 99.357 C 203.151 99.023,203.247 98.600,203.326 98.417 C 203.405 98.233,203.512 97.952,203.563 97.792 C 203.614 97.631,203.709 97.500,203.773 97.500 C 203.837 97.500,203.840 97.549,203.779 97.610 M230.014 104.496 C 237.610 104.501,237.294 104.415,235.656 106.022 C 235.056 106.610,234.398 107.071,233.891 107.259 C 233.447 107.423,232.999 107.621,232.895 107.699 C 232.735 107.820,229.426 107.847,216.292 107.835 L 214.167 107.833 214.167 107.256 C 214.167 106.691,213.529 105.338,213.026 104.836 C 212.731 104.542,215.889 104.386,220.750 104.454 C 222.217 104.475,226.385 104.493,230.014 104.496 M206.625 105.665 C 207.758 106.356,207.146 108.480,205.614 109.176 C 204.526 109.670,203.902 109.602,203.212 108.912 C 201.525 107.225,204.516 104.379,206.625 105.665 M212.100 106.628 C 213.199 107.361,212.292 108.550,210.697 108.466 C 209.776 108.418,209.749 108.403,209.700 107.908 C 209.596 106.844,211.168 106.005,212.100 106.628 M201.300 107.958 C 201.381 110.280,202.069 110.873,204.596 110.799 L 206.275 110.750 206.213 111.371 C 206.179 111.713,206.222 112.125,206.309 112.288 C 206.396 112.450,206.513 112.873,206.569 113.228 C 206.625 113.582,206.724 113.957,206.789 114.061 C 206.854 114.165,206.921 114.325,206.937 114.417 C 207.117 115.423,207.248 115.500,208.788 115.503 C 224.175 115.539,231.452 115.610,231.382 115.722 C 231.260 115.920,229.862 116.500,229.507 116.500 C 229.342 116.500,229.118 116.608,229.009 116.739 C 228.900 116.871,228.590 117.027,228.322 117.086 C 228.053 117.145,227.833 117.252,227.833 117.323 C 227.833 117.395,227.450 117.499,226.982 117.554 C 226.514 117.610,226.046 117.724,225.941 117.808 C 225.737 117.971,223.759 118.149,222.032 118.160 C 221.375 118.164,221.019 118.229,221.083 118.333 C 221.140 118.425,221.027 118.500,220.833 118.500 C 220.639 118.500,220.527 118.425,220.583 118.333 C 220.651 118.223,218.252 118.167,213.510 118.167 L 206.333 118.167 206.322 117.625 C 206.309 117.047,206.221 115.506,206.187 115.282 C 206.176 115.208,206.102 115.187,206.022 115.236 C 205.943 115.285,205.907 115.083,205.942 114.788 C 205.978 114.492,205.936 114.100,205.850 113.917 C 205.763 113.733,205.646 113.371,205.590 113.112 C 205.533 112.852,205.209 112.341,204.868 111.977 L 204.250 111.313 202.916 111.306 C 200.864 111.294,200.754 111.310,200.365 111.673 C 200.021 111.993,199.914 111.967,199.996 111.583 C 200.049 111.336,200.155 110.882,200.259 110.458 C 200.309 110.252,200.388 109.903,200.433 109.683 C 200.479 109.462,200.593 109.137,200.688 108.960 C 200.783 108.783,200.822 108.600,200.776 108.554 C 200.730 108.507,200.790 108.143,200.910 107.744 C 201.030 107.344,201.087 106.976,201.037 106.925 C 200.986 106.875,201.016 106.833,201.103 106.833 C 201.190 106.833,201.279 107.340,201.300 107.958 M260.252 113.169 C 260.309 113.263,260.438 113.288,260.537 113.227 C 260.645 113.160,260.670 113.193,260.599 113.308 C 260.534 113.413,260.560 113.509,260.657 113.521 C 260.984 113.559,261.082 113.594,261.478 113.814 C 261.748 113.964,261.835 113.971,261.753 113.838 C 261.664 113.694,261.714 113.686,261.941 113.809 C 262.495 114.108,262.908 114.222,263.378 114.206 C 263.631 114.197,263.799 114.254,263.750 114.333 C 263.701 114.412,263.738 114.524,263.832 114.582 C 263.926 114.640,264.044 114.579,264.095 114.446 C 264.185 114.212,264.833 114.245,264.833 114.484 C 264.833 114.545,264.965 114.599,265.125 114.603 C 265.851 114.623,269.134 114.871,269.583 114.941 C 269.858 114.983,274.546 115.058,280.000 115.107 C 290.927 115.204,290.170 115.160,289.636 115.663 C 288.890 116.364,288.204 116.530,285.970 116.551 C 284.562 116.564,283.889 116.628,283.953 116.743 C 284.006 116.839,283.948 116.823,283.824 116.708 C 283.701 116.594,283.536 116.500,283.457 116.500 C 283.378 116.500,283.367 116.594,283.431 116.708 C 283.525 116.875,283.504 116.875,283.324 116.708 C 283.201 116.594,283.036 116.500,282.957 116.500 C 282.878 116.500,282.867 116.594,282.931 116.708 C 283.025 116.875,283.004 116.875,282.824 116.708 C 282.701 116.594,282.536 116.500,282.457 116.500 C 282.378 116.500,282.370 116.594,282.439 116.708 C 282.535 116.868,282.508 116.873,282.324 116.729 C 281.992 116.471,278.664 116.463,278.346 116.720 C 278.212 116.828,278.150 116.837,278.209 116.739 C 278.281 116.618,277.640 116.562,276.167 116.562 C 274.693 116.562,274.052 116.618,274.125 116.739 C 274.198 116.863,274.157 116.862,273.990 116.738 C 273.648 116.483,272.961 116.468,273.112 116.718 C 273.189 116.847,273.136 116.840,272.962 116.699 C 272.633 116.432,270.363 116.456,270.010 116.730 C 269.826 116.873,269.799 116.867,269.895 116.708 C 269.963 116.594,269.955 116.500,269.877 116.500 C 269.798 116.500,269.632 116.594,269.509 116.708 C 269.385 116.823,269.329 116.836,269.384 116.737 C 269.451 116.617,269.105 116.558,268.333 116.558 C 267.561 116.558,267.216 116.617,267.283 116.737 C 267.337 116.836,267.281 116.823,267.158 116.708 C 267.034 116.594,266.869 116.500,266.790 116.500 C 266.711 116.500,266.700 116.594,266.765 116.708 C 266.859 116.875,266.837 116.875,266.658 116.708 C 266.534 116.594,266.369 116.500,266.290 116.500 C 266.211 116.500,266.203 116.594,266.272 116.708 C 266.366 116.865,266.338 116.872,266.157 116.738 C 265.816 116.484,265.131 116.469,265.271 116.718 C 265.348 116.855,265.313 116.852,265.158 116.708 C 265.034 116.594,264.869 116.500,264.790 116.500 C 264.711 116.500,264.703 116.594,264.772 116.708 C 264.865 116.863,264.828 116.861,264.629 116.699 C 264.300 116.432,262.029 116.456,261.676 116.730 C 261.518 116.853,261.473 116.856,261.543 116.737 C 261.616 116.616,261.277 116.558,260.500 116.558 C 259.723 116.558,259.384 116.616,259.457 116.737 C 259.516 116.836,259.440 116.816,259.289 116.694 C 259.138 116.572,258.936 116.520,258.840 116.579 C 258.604 116.725,258.715 116.052,258.969 115.798 C 259.078 115.689,259.167 115.507,259.167 115.394 C 259.167 115.281,259.254 114.977,259.361 114.719 C 259.468 114.461,259.570 114.212,259.588 114.167 C 259.606 114.121,259.677 113.840,259.748 113.542 C 259.876 112.994,260.060 112.859,260.252 113.169 M203.796 115.501 C 204.771 116.095,204.850 116.898,204.040 117.978 C 203.150 119.167,201.392 119.468,200.674 118.555 C 199.389 116.921,201.976 114.391,203.796 115.501 " stroke="none" fill="#faf8f6" fill-rule="evenodd"></path><path id="path2" d="M48.917 40.280 C 25.663 41.439,4.039 62.962,1.826 87.150 C 0.487 101.794,5.476 114.774,15.583 122.942 C 25.586 131.025,39.111 135.297,56.917 135.998 C 62.179 136.206,89.280 136.221,89.406 136.017 C 89.457 135.934,88.318 135.173,86.874 134.325 C 85.431 133.478,83.012 132.055,81.500 131.164 C 79.987 130.273,76.387 128.176,73.500 126.502 C 65.803 122.043,61.183 119.347,60.333 118.819 C 59.921 118.563,58.588 117.746,57.373 117.003 C 50.435 112.762,44.408 107.920,42.596 105.130 C 42.178 104.487,42.203 104.460,44.415 103.168 C 46.799 101.775,46.314 101.801,51.473 102.779 C 59.095 104.224,62.261 103.863,66.192 101.102 C 72.238 96.855,73.963 89.226,70.526 81.938 C 69.567 79.907,69.407 79.759,68.890 80.428 C 68.683 80.697,67.918 81.691,67.190 82.637 C 61.335 90.248,52.504 97.326,46.130 99.517 C 44.195 100.182,37.901 97.494,35.942 95.166 C 33.320 92.050,35.421 81.755,40.116 74.717 C 47.990 62.916,57.716 57.329,70.380 57.335 C 76.086 57.337,77.623 57.636,94.667 62.059 C 100.838 63.661,105.362 64.826,106.860 65.201 L 108.303 65.561 110.018 64.072 C 112.551 61.873,116.746 57.748,119.245 55.000 C 123.691 50.110,131.326 40.871,131.331 40.375 C 131.333 40.188,52.588 40.096,48.917 40.280 M389.522 66.958 C 389.437 67.119,389.166 67.984,388.922 68.882 C 388.677 69.779,388.332 70.935,388.155 71.450 C 387.635 72.961,387.278 72.844,392.265 72.794 L 396.697 72.750 397.417 70.250 C 397.813 68.875,398.214 67.551,398.308 67.309 C 398.560 66.657,398.623 66.667,393.978 66.667 C 390.054 66.667,389.665 66.692,389.522 66.958 M379.502 71.208 C 378.261 74.160,378.200 74.025,380.756 73.964 L 382.735 73.917 383.190 72.750 C 383.962 70.773,384.010 70.833,381.663 70.833 C 379.743 70.833,379.653 70.849,379.502 71.208 M395.890 73.624 C 394.220 73.684,394.145 73.726,393.870 74.750 C 393.771 75.117,393.464 76.167,393.187 77.083 C 392.743 78.553,392.713 78.773,392.936 78.943 C 393.196 79.142,398.428 79.127,398.628 78.927 C 398.807 78.749,399.846 75.090,399.945 74.292 L 400.042 73.500 398.730 73.535 C 398.007 73.554,396.730 73.594,395.890 73.624 M106.878 76.636 C 106.718 76.737,106.662 79.927,106.628 90.953 C 106.603 98.755,106.521 105.201,106.444 105.278 C 106.368 105.354,103.681 105.535,100.472 105.679 C 95.820 105.889,94.608 105.990,94.489 106.179 C 94.323 106.442,94.270 135.140,94.434 135.570 C 94.514 135.777,94.797 135.833,95.753 135.833 L 96.971 135.833 97.385 134.708 C 97.612 134.090,98.116 132.721,98.504 131.667 C 98.891 130.612,99.568 128.737,100.008 127.500 C 100.447 126.263,101.495 123.375,102.335 121.083 C 105.586 112.219,106.567 109.511,107.258 107.500 C 108.109 105.021,109.855 100.187,110.447 98.667 C 110.679 98.071,111.343 96.233,111.922 94.583 C 112.501 92.933,113.326 90.646,113.755 89.500 C 114.184 88.354,114.708 86.892,114.919 86.250 C 115.131 85.608,115.985 83.219,116.817 80.940 C 117.649 78.661,118.289 76.730,118.239 76.648 C 118.126 76.466,107.165 76.453,106.878 76.636 M216.667 77.256 C 200.844 78.772,191.565 83.720,187.014 93.068 C 185.871 95.415,185.678 96.064,184.001 103.167 C 183.340 105.962,182.628 108.888,182.417 109.667 C 180.345 117.327,180.033 119.160,180.337 121.891 C 181.117 128.891,187.281 133.615,198.000 135.427 C 205.981 136.776,221.255 136.647,229.500 135.160 C 242.963 132.732,251.695 126.796,256.705 116.667 C 257.845 114.362,257.959 114.001,259.237 108.667 C 259.644 106.971,260.354 104.038,260.816 102.148 C 263.028 93.097,263.102 90.511,261.252 86.837 C 258.531 81.433,252.052 78.438,240.500 77.243 C 237.483 76.931,219.962 76.941,216.667 77.256 M242.002 91.057 C 246.324 92.469,246.325 97.677,242.003 99.837 L 240.923 100.377 226.801 100.397 C 214.481 100.414,212.649 100.449,212.442 100.667 C 212.140 100.986,211.486 102.764,211.620 102.898 C 211.816 103.094,236.247 103.013,236.816 102.814 C 237.254 102.662,237.401 102.677,237.646 102.898 C 238.049 103.262,238.605 103.238,241.000 102.750 C 243.638 102.213,243.566 102.209,243.446 102.875 C 242.585 107.634,241.832 109.108,239.589 110.422 C 237.510 111.640,238.465 111.571,223.250 111.602 C 215.733 111.617,209.496 111.638,209.390 111.648 C 209.206 111.666,208.500 113.492,208.500 113.949 C 208.500 114.358,235.431 114.258,236.880 113.844 C 238.383 113.414,240.728 113.338,240.802 113.717 C 241.057 115.021,238.049 119.041,235.866 120.313 C 231.243 123.007,229.757 123.198,213.250 123.227 L 200.250 123.250 199.289 122.862 C 196.355 121.677,196.106 120.487,197.578 114.667 C 198.100 112.604,198.708 110.130,198.930 109.168 C 199.152 108.206,199.406 107.194,199.493 106.918 C 199.580 106.642,199.950 105.254,200.315 103.833 C 202.817 94.097,202.680 94.495,204.017 93.081 C 204.908 92.138,206.064 91.439,207.491 90.978 C 208.912 90.520,240.577 90.592,242.002 91.057 M206.813 95.406 C 205.797 96.096,205.366 97.496,205.923 98.291 C 206.893 99.676,209.633 98.528,209.945 96.607 C 210.171 95.216,208.202 94.462,206.813 95.406 M213.179 95.958 C 212.407 96.588,212.633 97.243,213.643 97.301 C 215.108 97.385,215.774 96.404,214.589 95.908 C 213.841 95.596,213.614 95.604,213.179 95.958 M204.141 105.670 C 202.771 106.394,202.308 108.008,203.212 108.912 C 204.734 110.434,207.303 108.791,207.185 106.373 C 207.141 105.465,205.323 105.045,204.141 105.670 M210.004 106.949 C 209.314 107.826,209.580 108.408,210.697 108.466 C 212.292 108.550,213.199 107.361,212.100 106.628 C 211.613 106.303,210.362 106.495,210.004 106.949 M322.172 106.635 C 322.169 106.755,322.100 106.812,322.019 106.762 C 321.938 106.712,320.869 107.002,319.644 107.407 C 318.419 107.812,315.961 108.564,314.182 109.079 C 312.403 109.594,310.528 110.170,310.015 110.358 C 308.863 110.781,304.408 112.363,302.500 113.026 C 300.729 113.642,300.667 113.708,301.503 114.085 C 302.351 114.467,303.159 115.367,303.190 115.964 C 303.236 116.866,303.130 117.715,302.895 118.310 C 302.658 118.911,302.778 118.832,303.282 118.056 C 303.454 117.790,303.482 117.836,303.490 118.403 C 303.496 118.762,303.545 119.010,303.601 118.955 C 303.656 118.899,303.881 119.048,304.101 119.285 C 304.320 119.522,304.500 119.652,304.500 119.574 C 304.500 119.497,304.587 119.520,304.693 119.626 C 305.261 120.194,303.419 120.848,291.667 124.249 C 289.879 124.766,288.004 125.327,287.500 125.495 C 286.996 125.662,285.121 126.262,283.333 126.827 C 281.546 127.392,278.921 128.224,277.500 128.676 C 276.079 129.128,273.904 129.790,272.667 130.147 C 266.012 132.068,264.174 132.606,261.667 133.368 C 260.154 133.827,258.204 134.417,257.333 134.678 C 255.974 135.086,254.896 135.480,253.417 136.108 C 252.738 136.397,295.615 136.371,298.583 136.082 C 313.426 134.634,321.447 128.538,324.023 116.750 C 324.340 115.301,324.304 111.005,323.965 109.817 C 323.547 108.354,322.190 105.944,322.172 106.635 M201.973 115.391 C 200.040 116.250,199.769 118.754,201.573 119.092 C 202.653 119.295,204.212 118.239,204.568 117.064 C 204.931 115.866,203.288 114.806,201.973 115.391 " stroke="none" fill="#fb6304" fill-rule="evenodd"></path><path id="path3" d="M391.125 65.451 C 391.331 65.491,391.669 65.491,391.875 65.451 C 392.081 65.411,391.912 65.379,391.500 65.379 C 391.087 65.379,390.919 65.411,391.125 65.451 M129.208 76.839 C 128.978 76.931,128.833 77.131,128.833 77.358 C 128.833 77.560,128.758 77.957,128.666 78.238 C 128.575 78.520,128.283 79.650,128.018 80.750 C 127.753 81.850,127.305 83.650,127.024 84.750 C 126.164 88.110,122.146 104.190,121.922 105.167 C 121.275 107.992,114.413 135.431,114.244 135.873 C 114.016 136.467,114.585 136.500,125.124 136.500 C 136.741 136.500,135.840 136.616,136.154 135.083 C 136.266 134.533,136.849 132.133,137.450 129.750 C 138.050 127.367,138.611 125.117,138.695 124.750 C 139.088 123.044,139.478 121.505,140.005 119.583 C 140.206 118.850,140.625 117.166,140.937 115.842 C 141.249 114.517,141.597 113.375,141.711 113.303 C 141.977 113.133,166.788 113.126,166.893 113.295 C 166.937 113.366,166.785 114.172,166.557 115.087 C 166.329 116.001,165.966 117.462,165.750 118.333 C 165.535 119.204,164.436 123.568,163.308 128.031 C 162.180 132.494,161.318 136.207,161.392 136.281 C 161.467 136.356,165.965 136.442,171.389 136.472 C 186.619 136.558,189.355 136.384,186.750 135.498 C 178.422 132.664,175.073 125.524,177.607 116.000 C 178.046 114.347,178.964 110.632,179.583 108.000 C 181.697 99.014,182.361 96.414,183.152 94.032 C 185.618 86.601,190.235 81.919,198.709 78.251 C 202.382 76.662,202.412 76.667,188.188 76.667 C 174.704 76.667,176.024 76.475,175.526 78.500 C 175.334 79.279,174.759 81.642,174.248 83.750 C 172.946 89.118,171.368 95.375,170.980 96.708 L 170.653 97.833 158.401 97.833 L 146.149 97.833 144.866 98.782 C 143.014 100.151,139.730 102.944,135.417 106.820 C 132.252 109.664,132.084 109.807,132.267 109.496 C 132.349 109.357,133.467 107.665,134.750 105.737 C 136.033 103.809,138.396 100.229,140.000 97.781 C 141.604 95.333,143.967 91.734,145.250 89.782 C 146.533 87.831,148.028 85.525,148.572 84.659 C 149.702 82.860,152.543 78.473,153.017 77.798 C 153.434 77.203,153.417 76.895,152.958 76.772 C 152.350 76.609,129.621 76.673,129.208 76.839 M282.417 76.856 C 281.225 76.935,279.936 77.075,279.551 77.167 C 279.167 77.258,278.604 77.333,278.301 77.333 C 277.540 77.334,275.578 77.756,271.284 78.845 C 269.567 79.280,266.062 80.721,263.958 81.857 C 263.352 82.184,263.165 82.543,263.495 82.747 C 263.785 82.926,265.164 85.603,265.613 86.858 C 266.353 88.928,266.283 92.866,265.444 96.333 C 265.100 97.754,264.490 100.379,264.087 102.167 C 263.684 103.954,263.040 106.617,262.655 108.083 C 261.646 111.932,261.641 112.054,262.476 112.388 C 263.414 112.763,266.069 113.284,268.606 113.592 C 270.943 113.875,301.214 113.898,300.452 113.616 C 300.253 113.543,293.226 113.501,284.837 113.523 C 271.376 113.559,269.376 113.532,267.819 113.290 C 264.938 112.842,262.668 112.329,262.177 112.013 C 261.911 111.841,261.863 112.102,262.911 108.000 C 263.677 105.002,265.375 97.759,265.938 95.083 C 266.918 90.429,266.116 85.820,263.810 82.854 L 263.502 82.457 264.266 81.973 C 266.639 80.468,273.387 78.262,277.417 77.675 C 278.150 77.568,279.200 77.394,279.750 77.288 C 280.474 77.149,288.236 77.083,307.917 77.051 L 335.083 77.006 334.500 77.517 C 334.179 77.799,332.304 79.331,330.333 80.922 C 323.999 86.037,321.730 87.896,320.643 88.860 C 318.887 90.419,316.639 91.460,313.667 92.092 C 312.570 92.325,310.508 92.356,296.833 92.340 C 279.669 92.320,279.490 92.329,277.491 93.338 C 275.352 94.418,274.257 97.044,275.288 98.618 C 276.244 100.077,277.423 100.182,292.131 100.130 C 305.583 100.083,306.232 100.113,311.333 101.026 C 316.274 101.911,319.430 103.367,321.696 105.808 C 322.658 106.844,322.688 106.863,322.154 106.099 C 321.228 104.772,318.137 102.610,316.333 102.027 C 314.361 101.390,311.373 100.776,308.500 100.418 C 307.354 100.276,306.192 100.112,305.917 100.055 C 305.642 99.997,299.154 99.905,291.500 99.850 L 277.583 99.750 276.720 99.360 C 273.521 97.913,275.403 93.618,279.572 92.849 C 280.244 92.725,285.605 92.667,296.262 92.667 C 311.275 92.667,312.034 92.652,313.572 92.336 C 316.963 91.638,318.816 90.765,321.000 88.837 C 321.688 88.230,322.625 87.437,323.083 87.076 C 323.542 86.715,324.967 85.555,326.250 84.499 C 327.533 83.443,328.921 82.319,329.333 82.000 C 333.200 79.016,335.357 77.096,335.075 76.890 C 334.730 76.638,286.175 76.607,282.417 76.856 M344.333 76.836 C 340.783 77.033,338.091 78.164,335.000 80.756 C 333.946 81.640,332.117 83.126,330.936 84.057 C 329.754 84.988,327.886 86.500,326.784 87.417 C 325.681 88.333,324.285 89.470,323.681 89.943 C 321.816 91.403,320.932 92.255,321.064 92.468 C 321.156 92.618,323.781 92.667,331.815 92.667 C 337.661 92.667,342.485 92.707,342.533 92.756 C 342.582 92.805,342.295 94.098,341.894 95.631 C 341.493 97.163,340.641 100.517,340.001 103.083 C 339.360 105.650,338.606 108.612,338.326 109.667 C 338.045 110.721,337.716 112.071,337.595 112.667 C 337.474 113.263,336.885 115.662,336.287 118.000 C 335.689 120.337,334.588 124.763,333.841 127.833 C 333.094 130.904,332.420 133.604,332.342 133.833 C 331.917 135.097,331.773 136.193,332.012 136.344 C 332.337 136.550,352.022 136.547,352.564 136.341 C 352.874 136.223,353.010 136.018,353.090 135.549 C 353.150 135.201,353.265 134.692,353.346 134.417 C 353.428 134.142,353.983 131.929,354.581 129.500 C 355.179 127.071,355.921 124.108,356.230 122.917 C 356.539 121.725,357.297 118.612,357.915 116.000 C 358.533 113.388,359.335 110.087,359.698 108.667 C 361.724 100.732,362.404 97.958,363.395 93.583 L 363.583 92.750 368.583 92.642 C 373.707 92.532,373.845 92.519,375.620 91.990 C 377.361 91.470,377.514 91.352,384.685 84.938 C 386.004 83.759,387.965 82.009,389.042 81.050 C 391.712 78.672,391.914 78.833,386.250 78.833 C 383.637 78.833,381.500 78.777,381.499 78.708 C 381.499 78.640,381.628 78.223,381.785 77.782 C 382.036 77.084,382.041 76.961,381.828 76.826 C 381.545 76.648,347.572 76.656,344.333 76.836 M381.634 76.976 C 381.809 77.087,381.787 77.286,381.521 77.984 C 381.104 79.081,380.700 78.991,386.243 79.041 L 390.902 79.083 388.493 81.251 C 378.046 90.650,377.346 91.220,375.612 91.736 C 373.528 92.357,371.641 92.528,367.378 92.481 C 362.904 92.432,363.377 92.255,363.005 94.115 C 362.461 96.831,360.519 104.801,359.662 107.833 C 359.572 108.154,358.937 110.742,358.252 113.583 C 355.789 123.799,352.769 135.919,352.652 136.058 C 352.552 136.177,332.180 136.235,332.061 136.117 C 332.025 136.081,337.108 115.422,338.344 110.583 C 341.368 98.740,342.825 92.759,342.714 92.647 C 342.640 92.573,337.835 92.500,332.036 92.484 C 326.236 92.467,321.455 92.395,321.410 92.323 C 321.318 92.174,322.979 90.755,327.667 86.978 C 328.813 86.054,330.829 84.425,332.148 83.358 C 336.823 79.574,337.411 79.132,338.492 78.588 C 339.092 78.286,340.221 77.824,341.000 77.561 L 342.417 77.083 361.750 76.997 C 372.383 76.949,381.158 76.894,381.250 76.875 C 381.342 76.855,381.515 76.901,381.634 76.976 M153.000 77.164 C 153.000 77.349,152.186 78.699,150.734 80.925 C 150.193 81.755,149.188 83.307,148.500 84.375 C 146.518 87.453,141.589 94.980,136.497 102.705 C 133.915 106.621,131.832 109.913,131.867 110.019 C 131.931 110.209,133.009 109.306,136.487 106.150 C 139.255 103.637,144.281 99.413,145.383 98.673 L 146.385 98.000 158.602 98.000 L 170.819 98.000 171.150 96.875 C 171.601 95.338,173.337 88.539,174.161 85.083 C 174.533 83.525,175.119 81.087,175.464 79.667 L 176.091 77.083 188.296 77.041 C 195.145 77.017,200.500 77.062,200.500 77.143 C 200.500 77.223,200.144 77.421,199.708 77.584 C 193.727 79.822,188.251 83.969,185.415 88.407 C 183.572 91.292,182.566 94.507,179.498 107.333 C 179.224 108.479,178.459 111.592,177.799 114.250 C 175.880 121.974,176.030 125.428,178.453 129.318 C 180.130 132.008,184.176 135.103,186.875 135.758 C 187.856 135.996,187.248 136.167,185.375 136.179 C 181.309 136.204,161.586 136.142,161.548 136.104 C 161.526 136.082,162.261 133.068,163.182 129.407 C 164.103 125.746,165.382 120.662,166.023 118.109 C 166.665 115.557,167.150 113.363,167.100 113.234 C 166.946 112.833,141.571 112.889,141.356 113.292 C 141.271 113.452,140.968 114.633,140.683 115.917 C 140.399 117.200,139.903 119.225,139.581 120.417 C 139.260 121.608,138.836 123.258,138.640 124.083 C 138.444 124.908,137.890 127.092,137.408 128.936 C 136.927 130.779,136.367 133.067,136.165 134.019 C 135.962 134.971,135.770 135.844,135.737 135.958 C 135.695 136.105,135.195 136.172,134.047 136.185 C 130.175 136.228,114.601 136.157,114.540 136.096 C 114.477 136.033,117.282 124.618,118.331 120.667 C 118.586 119.704,119.147 117.454,119.578 115.667 C 121.779 106.529,122.181 104.877,122.320 104.417 C 122.571 103.579,125.435 92.143,126.326 88.417 C 126.787 86.492,127.306 84.392,127.479 83.750 C 127.653 83.108,128.073 81.421,128.412 80.000 C 128.752 78.579,129.058 77.323,129.093 77.208 C 129.174 76.943,153.000 76.899,153.000 77.164 M392.127 80.951 C 392.334 80.991,392.634 80.990,392.794 80.948 C 392.953 80.906,392.783 80.874,392.417 80.875 C 392.050 80.877,391.920 80.911,392.127 80.951 M173.039 82.167 C 173.039 82.487,173.073 82.619,173.115 82.458 C 173.157 82.298,173.157 82.035,173.115 81.875 C 173.073 81.715,173.039 81.846,173.039 82.167 M119.178 108.945 C 119.172 109.235,119.121 109.591,119.066 109.736 C 119.010 109.881,119.039 110.000,119.130 110.000 C 119.346 110.000,119.471 109.132,119.313 108.730 C 119.219 108.490,119.187 108.540,119.178 108.945 M202.125 111.284 C 202.331 111.324,202.669 111.324,202.875 111.284 C 203.081 111.245,202.912 111.212,202.500 111.212 C 202.088 111.212,201.919 111.245,202.125 111.284 M118.411 112.583 C 118.368 112.721,118.298 112.946,118.255 113.083 C 118.212 113.221,118.241 113.333,118.320 113.333 C 118.398 113.333,118.495 113.108,118.536 112.833 C 118.613 112.305,118.543 112.163,118.411 112.583 M271.460 115.118 C 271.668 115.158,271.968 115.156,272.127 115.115 C 272.286 115.073,272.117 115.040,271.750 115.042 C 271.383 115.044,271.253 115.078,271.460 115.118 M277.458 115.118 C 277.665 115.157,278.002 115.157,278.208 115.118 C 278.415 115.078,278.246 115.045,277.833 115.045 C 277.421 115.045,277.252 115.078,277.458 115.118 M302.592 118.639 C 302.450 119.088,301.182 120.233,300.370 120.648 C 299.095 121.299,298.140 121.331,280.067 121.332 L 262.550 121.333 260.396 123.042 C 259.211 123.981,257.795 125.050,257.248 125.417 C 256.702 125.783,255.091 126.879,253.669 127.851 C 248.794 131.183,243.295 133.886,238.296 135.408 C 236.804 135.862,236.451 136.093,236.854 136.352 C 237.118 136.521,248.056 136.507,251.167 136.333 C 252.430 136.262,250.120 136.219,245.295 136.223 C 240.920 136.227,237.297 136.186,237.243 136.132 C 237.189 136.078,237.656 135.866,238.281 135.661 C 243.664 133.891,249.532 131.011,253.634 128.126 C 254.431 127.565,255.904 126.551,256.907 125.872 C 257.910 125.193,259.608 123.933,260.680 123.073 L 262.629 121.509 280.939 121.463 C 301.216 121.412,299.547 121.505,301.254 120.331 C 301.991 119.824,302.975 118.586,302.790 118.401 C 302.739 118.350,302.650 118.457,302.592 118.639 M312.667 134.170 C 312.468 134.300,312.493 134.324,312.787 134.283 C 312.991 134.254,313.210 134.179,313.273 134.115 C 313.450 133.939,312.950 133.983,312.667 134.170 M226.833 137.639 C 226.833 137.746,226.627 137.844,226.375 137.856 C 225.954 137.877,225.949 137.885,226.311 137.953 C 226.716 138.030,227.150 137.761,226.947 137.558 C 226.885 137.496,226.833 137.532,226.833 137.639 M270.794 137.618 C 271.001 137.658,271.301 137.656,271.460 137.615 C 271.620 137.573,271.450 137.540,271.083 137.542 C 270.717 137.544,270.586 137.578,270.794 137.618 M272.127 137.618 C 272.334 137.658,272.634 137.656,272.794 137.615 C 272.953 137.573,272.783 137.540,272.417 137.542 C 272.050 137.544,271.920 137.578,272.127 137.618 M295.708 137.615 C 295.869 137.657,296.131 137.657,296.292 137.615 C 296.452 137.573,296.321 137.539,296.000 137.539 C 295.679 137.539,295.548 137.573,295.708 137.615 " stroke="none" fill="#9b9795" fill-rule="evenodd"></path><path id="path4" d="M282.960 77.118 C 283.168 77.158,283.468 77.156,283.627 77.115 C 283.786 77.073,283.617 77.040,283.250 77.042 C 282.883 77.044,282.753 77.078,282.960 77.118 M381.311 79.045 C 381.381 79.115,383.384 79.152,385.761 79.128 L 390.083 79.083 385.633 79.000 C 383.185 78.954,381.241 78.974,381.311 79.045 M386.406 83.042 L 385.917 83.583 386.458 83.094 C 386.963 82.638,387.077 82.500,386.948 82.500 C 386.919 82.500,386.675 82.744,386.406 83.042 M189.573 83.542 L 189.083 84.083 189.625 83.594 C 189.923 83.325,190.167 83.081,190.167 83.052 C 190.167 82.923,190.029 83.037,189.573 83.542 M383.906 85.208 L 383.417 85.750 383.958 85.260 C 384.463 84.804,384.577 84.667,384.448 84.667 C 384.419 84.667,384.175 84.910,383.906 85.208 M325.658 88.625 L 325.083 89.250 325.708 88.676 C 326.290 88.141,326.410 88.000,326.283 88.000 C 326.255 88.000,325.974 88.281,325.658 88.625 M266.397 91.083 C 266.397 92.183,266.424 92.612,266.457 92.035 C 266.490 91.459,266.489 90.559,266.456 90.035 C 266.423 89.512,266.397 89.983,266.397 91.083 M321.755 91.828 C 321.147 92.463,321.311 92.531,323.263 92.458 L 324.750 92.402 323.094 92.368 L 321.438 92.333 321.917 91.833 C 322.180 91.558,322.358 91.333,322.312 91.333 C 322.267 91.333,322.016 91.556,321.755 91.828 M309.461 92.454 C 309.761 92.491,310.211 92.490,310.461 92.452 C 310.712 92.414,310.467 92.384,309.917 92.385 C 309.367 92.386,309.162 92.417,309.461 92.454 M330.637 92.458 C 332.866 92.484,336.466 92.484,338.637 92.458 C 340.807 92.432,338.983 92.410,334.583 92.410 C 330.183 92.410,328.407 92.432,330.637 92.458 M366.458 92.458 C 367.490 92.487,369.177 92.487,370.208 92.458 C 371.240 92.429,370.396 92.405,368.333 92.405 C 366.271 92.405,365.427 92.429,366.458 92.458 M152.375 98.125 C 155.744 98.150,161.256 98.150,164.625 98.125 C 167.994 98.100,165.237 98.079,158.500 98.079 C 151.762 98.079,149.006 98.100,152.375 98.125 M295.708 100.125 C 296.969 100.153,299.031 100.153,300.292 100.125 C 301.552 100.096,300.521 100.073,298.000 100.073 C 295.479 100.073,294.448 100.096,295.708 100.125 M305.042 100.282 C 305.785 100.476,305.201 100.802,300.667 102.723 C 295.114 105.074,293.624 105.618,285.500 108.256 C 280.235 109.966,279.077 110.530,279.102 111.375 C 279.113 111.719,279.065 112.000,278.996 112.000 C 278.927 112.000,278.881 112.123,278.894 112.273 C 278.908 112.445,278.701 112.621,278.333 112.749 C 277.857 112.916,277.811 112.968,278.083 113.033 C 278.604 113.158,276.007 113.262,275.167 113.150 C 274.603 113.075,274.541 113.043,274.917 113.020 C 275.344 112.994,275.374 112.965,275.122 112.818 C 274.807 112.635,273.387 112.778,273.245 113.008 C 273.199 113.082,272.731 113.201,272.206 113.272 L 271.250 113.400 272.000 113.514 C 272.412 113.577,279.156 113.594,286.985 113.551 L 301.221 113.473 302.569 113.003 C 304.498 112.331,308.920 110.760,310.015 110.358 C 310.528 110.170,312.403 109.594,314.182 109.079 C 315.961 108.564,318.419 107.812,319.644 107.407 C 320.869 107.002,321.938 106.712,322.019 106.762 C 322.100 106.812,322.167 106.733,322.167 106.586 C 322.167 105.899,319.619 103.825,317.376 102.686 C 315.888 101.931,311.934 101.046,307.613 100.500 C 305.052 100.176,304.439 100.124,305.042 100.282 M137.742 105.042 L 137.083 105.750 137.792 105.091 C 138.450 104.478,138.577 104.333,138.450 104.333 C 138.423 104.333,138.105 104.652,137.742 105.042 M133.000 109.250 C 132.595 109.662,132.301 110.000,132.347 110.000 C 132.393 110.000,132.762 109.662,133.167 109.250 C 133.572 108.837,133.865 108.500,133.819 108.500 C 133.774 108.500,133.405 108.837,133.000 109.250 M145.281 112.958 C 147.039 112.985,149.964 112.985,151.781 112.958 C 153.597 112.931,152.158 112.909,148.583 112.909 C 145.008 112.909,143.522 112.931,145.281 112.958 M269.208 113.448 C 269.369 113.490,269.631 113.490,269.792 113.448 C 269.952 113.406,269.821 113.372,269.500 113.372 C 269.179 113.372,269.048 113.406,269.208 113.448 M302.960 118.528 C 302.167 119.876,300.116 121.311,298.926 121.350 C 298.442 121.366,298.437 121.372,298.832 121.482 C 299.474 121.661,298.956 121.841,291.833 123.914 C 290.046 124.434,286.858 125.409,284.750 126.080 C 278.056 128.210,274.040 129.442,269.500 130.756 C 260.912 133.243,257.082 134.405,254.833 135.208 C 253.779 135.584,252.842 135.963,252.750 136.049 C 252.466 136.318,253.752 136.018,254.723 135.588 C 255.219 135.369,256.365 134.968,257.271 134.696 C 258.176 134.425,260.154 133.827,261.667 133.368 C 264.174 132.606,266.009 132.069,272.667 130.147 C 273.904 129.790,276.079 129.128,277.500 128.676 C 278.921 128.224,281.546 127.392,283.333 126.827 C 285.121 126.262,286.996 125.662,287.500 125.495 C 288.004 125.327,289.879 124.766,291.667 124.249 C 303.419 120.848,305.261 120.194,304.693 119.626 C 304.587 119.520,304.500 119.497,304.500 119.574 C 304.500 119.652,304.313 119.513,304.083 119.266 C 303.854 119.018,303.656 118.876,303.643 118.950 C 303.630 119.023,303.574 118.783,303.518 118.417 L 303.417 117.750 302.960 118.528 M176.392 121.667 C 176.392 122.446,176.420 122.765,176.455 122.375 C 176.490 121.985,176.490 121.348,176.455 120.958 C 176.420 120.569,176.392 120.888,176.392 121.667 M260.750 123.010 C 259.742 123.831,258.054 125.089,257.000 125.804 C 255.946 126.520,254.431 127.564,253.634 128.125 C 250.453 130.364,244.928 133.252,241.119 134.668 C 239.908 135.118,239.053 135.489,239.220 135.493 C 239.528 135.500,240.139 135.983,239.887 136.020 C 239.375 136.093,240.994 136.293,242.083 136.291 C 242.817 136.289,243.248 136.255,243.042 136.216 C 242.354 136.083,242.655 135.889,243.875 135.677 C 244.540 135.561,246.246 135.097,247.667 134.645 C 253.307 132.851,253.522 132.787,257.750 131.661 C 258.850 131.368,261.294 130.688,263.182 130.150 C 265.070 129.611,267.470 128.953,268.515 128.687 C 271.106 128.028,276.997 126.427,279.333 125.748 C 280.387 125.442,282.450 124.881,283.917 124.502 C 285.383 124.123,287.296 123.596,288.167 123.331 C 289.037 123.066,290.442 122.700,291.287 122.517 C 292.132 122.333,292.995 122.091,293.204 121.979 C 293.412 121.866,294.483 121.724,295.583 121.664 C 296.683 121.603,289.708 121.545,280.083 121.535 L 262.583 121.517 260.750 123.010 M126.042 136.288 C 126.385 136.324,126.948 136.324,127.292 136.288 C 127.635 136.252,127.354 136.223,126.667 136.223 C 125.979 136.223,125.698 136.252,126.042 136.288 M182.208 136.286 C 182.460 136.324,182.873 136.324,183.125 136.286 C 183.377 136.248,183.171 136.217,182.667 136.217 C 182.162 136.217,181.956 136.248,182.208 136.286 " stroke="none" fill="#95441a" fill-rule="evenodd"></path></g></svg>