<svg id="svg" version="1.1" xmlns="http://www.w3.org/2000/svg" xmlns:xlink="http://www.w3.org/1999/xlink" width="400" height="177.69607843137254" viewBox="0, 0, 400,177.69607843137254"><g id="svgg"><path id="path0" d="M106.625 75.287 C 106.923 75.324,107.410 75.324,107.708 75.287 C 108.006 75.250,107.763 75.220,107.167 75.220 C 106.571 75.220,106.327 75.250,106.625 75.287 M131.625 75.287 C 131.923 75.324,132.410 75.324,132.708 75.287 C 133.006 75.250,132.762 75.220,132.167 75.220 C 131.571 75.220,131.327 75.250,131.625 75.287 M148.292 75.287 C 148.590 75.324,149.077 75.324,149.375 75.287 C 149.673 75.250,149.429 75.220,148.833 75.220 C 148.237 75.220,147.994 75.250,148.292 75.287 M177.628 75.287 C 177.928 75.325,178.378 75.324,178.628 75.286 C 178.878 75.248,178.633 75.217,178.083 75.218 C 177.533 75.219,177.328 75.250,177.628 75.287 M181.625 75.287 C 181.923 75.324,182.410 75.324,182.708 75.287 C 183.006 75.250,182.762 75.220,182.167 75.220 C 181.571 75.220,181.327 75.250,181.625 75.287 M185.792 75.287 C 186.090 75.324,186.577 75.324,186.875 75.287 C 187.173 75.250,186.929 75.220,186.333 75.220 C 185.737 75.220,185.494 75.250,185.792 75.287 M189.958 75.287 C 190.256 75.324,190.744 75.324,191.042 75.287 C 191.340 75.250,191.096 75.220,190.500 75.220 C 189.904 75.220,189.660 75.250,189.958 75.287 M285.792 75.287 C 286.090 75.324,286.577 75.324,286.875 75.287 C 287.173 75.250,286.929 75.220,286.333 75.220 C 285.737 75.220,285.494 75.250,285.792 75.287 M289.958 75.287 C 290.256 75.324,290.744 75.324,291.042 75.287 C 291.340 75.250,291.096 75.220,290.500 75.220 C 289.904 75.220,289.660 75.250,289.958 75.287 M294.125 75.287 C 294.423 75.324,294.910 75.324,295.208 75.287 C 295.506 75.250,295.262 75.220,294.667 75.220 C 294.071 75.220,293.827 75.250,294.125 75.287 M298.295 75.287 C 298.594 75.325,299.044 75.324,299.295 75.286 C 299.545 75.248,299.300 75.217,298.750 75.218 C 298.200 75.219,297.995 75.250,298.295 75.287 M302.458 75.287 C 302.756 75.324,303.244 75.324,303.542 75.287 C 303.840 75.250,303.596 75.220,303.000 75.220 C 302.404 75.220,302.160 75.250,302.458 75.287 M310.792 75.287 C 311.090 75.324,311.577 75.324,311.875 75.287 C 312.173 75.250,311.929 75.220,311.333 75.220 C 310.737 75.220,310.494 75.250,310.792 75.287 M314.958 75.287 C 315.256 75.324,315.744 75.324,316.042 75.287 C 316.340 75.250,316.096 75.220,315.500 75.220 C 314.904 75.220,314.660 75.250,314.958 75.287 M319.125 75.287 C 319.423 75.324,319.910 75.324,320.208 75.287 C 320.506 75.250,320.262 75.220,319.667 75.220 C 319.071 75.220,318.827 75.250,319.125 75.287 M323.292 75.287 C 323.590 75.324,324.077 75.324,324.375 75.287 C 324.673 75.250,324.429 75.220,323.833 75.220 C 323.237 75.220,322.994 75.250,323.292 75.287 M327.458 75.287 C 327.756 75.324,328.244 75.324,328.542 75.287 C 328.840 75.250,328.596 75.220,328.000 75.220 C 327.404 75.220,327.160 75.250,327.458 75.287 M344.625 75.284 C 344.831 75.324,345.169 75.324,345.375 75.284 C 345.581 75.245,345.412 75.212,345.000 75.212 C 344.587 75.212,344.419 75.245,344.625 75.284 M348.292 75.287 C 348.590 75.324,349.077 75.324,349.375 75.287 C 349.673 75.250,349.429 75.220,348.833 75.220 C 348.238 75.220,347.994 75.250,348.292 75.287 M352.458 75.287 C 352.756 75.324,353.244 75.324,353.542 75.287 C 353.840 75.250,353.596 75.220,353.000 75.220 C 352.404 75.220,352.160 75.250,352.458 75.287 M356.625 75.287 C 356.923 75.324,357.410 75.324,357.708 75.287 C 358.006 75.250,357.762 75.220,357.167 75.220 C 356.571 75.220,356.327 75.250,356.625 75.287 M360.542 75.282 C 360.702 75.323,360.965 75.323,361.125 75.282 C 361.285 75.240,361.154 75.205,360.833 75.205 C 360.512 75.205,360.381 75.240,360.542 75.282 M364.958 75.287 C 365.256 75.324,365.744 75.324,366.042 75.287 C 366.340 75.250,366.096 75.220,365.500 75.220 C 364.904 75.220,364.660 75.250,364.958 75.287 M369.125 75.287 C 369.423 75.324,369.910 75.324,370.208 75.287 C 370.506 75.250,370.262 75.220,369.667 75.220 C 369.071 75.220,368.827 75.250,369.125 75.287 M373.292 75.287 C 373.590 75.324,374.077 75.324,374.375 75.287 C 374.673 75.250,374.429 75.220,373.833 75.220 C 373.238 75.220,372.994 75.250,373.292 75.287 M129.172 77.375 C 129.088 77.581,128.906 78.237,128.769 78.833 C 128.632 79.429,126.750 87.042,124.586 95.750 C 122.422 104.458,120.546 112.033,120.417 112.583 C 120.287 113.133,119.759 115.271,119.242 117.333 C 115.037 134.120,114.576 136.040,114.740 136.102 C 114.837 136.139,119.567 136.150,125.250 136.127 L 135.583 136.083 135.738 135.417 C 136.097 133.874,137.559 128.054,138.836 123.083 C 139.589 120.150,140.306 117.263,140.429 116.667 C 140.742 115.148,141.280 113.165,141.416 113.030 C 141.568 112.878,167.050 112.988,167.205 113.140 C 167.272 113.206,166.918 114.870,166.419 116.838 C 163.577 128.050,161.623 136.012,161.696 136.085 C 161.742 136.131,167.511 136.150,174.515 136.126 C 185.752 136.088,187.181 136.055,186.667 135.845 C 180.610 133.367,177.046 129.115,176.471 123.680 C 176.208 121.194,176.394 119.700,177.566 114.917 C 178.149 112.533,178.905 109.421,179.244 108.000 C 180.074 104.526,181.462 98.888,181.664 98.167 C 184.022 89.765,185.003 87.898,189.111 84.000 C 191.843 81.407,196.223 78.714,199.699 77.490 C 200.038 77.370,200.278 77.211,200.231 77.136 C 200.037 76.823,176.358 76.976,176.194 77.292 C 176.111 77.452,175.801 78.596,175.506 79.833 C 173.709 87.375,172.640 91.672,171.735 95.000 C 171.498 95.871,171.243 96.829,171.168 97.130 C 170.892 98.244,171.847 98.167,158.423 98.167 L 146.221 98.167 145.235 98.866 C 144.155 99.633,139.737 103.335,137.500 105.347 C 136.721 106.048,135.157 107.457,134.025 108.478 C 130.868 111.324,130.870 111.078,134.042 106.311 C 135.348 104.347,137.467 101.131,138.750 99.163 C 140.033 97.195,142.471 93.468,144.167 90.881 C 150.487 81.239,152.994 77.291,152.897 77.135 C 152.851 77.061,147.529 77.000,141.070 77.000 L 129.326 77.000 129.172 77.375 M283.083 77.107 C 276.906 77.452,270.323 79.076,265.542 81.435 C 263.742 82.322,263.474 82.528,263.828 82.747 C 264.154 82.948,265.559 85.739,265.957 86.977 C 267.069 90.427,266.610 93.720,263.084 107.583 C 261.858 112.402,261.780 111.971,263.977 112.483 C 268.148 113.455,272.357 113.689,273.250 113.000 C 273.561 112.760,274.809 112.636,275.116 112.815 C 275.377 112.967,275.350 112.994,274.917 113.020 C 274.541 113.043,274.603 113.075,275.167 113.150 C 276.007 113.262,278.604 113.158,278.083 113.033 C 277.811 112.968,277.857 112.916,278.333 112.749 C 278.701 112.621,278.908 112.445,278.894 112.273 C 278.881 112.123,278.927 112.000,278.996 112.000 C 279.065 112.000,279.113 111.719,279.102 111.375 C 279.077 110.530,280.235 109.966,285.500 108.256 C 293.624 105.618,295.114 105.074,300.667 102.723 C 304.857 100.948,305.596 100.560,305.292 100.297 C 305.269 100.277,299.025 100.221,291.417 100.172 L 277.583 100.083 276.728 99.696 C 273.121 98.064,274.848 93.554,279.455 92.578 C 280.389 92.380,283.290 92.339,296.286 92.336 C 316.265 92.333,316.638 92.274,321.002 88.457 C 322.485 87.161,323.595 86.256,330.561 80.667 C 332.903 78.787,334.822 77.194,334.826 77.125 C 334.833 77.012,285.083 76.995,283.083 77.107 M343.083 77.173 C 340.484 77.514,337.854 78.795,335.083 81.070 C 333.892 82.048,332.279 83.363,331.500 83.992 C 330.721 84.621,329.122 85.912,327.948 86.860 C 323.006 90.849,322.442 91.315,321.944 91.812 L 321.423 92.333 331.865 92.333 C 337.607 92.333,342.425 92.379,342.570 92.434 C 342.975 92.590,342.959 92.672,340.896 100.791 C 338.813 108.989,338.827 108.933,335.234 123.417 C 333.915 128.733,332.685 133.641,332.501 134.322 C 332.317 135.003,332.167 135.697,332.167 135.864 C 332.167 136.153,332.618 136.167,342.337 136.167 L 352.507 136.167 352.663 135.792 C 352.749 135.585,353.732 131.704,354.846 127.167 C 355.961 122.629,357.697 115.617,358.703 111.583 C 361.351 100.970,362.641 95.613,363.008 93.711 C 363.282 92.296,362.982 92.371,368.667 92.293 C 373.982 92.219,374.736 92.125,376.693 91.290 C 377.290 91.035,381.090 87.867,383.421 85.681 C 384.064 85.077,385.919 83.421,387.543 82.000 C 389.166 80.579,390.496 79.342,390.497 79.250 C 390.499 79.142,388.896 79.101,385.915 79.135 C 380.791 79.192,380.848 79.206,381.393 78.063 C 381.544 77.747,381.667 77.379,381.667 77.244 C 381.667 76.972,345.130 76.905,343.083 77.173 M264.794 79.451 C 265.001 79.491,265.301 79.490,265.460 79.448 C 265.620 79.406,265.450 79.374,265.083 79.375 C 264.717 79.377,264.586 79.411,264.794 79.451 M211.125 92.284 C 211.331 92.324,211.669 92.324,211.875 92.284 C 212.081 92.245,211.912 92.212,211.500 92.212 C 211.088 92.212,210.919 92.245,211.125 92.284 M215.129 92.289 C 215.521 92.324,216.121 92.324,216.463 92.288 C 216.804 92.252,216.483 92.223,215.750 92.224 C 215.017 92.224,214.737 92.254,215.129 92.289 M227.629 92.289 C 228.021 92.324,228.621 92.324,228.963 92.288 C 229.304 92.252,228.983 92.223,228.250 92.224 C 227.517 92.224,227.237 92.254,227.629 92.289 M231.796 92.289 C 232.188 92.324,232.788 92.324,233.129 92.288 C 233.471 92.252,233.150 92.223,232.417 92.224 C 231.683 92.224,231.404 92.254,231.796 92.289 M235.963 92.289 C 236.355 92.324,236.955 92.324,237.296 92.288 C 237.637 92.252,237.317 92.223,236.583 92.224 C 235.850 92.224,235.571 92.254,235.963 92.289 M264.000 93.343 C 264.000 93.715,264.060 93.982,264.134 93.937 C 264.263 93.857,264.199 92.667,264.065 92.667 C 264.029 92.667,264.000 92.971,264.000 93.343 M281.042 115.119 C 281.294 115.158,281.706 115.158,281.958 115.119 C 282.210 115.081,282.004 115.050,281.500 115.050 C 280.996 115.050,280.790 115.081,281.042 115.119 M285.375 115.121 C 285.719 115.157,286.281 115.157,286.625 115.121 C 286.969 115.085,286.688 115.056,286.000 115.056 C 285.313 115.056,285.031 115.085,285.375 115.121 M295.583 121.664 C 294.483 121.724,293.412 121.866,293.204 121.979 C 292.995 122.091,292.132 122.333,291.287 122.517 C 290.442 122.700,289.037 123.066,288.167 123.331 C 287.296 123.596,285.383 124.123,283.917 124.502 C 282.450 124.881,280.387 125.442,279.333 125.748 C 276.997 126.427,271.106 128.028,268.515 128.687 C 267.470 128.953,265.070 129.611,263.182 130.150 C 261.294 130.688,258.850 131.368,257.750 131.661 C 253.522 132.787,253.307 132.851,247.667 134.645 C 246.246 135.097,244.540 135.561,243.875 135.677 C 243.210 135.792,242.667 135.950,242.667 136.027 C 242.667 136.208,252.550 136.210,252.758 136.029 C 253.260 135.594,258.593 133.914,269.500 130.756 C 274.040 129.442,278.056 128.210,284.750 126.080 C 286.858 125.409,290.046 124.434,291.833 123.914 C 300.606 121.361,300.561 121.388,295.583 121.664 M322.379 127.833 C 322.379 128.246,322.411 128.415,322.451 128.208 C 322.491 128.002,322.491 127.665,322.451 127.458 C 322.411 127.252,322.379 127.421,322.379 127.833 M189.048 136.083 C 189.049 136.542,189.081 136.709,189.120 136.456 C 189.158 136.203,189.157 135.828,189.117 135.623 C 189.078 135.418,189.046 135.625,189.048 136.083 M234.583 135.667 L 234.083 135.794 234.532 135.814 C 234.779 135.824,235.027 135.758,235.083 135.667 C 235.140 135.575,235.163 135.509,235.135 135.520 C 235.107 135.531,234.858 135.597,234.583 135.667 M238.305 135.726 C 237.295 136.041,237.382 136.167,238.611 136.167 C 239.882 136.167,240.105 136.082,239.754 135.730 C 239.486 135.462,239.152 135.461,238.305 135.726 M185.961 137.621 C 186.261 137.658,186.711 137.657,186.961 137.619 C 187.212 137.581,186.967 137.551,186.417 137.552 C 185.867 137.553,185.662 137.584,185.961 137.621 M202.458 137.621 C 202.756 137.658,203.244 137.658,203.542 137.621 C 203.840 137.584,203.596 137.553,203.000 137.553 C 202.404 137.553,202.160 137.584,202.458 137.621 M211.292 137.618 C 211.498 137.657,211.835 137.657,212.042 137.618 C 212.248 137.578,212.079 137.545,211.667 137.545 C 211.254 137.545,211.085 137.578,211.292 137.618 M214.958 137.621 C 215.256 137.658,215.744 137.658,216.042 137.621 C 216.340 137.584,216.096 137.553,215.500 137.553 C 214.904 137.553,214.660 137.584,214.958 137.621 M285.792 137.621 C 286.090 137.658,286.577 137.658,286.875 137.621 C 287.173 137.584,286.929 137.553,286.333 137.553 C 285.737 137.553,285.494 137.584,285.792 137.621 " stroke="none" fill="#0c0806" fill-rule="evenodd"></path><path id="path1" d="M47.417 39.086 C 47.325 39.119,46.575 39.186,45.750 39.234 C 44.029 39.336,41.991 39.683,41.250 40.002 C 41.067 40.081,40.070 40.341,39.035 40.581 C 38.000 40.821,36.813 41.164,36.396 41.342 C 35.980 41.521,35.494 41.667,35.317 41.667 C 35.140 41.667,34.865 41.739,34.706 41.827 C 34.283 42.061,32.682 42.751,31.958 43.010 C 31.615 43.133,31.333 43.294,31.333 43.367 C 31.333 43.440,31.188 43.500,31.010 43.500 C 30.832 43.500,30.643 43.570,30.591 43.655 C 30.538 43.740,29.788 44.158,28.924 44.584 C 28.060 45.010,27.265 45.465,27.156 45.596 C 27.048 45.726,26.861 45.833,26.741 45.833 C 26.622 45.833,26.422 45.927,26.298 46.042 C 26.173 46.156,25.875 46.362,25.636 46.500 C 25.003 46.863,23.245 48.112,22.946 48.411 C 22.806 48.552,22.642 48.667,22.584 48.667 C 22.407 48.667,21.119 49.601,20.583 50.117 C 20.308 50.382,19.708 50.891,19.250 51.249 C 17.447 52.657,11.167 59.387,11.167 59.912 C 11.167 60.029,10.328 61.193,10.141 61.334 C 9.944 61.483,7.667 64.985,7.667 65.139 C 7.667 65.221,7.520 65.474,7.342 65.702 C 6.921 66.236,6.000 68.011,6.000 68.287 C 6.000 68.404,5.942 68.500,5.871 68.500 C 5.726 68.500,5.431 69.052,4.668 70.750 C 4.379 71.392,4.070 72.068,3.981 72.253 C 3.892 72.438,3.806 72.757,3.790 72.961 C 3.775 73.166,3.711 73.333,3.649 73.333 C 3.587 73.333,3.487 73.540,3.427 73.792 C 3.367 74.044,3.064 74.887,2.754 75.667 C 2.445 76.446,2.134 77.421,2.064 77.833 C 1.923 78.664,1.891 78.814,1.841 78.875 C 1.531 79.261,0.639 84.596,0.602 86.292 C 0.592 86.773,0.546 87.167,0.500 87.167 C 0.338 87.167,0.461 97.616,0.627 97.934 C 0.718 98.108,0.847 98.841,0.912 99.562 C 0.978 100.284,1.216 101.709,1.441 102.729 C 1.665 103.749,1.845 104.780,1.840 105.020 C 1.835 105.261,1.944 105.551,2.082 105.666 C 2.220 105.780,2.333 106.012,2.333 106.181 C 2.333 106.350,2.440 106.735,2.569 107.036 C 3.113 108.296,3.305 108.785,3.505 109.417 C 3.620 109.783,4.048 110.758,4.456 111.583 C 5.487 113.671,5.679 114.025,6.043 114.500 C 6.470 115.056,7.424 116.464,7.789 117.076 C 7.951 117.347,8.280 117.775,8.521 118.027 C 8.762 118.279,8.925 118.519,8.883 118.561 C 8.773 118.671,12.847 122.808,13.747 123.500 C 14.164 123.821,14.823 124.365,15.211 124.708 C 15.599 125.052,16.010 125.333,16.125 125.333 C 16.240 125.333,16.333 125.399,16.333 125.479 C 16.333 125.559,17.252 126.206,18.375 126.917 C 19.498 127.627,20.604 128.336,20.833 128.492 C 21.219 128.753,25.492 130.866,26.250 131.170 C 26.433 131.243,26.921 131.457,27.333 131.646 C 28.909 132.365,33.434 133.897,35.500 134.410 C 35.546 134.422,35.854 134.524,36.184 134.637 C 36.514 134.750,37.001 134.877,37.267 134.919 C 37.533 134.961,38.200 135.103,38.750 135.235 C 39.300 135.366,40.012 135.508,40.333 135.550 C 40.654 135.591,41.217 135.707,41.583 135.807 C 41.950 135.907,42.550 136.034,42.917 136.089 C 43.283 136.145,43.696 136.211,43.833 136.237 C 44.569 136.372,45.683 136.516,46.453 136.574 C 46.931 136.611,47.381 136.675,47.453 136.717 C 47.525 136.760,48.333 136.849,49.250 136.915 C 50.167 136.982,51.179 137.060,51.500 137.090 C 55.906 137.490,90.756 137.559,91.004 137.167 C 91.190 136.872,91.216 135.335,91.039 135.058 C 90.972 134.952,90.279 134.497,89.500 134.046 C 88.721 133.596,87.765 133.025,87.375 132.778 C 86.985 132.531,86.667 132.368,86.667 132.416 C 86.667 132.463,86.379 132.293,86.026 132.038 C 85.674 131.783,85.055 131.429,84.651 131.250 C 84.247 131.072,83.857 130.830,83.783 130.713 C 83.710 130.596,83.541 130.500,83.408 130.500 C 83.275 130.500,83.167 130.438,83.167 130.362 C 83.167 130.286,82.773 130.042,82.292 129.820 C 81.811 129.598,81.288 129.308,81.130 129.175 C 80.768 128.871,78.683 127.681,78.292 127.555 C 78.131 127.503,78.000 127.382,78.000 127.286 C 78.000 127.190,77.954 127.158,77.897 127.214 C 77.840 127.271,77.685 127.209,77.552 127.075 C 77.418 126.942,77.165 126.833,76.988 126.833 C 76.811 126.833,76.667 126.758,76.667 126.667 C 76.667 126.575,76.554 126.500,76.417 126.500 C 76.279 126.500,76.167 126.430,76.167 126.344 C 76.167 126.259,75.698 125.934,75.125 125.623 C 74.552 125.311,73.596 124.772,73.000 124.424 C 72.404 124.077,71.654 123.639,71.333 123.452 C 71.012 123.265,70.188 122.795,69.500 122.408 C 68.813 122.020,67.437 121.208,66.443 120.602 C 65.449 119.996,64.531 119.500,64.402 119.500 C 64.272 119.500,64.167 119.421,64.167 119.324 C 64.167 119.227,63.773 118.964,63.292 118.738 C 62.209 118.231,61.000 117.524,60.695 117.219 C 60.569 117.092,60.181 116.844,59.833 116.667 C 59.486 116.489,59.100 116.248,58.976 116.130 C 58.852 116.013,58.337 115.699,57.833 115.434 C 56.890 114.938,51.550 111.328,50.504 110.479 C 50.181 110.217,49.354 109.546,48.667 108.988 C 47.141 107.750,44.490 105.151,44.589 104.991 C 44.628 104.927,45.189 104.561,45.834 104.178 C 47.072 103.442,47.054 103.445,49.000 103.765 C 49.229 103.803,49.829 103.881,50.333 103.939 C 50.837 103.998,51.383 104.114,51.546 104.198 C 51.708 104.281,52.308 104.392,52.879 104.443 C 53.450 104.495,54.022 104.622,54.151 104.727 C 54.505 105.014,61.194 104.984,62.167 104.690 C 64.039 104.126,65.832 103.367,66.500 102.857 C 66.821 102.612,67.408 102.192,67.805 101.924 C 68.662 101.345,70.833 99.063,70.833 98.741 C 70.833 98.618,70.931 98.457,71.050 98.383 C 71.397 98.170,71.954 97.292,72.252 96.490 C 72.403 96.083,72.625 95.563,72.745 95.333 C 73.441 94.006,73.776 87.530,73.268 85.250 C 73.035 84.203,72.440 82.402,72.211 82.050 C 72.080 81.849,71.987 81.640,72.004 81.585 C 72.061 81.399,71.627 80.500,71.480 80.500 C 71.399 80.500,71.348 80.444,71.367 80.375 C 71.415 80.196,70.657 78.773,70.436 78.628 C 69.824 78.225,67.461 78.699,67.750 79.167 C 67.799 79.246,67.762 79.358,67.667 79.416 C 67.573 79.474,67.224 79.948,66.892 80.469 C 66.560 80.990,66.113 81.604,65.899 81.833 C 65.294 82.480,63.655 84.341,62.917 85.218 C 61.927 86.395,57.370 90.833,57.153 90.833 C 57.084 90.833,57.003 90.890,56.972 90.960 C 56.942 91.029,56.579 91.346,56.167 91.664 C 55.754 91.981,55.379 92.281,55.333 92.330 C 55.288 92.379,54.891 92.681,54.453 93.001 C 54.014 93.321,53.377 93.799,53.036 94.062 C 52.196 94.710,51.278 95.288,50.083 95.920 C 45.549 98.320,45.395 98.368,43.797 97.920 C 41.504 97.277,37.526 94.930,37.005 93.915 C 36.865 93.641,36.699 93.378,36.636 93.330 C 36.167 92.975,36.181 87.448,36.655 86.250 C 36.727 86.067,36.920 85.467,37.083 84.917 C 37.431 83.740,37.947 82.221,38.158 81.750 C 38.240 81.567,38.547 80.892,38.840 80.250 C 39.132 79.608,39.455 78.896,39.557 78.667 C 39.660 78.438,39.913 78.018,40.121 77.735 C 40.328 77.452,40.449 77.171,40.388 77.110 C 40.327 77.050,40.370 77.000,40.482 77.000 C 40.594 77.000,40.640 76.925,40.583 76.833 C 40.527 76.742,40.561 76.667,40.660 76.667 C 40.758 76.667,40.964 76.404,41.117 76.083 C 41.270 75.762,41.456 75.500,41.531 75.500 C 41.606 75.500,41.667 75.422,41.667 75.326 C 41.667 75.230,41.854 74.950,42.083 74.703 C 42.313 74.456,42.500 74.159,42.500 74.043 C 42.500 73.928,42.561 73.833,42.636 73.833 C 42.711 73.833,43.122 73.365,43.550 72.792 C 45.340 70.391,45.814 69.833,47.490 68.162 C 50.755 64.907,55.705 61.750,58.917 60.876 C 59.100 60.826,59.325 60.730,59.417 60.662 C 59.508 60.594,59.846 60.484,60.167 60.416 C 60.487 60.349,60.825 60.249,60.917 60.193 C 61.323 59.948,65.240 59.031,66.417 58.906 C 66.783 58.867,67.383 58.792,67.750 58.739 C 68.664 58.607,74.083 58.697,74.083 58.844 C 74.083 58.864,74.383 58.901,74.750 58.926 C 75.349 58.967,76.689 59.204,78.833 59.648 C 79.246 59.734,79.808 59.842,80.083 59.889 C 80.358 59.936,80.972 60.095,81.448 60.241 C 81.924 60.387,82.374 60.492,82.448 60.474 C 82.522 60.456,82.996 60.566,83.500 60.718 C 84.004 60.870,84.567 61.022,84.750 61.055 C 84.933 61.089,85.196 61.162,85.333 61.217 C 85.471 61.272,85.808 61.351,86.083 61.392 C 86.555 61.462,88.039 61.827,89.333 62.191 C 89.654 62.281,90.029 62.371,90.167 62.390 C 90.304 62.410,90.492 62.469,90.583 62.521 C 90.675 62.573,91.087 62.698,91.500 62.800 C 91.912 62.901,92.737 63.107,93.333 63.258 C 93.929 63.408,94.567 63.555,94.750 63.585 C 94.933 63.615,95.102 63.655,95.125 63.674 C 95.148 63.693,95.223 63.724,95.292 63.744 C 95.360 63.763,95.529 63.827,95.667 63.887 C 95.804 63.946,97.154 64.295,98.667 64.662 C 100.179 65.029,102.270 65.552,103.314 65.824 C 104.358 66.096,105.258 66.310,105.314 66.299 C 105.370 66.289,105.529 66.319,105.667 66.367 C 106.765 66.746,107.254 66.833,108.266 66.833 L 109.426 66.833 110.343 65.958 C 110.847 65.477,111.535 64.876,111.872 64.622 C 112.716 63.988,120.318 56.404,120.925 55.592 C 121.195 55.230,121.660 54.689,121.958 54.389 C 122.256 54.090,122.500 53.775,122.500 53.690 C 122.500 53.605,122.606 53.495,122.735 53.446 C 122.864 53.396,123.359 52.882,123.836 52.303 C 124.313 51.724,124.950 50.950,125.251 50.583 C 125.553 50.217,125.976 49.718,126.191 49.474 C 127.141 48.402,128.921 46.252,130.636 44.107 C 130.939 43.728,131.316 43.267,131.472 43.083 C 132.650 41.699,132.852 41.254,132.800 40.152 L 132.750 39.083 90.167 39.055 C 66.746 39.039,47.508 39.053,47.417 39.086 M131.254 40.341 C 131.387 40.555,131.094 40.949,127.849 44.917 C 120.499 53.903,115.867 58.887,110.279 63.817 L 108.314 65.551 107.282 65.296 C 106.714 65.155,104.150 64.500,101.583 63.840 C 99.017 63.179,96.092 62.428,95.083 62.169 C 94.075 61.910,90.618 61.017,87.401 60.183 C 71.596 56.089,63.393 56.323,54.333 61.128 C 42.242 67.540,32.632 83.815,35.218 93.500 C 36.163 97.038,43.567 100.603,47.000 99.172 C 54.315 96.124,63.307 88.473,68.630 80.767 C 69.335 79.746,69.432 79.797,70.369 81.675 C 74.097 89.145,72.260 97.073,65.814 101.331 C 61.635 104.092,59.434 104.241,49.667 102.423 C 46.570 101.846,46.714 101.826,44.373 103.178 C 42.241 104.409,42.158 104.502,42.614 105.171 C 45.401 109.269,53.132 114.814,67.583 123.079 C 69.821 124.359,78.360 129.323,81.500 131.169 C 83.012 132.058,85.438 133.483,86.891 134.336 C 89.016 135.584,89.476 135.917,89.249 136.044 C 88.861 136.261,55.892 136.083,53.167 135.849 C 17.786 132.814,-0.931 114.993,1.837 86.976 C 4.191 63.153,25.253 41.891,48.019 40.354 C 51.179 40.141,131.123 40.128,131.254 40.341 M393.936 65.286 C 393.903 65.319,392.692 65.366,391.244 65.391 C 388.118 65.444,388.079 65.474,387.499 68.250 C 387.422 68.617,387.199 69.367,387.003 69.917 C 386.808 70.467,386.636 71.045,386.622 71.201 C 386.608 71.358,386.563 71.452,386.522 71.411 C 386.289 71.178,386.000 71.805,386.000 72.544 C 386.000 73.256,386.074 73.452,386.498 73.857 L 386.997 74.333 389.655 74.333 C 391.920 74.333,392.986 74.477,392.334 74.694 C 392.242 74.725,392.058 75.268,391.926 75.901 C 391.630 77.314,391.741 77.250,389.597 77.250 C 388.319 77.250,387.850 77.304,387.904 77.445 C 387.997 77.685,387.481 77.906,387.344 77.684 C 387.220 77.483,386.623 77.528,386.463 77.750 C 386.385 77.858,386.226 77.844,386.007 77.708 C 385.822 77.593,385.147 77.500,384.502 77.500 L 383.333 77.500 383.333 76.745 C 383.333 75.992,382.916 75.554,382.417 75.782 C 382.325 75.824,382.396 75.740,382.574 75.596 C 382.751 75.451,383.108 75.333,383.365 75.333 C 383.623 75.333,383.833 75.265,383.833 75.182 C 383.833 75.099,383.982 75.070,384.164 75.118 C 384.547 75.218,384.774 74.762,384.802 73.831 C 384.812 73.509,384.936 72.919,385.077 72.519 C 385.822 70.405,385.225 69.286,383.375 69.328 C 382.893 69.340,382.704 69.335,381.792 69.290 C 381.265 69.263,380.833 69.300,380.833 69.371 C 380.833 69.442,380.317 69.500,379.686 69.500 C 378.504 69.500,378.000 69.816,378.000 70.557 C 378.000 70.687,377.882 70.890,377.738 71.010 C 377.595 71.129,377.511 71.358,377.553 71.518 C 377.601 71.702,377.553 71.779,377.421 71.729 C 377.034 71.580,376.806 74.739,377.177 75.110 C 377.302 75.235,372.668 75.289,361.469 75.293 C 343.119 75.299,342.333 75.313,342.333 75.616 C 342.333 75.756,342.111 75.834,341.708 75.834 C 341.365 75.835,340.864 75.950,340.595 76.090 C 340.326 76.230,339.845 76.386,339.525 76.437 C 339.205 76.488,338.781 76.636,338.583 76.765 C 338.385 76.895,338.173 76.951,338.112 76.889 C 338.050 76.828,337.999 76.884,337.997 77.014 C 337.995 77.208,337.966 77.206,337.833 77.000 C 337.695 76.786,337.671 76.792,337.669 77.042 C 337.668 77.202,337.560 77.333,337.430 77.333 C 337.300 77.333,337.075 77.379,336.930 77.434 C 336.718 77.516,336.667 77.410,336.667 76.888 C 336.667 76.154,336.337 75.583,335.838 75.453 C 335.474 75.358,335.364 75.584,335.708 75.723 C 335.861 75.784,335.854 75.811,335.685 75.820 C 335.558 75.827,335.366 75.714,335.259 75.568 C 335.091 75.337,314.741 75.155,307.250 75.318 C 306.792 75.328,301.103 75.324,294.609 75.310 C 284.652 75.288,282.777 75.320,282.653 75.517 C 282.572 75.645,282.504 75.675,282.502 75.583 C 282.499 75.332,279.773 75.371,279.464 75.628 C 279.037 75.982,277.663 76.300,276.041 76.421 C 275.192 76.484,274.456 76.603,274.406 76.684 C 274.355 76.766,274.074 76.834,273.782 76.834 C 273.489 76.835,273.037 76.946,272.777 77.082 C 272.517 77.218,271.598 77.378,270.735 77.439 C 269.873 77.500,269.167 77.613,269.167 77.691 C 269.167 77.769,269.062 77.833,268.934 77.833 C 268.807 77.833,268.659 77.946,268.606 78.083 C 268.554 78.221,268.438 78.333,268.349 78.333 C 268.261 78.333,267.977 78.420,267.719 78.527 C 267.461 78.633,267.184 78.705,267.104 78.687 C 267.024 78.668,266.830 78.769,266.674 78.910 C 266.518 79.052,266.343 79.121,266.286 79.064 C 266.229 79.007,266.061 79.082,265.913 79.230 C 265.665 79.478,265.307 79.581,264.934 79.512 C 264.601 79.450,263.833 79.706,263.833 79.879 C 263.833 80.181,262.963 81.000,262.641 81.000 C 261.835 81.000,261.738 82.943,262.500 83.833 C 262.775 84.154,262.999 84.543,263.000 84.698 C 263.000 84.854,263.067 85.022,263.149 85.073 C 263.363 85.205,264.000 86.464,264.000 86.755 C 264.000 86.890,264.073 87.000,264.161 87.000 C 264.250 87.000,264.279 87.113,264.226 87.252 C 264.173 87.391,264.206 87.597,264.300 87.710 C 264.642 88.125,264.933 91.567,264.655 91.921 C 264.582 92.015,264.498 92.484,264.469 92.963 C 264.440 93.441,264.360 93.833,264.292 93.833 C 264.223 93.833,264.110 93.841,264.042 93.850 C 263.973 93.860,263.945 93.616,263.979 93.309 C 264.096 92.251,264.100 91.500,263.990 91.500 C 263.929 91.500,263.911 91.331,263.950 91.125 C 264.034 90.675,263.749 88.920,263.405 87.778 C 263.038 86.560,262.048 84.627,261.461 83.985 C 261.208 83.707,261.000 83.442,261.000 83.395 C 261.000 83.189,260.107 82.167,259.927 82.167 C 259.817 82.167,259.420 81.904,259.045 81.583 C 258.670 81.262,258.301 81.000,258.224 80.999 C 258.146 80.998,257.955 80.772,257.798 80.496 C 257.641 80.220,257.416 79.967,257.298 79.933 C 256.160 79.611,255.667 79.428,255.667 79.329 C 255.667 79.265,255.310 79.078,254.875 78.914 C 254.440 78.750,253.683 78.434,253.194 78.213 C 252.705 77.992,252.142 77.800,251.944 77.788 C 251.746 77.776,251.543 77.708,251.493 77.637 C 251.443 77.566,251.218 77.475,250.993 77.433 C 250.768 77.392,250.583 77.346,250.583 77.332 C 250.583 77.307,249.481 77.177,248.792 77.119 C 248.631 77.106,248.500 77.046,248.500 76.986 C 248.500 76.889,247.903 76.773,246.481 76.592 C 246.241 76.561,245.828 76.493,245.564 76.441 C 245.300 76.388,244.708 76.328,244.250 76.307 C 243.792 76.287,243.378 76.215,243.331 76.147 C 243.284 76.080,242.778 76.001,242.206 75.973 C 241.634 75.945,241.167 75.867,241.167 75.799 C 241.167 75.732,241.061 75.718,240.932 75.767 C 240.802 75.817,240.469 75.740,240.191 75.596 C 239.473 75.225,217.968 75.221,217.660 75.592 C 217.552 75.722,217.256 75.798,216.984 75.767 C 216.718 75.736,216.500 75.787,216.500 75.881 C 216.500 75.975,216.347 75.913,216.160 75.744 C 215.687 75.316,214.167 75.284,214.167 75.701 C 214.167 76.142,213.728 76.280,211.918 76.408 C 211.002 76.473,210.177 76.582,210.085 76.650 C 209.992 76.719,209.579 76.795,209.167 76.819 C 208.754 76.844,208.164 76.970,207.856 77.098 C 207.548 77.227,206.967 77.345,206.564 77.360 C 206.162 77.375,205.833 77.463,205.833 77.555 C 205.833 77.647,205.784 77.673,205.724 77.613 C 205.663 77.552,205.513 77.586,205.390 77.689 C 205.219 77.831,205.167 77.811,205.167 77.604 C 205.167 77.455,205.073 77.326,204.958 77.318 C 203.549 77.213,203.500 77.219,203.500 77.507 C 203.500 77.815,203.182 78.000,202.653 78.000 C 202.466 78.000,202.333 78.115,202.333 78.278 C 202.333 78.431,202.283 78.506,202.222 78.444 C 202.161 78.383,202.128 77.862,202.149 77.285 C 202.188 76.207,201.797 75.463,201.340 75.746 C 201.239 75.808,201.179 75.760,201.204 75.637 C 201.241 75.461,200.582 75.408,197.946 75.371 C 195.309 75.335,194.668 75.369,194.770 75.538 C 194.859 75.686,194.811 75.680,194.612 75.518 C 194.346 75.302,183.915 75.192,177.245 75.335 C 175.172 75.380,174.901 75.548,174.639 76.949 C 174.539 77.481,174.391 78.067,174.310 78.250 C 174.230 78.433,174.148 78.790,174.129 79.042 C 174.104 79.364,174.002 79.500,173.786 79.500 C 173.548 79.500,173.490 79.605,173.531 79.958 C 173.561 80.226,173.467 80.533,173.303 80.697 C 173.097 80.903,173.030 81.228,173.053 81.906 C 173.069 82.416,173.015 82.856,172.931 82.884 C 172.749 82.945,172.643 83.387,172.634 84.125 C 172.630 84.423,172.556 84.667,172.468 84.667 C 172.380 84.667,172.331 84.882,172.358 85.146 C 172.386 85.409,172.325 85.728,172.223 85.854 C 172.121 85.980,171.984 86.552,171.919 87.125 C 171.854 87.698,171.728 88.167,171.638 88.167 C 171.549 88.167,171.490 88.335,171.507 88.542 C 171.578 89.427,171.492 89.797,171.194 89.874 C 171.026 89.918,170.880 90.058,170.870 90.185 C 170.860 90.313,170.820 90.621,170.782 90.870 C 170.745 91.120,170.762 91.294,170.821 91.258 C 170.880 91.221,170.929 91.330,170.929 91.500 C 170.929 91.670,170.867 91.771,170.791 91.724 C 170.715 91.677,170.700 91.824,170.757 92.051 C 170.814 92.281,170.780 92.513,170.680 92.575 C 170.581 92.636,170.500 92.882,170.500 93.120 C 170.500 93.359,170.391 93.936,170.257 94.402 C 170.123 94.868,169.918 95.609,169.802 96.047 L 169.591 96.844 168.462 96.802 C 167.841 96.779,167.333 96.706,167.333 96.641 C 167.333 96.318,145.084 96.611,144.862 96.936 C 144.801 97.027,144.469 97.272,144.125 97.481 C 143.781 97.690,143.500 97.929,143.500 98.014 C 143.500 98.098,143.420 98.167,143.323 98.167 C 143.155 98.167,141.912 99.145,141.057 99.951 C 140.842 100.153,140.664 100.265,140.661 100.201 C 140.658 100.136,140.563 100.196,140.450 100.333 C 140.337 100.471,140.063 100.733,139.842 100.917 C 139.487 101.211,140.100 100.256,140.821 99.393 C 140.908 99.288,140.934 99.157,140.879 99.101 C 140.823 99.045,140.865 99.000,140.972 99.000 C 141.079 99.000,141.167 98.894,141.167 98.764 C 141.167 98.634,141.233 98.503,141.315 98.472 C 141.460 98.418,143.000 96.237,143.000 96.086 C 143.000 96.043,143.488 95.254,144.083 94.333 C 144.679 93.412,145.167 92.623,145.167 92.579 C 145.167 92.536,145.298 92.357,145.458 92.183 C 145.872 91.733,146.347 91.027,146.324 90.897 C 146.314 90.837,146.377 90.741,146.466 90.685 C 146.674 90.554,148.193 88.333,148.075 88.333 C 148.027 88.333,148.172 88.133,148.399 87.889 C 148.626 87.644,148.856 87.265,148.911 87.046 C 148.966 86.828,149.233 86.342,149.505 85.966 C 149.777 85.591,150.000 85.216,150.000 85.133 C 150.000 85.050,150.225 84.742,150.499 84.449 C 150.774 84.156,150.999 83.862,150.999 83.795 C 151.001 83.593,152.097 81.950,152.564 81.450 C 152.804 81.193,153.000 80.879,153.000 80.751 C 153.000 80.624,153.080 80.470,153.177 80.410 C 153.274 80.350,153.424 80.139,153.510 79.942 C 153.687 79.536,153.950 79.103,154.375 78.521 C 154.909 77.790,154.744 75.833,154.149 75.833 C 153.975 75.833,153.833 75.739,153.833 75.625 C 153.833 75.355,154.635 75.372,140.723 75.331 C 129.207 75.297,128.206 75.326,128.424 75.678 C 128.477 75.764,128.365 75.833,128.177 75.833 C 127.924 75.833,127.833 75.941,127.833 76.240 C 127.833 76.464,127.766 76.688,127.684 76.739 C 127.602 76.790,127.495 77.113,127.446 77.457 C 127.258 78.778,126.965 80.103,126.754 80.583 C 126.633 80.858,126.480 81.418,126.413 81.827 C 126.347 82.236,126.232 82.686,126.158 82.827 C 125.927 83.269,125.785 83.737,125.767 84.111 C 125.758 84.310,125.694 84.529,125.625 84.597 C 125.556 84.666,125.500 84.977,125.500 85.288 C 125.500 85.622,125.432 85.811,125.333 85.750 C 125.242 85.693,125.167 85.797,125.167 85.980 C 125.167 86.164,125.102 86.354,125.023 86.403 C 124.943 86.452,124.893 86.662,124.911 86.871 C 124.929 87.079,124.836 87.428,124.704 87.646 C 124.573 87.863,124.547 87.990,124.647 87.929 C 124.761 87.858,124.792 87.913,124.731 88.074 C 124.676 88.215,124.552 88.282,124.454 88.222 C 124.343 88.153,124.316 88.215,124.383 88.389 C 124.442 88.542,124.417 88.667,124.328 88.667 C 124.239 88.667,124.167 88.887,124.167 89.157 C 124.167 89.426,124.090 89.694,123.997 89.752 C 123.904 89.809,123.882 89.944,123.948 90.050 C 124.114 90.319,124.138 90.835,123.980 90.738 C 123.812 90.634,123.601 91.754,123.726 92.082 C 123.782 92.227,123.731 92.333,123.606 92.333 C 123.338 92.333,123.313 92.832,123.564 93.157 C 123.711 93.347,123.700 93.367,123.513 93.255 C 123.337 93.148,123.303 93.181,123.381 93.384 C 123.438 93.534,123.419 93.697,123.338 93.747 C 123.256 93.798,123.138 94.269,123.074 94.794 C 122.945 95.853,122.913 96.026,122.704 96.750 C 122.596 97.125,122.438 97.271,122.071 97.334 C 121.621 97.412,121.579 97.480,121.532 98.212 C 121.504 98.649,121.542 98.996,121.616 98.983 C 122.004 98.917,122.087 99.054,122.029 99.667 C 121.994 100.033,121.885 100.333,121.788 100.333 C 121.691 100.333,121.654 100.376,121.707 100.429 C 121.760 100.482,121.726 100.763,121.633 101.054 C 121.540 101.345,121.439 101.771,121.409 102.000 C 121.380 102.229,121.282 102.642,121.192 102.917 C 120.796 104.125,120.663 104.648,120.562 105.383 C 120.494 105.881,120.372 106.167,120.227 106.167 C 120.102 106.167,119.989 106.260,119.975 106.375 C 119.961 106.490,119.941 106.668,119.931 106.771 C 119.920 106.874,119.828 107.137,119.727 107.354 C 119.305 108.255,119.187 108.660,119.321 108.742 C 119.608 108.919,119.421 110.087,119.042 110.494 C 118.791 110.763,118.667 111.103,118.667 111.522 C 118.667 111.866,118.602 112.187,118.522 112.236 C 118.443 112.285,118.400 112.525,118.427 112.770 C 118.454 113.014,118.369 113.322,118.238 113.452 C 118.056 113.635,118.043 113.769,118.184 114.032 C 118.317 114.280,118.317 114.343,118.183 114.260 C 118.025 114.163,117.905 114.849,118.042 115.066 C 118.065 115.102,117.950 115.279,117.787 115.459 C 117.625 115.638,117.481 116.059,117.469 116.393 C 117.456 116.727,117.393 117.000,117.327 117.000 C 117.262 117.000,117.208 117.186,117.208 117.414 C 117.208 117.675,117.277 117.786,117.396 117.715 C 117.499 117.653,117.483 117.726,117.361 117.877 C 117.238 118.028,117.188 118.234,117.250 118.333 C 117.312 118.433,117.271 118.624,117.161 118.757 C 117.050 118.891,116.996 119.000,117.041 119.000 C 117.085 119.000,117.061 119.281,116.986 119.625 C 116.754 120.690,116.516 121.731,116.405 122.167 C 116.347 122.396,116.265 122.808,116.222 123.083 C 116.179 123.358,116.080 123.733,116.001 123.917 C 115.846 124.278,115.696 124.917,115.550 125.833 C 115.499 126.154,115.393 126.458,115.314 126.509 C 115.235 126.559,115.096 126.992,115.005 127.471 C 114.915 127.950,114.764 128.485,114.670 128.660 C 114.577 128.835,114.500 129.135,114.500 129.328 C 114.500 129.520,114.388 129.720,114.250 129.773 C 114.107 129.828,114.000 130.076,114.000 130.351 C 114.000 130.616,113.927 130.833,113.837 130.833 C 113.733 130.833,113.736 130.993,113.844 131.277 C 113.965 131.596,113.957 131.772,113.815 131.902 C 113.668 132.037,113.651 132.020,113.750 131.833 C 113.848 131.648,113.832 131.630,113.687 131.763 C 113.579 131.861,113.458 132.161,113.417 132.429 C 113.298 133.204,113.248 133.405,113.125 133.601 C 112.775 134.161,112.663 134.704,112.917 134.606 C 113.117 134.530,113.141 134.572,113.026 134.795 C 112.945 134.954,112.912 135.177,112.953 135.292 C 112.998 135.416,112.934 135.464,112.795 135.411 C 112.613 135.341,112.568 135.511,112.588 136.203 C 112.623 137.425,112.624 137.426,113.027 137.456 C 113.225 137.471,113.447 137.581,113.521 137.700 C 113.667 137.936,115.026 138.023,115.175 137.805 C 115.226 137.731,120.063 137.668,125.925 137.664 C 131.787 137.660,136.672 137.601,136.781 137.533 C 137.142 137.308,137.679 135.788,137.715 134.889 C 137.734 134.402,137.803 134.002,137.867 134.001 C 137.932 134.001,138.029 133.719,138.084 133.375 C 138.205 132.610,139.062 128.872,139.506 127.167 C 140.373 123.845,140.471 123.421,140.402 123.310 C 140.361 123.244,140.404 123.143,140.497 123.085 C 140.590 123.027,140.667 122.772,140.667 122.518 C 140.667 122.264,140.723 121.999,140.792 121.931 C 140.860 121.862,141.011 121.418,141.127 120.945 C 141.423 119.728,141.449 119.639,141.653 119.111 C 141.754 118.851,141.793 118.570,141.741 118.486 C 141.689 118.402,141.726 118.333,141.823 118.333 C 141.921 118.333,142.002 118.127,142.005 117.875 C 142.009 117.447,142.982 114.386,142.998 114.750 C 143.002 114.842,143.073 114.809,143.157 114.677 C 143.285 114.475,144.309 114.440,149.696 114.456 C 153.209 114.466,158.165 114.480,160.708 114.487 L 165.333 114.500 165.333 114.919 C 165.333 115.149,165.266 115.468,165.183 115.627 C 165.100 115.786,164.953 116.217,164.855 116.583 C 164.758 116.950,164.633 117.419,164.578 117.625 C 164.523 117.831,164.408 118.000,164.322 118.000 C 164.237 118.000,164.166 118.431,164.166 118.958 C 164.166 119.600,164.063 120.085,163.854 120.428 C 163.682 120.709,163.535 121.122,163.527 121.345 C 163.507 121.896,163.434 122.190,163.217 122.583 C 163.001 122.975,163.000 122.979,163.000 123.802 C 163.000 124.211,162.879 124.567,162.661 124.801 C 162.394 125.087,162.358 125.236,162.494 125.489 C 162.610 125.705,162.612 125.848,162.500 125.916 C 162.409 125.973,162.333 126.168,162.333 126.348 C 162.333 126.529,162.221 126.720,162.084 126.773 C 161.947 126.825,161.877 126.935,161.927 127.017 C 161.978 127.100,161.959 127.167,161.884 127.167 C 161.809 127.167,161.667 127.426,161.568 127.743 C 161.469 128.060,161.446 128.284,161.517 128.240 C 161.750 128.095,161.603 128.912,161.363 129.095 C 161.202 129.217,161.154 129.490,161.208 129.961 C 161.260 130.408,161.217 130.676,161.087 130.725 C 160.977 130.768,160.902 130.978,160.921 131.193 C 160.939 131.408,160.883 131.674,160.795 131.786 C 160.707 131.897,160.602 132.422,160.562 132.953 C 160.521 133.483,160.393 133.992,160.277 134.083 C 159.933 134.357,160.081 137.190,160.454 137.464 C 160.687 137.634,163.534 137.668,174.605 137.630 C 190.554 137.576,189.141 137.739,189.000 135.970 C 188.908 134.807,188.939 134.838,187.124 134.091 C 186.689 133.912,186.333 133.697,186.333 133.615 C 186.333 133.532,186.217 133.509,186.075 133.564 C 185.926 133.621,185.859 133.593,185.918 133.498 C 185.974 133.407,185.871 133.333,185.690 133.333 C 185.509 133.333,185.336 133.277,185.306 133.208 C 185.275 133.140,184.875 132.900,184.417 132.675 C 183.958 132.450,183.242 131.963,182.825 131.592 C 182.408 131.220,181.883 130.756,181.658 130.560 C 181.233 130.188,180.251 128.841,180.250 128.628 C 180.250 128.561,180.080 128.387,179.872 128.242 C 179.664 128.096,179.531 127.919,179.575 127.847 C 179.619 127.776,179.512 127.564,179.338 127.376 C 179.163 127.189,179.066 126.990,179.121 126.934 C 179.177 126.879,179.142 126.833,179.044 126.833 C 178.947 126.833,178.777 126.458,178.667 126.000 C 178.557 125.542,178.415 125.167,178.352 125.167 C 178.152 125.167,178.019 120.253,178.204 119.667 C 178.638 118.289,178.810 118.034,178.822 118.750 C 178.870 121.768,178.980 123.695,179.113 123.872 C 179.200 123.988,179.290 124.383,179.314 124.750 C 179.337 125.126,179.474 125.508,179.627 125.625 C 179.775 125.740,179.844 125.833,179.779 125.833 C 179.640 125.833,180.861 128.225,181.042 128.306 C 181.110 128.336,181.167 128.467,181.167 128.597 C 181.167 128.727,181.242 128.833,181.333 128.833 C 181.425 128.833,181.500 128.946,181.500 129.083 C 181.500 129.221,181.556 129.334,181.625 129.334 C 181.694 129.334,181.900 129.560,182.083 129.835 C 182.394 130.303,184.361 132.000,184.592 132.000 C 184.649 132.000,184.954 132.244,185.270 132.542 C 185.585 132.840,185.898 133.078,185.964 133.071 C 186.029 133.064,186.441 133.269,186.878 133.527 C 187.316 133.784,187.856 134.041,188.080 134.097 C 188.303 134.153,188.574 134.305,188.680 134.433 C 188.787 134.562,189.018 134.667,189.194 134.667 C 189.370 134.667,189.675 134.817,189.872 135.000 C 190.085 135.198,190.272 135.266,190.333 135.167 C 190.395 135.068,190.585 135.138,190.802 135.340 C 191.036 135.558,191.168 135.603,191.169 135.465 C 191.171 135.327,191.215 135.312,191.294 135.424 C 191.400 135.574,191.786 135.657,192.625 135.709 C 192.740 135.716,192.833 135.773,192.833 135.836 C 192.833 135.898,193.064 135.956,193.345 135.964 C 193.626 135.972,193.945 136.048,194.053 136.133 C 194.239 136.279,194.957 136.437,196.083 136.582 C 196.646 136.655,196.968 136.734,197.333 136.889 C 197.570 136.990,199.684 137.215,202.833 137.474 C 203.612 137.539,208.514 137.586,213.727 137.579 C 220.312 137.571,223.224 137.622,223.272 137.746 C 223.434 138.169,226.829 138.032,226.995 137.596 C 227.193 137.077,228.050 136.807,230.167 136.598 C 230.396 136.576,230.752 136.502,230.958 136.434 C 231.164 136.366,231.577 136.306,231.875 136.300 C 232.173 136.294,232.496 136.227,232.594 136.150 C 232.691 136.074,233.029 135.975,233.344 135.931 C 233.659 135.888,234.171 135.775,234.482 135.681 C 235.226 135.456,235.333 135.548,235.333 136.415 C 235.333 137.793,235.002 137.750,244.917 137.676 C 262.401 137.545,298.500 137.605,298.500 137.765 C 298.500 138.048,299.884 137.969,300.120 137.672 C 300.231 137.532,300.325 137.469,300.328 137.533 C 300.331 137.597,300.596 137.540,300.917 137.406 C 301.491 137.166,301.500 137.169,301.500 137.570 C 301.500 137.942,301.562 137.975,302.208 137.953 C 302.896 137.929,303.406 137.586,303.214 137.275 C 303.070 137.042,303.532 136.839,304.208 136.836 C 304.552 136.834,304.833 136.774,304.833 136.702 C 304.833 136.630,304.983 136.571,305.167 136.571 C 305.440 136.571,305.500 136.683,305.500 137.184 C 305.500 138.320,307.043 138.015,307.097 136.869 C 307.136 136.040,307.118 136.075,307.529 136.044 C 307.728 136.029,308.085 135.938,308.321 135.842 C 308.557 135.746,308.975 135.643,309.250 135.614 C 309.525 135.584,309.919 135.469,310.125 135.358 C 310.331 135.246,310.500 135.210,310.500 135.277 C 310.500 135.345,310.590 135.310,310.700 135.200 C 310.810 135.090,311.027 135.000,311.182 135.000 C 311.337 135.000,311.509 134.883,311.564 134.739 C 311.619 134.596,311.740 134.526,311.832 134.583 C 311.924 134.640,312.000 134.619,312.000 134.538 C 312.000 134.456,312.094 134.377,312.208 134.363 C 312.960 134.268,313.155 134.202,313.395 133.962 C 313.544 133.813,314.097 133.448,314.624 133.149 C 315.152 132.850,315.621 132.562,315.667 132.509 C 315.712 132.457,316.050 132.214,316.417 131.970 C 316.783 131.727,317.290 131.352,317.543 131.139 C 317.796 130.925,318.291 130.525,318.643 130.250 C 318.995 129.975,319.528 129.431,319.827 129.042 C 320.394 128.305,320.667 128.156,320.667 128.583 C 320.667 128.771,320.867 128.833,321.472 128.833 C 322.480 128.833,322.469 128.848,322.303 127.794 C 322.081 126.375,322.085 126.276,322.387 125.708 C 322.546 125.410,322.637 125.167,322.591 125.167 C 322.545 125.167,322.731 124.814,323.004 124.384 C 323.277 123.954,323.500 123.513,323.500 123.404 C 323.500 123.296,323.612 123.114,323.750 123.000 C 323.887 122.886,324.000 122.614,324.000 122.396 C 324.000 122.178,324.066 122.000,324.147 122.000 C 324.302 122.000,324.507 121.477,324.571 120.917 C 324.592 120.733,324.658 120.471,324.716 120.333 C 325.263 119.051,325.476 117.955,325.574 115.917 C 325.610 115.183,325.691 114.449,325.756 114.286 C 326.133 113.332,325.231 107.432,324.654 107.075 C 324.577 107.028,324.551 106.893,324.596 106.776 C 324.642 106.658,324.526 106.424,324.339 106.255 C 324.153 106.086,324.000 105.862,324.000 105.757 C 324.000 105.455,321.863 103.466,320.667 102.653 C 320.071 102.248,319.414 101.748,319.208 101.542 C 319.002 101.335,318.682 101.167,318.498 101.167 C 318.313 101.167,318.032 101.098,317.873 101.014 C 317.497 100.815,315.827 100.330,315.315 100.271 C 315.096 100.245,314.804 100.183,314.667 100.132 C 314.131 99.934,313.052 99.679,312.417 99.601 C 312.050 99.556,311.292 99.440,310.732 99.343 C 310.172 99.246,309.235 99.131,308.649 99.087 C 308.063 99.043,307.208 98.935,306.750 98.847 C 306.265 98.754,300.512 98.683,293.004 98.678 C 280.480 98.668,278.088 98.610,277.902 98.310 C 277.853 98.231,277.674 98.167,277.502 98.167 C 276.320 98.167,276.400 96.208,277.618 95.328 C 277.931 95.102,278.295 94.818,278.427 94.696 C 278.559 94.575,278.667 94.528,278.667 94.591 C 278.667 94.654,278.836 94.594,279.042 94.459 C 279.764 93.986,280.862 93.949,297.250 93.837 C 312.905 93.730,314.214 93.689,316.000 93.250 C 316.229 93.193,316.529 93.120,316.667 93.086 C 316.804 93.053,317.142 93.019,317.417 93.010 C 317.803 92.998,317.860 92.958,317.667 92.833 C 317.516 92.736,317.496 92.671,317.615 92.669 C 317.724 92.668,317.867 92.753,317.932 92.859 C 318.018 92.998,318.101 92.987,318.236 92.817 C 318.490 92.495,319.448 91.833,319.660 91.833 C 319.755 91.833,319.843 92.171,319.854 92.583 C 319.866 92.996,319.884 93.427,319.896 93.542 C 319.912 93.705,322.171 93.759,330.453 93.793 C 341.510 93.838,341.611 93.845,340.645 94.505 C 340.574 94.554,340.496 94.878,340.473 95.225 C 340.449 95.573,340.359 95.901,340.273 95.954 C 340.186 96.008,340.169 95.965,340.234 95.859 C 340.299 95.753,340.265 95.667,340.157 95.667 C 340.039 95.667,339.992 95.829,340.040 96.078 C 340.083 96.303,340.047 96.512,339.959 96.541 C 339.872 96.571,339.789 97.053,339.775 97.613 C 339.761 98.173,339.705 98.604,339.650 98.571 C 339.484 98.471,339.113 100.279,339.254 100.506 C 339.335 100.637,339.318 100.677,339.209 100.610 C 339.100 100.542,338.996 100.800,338.933 101.292 C 338.755 102.693,338.730 102.795,338.470 103.192 C 338.329 103.407,338.177 104.030,338.132 104.575 C 338.087 105.120,337.964 105.595,337.859 105.630 C 337.753 105.666,337.667 105.861,337.667 106.064 C 337.667 106.267,337.603 106.505,337.526 106.592 C 337.448 106.679,337.291 107.500,337.176 108.417 C 337.062 109.333,336.908 110.158,336.835 110.250 C 336.763 110.342,336.654 110.842,336.595 111.363 C 336.535 111.883,336.370 112.542,336.228 112.828 C 336.086 113.113,336.012 113.459,336.065 113.596 C 336.118 113.735,336.051 113.888,335.914 113.941 C 335.778 113.993,335.667 114.217,335.667 114.440 C 335.667 114.662,335.562 114.884,335.435 114.933 C 335.287 114.989,335.160 115.426,335.085 116.136 C 335.020 116.749,334.897 117.336,334.811 117.441 C 334.660 117.625,334.410 118.827,334.217 120.292 C 334.165 120.681,334.058 121.000,333.978 121.000 C 333.899 121.000,333.833 121.189,333.833 121.419 C 333.833 121.649,333.758 121.987,333.667 122.169 C 333.575 122.351,333.425 122.649,333.333 122.831 C 333.242 123.013,333.166 123.294,333.164 123.456 C 333.163 123.618,333.054 124.050,332.921 124.417 C 332.789 124.783,332.678 125.551,332.674 126.123 C 332.667 127.158,332.426 128.490,332.147 129.039 C 332.066 129.199,332.000 129.588,332.000 129.905 C 332.000 130.221,331.935 130.520,331.856 130.569 C 331.777 130.618,331.669 130.942,331.616 131.288 C 331.519 131.926,331.472 132.124,331.178 133.167 C 331.088 133.487,330.898 134.160,330.757 134.661 C 330.404 135.913,330.423 136.923,330.807 137.307 C 331.114 137.614,352.517 137.854,353.618 137.562 C 353.993 137.463,354.448 136.488,354.261 136.184 C 354.208 136.099,354.239 136.003,354.329 135.973 C 354.471 135.924,354.590 135.484,354.930 133.750 C 354.966 133.567,355.040 133.192,355.094 132.917 C 355.148 132.642,355.255 132.267,355.332 132.083 C 355.410 131.900,355.517 131.525,355.571 131.250 C 355.862 129.762,356.947 125.835,357.040 125.929 C 357.100 125.989,357.129 125.824,357.104 125.561 C 357.079 125.298,357.131 124.988,357.219 124.872 C 357.307 124.756,357.392 124.531,357.407 124.372 C 357.434 124.092,357.703 123.403,358.029 122.775 C 358.118 122.606,358.152 122.430,358.106 122.383 C 358.059 122.337,358.100 122.101,358.195 121.858 C 358.291 121.615,358.406 121.154,358.451 120.833 C 358.496 120.513,358.657 120.111,358.808 119.941 C 359.108 119.604,359.203 118.428,358.968 117.958 C 358.881 117.785,358.885 117.667,358.977 117.667 C 359.063 117.667,359.167 117.348,359.208 116.958 C 359.250 116.569,359.440 115.650,359.632 114.917 C 359.823 114.183,360.028 113.247,360.087 112.837 C 360.146 112.426,360.230 112.033,360.273 111.962 C 360.317 111.892,360.388 111.666,360.432 111.459 C 360.476 111.252,360.589 110.746,360.683 110.333 C 360.778 109.921,360.894 109.358,360.941 109.083 C 360.989 108.808,361.129 108.358,361.252 108.083 C 361.375 107.808,361.500 107.283,361.529 106.917 C 361.559 106.550,361.712 106.107,361.869 105.933 C 362.026 105.759,362.115 105.552,362.066 105.473 C 362.018 105.394,362.095 105.094,362.239 104.806 C 362.554 104.173,362.561 104.111,362.292 104.272 C 362.153 104.356,362.161 104.302,362.315 104.112 C 362.442 103.956,362.559 103.697,362.576 103.539 C 362.592 103.380,362.688 103.058,362.787 102.822 C 362.887 102.587,362.990 102.137,363.017 101.822 C 363.044 101.508,363.174 101.120,363.306 100.961 C 363.438 100.802,363.582 100.202,363.625 99.628 C 363.669 99.053,363.759 98.546,363.827 98.500 C 363.894 98.454,363.936 98.248,363.919 98.042 C 363.903 97.835,363.943 97.667,364.010 97.667 C 364.077 97.667,364.176 97.550,364.230 97.408 C 364.287 97.260,364.259 97.193,364.165 97.251 C 364.074 97.307,364.000 97.274,364.000 97.177 C 364.000 97.079,364.066 97.000,364.147 97.000 C 364.228 97.000,364.302 96.719,364.312 96.375 C 364.322 96.031,364.358 95.638,364.392 95.500 C 364.426 95.362,364.511 94.931,364.581 94.542 L 364.709 93.833 369.230 93.819 C 371.716 93.812,373.900 93.777,374.083 93.743 C 374.267 93.708,374.829 93.596,375.333 93.494 C 375.837 93.392,376.344 93.302,376.458 93.293 C 376.573 93.285,376.667 93.222,376.667 93.154 C 376.667 93.087,376.806 93.068,376.976 93.112 C 377.301 93.197,379.000 92.251,379.000 91.986 C 379.000 91.902,379.079 91.833,379.176 91.833 C 379.274 91.833,379.694 91.515,380.110 91.125 C 381.588 89.743,381.774 89.576,382.570 88.917 C 383.013 88.550,383.897 87.744,384.534 87.125 C 385.171 86.506,385.743 85.998,385.805 85.995 C 385.866 85.992,386.454 85.485,387.110 84.870 C 387.766 84.254,388.629 83.490,389.027 83.173 C 389.425 82.856,390.117 82.237,390.565 81.798 C 391.014 81.359,391.413 81.000,391.452 81.000 C 391.492 81.000,391.644 80.880,391.791 80.733 C 392.024 80.500,392.533 80.473,395.748 80.524 C 400.392 80.599,400.000 80.887,400.000 77.401 C 400.000 75.958,399.965 74.813,399.922 74.856 C 399.879 74.898,399.587 75.830,399.272 76.925 L 398.700 78.917 395.975 79.025 C 393.135 79.137,392.542 79.046,392.756 78.529 C 392.820 78.375,393.006 77.762,393.171 77.167 C 393.335 76.571,393.645 75.558,393.860 74.917 L 394.250 73.750 396.083 73.646 C 397.092 73.589,398.385 73.533,398.958 73.521 L 400.000 73.500 400.000 72.777 L 400.000 72.055 399.237 72.123 C 398.505 72.188,398.185 71.718,398.697 71.330 C 398.760 71.283,398.839 71.042,398.872 70.795 C 398.905 70.548,398.985 70.293,399.049 70.229 C 399.114 70.164,399.167 69.979,399.167 69.817 C 399.167 69.656,399.260 69.425,399.375 69.304 C 399.490 69.182,399.609 68.896,399.639 68.667 C 399.670 68.438,399.764 68.179,399.848 68.092 C 400.227 67.697,399.918 65.726,399.435 65.460 C 399.117 65.284,394.097 65.126,393.936 65.286 M398.374 66.763 C 398.428 66.816,398.303 67.360,398.097 67.972 C 397.891 68.583,397.507 69.871,397.244 70.833 C 396.980 71.796,396.686 72.638,396.590 72.706 C 396.245 72.949,387.833 72.856,387.833 72.609 C 387.833 72.486,387.986 71.943,388.172 71.401 C 388.359 70.860,388.705 69.704,388.941 68.833 C 389.598 66.415,389.013 66.667,393.978 66.667 C 396.343 66.667,398.321 66.710,398.374 66.763 M383.656 71.208 C 383.650 71.415,383.441 72.108,383.190 72.750 L 382.735 73.917 380.756 73.964 C 378.200 74.025,378.261 74.160,379.502 71.208 C 379.653 70.849,379.743 70.833,381.663 70.833 C 383.633 70.833,383.666 70.840,383.656 71.208 M105.711 75.470 L 105.343 75.750 105.306 87.250 C 105.286 93.575,105.285 99.875,105.305 101.250 C 105.351 104.364,105.593 104.106,102.500 104.234 C 96.209 104.493,93.838 104.656,93.462 104.855 C 93.103 105.046,92.995 136.509,93.352 136.939 C 93.558 137.187,97.573 137.275,97.942 137.039 C 98.175 136.890,98.914 135.275,99.066 134.583 C 99.126 134.308,99.430 133.446,99.740 132.667 C 100.384 131.050,100.309 131.253,101.281 128.500 C 101.685 127.354,102.044 126.304,102.078 126.167 C 102.112 126.029,102.259 125.635,102.405 125.292 C 102.552 124.948,102.624 124.667,102.566 124.667 C 102.509 124.667,102.569 124.498,102.700 124.292 C 102.830 124.085,103.106 123.429,103.312 122.833 C 103.518 122.237,103.751 121.600,103.830 121.417 C 103.909 121.233,104.099 120.708,104.253 120.250 C 104.406 119.792,104.640 119.212,104.773 118.962 C 104.905 118.713,105.012 118.450,105.009 118.379 C 105.002 118.204,105.157 117.657,105.328 117.250 C 105.654 116.473,106.313 114.684,106.586 113.833 C 106.747 113.329,107.046 112.542,107.249 112.083 C 107.451 111.625,107.899 110.388,108.243 109.333 C 108.588 108.279,108.926 107.342,108.996 107.250 C 109.065 107.158,109.165 106.896,109.217 106.667 C 109.269 106.438,109.660 105.275,110.085 104.083 C 110.511 102.892,110.898 101.767,110.946 101.583 C 110.994 101.400,111.146 100.997,111.284 100.687 C 111.423 100.378,111.550 100.040,111.568 99.937 C 111.585 99.834,111.680 99.600,111.778 99.417 C 111.939 99.116,112.389 97.872,112.411 97.667 C 112.423 97.561,112.805 96.573,113.088 95.917 C 113.207 95.642,113.471 94.854,113.676 94.167 C 113.881 93.479,114.186 92.617,114.354 92.250 C 114.646 91.615,115.637 88.817,115.727 88.373 C 115.751 88.258,115.859 88.074,115.968 87.965 C 116.077 87.856,116.167 87.641,116.167 87.487 C 116.167 87.333,116.282 86.932,116.422 86.596 C 116.562 86.260,116.633 85.914,116.579 85.826 C 116.525 85.738,116.548 85.667,116.630 85.667 C 116.751 85.667,117.065 84.897,117.260 84.125 C 117.277 84.056,117.310 83.962,117.333 83.917 C 117.356 83.871,117.389 83.777,117.406 83.708 C 117.423 83.640,117.564 83.293,117.718 82.938 C 117.873 82.583,118.000 82.167,118.000 82.013 C 118.000 81.859,118.064 81.662,118.141 81.575 C 118.365 81.325,119.173 79.000,119.038 78.997 C 118.971 78.996,118.992 78.940,119.084 78.872 C 119.656 78.454,119.888 75.891,119.391 75.479 C 119.118 75.253,108.168 75.113,108.167 75.336 C 108.166 75.472,106.260 75.451,106.164 75.313 C 106.117 75.245,105.913 75.316,105.711 75.470 M118.143 76.652 C 118.285 76.740,117.945 77.854,116.939 80.595 C 116.169 82.697,115.046 85.804,114.445 87.500 C 113.843 89.196,113.053 91.408,112.689 92.417 C 112.325 93.425,111.688 95.188,111.275 96.333 C 110.861 97.479,109.949 99.992,109.248 101.917 C 108.547 103.842,107.687 106.242,107.337 107.250 C 106.434 109.850,105.289 113.025,104.694 114.583 C 104.414 115.317,103.509 117.792,102.682 120.083 C 101.856 122.375,100.957 124.850,100.685 125.583 C 100.413 126.317,99.814 127.967,99.355 129.250 C 98.486 131.678,97.679 133.911,97.233 135.125 L 96.972 135.833 95.744 135.833 L 94.515 135.833 94.417 135.292 C 94.276 134.514,94.393 106.218,94.537 106.074 C 94.603 106.008,97.287 105.833,100.502 105.685 C 105.309 105.464,106.374 105.372,106.504 105.167 C 106.600 105.014,106.663 99.405,106.664 90.799 L 106.667 76.681 107.958 76.627 C 110.609 76.516,117.952 76.534,118.143 76.652 M153.176 76.943 C 153.376 77.143,152.768 78.194,150.157 82.167 C 149.524 83.129,148.615 84.554,148.138 85.333 C 147.660 86.112,146.290 88.228,145.093 90.035 C 143.896 91.842,141.604 95.326,140.000 97.776 C 138.396 100.227,136.108 103.697,134.917 105.486 C 133.725 107.275,132.600 108.966,132.417 109.244 L 132.085 109.750 132.584 109.361 C 132.859 109.147,134.171 107.982,135.500 106.773 C 139.424 103.204,143.299 99.905,144.996 98.690 L 146.076 97.917 158.402 97.833 L 170.729 97.750 171.120 96.250 C 171.793 93.667,173.432 87.116,174.676 82.034 C 175.334 79.349,175.980 77.043,176.113 76.911 C 176.318 76.706,178.062 76.672,187.968 76.681 C 202.190 76.694,202.245 76.701,199.014 78.093 C 191.942 81.140,187.184 85.171,184.667 90.250 C 183.341 92.924,182.384 96.086,180.582 103.750 C 179.634 107.778,177.979 114.610,177.453 116.667 C 176.680 119.687,176.612 120.232,176.720 122.550 C 177.003 128.647,180.721 133.447,186.750 135.498 C 189.338 136.378,186.344 136.564,171.055 136.473 C 165.815 136.442,161.468 136.357,161.395 136.284 C 161.291 136.180,163.189 128.130,163.840 125.917 C 163.979 125.443,164.248 124.382,166.175 116.680 C 166.620 114.900,166.946 113.381,166.899 113.305 C 166.790 113.128,141.986 113.128,141.707 113.305 C 141.592 113.378,141.244 114.520,140.933 115.844 C 140.622 117.167,140.205 118.850,140.007 119.583 C 139.514 121.409,138.729 124.493,138.628 125.000 C 138.583 125.229,138.094 127.179,137.541 129.333 C 136.989 131.487,136.406 133.887,136.245 134.667 C 135.830 136.683,136.928 136.500,125.229 136.500 C 114.808 136.500,114.020 136.456,114.240 135.882 C 114.380 135.517,118.568 118.806,123.002 100.917 C 124.934 93.125,126.666 86.150,126.852 85.417 C 128.320 79.632,128.816 77.629,128.863 77.299 C 128.906 76.994,129.051 76.897,129.583 76.818 C 130.920 76.622,152.971 76.738,153.176 76.943 M335.088 76.900 C 335.334 77.080,334.988 77.414,332.310 79.583 C 330.627 80.946,328.800 82.428,328.250 82.876 C 327.700 83.325,326.125 84.598,324.750 85.706 C 323.375 86.814,321.725 88.187,321.083 88.756 C 318.831 90.754,316.845 91.689,313.452 92.349 C 311.920 92.648,310.878 92.667,296.191 92.667 C 285.596 92.667,280.243 92.725,279.572 92.849 C 275.389 93.620,273.511 97.908,276.720 99.360 L 277.583 99.750 291.500 99.853 C 300.063 99.916,305.865 100.024,306.583 100.135 C 307.225 100.234,308.624 100.431,309.693 100.574 C 321.988 102.219,326.495 108.282,323.408 119.027 C 320.083 130.599,310.341 136.120,293.000 136.258 C 278.188 136.376,236.843 136.399,236.733 136.289 C 236.507 136.062,236.884 135.866,238.583 135.327 C 243.764 133.683,249.594 130.775,254.065 127.605 C 254.992 126.948,256.387 125.984,257.167 125.463 C 257.946 124.941,259.474 123.799,260.562 122.924 L 262.541 121.333 280.062 121.332 C 291.306 121.331,297.963 121.269,298.644 121.159 C 302.822 120.481,304.766 116.027,301.654 114.263 L 300.750 113.751 284.833 113.750 C 267.600 113.750,268.073 113.771,264.003 112.819 C 261.472 112.226,261.525 112.410,262.657 108.083 C 263.040 106.617,263.642 104.142,263.994 102.583 C 264.346 101.025,264.959 98.400,265.356 96.750 C 266.294 92.847,266.393 89.040,265.613 86.858 C 265.164 85.603,263.785 82.926,263.495 82.747 C 263.165 82.543,263.351 82.184,263.958 81.856 C 266.070 80.715,269.108 79.465,271.167 78.891 C 273.964 78.111,277.514 77.334,278.279 77.333 C 278.570 77.333,279.170 77.256,279.612 77.161 C 281.898 76.670,334.436 76.423,335.088 76.900 M381.866 76.853 C 382.027 76.953,382.009 77.158,381.785 77.782 C 381.628 78.223,381.499 78.640,381.499 78.708 C 381.500 78.777,383.637 78.833,386.250 78.833 C 390.190 78.833,391.000 78.873,391.000 79.065 C 391.000 79.292,389.738 80.473,385.992 83.750 C 384.944 84.667,383.636 85.835,383.085 86.346 C 376.480 92.475,376.390 92.515,368.667 92.624 C 365.962 92.662,363.691 92.749,363.619 92.819 C 363.548 92.888,363.308 93.801,363.086 94.847 C 362.643 96.940,361.177 102.945,359.875 108.000 C 359.031 111.277,357.868 116.035,357.084 119.417 C 354.831 129.137,352.866 136.240,352.394 136.369 C 351.853 136.518,332.796 136.532,332.190 136.384 C 331.700 136.264,331.667 136.477,333.006 131.167 C 334.751 124.245,337.397 113.593,337.746 112.083 C 338.084 110.623,339.304 105.800,341.888 95.714 C 342.292 94.136,342.583 92.805,342.534 92.756 C 342.485 92.707,337.661 92.667,331.815 92.667 C 324.388 92.667,321.153 92.612,321.075 92.487 C 320.949 92.282,322.066 91.190,323.685 89.936 C 324.291 89.467,325.754 88.283,326.935 87.304 C 328.117 86.325,330.208 84.626,331.583 83.528 C 332.958 82.430,334.796 80.949,335.667 80.238 C 338.537 77.892,340.993 76.998,345.000 76.841 C 348.895 76.688,381.616 76.699,381.866 76.853 M239.917 77.180 C 255.439 78.708,262.500 83.552,262.500 92.671 C 262.500 95.082,262.136 96.908,259.727 106.583 C 259.499 107.500,259.052 109.375,258.734 110.750 C 255.489 124.778,243.929 133.477,225.527 135.738 C 219.960 136.422,206.709 136.531,201.667 135.933 C 184.722 133.925,177.841 126.950,181.016 115.000 C 182.410 109.756,182.729 108.519,183.426 105.667 C 183.841 103.971,184.478 101.282,184.841 99.692 C 188.033 85.742,197.534 79.062,216.750 77.260 C 219.738 76.979,237.267 76.919,239.917 77.180 M188.288 87.833 C 188.274 88.017,188.170 88.167,188.056 88.167 C 187.943 88.167,187.773 88.298,187.680 88.458 C 187.587 88.619,187.508 88.657,187.505 88.543 C 187.501 88.369,188.138 87.500,188.270 87.500 C 188.293 87.500,188.301 87.650,188.288 87.833 M186.167 91.250 C 186.070 91.505,185.952 91.675,185.906 91.628 C 185.859 91.581,185.911 91.346,186.021 91.104 C 186.281 90.534,186.395 90.649,186.167 91.250 M207.491 90.978 C 204.116 92.067,202.952 93.546,201.740 98.288 C 201.323 99.917,200.529 102.975,199.975 105.083 C 199.421 107.192,198.868 109.367,198.746 109.917 C 198.623 110.467,198.098 112.604,197.577 114.667 C 196.104 120.506,196.453 122.014,199.500 122.964 C 200.920 123.407,225.311 123.391,228.154 122.945 C 233.031 122.180,237.366 119.992,239.060 117.441 C 240.116 115.850,241.036 113.625,240.708 113.455 C 240.428 113.310,237.361 113.638,236.619 113.893 C 235.661 114.222,208.782 114.321,208.581 113.996 C 208.393 113.691,209.165 111.667,209.472 111.660 C 209.625 111.656,215.487 111.659,222.500 111.666 C 236.578 111.680,237.099 111.650,238.941 110.749 C 241.483 109.504,242.154 108.544,242.994 104.953 C 243.684 102.003,243.757 102.129,241.640 102.605 C 238.994 103.200,237.995 103.281,237.732 102.920 C 237.564 102.691,237.411 102.656,237.050 102.762 C 236.180 103.017,211.667 103.037,211.667 102.782 C 211.667 102.383,212.203 100.923,212.444 100.667 C 212.649 100.449,214.481 100.414,226.812 100.398 L 240.946 100.380 242.147 99.749 C 246.294 97.570,246.331 92.671,242.211 91.113 L 241.250 90.750 224.833 90.715 C 209.450 90.682,208.358 90.699,207.491 90.978 M213.750 92.154 C 213.750 92.246,238.627 92.179,238.858 92.087 C 239.009 92.027,239.178 92.050,239.233 92.140 C 239.289 92.229,239.476 92.265,239.650 92.219 C 239.824 92.174,240.142 92.234,240.358 92.352 C 240.574 92.470,240.900 92.591,241.083 92.620 C 241.267 92.650,241.735 92.822,242.123 93.003 C 242.512 93.185,242.887 93.335,242.957 93.338 C 243.026 93.340,243.215 93.627,243.375 93.976 C 244.061 95.465,243.543 96.712,241.575 98.309 C 240.697 99.021,231.132 99.269,219.067 98.892 C 216.875 98.823,215.514 98.842,215.453 98.942 C 215.330 99.140,214.167 99.021,214.167 98.811 C 214.167 98.727,214.429 98.688,214.750 98.723 C 215.071 98.758,215.333 98.729,215.333 98.657 C 215.333 98.585,215.557 98.477,215.831 98.417 C 217.416 98.069,216.722 94.619,214.998 94.275 C 213.367 93.948,211.667 94.502,211.667 95.359 C 211.667 95.841,211.410 95.719,211.369 95.218 C 211.258 93.884,207.883 92.878,206.486 93.762 C 206.356 93.844,206.194 93.913,206.125 93.914 C 205.924 93.918,204.802 94.858,204.891 94.947 C 204.994 95.049,204.474 95.667,204.286 95.667 C 203.464 95.667,206.290 93.224,207.750 92.672 C 208.300 92.464,208.862 92.239,208.998 92.172 C 209.202 92.071,213.750 92.054,213.750 92.154 M209.381 95.335 C 210.940 96.561,208.704 99.478,206.711 98.820 C 204.696 98.156,205.913 95.000,208.184 95.000 C 208.704 95.000,209.094 95.109,209.381 95.335 M214.468 95.847 C 215.707 96.279,215.122 97.333,213.643 97.333 C 212.688 97.333,212.516 97.109,212.901 96.363 C 213.267 95.656,213.602 95.545,214.468 95.847 M204.566 99.212 C 205.966 101.048,209.097 100.804,210.809 98.726 L 211.311 98.118 211.820 98.546 L 212.329 98.975 211.837 99.082 C 210.666 99.340,209.542 103.351,210.401 104.210 C 210.629 104.439,222.215 104.568,238.667 104.527 C 239.959 104.524,240.646 104.450,241.292 104.246 C 241.676 104.125,241.871 104.688,241.519 104.905 C 241.438 104.955,241.320 105.269,241.257 105.603 C 241.114 106.366,240.399 108.000,240.208 108.000 C 240.130 108.000,239.788 108.254,239.449 108.564 C 239.110 108.874,238.833 109.101,238.833 109.067 C 238.833 109.033,238.590 109.154,238.292 109.335 C 237.994 109.517,237.625 109.666,237.472 109.666 C 237.319 109.666,237.169 109.737,237.139 109.824 C 237.028 110.138,235.848 110.165,222.286 110.172 C 206.684 110.179,208.073 110.050,207.645 111.532 C 207.532 111.927,207.340 112.398,207.219 112.579 C 206.941 112.997,206.933 114.847,207.208 115.214 C 207.411 115.484,235.853 115.694,236.917 115.433 C 237.100 115.388,237.512 115.272,237.832 115.176 C 238.573 114.952,238.580 114.953,238.339 115.243 C 238.229 115.376,238.194 115.575,238.261 115.685 C 238.335 115.804,238.314 115.841,238.210 115.777 C 238.056 115.682,237.806 116.018,237.764 116.374 C 237.676 117.139,234.068 119.833,233.132 119.833 C 232.936 119.833,232.658 119.933,232.513 120.055 C 231.808 120.650,229.137 121.326,226.167 121.664 C 224.609 121.840,202.263 121.906,201.205 121.737 C 199.069 121.395,197.846 120.054,198.248 118.493 C 198.377 117.993,198.509 117.380,198.541 117.131 C 198.652 116.257,198.833 116.455,198.833 117.452 C 198.833 120.379,202.388 121.911,204.470 119.881 C 204.591 119.763,204.762 119.667,204.849 119.667 C 205.066 119.667,206.011 118.152,205.903 117.978 C 205.855 117.900,205.943 117.886,206.099 117.946 C 206.605 118.140,206.333 115.833,205.761 115.083 C 204.290 113.154,200.297 113.485,199.182 115.628 C 199.073 115.837,199.030 116.080,199.085 116.170 C 199.141 116.260,199.108 116.333,199.013 116.333 C 198.821 116.333,198.956 114.867,199.174 114.583 C 199.245 114.492,199.356 114.042,199.422 113.583 C 199.488 113.125,199.598 112.675,199.666 112.583 C 199.734 112.492,199.887 112.004,200.005 111.500 C 200.199 110.677,200.259 110.364,200.393 109.497 C 200.415 109.358,200.474 109.170,200.524 109.080 C 200.574 108.990,200.713 108.542,200.832 108.083 C 201.157 106.836,201.333 106.802,201.333 107.986 C 201.333 110.101,202.146 110.833,204.492 110.833 C 206.291 110.833,206.764 110.647,207.805 109.527 C 208.202 109.099,208.485 108.883,208.434 109.046 C 208.133 110.001,211.658 110.336,213.117 109.491 C 214.476 108.704,214.604 106.906,213.398 105.560 C 213.016 105.134,209.492 104.942,209.250 105.333 C 209.074 105.619,208.868 105.522,208.186 104.833 C 207.706 104.348,207.389 104.167,207.023 104.167 C 206.746 104.167,206.473 104.092,206.417 104.000 C 206.360 103.908,205.796 103.833,205.164 103.833 C 203.621 103.833,202.412 104.581,201.658 106.000 C 201.192 106.877,201.248 106.487,201.934 104.082 C 202.065 103.623,202.206 103.023,202.248 102.749 C 202.290 102.474,202.396 101.987,202.484 101.667 C 203.177 99.139,203.379 98.347,203.453 97.875 C 203.499 97.577,203.608 97.333,203.695 97.333 C 203.782 97.333,203.807 97.258,203.750 97.167 C 203.693 97.075,203.708 96.906,203.782 96.792 C 203.862 96.667,203.956 96.992,204.014 97.600 C 204.086 98.350,204.230 98.773,204.566 99.212 M183.369 99.292 C 183.328 99.819,183.197 100.362,183.079 100.500 C 182.961 100.638,182.826 100.938,182.780 101.167 C 182.720 101.462,182.701 101.414,182.714 101.000 C 182.724 100.679,182.799 100.326,182.881 100.216 C 182.962 100.105,182.984 99.941,182.928 99.852 C 182.873 99.763,182.904 99.643,182.997 99.585 C 183.090 99.527,183.167 99.272,183.167 99.018 C 183.167 98.638,183.278 98.333,183.416 98.333 C 183.432 98.333,183.410 98.765,183.369 99.292 M262.830 101.396 C 262.683 101.538,262.658 101.422,262.728 100.917 C 262.853 100.018,262.875 99.992,262.955 100.646 C 262.993 100.956,262.937 101.293,262.830 101.396 M182.667 102.083 C 182.667 102.313,182.592 102.500,182.500 102.500 C 182.314 102.500,182.272 101.951,182.444 101.778 C 182.628 101.594,182.667 101.647,182.667 102.083 M262.667 102.239 C 262.667 102.360,262.552 102.555,262.411 102.671 C 262.188 102.856,262.176 102.830,262.317 102.459 C 262.406 102.225,262.427 101.977,262.364 101.907 C 262.301 101.837,262.344 101.834,262.458 101.900 C 262.573 101.966,262.667 102.119,262.667 102.239 M262.350 104.026 C 262.290 104.319,262.153 104.588,262.045 104.624 C 261.850 104.689,261.865 104.353,262.088 103.651 C 262.253 103.133,262.470 103.443,262.350 104.026 M181.962 105.122 C 181.860 105.781,181.686 106.354,181.576 106.396 C 181.367 106.477,181.465 105.833,181.870 104.458 C 182.140 103.540,182.171 103.767,181.962 105.122 M261.927 105.742 C 261.864 106.159,261.761 106.500,261.698 106.500 C 261.552 106.500,261.590 105.511,261.752 105.118 C 261.957 104.618,262.047 104.940,261.927 105.742 M206.488 105.577 C 208.174 106.449,206.532 109.500,204.377 109.500 C 204.066 109.500,203.659 109.332,203.358 109.079 C 201.507 107.521,204.270 104.430,206.488 105.577 M212.238 106.762 C 213.027 107.551,212.083 108.551,210.629 108.467 C 209.784 108.419,209.748 108.397,209.700 107.908 C 209.587 106.748,211.404 105.928,212.238 106.762 M181.430 107.570 C 181.370 107.892,181.264 108.190,181.196 108.232 C 181.038 108.330,181.074 107.515,181.246 107.118 C 181.445 106.656,181.552 106.919,181.430 107.570 M261.540 107.752 C 261.496 107.983,261.394 108.212,261.313 108.262 C 261.233 108.312,261.167 108.569,261.167 108.833 C 261.167 109.098,261.092 109.360,261.000 109.417 C 260.781 109.552,260.788 109.025,261.015 108.317 C 261.114 108.005,261.225 107.656,261.259 107.542 C 261.379 107.150,261.621 107.332,261.540 107.752 M260.753 110.292 C 260.482 110.973,260.559 112.834,260.872 113.170 C 261.259 113.585,262.132 114.041,262.319 113.925 C 262.398 113.877,262.547 113.939,262.650 114.063 C 262.756 114.191,263.054 114.264,263.335 114.231 C 263.609 114.199,263.833 114.233,263.833 114.306 C 263.833 114.379,264.152 114.422,264.542 114.403 C 264.931 114.383,265.325 114.426,265.417 114.498 C 265.508 114.570,266.258 114.678,267.083 114.738 C 267.908 114.797,269.108 114.891,269.750 114.946 C 270.946 115.049,289.335 115.046,294.786 114.942 C 296.878 114.902,297.850 114.941,297.911 115.067 C 297.972 115.192,298.031 115.184,298.097 115.042 C 298.151 114.927,298.268 114.833,298.357 114.833 C 298.446 114.833,298.473 114.908,298.417 115.000 C 298.360 115.092,298.393 115.167,298.490 115.167 C 298.587 115.167,298.673 115.073,298.680 114.958 C 298.690 114.792,298.710 114.792,298.777 114.958 C 298.823 115.073,299.122 115.167,299.442 115.167 C 300.076 115.167,300.469 115.332,301.287 115.943 L 301.825 116.344 301.411 117.297 C 300.814 118.676,299.375 119.833,298.257 119.833 C 298.055 119.833,297.850 119.872,297.803 119.920 C 297.755 119.967,289.581 120.004,279.639 120.001 L 261.561 119.997 261.155 120.435 C 260.932 120.676,260.450 121.060,260.083 121.288 C 259.717 121.516,259.177 121.957,258.883 122.268 C 258.590 122.579,258.278 122.833,258.189 122.833 C 258.100 122.833,258.003 122.890,257.972 122.958 C 257.847 123.239,256.257 124.333,255.973 124.333 C 255.804 124.333,255.667 124.407,255.667 124.498 C 255.667 124.588,255.348 124.869,254.958 125.121 C 254.569 125.374,254.213 125.624,254.167 125.677 C 254.121 125.731,253.764 125.963,253.375 126.192 C 252.985 126.422,252.716 126.660,252.777 126.722 C 252.839 126.783,252.776 126.833,252.637 126.833 C 252.499 126.833,252.170 127.018,251.908 127.243 C 251.646 127.469,251.401 127.623,251.364 127.587 C 251.328 127.550,251.138 127.669,250.942 127.852 C 250.549 128.217,249.148 129.037,249.062 128.951 C 249.032 128.921,249.362 128.623,249.795 128.289 C 250.229 127.955,251.033 127.223,251.583 126.663 C 252.133 126.104,252.827 125.413,253.125 125.129 C 253.423 124.845,253.667 124.556,253.667 124.487 C 253.667 124.417,253.967 124.048,254.333 123.667 C 254.700 123.285,255.000 122.901,255.000 122.813 C 255.000 122.725,255.300 122.368,255.667 122.019 C 256.033 121.670,256.333 121.298,256.333 121.191 C 256.333 121.085,256.840 120.001,257.458 118.783 C 258.996 115.755,259.821 113.775,259.882 112.966 C 259.894 112.801,259.953 112.667,260.012 112.667 C 260.071 112.667,260.166 112.273,260.223 111.792 C 260.279 111.310,260.359 110.767,260.400 110.583 C 260.441 110.400,260.480 110.194,260.487 110.125 C 260.494 110.056,260.583 110.000,260.684 110.000 C 260.793 110.000,260.821 110.120,260.753 110.292 M203.796 115.501 C 204.857 116.148,204.866 117.134,203.819 118.181 C 202.701 119.299,201.259 119.414,200.577 118.440 C 199.469 116.858,202.093 114.462,203.796 115.501 " stroke="none" fill="#f8f2ee" fill-rule="evenodd"></path><path id="path2" d="M48.019 40.354 C 23.380 42.017,1.653 66.059,1.668 91.643 C 1.684 117.559,19.641 132.973,53.167 135.849 C 55.892 136.083,88.861 136.261,89.249 136.044 C 89.476 135.917,89.016 135.584,86.891 134.336 C 85.438 133.483,83.012 132.058,81.500 131.169 C 78.360 129.323,69.821 124.359,67.583 123.079 C 53.132 114.814,45.401 109.269,42.614 105.171 C 42.158 104.502,42.241 104.409,44.373 103.178 C 46.714 101.826,46.570 101.846,49.667 102.423 C 59.434 104.241,61.635 104.092,65.814 101.331 C 72.260 97.073,74.097 89.145,70.369 81.675 C 69.432 79.797,69.335 79.746,68.630 80.767 C 63.307 88.473,54.315 96.124,47.000 99.172 C 43.567 100.603,36.163 97.038,35.218 93.500 C 33.423 86.779,37.660 76.254,45.623 67.653 C 51.627 61.167,60.821 57.320,70.332 57.313 C 75.331 57.309,78.113 57.777,87.401 60.183 C 90.618 61.017,94.075 61.910,95.083 62.169 C 96.092 62.428,99.017 63.179,101.583 63.840 C 104.150 64.500,106.714 65.155,107.282 65.296 L 108.314 65.551 110.279 63.817 C 115.867 58.887,120.499 53.903,127.849 44.917 C 131.094 40.949,131.387 40.555,131.254 40.341 C 131.123 40.128,51.179 40.141,48.019 40.354 M389.525 66.958 C 389.440 67.119,389.178 67.962,388.941 68.833 C 388.705 69.704,388.359 70.860,388.172 71.401 C 387.986 71.943,387.833 72.486,387.833 72.609 C 387.833 72.856,396.245 72.949,396.590 72.706 C 396.686 72.638,396.980 71.796,397.244 70.833 C 397.507 69.871,397.891 68.583,398.097 67.972 C 398.303 67.360,398.428 66.816,398.374 66.763 C 398.094 66.483,389.678 66.668,389.525 66.958 M379.502 71.208 C 378.261 74.160,378.200 74.025,380.756 73.964 L 382.735 73.917 383.190 72.750 C 383.962 70.773,384.010 70.833,381.663 70.833 C 379.743 70.833,379.653 70.849,379.502 71.208 M395.917 73.657 L 394.250 73.750 393.860 74.917 C 393.645 75.558,393.335 76.571,393.171 77.167 C 393.006 77.762,392.820 78.375,392.756 78.529 C 392.542 79.046,393.135 79.137,395.975 79.025 L 398.701 78.917 399.274 77.000 C 399.589 75.946,399.891 74.727,399.945 74.292 L 400.042 73.500 398.813 73.532 C 398.137 73.550,396.833 73.606,395.917 73.657 M107.958 76.627 L 106.667 76.681 106.664 90.799 C 106.663 99.405,106.600 105.014,106.504 105.167 C 106.374 105.372,105.309 105.464,100.502 105.685 C 97.287 105.833,94.603 106.008,94.537 106.074 C 94.393 106.218,94.276 134.514,94.417 135.292 L 94.515 135.833 95.744 135.833 L 96.972 135.833 97.233 135.125 C 97.679 133.911,98.486 131.678,99.355 129.250 C 99.814 127.967,100.413 126.317,100.685 125.583 C 100.957 124.850,101.856 122.375,102.682 120.083 C 103.509 117.792,104.414 115.317,104.694 114.583 C 105.289 113.025,106.434 109.850,107.337 107.250 C 107.687 106.242,108.547 103.842,109.248 101.917 C 109.949 99.992,110.861 97.479,111.275 96.333 C 111.688 95.188,112.325 93.425,112.689 92.417 C 113.053 91.408,113.843 89.196,114.445 87.500 C 115.046 85.804,116.169 82.697,116.939 80.595 C 117.945 77.854,118.285 76.740,118.143 76.652 C 117.952 76.534,110.609 76.516,107.958 76.627 M216.750 77.260 C 197.534 79.062,188.033 85.742,184.841 99.692 C 184.478 101.282,183.841 103.971,183.426 105.667 C 182.729 108.519,182.410 109.756,181.016 115.000 C 177.841 126.950,184.722 133.925,201.667 135.933 C 206.709 136.531,219.960 136.422,225.527 135.738 C 243.929 133.477,255.489 124.778,258.734 110.750 C 259.052 109.375,259.499 107.500,259.727 106.583 C 262.136 96.908,262.500 95.082,262.500 92.671 C 262.500 83.552,255.439 78.708,239.917 77.180 C 237.267 76.919,219.738 76.979,216.750 77.260 M242.211 91.113 C 246.331 92.671,246.294 97.570,242.147 99.749 L 240.946 100.380 226.812 100.398 C 214.481 100.414,212.649 100.449,212.444 100.667 C 212.203 100.923,211.667 102.383,211.667 102.782 C 211.667 103.037,236.180 103.017,237.050 102.762 C 237.411 102.656,237.564 102.691,237.732 102.920 C 237.995 103.281,238.994 103.200,241.640 102.605 C 243.757 102.129,243.684 102.003,242.994 104.953 C 242.154 108.544,241.483 109.504,238.941 110.749 C 237.099 111.650,236.578 111.680,222.500 111.666 C 215.487 111.659,209.625 111.656,209.472 111.660 C 209.165 111.667,208.393 113.691,208.581 113.996 C 208.782 114.321,235.661 114.222,236.619 113.893 C 237.361 113.638,240.428 113.310,240.708 113.455 C 241.036 113.625,240.116 115.850,239.060 117.441 C 237.366 119.992,233.031 122.180,228.154 122.945 C 225.311 123.391,200.920 123.407,199.500 122.964 C 196.453 122.014,196.104 120.506,197.577 114.667 C 198.098 112.604,198.623 110.467,198.746 109.917 C 198.868 109.367,199.421 107.192,199.975 105.083 C 200.529 102.975,201.323 99.917,201.740 98.288 C 202.777 94.233,203.584 92.900,205.697 91.749 C 207.781 90.615,206.657 90.676,224.833 90.715 L 241.250 90.750 242.211 91.113 M206.881 95.375 C 205.376 96.438,205.282 98.349,206.711 98.820 C 208.704 99.478,210.940 96.561,209.381 95.335 C 208.781 94.863,207.579 94.882,206.881 95.375 M213.371 95.778 C 213.070 95.899,212.625 96.819,212.733 97.098 C 212.870 97.456,214.370 97.409,214.836 97.031 C 215.620 96.396,214.410 95.360,213.371 95.778 M204.056 105.752 C 202.666 106.586,202.325 108.210,203.358 109.079 C 204.936 110.406,207.825 108.076,207.063 106.091 C 206.757 105.293,205.128 105.110,204.056 105.752 M210.004 106.949 C 209.778 107.237,209.668 107.582,209.700 107.908 C 209.806 108.990,212.500 108.518,212.500 107.417 C 212.500 106.420,210.688 106.080,210.004 106.949 M322.172 106.635 C 322.169 106.755,322.100 106.812,322.019 106.762 C 321.938 106.712,320.869 107.002,319.644 107.407 C 318.419 107.812,315.961 108.564,314.182 109.079 C 312.403 109.594,310.528 110.170,310.015 110.358 C 308.863 110.781,304.408 112.363,302.500 113.026 C 300.729 113.642,300.667 113.708,301.503 114.085 C 302.351 114.467,303.159 115.367,303.190 115.964 C 303.236 116.866,303.130 117.715,302.895 118.310 C 302.658 118.911,302.778 118.832,303.282 118.056 C 303.454 117.790,303.482 117.836,303.490 118.403 C 303.496 118.762,303.545 119.010,303.601 118.955 C 303.656 118.899,303.881 119.048,304.101 119.285 C 304.320 119.522,304.500 119.652,304.500 119.574 C 304.500 119.497,304.587 119.520,304.693 119.626 C 305.261 120.194,303.419 120.848,291.667 124.249 C 289.879 124.766,288.004 125.327,287.500 125.495 C 286.996 125.662,285.121 126.262,283.333 126.827 C 281.546 127.392,278.921 128.224,277.500 128.676 C 276.079 129.128,273.904 129.790,272.667 130.147 C 266.009 132.069,264.174 132.606,261.667 133.368 C 260.154 133.827,258.176 134.425,257.271 134.696 C 256.365 134.968,255.212 135.372,254.708 135.595 C 254.204 135.818,253.693 136.000,253.572 136.000 C 253.452 136.000,253.304 136.079,253.245 136.174 C 253.048 136.494,297.816 136.279,300.167 135.949 C 307.745 134.885,312.637 132.987,316.917 129.451 C 322.879 124.525,326.121 113.760,323.328 108.166 C 322.817 107.143,322.181 106.300,322.172 106.635 M201.755 115.547 C 200.075 116.498,199.846 118.384,201.335 119.001 C 202.761 119.592,205.026 117.634,204.504 116.262 C 204.124 115.262,202.845 114.929,201.755 115.547 " stroke="none" fill="#fb6304" fill-rule="evenodd"></path><path id="path3" d="M129.583 76.818 C 129.051 76.897,128.906 76.994,128.863 77.299 C 128.816 77.629,128.320 79.632,126.852 85.417 C 126.666 86.150,124.934 93.125,123.002 100.917 C 118.568 118.806,114.380 135.517,114.240 135.882 C 114.020 136.456,114.808 136.500,125.229 136.500 C 136.928 136.500,135.830 136.683,136.245 134.667 C 136.406 133.887,136.989 131.487,137.541 129.333 C 138.094 127.179,138.583 125.229,138.628 125.000 C 138.729 124.493,139.514 121.409,140.007 119.583 C 140.205 118.850,140.622 117.167,140.933 115.844 C 141.244 114.520,141.592 113.378,141.707 113.305 C 141.986 113.128,166.790 113.128,166.899 113.305 C 166.946 113.381,166.620 114.900,166.175 116.680 C 164.248 124.382,163.979 125.443,163.840 125.917 C 163.189 128.130,161.291 136.180,161.395 136.284 C 161.468 136.357,165.815 136.442,171.055 136.473 C 186.344 136.564,189.338 136.378,186.750 135.498 C 180.721 133.447,177.003 128.647,176.720 122.550 C 176.612 120.232,176.680 119.687,177.453 116.667 C 177.979 114.610,179.634 107.778,180.582 103.750 C 182.384 96.086,183.341 92.924,184.667 90.250 C 187.184 85.171,191.942 81.140,199.014 78.093 C 202.245 76.701,202.190 76.694,187.968 76.681 C 178.062 76.672,176.318 76.706,176.113 76.911 C 175.980 77.043,175.334 79.349,174.676 82.034 C 173.432 87.116,171.793 93.667,171.120 96.250 L 170.729 97.750 158.402 97.833 L 146.076 97.917 144.996 98.690 C 143.299 99.905,139.424 103.204,135.500 106.773 C 134.171 107.982,132.859 109.147,132.584 109.361 L 132.085 109.750 132.417 109.244 C 132.600 108.966,133.725 107.275,134.917 105.486 C 136.108 103.697,138.396 100.227,140.000 97.776 C 141.604 95.326,143.896 91.842,145.093 90.035 C 146.290 88.228,147.660 86.112,148.138 85.333 C 148.615 84.554,149.524 83.129,150.157 82.167 C 152.768 78.194,153.376 77.143,153.176 76.943 C 152.971 76.738,130.920 76.622,129.583 76.818 M282.667 76.849 C 281.429 76.926,280.055 77.066,279.612 77.161 C 279.170 77.256,278.570 77.333,278.279 77.333 C 277.514 77.334,273.964 78.111,271.167 78.891 C 269.108 79.465,266.070 80.715,263.958 81.856 C 263.351 82.184,263.165 82.543,263.495 82.747 C 263.785 82.926,265.164 85.603,265.613 86.858 C 266.393 89.040,266.294 92.847,265.356 96.750 C 264.959 98.400,264.346 101.025,263.994 102.583 C 263.642 104.142,263.040 106.617,262.657 108.083 C 261.525 112.410,261.472 112.226,264.003 112.819 C 268.073 113.771,267.596 113.750,284.865 113.750 C 293.637 113.750,300.651 113.690,300.452 113.616 C 300.253 113.543,293.226 113.501,284.837 113.523 C 271.376 113.559,269.376 113.532,267.819 113.290 C 264.938 112.842,262.668 112.329,262.177 112.013 C 261.911 111.841,261.863 112.102,262.911 108.000 C 263.677 105.002,265.375 97.759,265.938 95.083 C 266.918 90.429,266.116 85.820,263.810 82.854 L 263.502 82.457 264.266 81.973 C 266.639 80.468,273.387 78.262,277.417 77.675 C 278.150 77.568,279.200 77.394,279.750 77.288 C 280.474 77.149,288.236 77.083,307.917 77.051 L 335.083 77.006 334.500 77.517 C 334.179 77.799,332.304 79.331,330.333 80.922 C 323.999 86.037,321.730 87.896,320.643 88.860 C 318.887 90.419,316.639 91.460,313.667 92.092 C 312.570 92.325,310.508 92.356,296.833 92.340 C 279.669 92.320,279.490 92.329,277.491 93.338 C 275.352 94.418,274.257 97.044,275.288 98.618 C 276.244 100.077,277.423 100.182,292.131 100.130 C 305.583 100.083,306.232 100.113,311.333 101.026 C 316.274 101.911,319.430 103.367,321.696 105.808 C 322.645 106.830,322.681 106.853,322.154 106.104 C 320.243 103.382,315.736 101.382,309.693 100.574 C 308.624 100.431,307.225 100.234,306.583 100.135 C 305.865 100.024,300.063 99.916,291.500 99.853 L 277.583 99.750 276.720 99.360 C 273.511 97.908,275.389 93.620,279.572 92.849 C 280.243 92.725,285.596 92.667,296.191 92.667 C 310.878 92.667,311.920 92.648,313.452 92.349 C 316.845 91.689,318.831 90.754,321.083 88.756 C 321.725 88.187,323.375 86.814,324.750 85.706 C 326.125 84.598,327.700 83.325,328.250 82.876 C 328.800 82.428,330.627 80.946,332.310 79.583 C 334.988 77.414,335.334 77.080,335.088 76.900 C 334.757 76.658,286.531 76.611,282.667 76.849 M345.000 76.841 C 340.993 76.998,338.537 77.892,335.667 80.238 C 334.796 80.949,332.958 82.430,331.583 83.528 C 330.208 84.626,328.117 86.325,326.935 87.304 C 325.754 88.283,324.291 89.467,323.685 89.936 C 322.066 91.190,320.949 92.282,321.075 92.487 C 321.153 92.612,324.388 92.667,331.815 92.667 C 337.661 92.667,342.485 92.707,342.534 92.756 C 342.583 92.805,342.292 94.136,341.888 95.714 C 339.304 105.800,338.084 110.623,337.746 112.083 C 337.397 113.593,334.751 124.245,333.006 131.167 C 331.667 136.477,331.700 136.264,332.190 136.384 C 332.796 136.532,351.853 136.518,352.394 136.369 C 352.866 136.240,354.831 129.137,357.084 119.417 C 357.868 116.035,359.031 111.277,359.875 108.000 C 361.177 102.945,362.643 96.940,363.086 94.847 C 363.308 93.801,363.548 92.888,363.619 92.819 C 363.691 92.749,365.962 92.662,368.667 92.624 C 376.390 92.515,376.480 92.475,383.085 86.346 C 383.636 85.835,384.944 84.667,385.992 83.750 C 389.738 80.473,391.000 79.292,391.000 79.065 C 391.000 78.873,390.190 78.833,386.250 78.833 C 383.637 78.833,381.500 78.777,381.499 78.708 C 381.499 78.640,381.628 78.223,381.785 77.782 C 382.009 77.158,382.027 76.953,381.866 76.853 C 381.616 76.699,348.895 76.688,345.000 76.841 M381.634 76.976 C 381.809 77.087,381.787 77.286,381.521 77.984 C 381.104 79.081,380.700 78.991,386.243 79.041 L 390.902 79.083 388.493 81.251 C 378.046 90.650,377.346 91.220,375.612 91.736 C 373.528 92.357,371.641 92.528,367.378 92.481 C 362.904 92.432,363.377 92.255,363.005 94.115 C 362.461 96.831,360.519 104.801,359.662 107.833 C 359.572 108.154,358.937 110.742,358.252 113.583 C 355.789 123.799,352.769 135.919,352.652 136.058 C 352.552 136.177,332.180 136.235,332.061 136.117 C 332.025 136.081,337.108 115.422,338.344 110.583 C 341.368 98.740,342.825 92.759,342.714 92.647 C 342.640 92.573,337.835 92.500,332.036 92.484 C 326.236 92.467,321.455 92.395,321.410 92.323 C 321.318 92.174,322.979 90.755,327.667 86.978 C 328.813 86.054,330.829 84.425,332.148 83.358 C 336.823 79.574,337.411 79.132,338.492 78.588 C 339.092 78.286,340.221 77.824,341.000 77.561 L 342.417 77.083 361.750 76.997 C 372.383 76.949,381.158 76.894,381.250 76.875 C 381.342 76.855,381.515 76.901,381.634 76.976 M153.000 77.164 C 153.000 77.349,152.186 78.699,150.734 80.925 C 150.193 81.755,149.188 83.307,148.500 84.375 C 146.518 87.453,141.589 94.980,136.497 102.705 C 133.915 106.621,131.832 109.913,131.867 110.019 C 131.931 110.209,133.009 109.306,136.487 106.150 C 139.255 103.637,144.281 99.413,145.383 98.673 L 146.385 98.000 158.602 98.000 L 170.819 98.000 171.150 96.875 C 171.601 95.338,173.337 88.539,174.161 85.083 C 174.533 83.525,175.119 81.087,175.464 79.667 L 176.091 77.083 188.296 77.041 C 195.145 77.017,200.500 77.062,200.500 77.143 C 200.500 77.223,200.144 77.421,199.708 77.584 C 193.727 79.822,188.251 83.969,185.415 88.407 C 183.572 91.292,182.566 94.507,179.498 107.333 C 179.224 108.479,178.459 111.592,177.799 114.250 C 175.880 121.974,176.030 125.428,178.453 129.318 C 180.130 132.008,184.176 135.103,186.875 135.758 C 187.856 135.996,187.248 136.167,185.375 136.179 C 181.309 136.204,161.586 136.142,161.548 136.104 C 161.526 136.082,162.261 133.068,163.182 129.407 C 164.103 125.746,165.382 120.662,166.023 118.109 C 166.665 115.557,167.150 113.363,167.100 113.234 C 166.946 112.833,141.571 112.889,141.356 113.292 C 141.271 113.452,140.968 114.633,140.683 115.917 C 140.399 117.200,139.903 119.225,139.581 120.417 C 139.260 121.608,138.836 123.258,138.640 124.083 C 138.444 124.908,137.890 127.092,137.408 128.936 C 136.927 130.779,136.367 133.067,136.165 134.019 C 135.962 134.971,135.770 135.844,135.737 135.958 C 135.695 136.105,135.195 136.172,134.047 136.185 C 130.175 136.228,114.601 136.157,114.540 136.096 C 114.477 136.033,117.282 124.618,118.331 120.667 C 118.586 119.704,119.147 117.454,119.578 115.667 C 121.779 106.529,122.181 104.877,122.320 104.417 C 122.571 103.579,125.435 92.143,126.326 88.417 C 126.787 86.492,127.306 84.392,127.479 83.750 C 127.653 83.108,128.073 81.421,128.412 80.000 C 128.752 78.579,129.058 77.323,129.093 77.208 C 129.174 76.943,153.000 76.899,153.000 77.164 M219.881 92.290 C 220.412 92.323,221.237 92.323,221.714 92.289 C 222.192 92.256,221.758 92.229,220.750 92.229 C 219.742 92.229,219.351 92.257,219.881 92.290 M224.131 92.290 C 224.615 92.324,225.365 92.323,225.797 92.289 C 226.230 92.255,225.833 92.227,224.917 92.228 C 224.000 92.228,223.646 92.256,224.131 92.290 M168.544 96.786 C 168.797 96.825,169.172 96.824,169.377 96.784 C 169.582 96.744,169.375 96.713,168.917 96.714 C 168.458 96.716,168.291 96.748,168.544 96.786 M119.186 109.454 C 119.208 109.928,119.279 110.284,119.344 110.243 C 119.504 110.145,119.452 108.896,119.282 108.726 C 119.207 108.652,119.164 108.979,119.186 109.454 M260.545 111.667 C 260.545 112.079,260.578 112.248,260.618 112.042 C 260.657 111.835,260.657 111.498,260.618 111.292 C 260.578 111.085,260.545 111.254,260.545 111.667 M297.042 114.948 C 297.202 114.990,297.465 114.990,297.625 114.948 C 297.785 114.906,297.654 114.872,297.333 114.872 C 297.012 114.872,296.881 114.906,297.042 114.948 M271.458 115.118 C 271.665 115.157,272.002 115.157,272.208 115.118 C 272.415 115.078,272.246 115.045,271.833 115.045 C 271.421 115.045,271.252 115.078,271.458 115.118 M277.125 115.118 C 277.331 115.157,277.669 115.157,277.875 115.118 C 278.081 115.078,277.912 115.045,277.500 115.045 C 277.087 115.045,276.919 115.078,277.125 115.118 M234.375 115.619 C 234.627 115.658,235.040 115.658,235.292 115.619 C 235.544 115.581,235.338 115.550,234.833 115.550 C 234.329 115.550,234.123 115.581,234.375 115.619 M302.594 118.633 C 302.427 119.158,301.376 120.140,300.508 120.579 C 299.070 121.308,298.452 121.331,280.062 121.332 L 262.541 121.333 260.562 122.924 C 259.474 123.799,257.946 124.941,257.167 125.463 C 256.387 125.984,254.992 126.948,254.065 127.605 C 249.594 130.775,243.764 133.683,238.583 135.327 C 236.770 135.902,236.443 136.091,236.835 136.336 C 237.104 136.503,252.960 136.429,253.129 136.259 C 253.184 136.205,249.654 136.176,245.285 136.195 C 240.916 136.214,237.297 136.186,237.243 136.132 C 237.189 136.078,237.656 135.866,238.281 135.661 C 243.664 133.891,249.532 131.011,253.634 128.126 C 254.431 127.565,255.904 126.551,256.907 125.872 C 257.910 125.193,259.608 123.933,260.680 123.073 L 262.629 121.509 280.939 121.463 C 301.216 121.412,299.547 121.505,301.254 120.331 C 301.991 119.824,302.975 118.586,302.790 118.401 C 302.739 118.350,302.651 118.455,302.594 118.633 M113.709 131.456 C 113.725 131.753,113.799 131.935,113.874 131.860 C 113.949 131.785,113.936 131.542,113.846 131.320 C 113.691 130.940,113.683 130.948,113.709 131.456 M112.875 134.610 C 112.615 134.715,112.602 135.273,112.855 135.430 C 112.970 135.501,113.011 135.456,112.961 135.315 C 112.915 135.188,112.946 134.952,113.028 134.792 C 113.111 134.631,113.157 134.506,113.131 134.513 C 113.105 134.520,112.990 134.564,112.875 134.610 M179.042 137.615 C 179.202 137.657,179.465 137.657,179.625 137.615 C 179.785 137.573,179.654 137.539,179.333 137.539 C 179.012 137.539,178.881 137.573,179.042 137.615 M341.794 137.618 C 342.001 137.658,342.301 137.656,342.460 137.615 C 342.620 137.573,342.450 137.540,342.083 137.542 C 341.717 137.544,341.586 137.578,341.794 137.618 " stroke="none" fill="#9b9795" fill-rule="evenodd"></path><path id="path4" d="M282.960 77.118 C 283.168 77.158,283.468 77.156,283.627 77.115 C 283.786 77.073,283.617 77.040,283.250 77.042 C 282.883 77.044,282.753 77.078,282.960 77.118 M381.311 79.045 C 381.381 79.115,383.384 79.152,385.761 79.128 L 390.083 79.083 385.633 79.000 C 383.185 78.954,381.241 78.974,381.311 79.045 M386.406 83.042 L 385.917 83.583 386.458 83.094 C 386.963 82.638,387.077 82.500,386.948 82.500 C 386.919 82.500,386.675 82.744,386.406 83.042 M189.573 83.542 L 189.083 84.083 189.625 83.594 C 189.923 83.325,190.167 83.081,190.167 83.052 C 190.167 82.923,190.029 83.037,189.573 83.542 M383.906 85.208 L 383.417 85.750 383.958 85.260 C 384.463 84.804,384.577 84.667,384.448 84.667 C 384.419 84.667,384.175 84.910,383.906 85.208 M325.658 88.625 L 325.083 89.250 325.708 88.676 C 326.290 88.141,326.410 88.000,326.283 88.000 C 326.255 88.000,325.974 88.281,325.658 88.625 M266.397 91.083 C 266.397 92.183,266.424 92.612,266.457 92.035 C 266.490 91.459,266.489 90.559,266.456 90.035 C 266.423 89.512,266.397 89.983,266.397 91.083 M321.755 91.828 C 321.147 92.463,321.311 92.531,323.263 92.458 L 324.750 92.402 323.094 92.368 L 321.438 92.333 321.917 91.833 C 322.180 91.558,322.358 91.333,322.312 91.333 C 322.267 91.333,322.016 91.556,321.755 91.828 M309.461 92.454 C 309.761 92.491,310.211 92.490,310.461 92.452 C 310.712 92.414,310.467 92.384,309.917 92.385 C 309.367 92.386,309.162 92.417,309.461 92.454 M330.637 92.458 C 332.866 92.484,336.466 92.484,338.637 92.458 C 340.807 92.432,338.983 92.410,334.583 92.410 C 330.183 92.410,328.407 92.432,330.637 92.458 M366.458 92.458 C 367.490 92.487,369.177 92.487,370.208 92.458 C 371.240 92.429,370.396 92.405,368.333 92.405 C 366.271 92.405,365.427 92.429,366.458 92.458 M152.375 98.125 C 155.744 98.150,161.256 98.150,164.625 98.125 C 167.994 98.100,165.237 98.079,158.500 98.079 C 151.762 98.079,149.006 98.100,152.375 98.125 M295.708 100.125 C 296.969 100.153,299.031 100.153,300.292 100.125 C 301.552 100.096,300.521 100.073,298.000 100.073 C 295.479 100.073,294.448 100.096,295.708 100.125 M305.042 100.282 C 305.785 100.476,305.201 100.802,300.667 102.723 C 295.114 105.074,293.624 105.618,285.500 108.256 C 280.235 109.966,279.077 110.530,279.102 111.375 C 279.113 111.719,279.065 112.000,278.996 112.000 C 278.927 112.000,278.881 112.123,278.894 112.273 C 278.908 112.445,278.701 112.621,278.333 112.749 C 277.857 112.916,277.811 112.968,278.083 113.033 C 278.604 113.158,276.007 113.262,275.167 113.150 C 274.603 113.075,274.541 113.043,274.917 113.020 C 275.344 112.994,275.374 112.965,275.122 112.818 C 274.807 112.635,273.387 112.778,273.245 113.008 C 273.199 113.082,272.731 113.201,272.206 113.272 L 271.250 113.400 272.000 113.514 C 272.412 113.577,279.156 113.594,286.985 113.551 L 301.221 113.473 302.569 113.003 C 304.498 112.331,308.920 110.760,310.015 110.358 C 310.528 110.170,312.403 109.594,314.182 109.079 C 315.961 108.564,318.419 107.812,319.644 107.407 C 320.869 107.002,321.938 106.712,322.019 106.762 C 322.100 106.812,322.167 106.733,322.167 106.586 C 322.167 105.899,319.619 103.825,317.376 102.686 C 315.888 101.931,311.934 101.046,307.613 100.500 C 305.052 100.176,304.439 100.124,305.042 100.282 M137.742 105.042 L 137.083 105.750 137.792 105.091 C 138.450 104.478,138.577 104.333,138.450 104.333 C 138.423 104.333,138.105 104.652,137.742 105.042 M133.000 109.250 C 132.595 109.662,132.301 110.000,132.347 110.000 C 132.393 110.000,132.762 109.662,133.167 109.250 C 133.572 108.837,133.865 108.500,133.819 108.500 C 133.774 108.500,133.405 108.837,133.000 109.250 M145.281 112.958 C 147.039 112.985,149.964 112.985,151.781 112.958 C 153.597 112.931,152.158 112.909,148.583 112.909 C 145.008 112.909,143.522 112.931,145.281 112.958 M269.208 113.448 C 269.369 113.490,269.631 113.490,269.792 113.448 C 269.952 113.406,269.821 113.372,269.500 113.372 C 269.179 113.372,269.048 113.406,269.208 113.448 M302.960 118.528 C 302.167 119.876,300.116 121.311,298.926 121.350 C 298.442 121.366,298.437 121.372,298.832 121.482 C 299.474 121.661,298.956 121.841,291.833 123.914 C 290.046 124.434,286.858 125.409,284.750 126.080 C 278.056 128.210,274.040 129.442,269.500 130.756 C 260.912 133.243,257.082 134.405,254.833 135.208 C 253.779 135.584,252.842 135.963,252.750 136.049 C 252.466 136.318,253.752 136.018,254.723 135.588 C 255.219 135.369,256.365 134.968,257.271 134.696 C 258.176 134.425,260.154 133.827,261.667 133.368 C 264.174 132.606,266.009 132.069,272.667 130.147 C 273.904 129.790,276.079 129.128,277.500 128.676 C 278.921 128.224,281.546 127.392,283.333 126.827 C 285.121 126.262,286.996 125.662,287.500 125.495 C 288.004 125.327,289.879 124.766,291.667 124.249 C 303.419 120.848,305.261 120.194,304.693 119.626 C 304.587 119.520,304.500 119.497,304.500 119.574 C 304.500 119.652,304.313 119.513,304.083 119.266 C 303.854 119.018,303.656 118.876,303.643 118.950 C 303.630 119.023,303.574 118.783,303.518 118.417 L 303.417 117.750 302.960 118.528 M176.392 121.667 C 176.392 122.446,176.420 122.765,176.455 122.375 C 176.490 121.985,176.490 121.348,176.455 120.958 C 176.420 120.569,176.392 120.888,176.392 121.667 M260.750 123.010 C 259.742 123.831,258.054 125.089,257.000 125.804 C 255.946 126.520,254.431 127.564,253.634 128.125 C 250.453 130.364,244.928 133.252,241.119 134.668 C 239.908 135.118,239.053 135.489,239.220 135.493 C 239.528 135.500,240.139 135.983,239.887 136.020 C 239.375 136.093,240.994 136.293,242.083 136.291 C 242.817 136.289,243.248 136.255,243.042 136.216 C 242.354 136.083,242.655 135.889,243.875 135.677 C 244.540 135.561,246.246 135.097,247.667 134.645 C 253.307 132.851,253.522 132.787,257.750 131.661 C 258.850 131.368,261.294 130.688,263.182 130.150 C 265.070 129.611,267.470 128.953,268.515 128.687 C 271.106 128.028,276.997 126.427,279.333 125.748 C 280.387 125.442,282.450 124.881,283.917 124.502 C 285.383 124.123,287.296 123.596,288.167 123.331 C 289.037 123.066,290.442 122.700,291.287 122.517 C 292.132 122.333,292.995 122.091,293.204 121.979 C 293.412 121.866,294.483 121.724,295.583 121.664 C 296.683 121.603,289.708 121.545,280.083 121.535 L 262.583 121.517 260.750 123.010 M126.042 136.288 C 126.385 136.324,126.948 136.324,127.292 136.288 C 127.635 136.252,127.354 136.223,126.667 136.223 C 125.979 136.223,125.698 136.252,126.042 136.288 M182.208 136.286 C 182.460 136.324,182.873 136.324,183.125 136.286 C 183.377 136.248,183.171 136.217,182.667 136.217 C 182.162 136.217,181.956 136.248,182.208 136.286 " stroke="none" fill="#95441a" fill-rule="evenodd"></path></g></svg>